<?xml version="1.0" standalone="no"?>
<!DOCTYPE svg PUBLIC "-//W3C//DTD SVG 20010904//EN"
 "http://www.w3.org/TR/2001/REC-SVG-20010904/DTD/svg10.dtd">
<svg version="1.0" xmlns="http://www.w3.org/2000/svg"
 width="900.000000pt" height="506.000000pt" viewBox="0 0 900.000000 506.000000"
 preserveAspectRatio="xMidYMid meet">

<g transform="translate(0.000000,506.000000) scale(0.100000,-0.100000)"
fill="#000000" stroke="none">
<path d="M565 5040 c12 -13 22 -17 28 -11 13 13 -1 31 -25 31 -21 0 -21 -1 -3
-20z"/>
<path d="M677 5040 c10 -10 21 -16 25 -14 4 3 9 0 13 -6 4 -6 11 -8 16 -5 5 4
9 -1 9 -10 0 -9 4 -14 9 -11 5 3 11 -3 14 -14 3 -11 12 -20 21 -20 9 0 16 -8
16 -17 1 -16 2 -16 10 -2 7 11 3 32 -12 68 l-22 51 -58 -1 c-56 -2 -58 -2 -41
-19z"/>
<path d="M830 5045 c0 -8 -4 -15 -10 -15 -5 0 -10 -5 -10 -11 0 -13 30 -44 43
-44 6 0 12 -6 15 -12 2 -7 -1 -13 -7 -13 -6 0 -11 -6 -11 -12 0 -17 58 -108
68 -108 11 0 43 56 35 63 -3 4 -12 -1 -20 -11 -8 -11 -12 -12 -11 -3 2 7 -2
15 -9 18 -7 3 -9 -3 -6 -18 5 -16 3 -20 -6 -14 -7 4 -11 16 -8 26 3 10 1 22
-4 25 -5 3 -9 11 -9 17 0 8 3 7 9 -2 7 -11 9 -11 14 0 4 10 6 10 6 -2 1 -17
62 -36 80 -24 13 8 51 88 51 109 0 9 -6 23 -12 30 -28 29 -58 -63 -34 -102 4
-7 3 -12 -3 -12 -5 0 -13 5 -16 10 -4 6 -15 8 -26 5 -20 -7 -27 9 -9 20 6 4 7
11 4 17 -5 7 -10 3 -15 -10 -5 -12 -13 -22 -19 -22 -6 0 -5 11 4 29 17 31 12
39 -41 69 -30 16 -43 15 -43 -3z"/>
<path d="M890 5055 c0 -2 9 -9 19 -14 14 -8 20 -7 25 4 4 11 -2 15 -19 15 -14
0 -25 -2 -25 -5z"/>
<path d="M962 5051 c-8 -5 -12 -17 -10 -27 3 -15 6 -14 21 9 18 27 13 34 -11
18z"/>
<path d="M1661 5044 c7 -9 14 -23 16 -32 1 -9 9 -22 17 -28 9 -6 13 -14 9 -18
-4 -4 3 -9 15 -12 28 -8 25 -41 -8 -71 -14 -12 -20 -23 -15 -23 30 -4 49 -10
58 -19 6 -6 20 -11 32 -12 20 0 20 0 0 -9 -24 -10 -2 -13 33 -4 28 8 28 21 0
51 -13 14 -17 23 -9 23 8 0 11 6 7 15 -3 8 0 15 6 15 6 0 2 10 -10 23 -12 13
-22 29 -22 35 0 7 -12 12 -26 12 -19 0 -25 4 -21 15 4 8 1 17 -5 21 -7 5 -8 2
-3 -6 6 -10 4 -12 -9 -7 -10 4 -15 3 -11 -3 3 -6 -1 -10 -9 -10 -9 0 -16 8
-16 18 0 19 -18 42 -33 42 -5 0 -3 -7 4 -16z"/>
<path d="M1715 5050 c3 -5 11 -10 16 -10 6 0 7 5 4 10 -3 6 -11 10 -16 10 -6
0 -7 -4 -4 -10z"/>
<path d="M2240 5040 c13 -24 35 -27 26 -4 -3 9 -6 18 -6 20 0 2 -7 4 -15 4
-13 0 -14 -4 -5 -20z"/>
<path d="M2270 5050 c0 -5 17 -12 38 -15 62 -11 64 -12 52 -35 -8 -15 -8 -20
2 -20 8 -1 5 -7 -6 -15 -19 -14 -18 -15 11 -15 38 0 53 -34 22 -51 -14 -7 -18
-16 -14 -30 5 -14 0 -21 -16 -27 -15 -6 -18 -11 -11 -16 7 -4 12 -14 12 -22 0
-11 -6 -13 -22 -8 -21 6 -22 5 -8 -11 14 -17 13 -18 -24 -11 -36 7 -38 6 -27
-8 8 -9 20 -16 28 -16 11 0 13 -7 9 -24 -4 -15 -1 -26 7 -29 7 -3 5 -6 -5 -6
-10 -1 -18 -6 -18 -12 0 -5 -10 -9 -22 -7 -13 2 -22 -2 -21 -8 1 -6 -17 -20
-40 -30 -42 -18 -73 -42 -71 -53 1 -3 -1 -12 -4 -19 -7 -21 2 -22 33 -6 l30
15 -27 -26 c-16 -14 -28 -30 -28 -35 0 -12 63 15 68 29 4 13 72 44 80 37 2 -3
-11 -11 -30 -19 -32 -13 -69 -50 -82 -80 -3 -9 -6 -9 -13 0 -6 8 -14 9 -23 3
-10 -7 -11 -10 -2 -10 6 0 12 -7 12 -16 0 -9 5 -12 11 -8 7 4 25 8 41 10 27 3
28 2 13 -12 -14 -15 -14 -17 2 -29 11 -9 22 -10 28 -4 15 14 24 11 22 -10 0
-10 -6 -17 -12 -15 -6 3 -40 -11 -76 -29 -62 -33 -67 -34 -95 -19 -16 8 -36
21 -46 29 -15 13 -15 11 -2 -28 8 -23 12 -44 8 -48 -4 -3 -9 0 -11 7 -3 7 -11
19 -20 27 -8 8 -11 19 -8 25 3 5 -1 10 -9 10 -9 0 -16 -4 -16 -10 0 -5 -7 -10
-16 -10 -11 0 -15 6 -11 20 3 11 1 18 -3 15 -5 -3 -11 -1 -15 5 -3 5 -2 10 3
10 13 0 21 35 15 60 -4 16 -8 18 -19 9 -18 -15 -32 -3 -16 13 21 21 13 28 -33
28 -33 0 -45 4 -45 15 0 9 -9 15 -22 15 -27 0 -55 16 -46 25 3 4 15 2 26 -4
31 -16 42 -14 52 14 7 18 17 25 35 25 15 0 24 4 21 9 -7 10 -83 7 -93 -3 -4
-3 1 -6 10 -6 10 0 17 -5 17 -10 0 -6 -15 -9 -35 -7 -19 3 -35 0 -35 -4 0 -5
-6 -9 -14 -9 -8 0 -16 -3 -19 -7 -2 -5 -2 -2 0 6 2 8 -2 11 -12 7 -8 -3 -15
-1 -15 5 0 6 -5 7 -10 4 -6 -4 -8 -12 -4 -18 3 -7 -2 -3 -10 7 -9 11 -16 23
-16 28 0 4 -9 8 -20 8 -28 0 -36 27 -15 50 21 23 19 24 -24 9 -40 -14 -39 -33
4 -62 19 -13 53 -52 76 -87 32 -50 43 -60 51 -49 8 11 9 11 4 -3 -9 -31 169
-159 191 -137 7 7 16 5 27 -6 9 -9 20 -13 26 -10 5 3 10 2 10 -4 0 -14 35 -23
109 -30 69 -6 72 -9 90 -78 6 -23 20 -52 31 -65 10 -13 33 -39 49 -59 17 -20
31 -38 31 -40 0 -2 -50 -3 -111 -2 l-111 2 -21 43 c-18 35 -34 49 -93 78 -39
20 -83 46 -99 58 -15 12 -33 22 -39 22 -6 0 -28 11 -49 25 -20 14 -37 21 -37
16 0 -5 -15 -11 -32 -13 -19 -2 -32 -8 -31 -15 2 -7 -3 -10 -10 -7 -17 6 -82
-52 -68 -61 12 -7 15 -35 4 -35 -11 0 -43 58 -43 78 0 14 -2 14 -9 3 -5 -8 -7
-19 -5 -25 3 -7 -5 -12 -16 -13 -11 -1 -20 2 -20 8 0 5 4 9 8 9 5 0 8 46 8
103 1 56 4 116 8 134 7 26 3 38 -19 67 -18 24 -29 52 -32 84 -2 26 -6 57 -9
69 -5 24 -60 93 -75 93 -12 0 -11 -37 2 -62 8 -14 8 -18 0 -14 -6 4 -20 2 -32
-4 -17 -10 -27 -7 -60 14 -21 14 -42 26 -46 26 -5 0 -2 -4 5 -9 12 -7 18 -25
21 -54 1 -5 6 -5 11 -2 6 3 10 -1 10 -9 0 -10 -9 -16 -25 -16 -14 0 -28 -1
-32 -2 -5 -2 -9 7 -11 19 -2 14 3 23 15 26 13 4 12 5 -7 7 -14 1 -31 2 -37 1
-16 -2 -16 9 0 30 7 9 19 14 27 11 13 -4 13 -3 2 11 -16 19 -43 12 -35 -10 4
-11 2 -14 -5 -9 -7 4 -21 4 -32 1 -16 -5 -20 -15 -20 -46 0 -21 -4 -39 -10
-39 -5 0 -8 14 -6 30 2 21 -1 30 -11 30 -8 0 -11 4 -8 10 4 6 -2 7 -18 1 -32
-12 -50 4 -36 32 8 14 8 18 0 13 -6 -4 -11 0 -11 9 0 9 4 14 8 11 5 -3 16 4
25 15 15 17 15 20 2 25 -8 4 -15 11 -15 16 0 6 8 7 18 3 10 -4 13 -3 7 3 -5 5
-25 12 -43 16 -31 5 -34 3 -48 -29 -8 -19 -14 -53 -14 -75 0 -39 -12 -52 -26
-28 -4 7 -3 8 4 4 7 -4 12 -2 12 3 0 16 -20 13 -26 -4 -7 -18 -31 -20 -47 -2
-16 16 -15 33 2 49 8 7 11 8 8 2 -4 -6 0 -19 7 -29 12 -16 14 -14 24 24 10 42
10 43 -14 37 -21 -6 -23 -4 -15 16 5 15 17 23 31 23 13 0 25 7 28 15 5 13 3
13 -11 1 -15 -12 -17 -11 -17 5 0 16 -5 13 -25 -11 -13 -16 -24 -36 -25 -42 0
-7 -11 -13 -24 -13 -41 0 -72 46 -39 57 7 3 10 -5 7 -19 -5 -21 -5 -22 7 -4
10 16 9 22 -7 33 -39 29 -50 6 -28 -64 2 -8 -5 -13 -19 -12 -12 0 -17 3 -11 5
8 3 10 19 7 43 -3 21 -1 47 5 58 9 15 6 22 -11 33 -12 8 -29 16 -37 17 -8 1
-26 5 -40 8 -19 5 -21 4 -10 -4 8 -5 11 -13 8 -16 -4 -4 -17 0 -30 9 -31 22
-48 20 -21 -3 12 -10 20 -21 17 -23 -2 -3 6 -20 19 -39 36 -53 69 -130 63
-146 -7 -17 -54 -14 -74 5 -7 6 -20 12 -28 12 -8 0 -12 5 -9 10 3 6 2 10 -3
10 -13 0 -24 -29 -15 -42 4 -7 1 -8 -6 -3 -7 4 -11 16 -8 26 3 10 -1 23 -9 30
-10 8 -14 8 -14 0 0 -6 6 -11 13 -11 9 0 9 -2 0 -8 -18 -11 -9 -69 15 -95 12
-13 19 -26 16 -30 -11 -11 -51 47 -58 85 -4 21 -12 40 -18 44 -7 5 -9 -4 -4
-31 5 -25 4 -35 -3 -30 -6 3 -11 12 -11 19 0 8 -7 19 -15 26 -8 7 -15 27 -15
44 0 21 -7 36 -21 44 -13 9 -19 20 -16 32 3 12 -5 28 -24 44 -16 15 -29 32
-29 39 0 8 -11 24 -24 36 l-23 22 -6 -28 c-4 -15 -9 -38 -13 -50 -5 -20 -3
-23 21 -23 l28 0 -24 -23 c-13 -13 -26 -22 -28 -20 -2 2 -10 -6 -18 -17 -15
-22 -33 -27 -33 -9 0 5 4 7 10 4 5 -3 10 -1 10 4 0 6 0 14 0 19 0 4 -5 7 -12
7 -17 0 -20 -46 -4 -64 11 -12 14 -31 10 -66 -3 -28 -7 -62 -8 -78 -2 -15 -6
-30 -10 -34 -3 -3 -6 -16 -6 -27 0 -17 -2 -18 -10 -6 -5 8 -7 23 -4 32 7 23
-13 59 -30 52 -8 -3 -18 7 -25 25 -6 17 -16 45 -22 61 -6 17 -19 30 -28 31
-10 0 -11 2 -3 6 14 5 17 23 4 23 -5 0 -17 -19 -26 -42 -76 -183 -90 -234 -65
-226 7 2 24 -8 38 -22 41 -38 70 -60 81 -60 6 0 10 -6 10 -12 0 -7 17 -28 37
-46 21 -19 30 -31 21 -28 -9 3 -19 -2 -22 -11 -5 -12 -9 -13 -21 -3 -12 10
-18 10 -30 0 -12 -10 -15 -10 -15 0 0 16 -42 60 -57 60 -19 0 -27 21 -12 31
20 12 0 41 -33 50 -24 6 -27 3 -38 -36 -9 -33 -9 -48 0 -64 10 -19 9 -22 -6
-19 -29 5 -53 -113 -54 -257 0 -74 4 -125 11 -132 8 -8 8 -13 0 -17 -7 -5 -11
-61 -11 -160 0 -151 0 -154 22 -160 42 -11 158 -6 236 10 42 9 98 17 123 18
49 3 98 28 179 93 91 72 202 184 164 165 -12 -6 -25 -8 -29 -4 -5 4 -5 0 0 -8
5 -10 5 -11 -2 -5 -16 17 -33 64 -24 69 4 3 6 51 5 108 -3 72 -1 98 6 86 6 -9
19 -15 29 -13 21 4 28 -16 39 -123 4 -34 12 -63 17 -64 18 -2 53 73 59 126 13
114 16 276 5 276 -9 0 -9 4 0 14 9 10 8 16 -4 26 -14 12 -21 40 -9 40 3 0 14
-5 25 -10 10 -6 19 -7 19 -2 0 4 7 17 15 28 15 18 15 18 9 -7 -4 -21 -1 -27
16 -32 24 -6 23 -32 -1 -32 -22 0 -28 -23 -28 -111 l-1 -82 34 8 c18 4 38 10
44 14 12 7 5 37 -12 48 -7 5 -4 8 7 8 27 0 96 -42 103 -63 3 -10 17 -22 30
-27 27 -11 31 -28 9 -36 -8 -4 -15 -11 -15 -16 0 -6 6 -8 14 -5 8 3 24 -4 37
-16 13 -12 28 -22 33 -22 12 0 56 -74 56 -94 0 -10 -8 -12 -29 -8 -15 3 -33 1
-39 -5 -15 -15 -35 1 -29 22 3 12 0 17 -8 14 -7 -3 -15 2 -19 11 -3 9 -10 14
-14 11 -5 -3 -14 6 -20 19 -7 14 -15 25 -19 26 -43 4 -63 3 -63 -3 0 -8 17
-12 35 -8 5 1 7 -2 2 -6 -4 -4 7 -23 25 -41 34 -35 34 -35 -47 1 -22 10 -52
16 -70 13 -42 -6 -55 1 -56 31 0 24 -2 22 -15 -13 -22 -57 -13 -155 20 -226
14 -31 27 -74 29 -95 l2 -39 -42 -3 c-24 -2 -43 -7 -43 -11 0 -4 -46 -11 -102
-14 -57 -4 -139 -14 -183 -23 -44 -8 -116 -19 -160 -23 -44 -4 -89 -13 -100
-19 -11 -6 -44 -18 -72 -27 -29 -9 -53 -21 -53 -26 0 -5 -5 -9 -12 -9 -7 0
-38 -8 -70 -17 l-58 -17 0 -1768 0 -1768 4500 0 4500 0 0 1448 0 1449 -51 11
c-197 46 -510 -48 -679 -203 -38 -35 -63 -47 -157 -75 -66 -19 -110 -37 -106
-43 3 -6 1 -7 -5 -3 -6 3 -30 -1 -54 -10 -24 -8 -63 -22 -87 -30 -25 -8 -52
-21 -61 -29 -9 -8 -19 -13 -22 -10 -15 15 -233 -99 -298 -154 l-35 -30 55 15
c66 18 86 25 171 57 50 20 66 22 66 12 0 -8 -3 -12 -7 -10 -4 2 -36 -11 -72
-30 -37 -18 -69 -31 -72 -28 -3 4 -6 1 -6 -6 0 -7 -5 -9 -11 -5 -6 3 -15 0
-20 -7 -4 -8 -12 -14 -16 -14 -4 0 -32 -19 -61 -43 -30 -23 -58 -42 -63 -42
-5 0 -8 -3 -6 -7 2 -9 -6 -13 -24 -13 -7 0 1 10 17 22 16 12 31 23 33 25 3 2
-1 9 -7 15 -9 9 -12 9 -12 0 0 -7 -9 -12 -21 -12 -19 0 -136 -106 -155 -141
-8 -14 -27 -15 -154 -9 -195 9 -382 -10 -484 -49 -25 -10 -27 -13 -15 -29 13
-16 13 -16 -5 -2 -24 19 -41 16 -124 -21 -111 -50 -139 -74 -218 -187 -1 -2
-66 -26 -144 -53 -77 -26 -144 -51 -149 -53 -5 -3 -11 -16 -13 -29 l-4 -22 47
15 c26 8 45 17 43 19 -6 6 98 53 126 57 60 8 91 17 97 27 4 6 1 7 -7 2 -9 -5
-11 -4 -6 3 4 7 18 12 31 12 13 0 31 7 39 16 15 14 16 13 16 -11 0 -14 -6 -27
-12 -29 -7 -2 -32 -9 -55 -15 -34 -9 -43 -17 -44 -34 0 -12 -3 -16 -6 -9 -4
10 -9 10 -23 -3 -12 -11 -20 -13 -25 -6 -10 17 -25 13 -25 -8 0 -23 -64 -49
-76 -30 -3 5 -10 7 -15 3 -5 -3 -7 -10 -3 -16 3 -5 -2 -9 -12 -8 -34 4 -44 0
-44 -16 0 -11 -6 -14 -20 -9 -14 4 -20 2 -20 -8 0 -11 -7 -13 -22 -9 -15 4
-19 2 -13 -7 5 -10 2 -11 -14 -6 -13 4 -21 2 -21 -5 0 -6 -30 -25 -66 -41 -72
-33 -106 -33 -124 1 -9 16 -5 21 22 35 49 24 71 42 65 57 -2 7 5 23 16 35 l20
22 -84 -23 c-123 -35 -162 -53 -154 -74 3 -9 3 -13 -1 -9 -4 4 -16 -5 -26 -20
-10 -16 -18 -22 -18 -14 0 8 -8 4 -21 -10 -11 -13 -18 -18 -14 -12 5 10 0 11
-21 3 -32 -13 -42 -6 -24 15 12 15 10 15 -16 4 -16 -7 -35 -17 -42 -22 -7 -6
-15 -7 -18 -4 -3 3 4 10 15 17 26 13 26 35 2 86 -22 43 -59 85 -97 111 -22 14
-27 14 -34 2 -5 -8 -22 -15 -37 -15 -44 -3 -45 -3 -40 -18 4 -10 1 -13 -8 -10
-9 4 -13 -1 -12 -15 1 -12 5 -21 10 -21 4 0 5 -5 2 -10 -4 -7 -14 -3 -26 11
-18 21 -20 21 -45 5 -14 -10 -32 -15 -40 -12 -9 3 -12 1 -9 -4 3 -6 -3 -10
-14 -10 -12 0 -21 -7 -21 -15 0 -17 -18 -19 -39 -6 -11 7 -7 13 15 27 16 10
32 23 36 29 14 21 39 50 33 38 -3 -7 -1 -13 4 -13 6 0 11 4 11 9 0 5 8 12 19
16 10 3 29 15 42 27 l24 21 -44 -6 c-25 -3 -109 -37 -198 -81 -148 -73 -155
-78 -171 -117 -12 -32 -17 -37 -24 -25 -5 9 -6 21 -2 28 11 18 -19 3 -115 -55
-56 -33 -80 -53 -68 -55 32 -6 16 -29 -16 -23 -5 1 -6 -3 -2 -8 8 -13 -5 -61
-16 -61 -5 0 -9 9 -9 20 0 14 -5 18 -17 13 -10 -4 -20 -10 -23 -14 -10 -13
-50 11 -55 34 l-7 25 -66 -20 c-37 -11 -70 -25 -73 -30 -3 -5 -9 -9 -13 -8 -4
1 -15 0 -26 -3 -27 -7 -25 -27 3 -27 17 0 19 -2 7 -10 -10 -6 -20 -4 -32 7
-19 17 -35 10 -158 -76 -71 -49 -200 -177 -200 -198 0 -7 -5 -13 -10 -13 -6 0
-39 -40 -75 -88 l-64 -88 -111 -13 c-62 -7 -114 -10 -117 -7 -3 3 7 16 22 29
19 16 24 26 17 31 -7 4 -12 2 -12 -3 0 -6 -6 -11 -13 -11 -7 0 -30 -9 -52 -20
-22 -11 -43 -20 -48 -20 -16 0 -82 -34 -90 -46 -5 -9 -14 -10 -37 -1 -54 20
-502 -43 -647 -92 -207 -70 -265 -91 -286 -106 -24 -17 -51 -20 -42 -5 9 15 1
12 -23 -7 -48 -41 -61 -50 -132 -93 -41 -24 -78 -48 -81 -53 -3 -5 -9 -8 -13
-8 -20 3 -26 0 -20 -11 4 -7 3 -8 -4 -4 -7 4 -21 1 -33 -7 -15 -11 -17 -16 -7
-21 10 -5 10 -7 1 -12 -7 -3 -13 -10 -13 -15 0 -5 6 -9 13 -9 6 0 23 -9 37
-20 l25 -19 -24 6 c-14 4 -26 1 -31 -7 -5 -8 -16 -15 -24 -16 -9 -1 -14 1 -11
6 12 19 -72 7 -100 -14 -16 -13 -43 -26 -58 -30 -15 -3 -26 -10 -23 -15 3 -4
-5 -6 -17 -4 -26 5 -125 -52 -175 -100 -23 -22 -31 -26 -26 -13 5 13 4 17 -3
13 -12 -8 -23 49 -24 135 -1 42 4 65 20 91 28 46 27 51 -9 30 -16 -9 -30 -22
-30 -27 0 -6 -7 0 -16 12 -9 13 -22 21 -30 18 -20 -8 -44 4 -44 20 0 8 11 20
25 26 26 11 35 48 13 48 -7 0 -33 19 -58 41 -41 37 -42 39 -12 24 34 -16 43
-7 15 16 -14 12 -12 15 23 21 21 3 83 4 137 1 87 -5 97 -8 97 -25 0 -10 7 -32
15 -49 15 -28 18 -29 63 -23 41 6 45 4 33 -9 -7 -9 -19 -13 -27 -10 -8 3 -14
0 -14 -7 0 -6 -5 -8 -12 -4 -9 5 -9 2 1 -9 13 -17 90 -25 104 -11 5 5 47 10
154 17 11 1 19 5 16 10 -2 4 3 7 13 7 9 0 31 9 49 20 18 11 52 27 76 35 63 23
149 77 149 95 0 13 2 13 10 0 7 -12 12 -12 29 4 11 10 17 24 14 32 -3 8 4 18
18 23 13 5 20 10 14 10 -11 1 22 25 47 34 12 4 15 2 11 -9 -3 -7 -2 -14 1 -14
4 0 11 11 16 25 5 14 14 25 20 25 6 0 8 -6 4 -12 -5 -9 -2 -9 9 1 18 15 23 26
7 16 -5 -3 -10 -1 -10 5 0 7 6 10 13 7 6 -2 23 5 36 17 l24 21 -13 -25 c-7
-14 -24 -35 -38 -48 -33 -31 -24 -36 23 -12 22 11 44 20 50 20 18 0 86 35 80
41 -3 3 23 20 58 37 62 30 64 30 184 25 123 -6 173 -1 173 18 0 6 -4 7 -10 4
-6 -4 -10 7 -10 25 0 22 4 29 13 24 8 -5 8 -2 -2 9 -11 14 -11 20 -1 32 7 9
19 14 26 11 10 -4 10 2 2 25 -6 17 -7 33 -4 37 4 3 9 -3 12 -14 3 -11 18 -26
35 -33 27 -12 29 -16 27 -59 -3 -47 -3 -47 27 -44 37 4 116 28 265 81 128 46
144 53 384 172 167 82 169 83 140 96 -16 7 -22 12 -12 13 9 0 19 6 22 13 3 8
9 7 20 -6 14 -18 15 -18 43 0 15 11 82 55 148 99 65 43 153 112 195 152 66 65
150 120 173 114 4 -1 7 2 7 7 0 12 180 101 204 101 10 0 30 7 44 15 15 8 39
19 55 25 15 5 32 22 38 37 8 21 12 24 19 14 6 -11 17 -9 53 12 43 25 48 26
164 20 184 -9 330 25 478 111 71 42 261 223 327 314 18 24 46 50 63 58 17 8
45 27 62 43 17 16 46 33 63 40 17 6 45 22 62 36 33 27 50 27 27 -1 -12 -15
-11 -16 11 -10 24 7 23 6 -5 -16 -16 -12 -40 -33 -52 -45 -12 -12 -31 -24 -41
-27 -11 -4 -27 -15 -37 -26 -10 -11 -22 -20 -27 -20 -8 0 -74 -45 -88 -60 -3
-3 -17 -13 -32 -23 -18 -11 -25 -23 -21 -32 3 -10 0 -15 -8 -13 -8 2 -27 -23
-45 -59 l-31 -62 29 15 c16 8 26 19 23 24 -4 6 1 10 9 10 9 0 16 9 16 20 0 11
6 20 13 20 14 0 16 -34 4 -46 -4 -4 -7 -16 -7 -27 0 -11 -11 -35 -25 -53 -30
-40 -32 -54 -5 -54 11 0 20 -4 20 -10 0 -5 -14 -10 -31 -10 -37 0 -128 -66
-129 -92 0 -11 -8 -18 -19 -18 -17 0 -17 3 4 47 23 46 23 79 2 66 -8 -5 -7 -8
1 -11 7 -2 10 -8 7 -12 -3 -5 -12 -7 -19 -4 -8 3 -17 0 -21 -5 -9 -15 -75 -42
-85 -36 -11 7 -40 -23 -40 -41 0 -8 4 -12 10 -9 6 4 8 -5 4 -22 -3 -16 1 -36
9 -47 13 -17 15 -17 45 -2 17 9 35 16 39 16 4 -1 -10 -10 -31 -22 l-40 -20 40
-25 c34 -21 48 -24 108 -20 59 4 85 13 183 62 63 31 139 63 168 70 71 19 219
86 444 201 133 69 191 94 210 90 14 -2 45 -7 69 -11 41 -7 82 0 182 32 48 15
245 116 270 138 8 8 27 17 43 20 15 4 30 11 33 16 3 5 20 16 37 24 18 8 41 20
51 27 46 30 124 76 169 98 27 14 60 35 73 47 15 14 38 23 56 23 44 0 108 21
108 36 0 6 8 15 18 19 14 5 15 4 5 -6 -7 -7 -13 -18 -13 -23 1 -6 9 -1 19 12
14 15 21 18 25 10 3 -9 8 -8 16 5 6 9 16 15 21 11 5 -3 16 0 24 6 8 7 15 10
15 6 0 -4 17 3 39 13 61 32 188 137 217 181 19 28 44 47 91 70 36 16 73 30 83
30 10 0 20 3 22 8 2 4 34 22 71 41 75 38 76 39 88 89 7 31 4 38 -22 63 -16 15
-29 36 -29 48 0 13 -11 26 -31 36 -17 9 -28 19 -25 22 3 3 12 0 21 -7 13 -11
15 -9 15 13 0 37 -83 108 -151 129 -30 9 -72 18 -94 19 -42 3 -166 -8 -200
-18 -17 -5 -18 -4 -7 9 10 13 9 18 -4 29 -13 11 -13 15 -2 23 7 6 14 22 16 35
5 47 18 51 80 30 74 -26 182 -34 256 -20 l59 11 42 -43 c58 -61 123 -90 202
-91 l64 -1 49 52 c28 29 54 53 59 53 5 0 23 14 40 32 27 28 33 30 56 20 14 -7
28 -12 30 -12 3 0 5 150 5 334 0 300 -2 334 -16 340 -9 4 -14 9 -10 13 3 3 -2
15 -11 26 -17 18 -17 19 7 16 l25 -4 3 413 2 412 -3294 0 c-2626 0 -3295 -3
-3299 -12 -4 -10 -7 -10 -18 0 -15 14 -119 17 -119 2z m4086 -17 c0 -10 -5
-21 -9 -24 -5 -3 -11 -25 -14 -48 -3 -22 -10 -41 -15 -41 -5 0 -8 -6 -6 -12 1
-7 -3 -23 -10 -35 -9 -16 -9 -23 -2 -23 6 0 4 -7 -4 -16 -9 -8 -16 -24 -16
-35 0 -10 -4 -19 -9 -19 -4 0 -16 -21 -26 -47 -10 -27 -24 -58 -32 -71 -14
-23 -14 -23 24 2 21 14 51 33 66 41 34 19 59 9 31 -13 -18 -13 -18 -14 4 -7
29 9 28 -6 -5 -62 -25 -43 -31 -60 -35 -105 -1 -9 -5 -15 -9 -12 -4 2 -18 -14
-33 -36 -14 -22 -49 -63 -77 -91 -35 -35 -47 -54 -39 -59 8 -5 7 -9 -5 -13 -9
-4 -13 -3 -10 3 12 20 -8 9 -44 -22 -20 -18 -47 -41 -61 -51 -14 -10 -18 -15
-10 -11 13 6 13 5 0 -9 -8 -9 -24 -18 -35 -20 -26 -4 -78 -32 -93 -49 -9 -12
-4 -14 33 -11 43 3 45 3 45 -24 -1 -16 -9 -66 -18 -112 -14 -72 -21 -87 -44
-100 -48 -29 -134 -90 -145 -103 -6 -7 -13 -26 -15 -43 -4 -38 -28 -41 -90
-11 -41 20 -45 20 -40 4 2 -10 8 -15 13 -12 5 3 6 -2 3 -10 -7 -18 55 -87 104
-118 37 -22 52 -36 52 -51 0 -5 -12 0 -27 11 -50 35 -118 75 -103 60 70 -68
161 -139 170 -133 6 3 9 1 8 -6 -2 -7 4 -14 12 -14 8 0 14 -6 13 -12 -1 -6 7
-13 19 -16 15 -4 6 9 -31 47 -36 37 -50 57 -45 69 7 20 8 20 54 8 29 -8 31 -8
16 2 -11 7 -28 20 -38 30 -26 25 -11 42 70 79 71 31 138 38 128 13 -3 -8 -3
-15 0 -15 2 0 9 11 13 24 9 21 14 23 63 18 55 -5 88 -17 88 -31 0 -5 -31 -43
-70 -86 -65 -72 -134 -171 -142 -205 -2 -8 -9 -21 -15 -28 -7 -7 -13 -21 -13
-30 0 -9 -9 -32 -21 -51 l-20 -34 -124 7 c-137 8 -196 -3 -221 -38 -11 -16
-16 -18 -26 -8 -9 9 -3 25 30 72 48 68 69 112 49 104 -8 -3 -20 13 -31 38 -19
45 -44 78 -57 78 -4 0 -5 -19 -2 -42 3 -24 3 -40 -1 -36 -4 3 -12 39 -17 79
-5 40 -13 77 -19 83 -5 5 -10 19 -10 30 0 14 -3 17 -10 10 -14 -14 -60 -200
-60 -242 0 -54 -18 -27 -26 39 l-7 60 -34 -40 c-19 -22 -48 -50 -66 -63 l-31
-22 37 48 c20 27 44 72 53 100 19 60 31 216 17 216 -5 0 -10 -6 -11 -12 -1 -7
-8 -40 -17 -73 -8 -33 -18 -77 -21 -99 -8 -59 -15 -37 -16 53 0 82 0 82 -20
64 -33 -29 -108 -165 -115 -206 -7 -46 -23 -59 -23 -20 0 37 28 143 42 160 25
31 -4 21 -67 -21 -74 -51 -85 -55 -78 -26 3 11 11 20 18 20 7 0 17 6 24 13 8
11 3 16 -24 27 -35 14 -45 33 -23 46 7 5 9 2 5 -9 -17 -45 86 -16 121 34 33
47 72 135 72 163 0 32 -41 73 -97 98 -42 18 -59 20 -147 14 -69 -4 -97 -3 -90
4 12 12 136 40 182 40 17 0 32 3 32 8 -1 4 -21 22 -46 40 -76 56 -130 161
-122 235 4 34 5 33 33 -47 20 -55 72 -117 126 -152 40 -25 116 -50 125 -42 9
10 -26 70 -65 112 -35 39 -36 39 -6 22 17 -10 49 -38 72 -63 l42 -46 6 36 c6
28 1 45 -20 81 -32 54 -58 190 -49 255 5 42 3 48 -23 67 -43 32 -89 54 -115
55 -13 0 -18 3 -11 5 21 9 127 -15 175 -40 l46 -24 -14 34 c-9 21 -14 67 -13
121 1 129 13 145 27 34 11 -93 36 -153 68 -165 24 -9 34 1 67 73 35 76 39 156
13 230 -9 24 -15 46 -13 48 8 8 80 -81 98 -121 10 -22 19 -60 19 -84 l0 -43
31 18 c83 49 179 197 179 276 0 23 4 36 10 32 13 -8 13 -136 0 -169 -13 -34 3
-33 21 0 22 43 143 148 208 183 34 18 61 27 61 21 0 -6 -9 -28 -19 -48 -25
-49 -38 -132 -21 -132 21 0 167 149 185 190 10 22 22 40 26 40 14 0 -3 -73
-32 -138 -22 -49 -24 -60 -11 -53 28 15 133 123 160 164 27 40 41 47 38 20z
m21 -15 c-3 -7 -5 -2 -5 12 0 14 2 19 5 13 2 -7 2 -19 0 -25z m-17 -110 c-7
-24 -17 -47 -22 -52 -14 -17 -9 17 7 48 8 15 15 35 15 44 0 8 3 12 7 9 3 -4 0
-26 -7 -49z m110 3 c0 -5 -9 -11 -21 -14 -12 -3 -19 -9 -16 -14 3 -5 -3 -9
-14 -9 -25 0 -25 0 14 25 37 24 37 24 37 12z m-85 -79 c-3 -3 -11 0 -18 7 -9
10 -8 11 6 5 10 -3 15 -9 12 -12z m-5595 -52 c0 -5 -4 -10 -10 -10 -5 0 -10 5
-10 10 0 6 5 10 10 10 6 0 10 -4 10 -10z m5487 -24 c-4 -9 1 -17 11 -19 16 -4
16 -5 0 -6 -19 -1 -32 14 -23 29 9 15 18 12 12 -4z m-6077 -10 c0 -8 -4 -18
-10 -21 -5 -3 -10 3 -10 14 0 12 5 21 10 21 6 0 10 -6 10 -14z m254 -31 c3 -8
1 -15 -4 -15 -6 0 -10 7 -10 15 0 8 2 15 4 15 2 0 6 -7 10 -15z m986 5 c0 -5
-2 -10 -4 -10 -3 0 -8 5 -11 10 -3 6 -1 10 4 10 6 0 11 -4 11 -10z m-750 -52
c0 -5 -4 -8 -10 -8 -5 0 -10 10 -10 23 0 18 2 19 10 7 5 -8 10 -18 10 -22z
m380 17 c0 -8 6 -14 13 -12 7 1 13 -10 15 -25 2 -16 -1 -28 -7 -28 -6 0 -11 9
-11 20 0 12 -7 20 -16 20 -9 0 -14 -6 -11 -12 3 -9 -7 -14 -29 -15 -25 -2 -34
1 -34 12 0 8 5 15 11 15 5 0 7 5 3 12 -5 8 3 9 27 5 19 -3 28 -3 22 0 -18 7
-16 23 2 23 8 0 15 -7 15 -15z m-230 -5 c0 -5 -4 -10 -10 -10 -5 0 -10 5 -10
10 0 6 5 10 10 10 6 0 10 -4 10 -10z m-170 -25 c10 -12 10 -15 -4 -15 -9 0
-16 7 -16 15 0 8 2 15 4 15 2 0 9 -7 16 -15z m8170 5 c12 -8 9 -10 -13 -10
-16 0 -26 4 -22 10 8 12 16 12 35 0z m-7870 -15 c0 -8 -7 -15 -15 -15 -9 0
-12 6 -9 15 4 8 10 15 15 15 5 0 9 -7 9 -15z m7637 9 c-3 -3 -12 -4 -19 -1 -8
3 -5 6 6 6 11 1 17 -2 13 -5z m183 -24 c0 -4 -6 -10 -12 -13 -8 -3 -13 4 -13
18 0 18 3 21 13 13 6 -6 12 -14 12 -18z m-7400 -2 c0 -13 -23 -5 -28 10 -2 7
2 10 12 6 9 -3 16 -11 16 -16z m6885 3 c3 -5 1 -12 -5 -16 -5 -3 -10 1 -10 9
0 18 6 21 15 7z m500 -41 c3 -5 1 -10 -4 -10 -6 0 -11 5 -11 10 0 6 2 10 4 10
3 0 8 -4 11 -10z m-7825 -20 c12 -8 11 -10 -7 -10 -13 0 -23 5 -23 10 0 13 11
13 30 0z m7624 -5 c3 -8 1 -15 -4 -15 -6 0 -10 7 -10 15 0 8 2 15 4 15 2 0 6
-7 10 -15z m-8222 -12 c18 -16 25 -53 10 -53 -8 0 -16 14 -40 63 -6 13 11 7
30 -10z m941 10 c3 -5 -1 -13 -8 -20 -10 -10 -14 -9 -18 1 -8 21 15 37 26 19z
m7458 -36 c-8 -8 -11 -5 -11 9 0 27 14 41 18 19 2 -9 -1 -22 -7 -28z m-7801
13 c0 -5 -4 -10 -10 -10 -5 0 -10 5 -10 10 0 6 5 10 10 10 6 0 10 -4 10 -10z
m7970 0 c0 -5 -5 -10 -11 -10 -5 0 -7 5 -4 10 3 6 8 10 11 10 2 0 4 -4 4 -10z
m-808 -53 c-16 -35 -40 -53 -28 -21 3 9 6 24 6 34 0 10 8 20 18 22 24 6 23 6
4 -35z m-7132 -8 c17 -17 29 -33 27 -35 -5 -5 -67 51 -67 59 0 12 8 7 40 -24z
m1499 -113 c2 -6 13 -24 25 -41 11 -16 47 -81 78 -144 32 -62 66 -120 75 -128
10 -8 12 -12 6 -8 -38 19 23 -104 106 -216 78 -103 169 -148 274 -135 58 8 66
14 45 38 -66 72 -81 90 -67 80 9 -7 23 -10 31 -7 8 3 21 -1 28 -10 15 -18 0
-21 -18 -3 -7 7 -12 8 -12 2 0 -6 18 -19 41 -29 34 -16 47 -17 82 -8 36 10 44
9 65 -8 34 -26 50 -24 112 15 38 24 62 33 78 29 13 -3 30 1 40 9 9 9 40 27 68
41 l52 25 10 -82 c12 -89 56 -200 117 -291 34 -52 93 -109 159 -155 19 -14 36
-30 36 -37 0 -6 8 -9 19 -6 15 4 19 -1 19 -22 0 -14 1 -27 3 -28 51 -31 93
-47 109 -42 11 4 18 9 16 13 -2 4 12 7 30 8 32 0 35 -2 32 -24 -10 -81 309
-122 488 -64 64 20 77 22 99 10 42 -22 317 -159 365 -182 25 -11 48 -25 51
-30 4 -5 12 -5 18 -1 9 5 7 11 -6 22 -17 13 -17 14 2 5 11 -5 27 -7 35 -5 11
3 10 0 -2 -10 -25 -20 -22 -30 5 -22 16 4 18 4 8 -3 -10 -8 -7 -11 15 -16 16
-4 40 -16 54 -27 l25 -20 -30 14 c-112 53 -294 92 -545 117 -63 6 -131 13
-150 15 -48 7 -292 -14 -364 -30 l-59 -13 -67 67 c-70 69 -170 133 -170 109
-1 -9 -5 -7 -14 4 -24 33 -100 51 -89 22 5 -14 3 -14 -15 -3 -11 7 -18 17 -16
21 3 4 -6 8 -20 8 -14 0 -28 4 -31 10 -3 5 -37 28 -75 50 -52 30 -76 39 -95
34 -14 -3 -25 -11 -25 -16 0 -23 -31 17 -40 52 -16 58 -52 72 -348 140 -24 6
-48 8 -53 4 -5 -3 -15 -1 -22 4 -7 5 -36 13 -65 17 -47 6 -60 4 -118 -25 -38
-19 -81 -51 -103 -76 -21 -24 -41 -44 -44 -44 -13 0 -79 227 -77 263 1 12 1
36 0 52 l-3 30 -6 -35 c-7 -35 -7 -35 -15 17 -6 39 -16 61 -42 88 -19 20 -34
46 -34 58 0 12 -9 39 -20 59 l-19 36 24 6 c14 4 24 10 24 14 -3 20 2 33 11 27
20 -13 9 26 -23 77 -35 56 -55 102 -106 238 -35 93 -38 98 -74 182 l-25 57 61
-66 c34 -36 64 -70 66 -77z m6121 124 c0 -5 -4 -10 -10 -10 -5 0 -10 5 -10 10
0 6 5 10 10 10 6 0 10 -4 10 -10z m-6300 -21 c0 -5 5 -7 10 -4 12 8 13 -5 0
-25 -10 -17 -15 -14 -24 18 -5 13 -3 22 3 22 6 0 11 -5 11 -11z m-1170 -9 c0
-5 -2 -10 -4 -10 -3 0 -8 5 -11 10 -3 6 -1 10 4 10 6 0 11 -4 11 -10z m-655
-10 c3 -5 2 -10 -4 -10 -5 0 -13 5 -16 10 -3 6 -2 10 4 10 5 0 13 -4 16 -10z
m7469 -5 c-6 -16 -24 -21 -24 -7 0 11 11 22 21 22 5 0 6 -7 3 -15z m122 -24
c-4 -5 -14 -8 -24 -6 -9 2 -23 4 -30 4 -7 1 -11 5 -7 11 3 5 12 7 19 4 7 -3
17 3 20 13 7 17 8 17 17 0 6 -9 8 -21 5 -26z m-7085 15 c6 3 17 0 25 -7 14
-12 14 -14 -1 -25 -15 -11 -15 -13 6 -25 l23 -12 -23 -9 c-13 -5 -26 -6 -29
-3 -3 3 1 5 9 5 8 0 -5 10 -28 22 -47 24 -54 37 -23 45 11 3 20 10 21 17 0 7
2 6 6 -2 2 -6 9 -9 14 -6z m933 -26 c8 -17 11 -30 7 -30 -7 0 -20 22 -39 64
-12 24 19 -8 32 -34z m-1134 26 c0 -3 -4 -8 -10 -11 -5 -3 -10 -1 -10 4 0 6 5
11 10 11 6 0 10 -2 10 -4z m255 -7 c11 -17 -1 -21 -15 -4 -8 9 -8 15 -2 15 6
0 14 -5 17 -11z m7635 -1 c0 -4 -7 -8 -15 -8 -8 0 -15 4 -15 8 0 5 7 9 15 9 8
0 15 -4 15 -9z m105 2 c3 -5 -1 -10 -10 -10 -9 0 -13 5 -10 10 3 6 8 10 10 10
2 0 7 -4 10 -10z m-953 -58 c1 -28 6 -48 10 -46 5 3 5 11 1 17 -4 7 7 1 24
-13 17 -14 29 -28 26 -32 -2 -4 2 -5 10 -2 8 3 21 -2 30 -10 9 -9 20 -16 24
-16 5 0 18 -7 29 -16 19 -15 19 -16 -1 -9 -28 9 -57 16 -78 19 -10 1 -22 8
-27 15 -5 9 -10 10 -14 3 -4 -6 2 -16 11 -21 17 -10 17 -12 -1 -26 -23 -18
-101 -21 -90 -4 3 6 -3 24 -15 40 -14 18 -16 27 -7 23 8 -3 24 -1 35 6 18 9
21 20 21 72 0 73 10 73 12 0z m-117 8 c-3 -5 -11 -10 -16 -10 -6 0 -7 5 -4 10
3 6 11 10 16 10 6 0 7 -4 4 -10z m-5415 -31 c0 -10 -30 -32 -31 -23 0 5 -5 -2
-10 -15 -8 -19 -12 -21 -24 -11 -18 15 -19 42 -3 58 8 8 15 9 25 0 11 -8 12
-7 7 7 -6 15 -5 16 15 4 11 -8 21 -17 21 -20z m5364 0 c-3 -5 -10 -7 -15 -3
-5 3 -7 10 -3 15 3 5 10 7 15 3 5 -3 7 -10 3 -15z m917 -43 c14 -15 11 -30 -4
-17 -8 6 -17 8 -20 4 -4 -3 -7 9 -7 29 0 43 14 60 18 21 2 -15 8 -32 13 -37z
m-47 39 c-4 -8 -10 -15 -15 -15 -4 0 -6 7 -3 15 4 8 10 15 15 15 4 0 6 -7 3
-15z m206 4 c0 -5 -4 -7 -10 -4 -5 3 -10 1 -10 -4 0 -6 -5 -11 -11 -11 -8 0
-8 5 1 15 14 17 30 20 30 4z m-7610 -13 c-36 -13 -74 -10 -64 5 3 5 26 9 52 8
l47 -1 -35 -12z m1054 -21 c-6 -16 -24 -21 -24 -7 0 11 11 22 21 22 5 0 6 -7
3 -15z m6546 1 c0 -3 -4 -8 -10 -11 -5 -3 -10 -1 -10 4 0 6 5 11 10 11 6 0 10
-2 10 -4z m-8307 -62 c5 -28 2 -33 -28 -50 -29 -16 -37 -16 -59 -5 -20 11 -54
69 -44 76 2 1 28 8 58 16 60 16 63 14 73 -37z m1797 36 c0 -11 -4 -20 -10 -20
-5 0 -10 9 -10 20 0 11 5 20 10 20 6 0 10 -9 10 -20z m5438 -10 c-7 -11 -16
-20 -20 -20 -13 0 -9 28 5 33 23 10 27 7 15 -13z m-4273 -21 c-8 -12 -35 -12
-35 0 0 11 22 20 33 14 4 -2 5 -9 2 -14z m4325 -9 c0 -5 -7 -10 -16 -10 -8 0
-12 5 -9 10 3 6 10 10 16 10 5 0 9 -4 9 -10z m50 0 c-20 -13 -33 -13 -25 0 3
6 14 10 23 10 15 0 15 -2 2 -10z m-4245 -10 c8 -13 -5 -13 -25 0 -13 8 -13 10
2 10 9 0 20 -4 23 -10z m-735 -10 c0 -5 -5 -10 -11 -10 -5 0 -7 5 -4 10 3 6 8
10 11 10 2 0 4 -4 4 -10z m670 -5 c0 -17 -2 -18 -25 -9 -13 5 -14 8 -3 15 19
13 28 11 28 -6z m4583 -15 c-3 -11 -2 -28 2 -37 5 -10 7 -22 6 -28 -1 -6 2 -5
9 1 15 15 60 5 60 -13 0 -10 -6 -13 -16 -9 -12 4 -15 2 -10 -9 3 -8 1 -15 -5
-15 -6 0 -7 -5 -4 -10 4 -6 -5 -10 -24 -8 l-31 2 2 78 c1 42 5 75 9 73 4 -3 5
-14 2 -25z m-7299 5 c3 -8 1 -15 -4 -15 -6 0 -10 7 -10 15 0 8 2 15 4 15 2 0
6 -7 10 -15z m2646 5 c0 -5 -4 -10 -9 -10 -6 0 -13 5 -16 10 -3 6 1 10 9 10 9
0 16 -4 16 -10z m4294 -2 c-5 -8 -2 -9 9 -5 14 5 15 3 5 -18 -6 -14 -20 -25
-31 -25 -15 0 -17 3 -8 14 6 8 11 18 10 22 -3 16 1 24 12 24 5 0 7 -5 3 -12z
m986 2 c0 -5 -4 -10 -10 -10 -5 0 -10 5 -10 10 0 6 5 10 10 10 6 0 10 -4 10
-10z m-5175 -10 c3 -5 -1 -10 -10 -10 -9 0 -13 5 -10 10 3 6 8 10 10 10 2 0 7
-4 10 -10z m4300 0 c18 -8 17 -9 -7 -9 -16 -1 -28 4 -28 9 0 12 8 12 35 0z
m317 -20 c-2 -16 -8 -27 -13 -25 -4 3 -5 13 -2 21 3 9 0 20 -8 25 -11 7 -9 9
7 9 17 0 20 -5 16 -30z m-5319 7 c3 -8 1 -20 -4 -28 -6 -10 -9 -7 -9 14 0 29
5 35 13 14z m5291 -12 c-7 -16 -24 -21 -24 -6 0 8 7 13 27 20 1 1 0 -6 -3 -14z
m-7248 -22 c-10 -10 -19 5 -10 18 6 11 8 11 12 0 2 -7 1 -15 -2 -18z m7178
-10 c9 -23 -11 -41 -39 -35 -27 5 -30 13 -15 42 11 21 45 17 54 -7z m-6420 11
c9 -3 16 -12 16 -19 0 -21 -21 -29 -32 -14 -8 11 -9 10 -4 -3 3 -11 -2 -21
-13 -27 -16 -9 -17 -7 -13 17 4 24 19 52 27 52 2 0 10 -3 19 -6z m4379 -1 c-7
-2 -19 -2 -25 0 -7 3 -2 5 12 5 14 0 19 -2 13 -5z m1655 -24 c-7 -5 -19 -9
-27 -9 -11 0 -11 3 -1 14 6 8 18 12 27 9 12 -5 12 -7 1 -14z m-4763 -16 c16
-18 23 -35 19 -48 -4 -16 -3 -17 5 -5 10 13 11 13 12 0 1 -8 1 -19 0 -23 -1
-5 3 -6 8 -3 9 6 47 -44 43 -57 -1 -5 2 -6 7 -3 5 3 13 0 18 -7 9 -12 53 -128
53 -141 0 -17 -19 -2 -36 29 -10 19 -24 35 -30 35 -10 0 -16 11 -28 50 -4 14
-42 50 -53 50 -6 0 -20 14 -30 30 -9 17 -22 30 -29 30 -7 0 -9 10 -6 25 4 25
22 45 22 26 0 -6 5 -11 12 -11 6 0 3 9 -8 21 l-18 20 -12 -33 c-10 -25 -13
-28 -13 -11 -2 57 24 68 64 26z m4793 -3 c-14 -22 -24 -19 -15 5 4 8 11 15 17
15 6 0 6 -7 -2 -20z m-3948 -11 c0 -6 -4 -7 -10 -4 -5 3 -10 11 -10 16 0 6 5
7 10 4 6 -3 10 -11 10 -16z m-2000 -30 c0 -5 6 -7 13 -3 6 4 9 4 5 -1 -4 -4
-3 -17 3 -28 8 -14 8 -18 0 -13 -6 4 -11 2 -11 -4 0 -6 -4 -9 -9 -5 -14 8 -24
-14 -13 -28 6 -7 6 -21 1 -36 -8 -19 -12 -22 -22 -12 -9 9 -9 14 2 21 12 7 12
11 -2 25 -20 20 -22 48 -5 75 14 21 38 27 38 9z m5870 -3 c0 -11 -19 -15 -25
-6 -3 5 1 10 9 10 9 0 16 -2 16 -4z m-5970 -16 c0 -5 -2 -10 -4 -10 -3 0 -8 5
-11 10 -3 6 -1 10 4 10 6 0 11 -4 11 -10z m6396 -17 c-10 -10 -19 5 -10 18 6
11 8 11 12 0 2 -7 1 -15 -2 -18z m74 20 c-1 -14 -40 -56 -47 -50 -7 8 24 57
37 57 6 0 10 -3 10 -7z m-6480 -33 c0 -5 -2 -10 -4 -10 -3 0 -8 5 -11 10 -3 6
-1 10 4 10 6 0 11 -4 11 -10z m2269 -20 c-15 -10 -41 -1 -34 10 3 5 14 6 26 3
15 -4 17 -8 8 -13z m567 5 c10 -8 15 -14 9 -14 -5 0 -19 6 -29 14 -11 8 -15
15 -10 15 6 0 19 -7 30 -15z m3148 -6 c-8 -14 -24 -10 -24 6 0 9 6 12 15 9 8
-4 12 -10 9 -15z m-6474 1 c0 -5 -4 -10 -10 -10 -5 0 -10 5 -10 10 0 6 5 10
10 10 6 0 10 -4 10 -10z m709 -13 c25 -12 47 -29 49 -37 2 -11 -1 -10 -11 3
-8 10 -24 19 -35 22 -23 4 -62 23 -62 30 0 9 15 4 59 -18z m2352 -15 c-7 -2
-18 1 -23 6 -8 8 -4 9 13 5 13 -4 18 -8 10 -11z m46 -8 c-3 -3 -12 -4 -19 -1
-8 3 -5 6 6 6 11 1 17 -2 13 -5z m-4147 -8 c0 -11 -19 -15 -25 -6 -3 5 1 10 9
10 9 0 16 -2 16 -4z m4187 -2 c-3 -3 -12 -4 -19 -1 -8 3 -5 6 6 6 11 1 17 -2
13 -5z m3858 -4 c-3 -6 5 -10 19 -10 13 0 27 6 29 13 3 7 6 5 6 -5 1 -15 -7
-18 -43 -18 -48 0 -71 16 -34 23 13 2 24 5 26 6 2 0 0 -3 -3 -9z m776 -24 c19
11 55 -5 56 -26 1 -11 -2 -18 -7 -15 -6 3 -7 0 -5 -8 3 -7 -6 -26 -20 -41 -14
-15 -22 -32 -19 -38 4 -7 2 -8 -4 -4 -7 4 -12 3 -12 -3 0 -6 -12 -23 -27 -38
-16 -15 -27 -31 -25 -36 1 -5 -2 -5 -8 -2 -6 4 -20 -1 -31 -11 -10 -9 -19 -15
-19 -13 0 12 52 104 62 110 8 5 6 12 -5 24 -17 17 -15 35 4 35 19 0 48 44 44
65 -3 11 -2 14 1 7 3 -6 10 -9 15 -6z m-7273 -11 c1 -1 0 -10 -4 -19 -9 -23
-27 -20 -41 9 -11 24 -10 25 15 19 15 -4 28 -8 30 -9z m131 -20 c15 -26 25
-33 38 -28 16 6 16 5 4 -10 -7 -9 -24 -17 -37 -17 -26 0 -41 -16 -22 -24 9 -3
7 -9 -6 -20 -24 -19 -47 -21 -42 -3 2 6 9 35 16 62 22 91 20 89 49 40z m5831
25 c0 -5 -5 -10 -11 -10 -5 0 -7 5 -4 10 3 6 8 10 11 10 2 0 4 -4 4 -10z
m-3164 -31 c3 -6 -5 -3 -20 6 -14 10 -26 19 -26 22 0 7 39 -17 46 -28z m-2745
1 c20 0 24 -20 10 -55 -8 -19 -8 -19 -18 0 -6 11 -13 34 -16 50 -4 17 -4 24
-1 18 3 -7 14 -13 25 -13z m2290 2 c-7 -2 -18 1 -23 6 -8 8 -4 9 13 5 13 -4
18 -8 10 -11z m-2787 -7 c-4 -8 1 -17 10 -21 9 -3 14 -10 11 -14 -3 -5 4 -15
16 -24 12 -8 18 -19 14 -25 -3 -6 0 -11 8 -11 8 0 22 -12 32 -26 9 -15 12 -23
5 -19 -8 5 -11 3 -8 -6 3 -8 13 -14 24 -14 10 0 25 -6 32 -12 7 -7 20 -13 28
-13 8 0 14 -4 14 -8 0 -5 18 -17 40 -28 36 -17 40 -23 40 -55 0 -20 7 -42 15
-49 8 -7 15 -19 15 -26 0 -19 -72 -8 -116 17 l-32 17 24 -86 c25 -91 31 -152
14 -152 -5 0 -10 -7 -10 -15 0 -10 -10 -15 -32 -15 -17 0 -28 3 -25 7 4 3 0
15 -10 25 -15 17 -15 18 0 18 35 0 7 165 -35 202 -12 10 -15 19 -8 23 6 4 8
16 4 27 -4 15 -3 19 7 14 8 -4 2 3 -13 16 -18 16 -24 28 -19 38 6 10 2 22 -9
33 -18 18 -19 18 -38 -1 -18 -18 -21 -19 -27 -4 -3 9 -1 18 4 20 8 3 7 10 0
24 -10 18 -9 20 5 15 9 -4 16 -2 16 3 0 5 7 7 15 4 11 -5 13 0 6 24 -5 16 -17
41 -26 56 -14 21 -15 29 -5 41 16 19 21 19 14 0z m3716 -5 c0 -5 -5 -10 -11
-10 -5 0 -7 5 -4 10 3 6 8 10 11 10 2 0 4 -4 4 -10z m-3850 -19 c0 -16 40 -24
55 -11 10 9 20 7 39 -5 29 -19 33 -32 11 -32 -8 0 -11 5 -8 11 4 6 -1 5 -11
-3 -10 -8 -15 -23 -13 -33 3 -10 1 -18 -4 -18 -5 0 -9 4 -9 8 0 10 -60 33 -70
27 -4 -3 -10 11 -12 30 -3 24 0 35 9 35 7 0 13 -4 13 -9z m1454 -63 c4 -21 2
-39 -4 -43 -6 -4 -10 7 -11 27 0 18 -2 44 -5 58 -3 18 -1 21 5 10 5 -8 11 -32
15 -52z m6301 -6 c-3 -3 -11 0 -18 7 -9 10 -8 11 6 5 10 -3 15 -9 12 -12z
m150 8 c-3 -5 -10 -10 -16 -10 -5 0 -9 5 -9 10 0 6 7 10 16 10 8 0 12 -4 9
-10z m-4187 -35 c-3 -3 -9 2 -12 12 -6 14 -5 15 5 6 7 -7 10 -15 7 -18z m309
9 c-3 -3 -12 -4 -19 -1 -8 3 -5 6 6 6 11 1 17 -2 13 -5z m-2569 -70 c1 -14 -2
-23 -8 -19 -12 7 -14 45 -2 45 4 0 9 -11 10 -26z m-233 -25 c11 -17 -1 -21
-15 -4 -8 9 -8 15 -2 15 6 0 14 -5 17 -11z m3433 -20 c-3 -8 -7 -3 -11 10 -4
17 -3 21 5 13 5 -5 8 -16 6 -23z m-782 5 c18 -14 18 -14 -6 -3 -31 14 -36 19
-24 19 6 0 19 -7 30 -16z m-2395 -16 c11 -21 11 -22 -4 -9 -10 7 -17 17 -17
22 0 15 9 10 21 -13z m2179 -3 c-7 -8 -20 -15 -28 -15 -13 0 -12 3 4 15 25 19
40 19 24 0z m309 -11 c8 -2 11 -7 9 -10 -6 -6 -78 22 -78 30 0 3 12 1 28 -5
15 -5 33 -12 41 -15z m-3858 -15 c7 -13 7 -19 1 -15 -12 7 -26 -29 -18 -43 3
-5 -3 -7 -14 -4 -24 6 -23 2 -5 47 18 42 20 43 36 15z m3499 -20 c0 -5 -7 -6
-15 -3 -8 4 -15 13 -15 21 0 13 3 13 15 3 8 -7 15 -16 15 -21z m-40 11 c0 -5
-2 -10 -4 -10 -3 0 -8 5 -11 10 -3 6 -1 10 4 10 6 0 11 -4 11 -10z m94 -5 c3
-9 11 -15 18 -13 7 1 35 -4 61 -11 37 -11 53 -11 70 -2 12 6 59 13 104 14 74
3 80 2 62 -11 -19 -13 -135 -19 -147 -7 -2 2 -11 -3 -19 -11 -9 -9 -23 -12
-32 -9 -9 4 -34 9 -56 12 -50 6 -85 22 -85 40 0 18 17 16 24 -2z m-3484 -25
c0 -5 -4 -10 -9 -10 -5 0 -11 -9 -14 -20 -4 -14 -13 -20 -34 -19 -16 1 -21 3
-10 6 9 2 17 11 17 18 0 8 8 19 18 24 22 13 32 14 32 1z m3139 -14 c-2 -2 -17
-2 -34 2 -30 6 -30 6 -5 12 23 6 50 -4 39 -14z m-3509 -22 c0 -8 5 -14 10 -14
36 0 120 -154 122 -222 1 -16 5 -28 10 -28 5 0 4 -9 -2 -20 -13 -25 -21 -25
-48 -2 -20 17 -48 99 -38 109 3 3 -3 18 -13 32 -10 14 -25 51 -33 81 -9 30
-19 64 -24 74 -5 14 -4 17 4 12 7 -4 12 -14 12 -22z m1535 -4 c3 -5 1 -10 -4
-10 -6 0 -11 5 -11 10 0 6 2 10 4 10 3 0 8 -4 11 -10z m-771 -24 c-3 -9 -13
-16 -22 -16 -13 0 -12 3 4 19 22 21 27 21 18 -3z m6411 -6 c3 -6 -1 -7 -9 -4
-18 7 -21 14 -7 14 6 0 13 -4 16 -10z m-6005 -40 c7 -13 7 -20 1 -20 -6 0 -15
9 -21 20 -7 13 -7 20 -1 20 6 0 15 -9 21 -20z m6025 11 c-18 -7 -55 -4 -55 5
0 2 17 4 38 3 28 0 32 -2 17 -8z m-5635 -21 c0 -5 -2 -10 -4 -10 -3 0 -8 5
-11 10 -3 6 -1 10 4 10 6 0 11 -4 11 -10z m1610 -45 c7 -9 8 -15 2 -15 -5 0
-12 7 -16 15 -3 8 -4 15 -2 15 2 0 9 -7 16 -15z m185 5 c3 -5 1 -10 -4 -10 -6
0 -11 5 -11 10 0 6 2 10 4 10 3 0 8 -4 11 -10z m1385 -9 c0 -6 -4 -13 -10 -16
-5 -3 -10 1 -10 9 0 9 5 16 10 16 6 0 10 -4 10 -9z m-3280 -54 c0 -5 -7 -4
-15 3 -12 10 -15 9 -15 -6 -1 -18 -1 -18 -11 -1 -6 10 -8 25 -5 34 6 14 9 14
26 -2 11 -10 20 -22 20 -28z m1855 23 c-20 -22 -35 -26 -35 -9 0 5 5 7 10 4 6
-3 10 1 10 9 0 9 7 16 17 16 14 0 14 -2 -2 -20z m-135 0 c0 -5 -4 -10 -10 -10
-5 0 -10 5 -10 10 0 6 5 10 10 10 6 0 10 -4 10 -10z m1530 -10 c0 -5 -5 -10
-11 -10 -5 0 -7 5 -4 10 3 6 8 10 11 10 2 0 4 -4 4 -10z m-2240 -5 c0 -7 -30
-13 -34 -7 -3 4 4 9 15 9 10 1 19 0 19 -2z m-1740 -40 c20 -13 8 -24 -42 -41
-29 -9 -59 -19 -65 -22 -16 -5 -17 35 -4 72 10 24 11 24 56 11 25 -8 50 -17
55 -20z m3947 -2 c-3 -10 -5 -4 -5 12 0 17 2 24 5 18 2 -7 2 -21 0 -30z
m-3830 -19 c7 -15 10 -31 7 -35 -6 -11 -24 -12 -23 -1 3 19 -2 33 -10 28 -5
-4 -7 3 -4 14 7 27 16 25 30 -6z m1519 -36 c4 -7 4 -10 -1 -6 -4 4 -14 0 -21
-10 -12 -15 -13 -15 -14 -1 0 28 23 39 36 17z m874 -24 c0 -16 -46 -41 -57
-31 -9 9 38 58 48 51 5 -3 9 -12 9 -20z m110 1 c0 -8 -4 -15 -10 -15 -5 0 -10
7 -10 15 0 8 5 15 10 15 6 0 10 -7 10 -15z m-2523 -1 c-3 -3 -12 -4 -19 -1 -8
3 -5 6 6 6 11 1 17 -2 13 -5z m2600 -18 c-4 -12 -56 -30 -64 -22 -3 3 -3 11 0
19 6 16 69 19 64 3z m3741 -45 c-79 -72 -115 -101 -124 -101 -14 1 150 149
164 150 8 0 -10 -22 -40 -49z m-7110 -18 l21 -48 -82 -7 c-74 -6 -149 -22
-201 -44 -15 -6 -18 -4 -13 9 4 10 0 17 -9 19 -10 2 2 16 33 39 35 26 62 37
101 42 29 3 65 13 80 20 42 23 48 20 70 -30z m1262 21 c0 -2 -7 -4 -15 -4 -8
0 -15 4 -15 10 0 5 7 7 15 4 8 -4 15 -8 15 -10z m1000 -8 c0 -3 -4 -8 -10 -11
-5 -3 -10 -1 -10 4 0 6 5 11 10 11 6 0 10 -2 10 -4z m1260 -32 c0 -30 -23 -28
-28 2 -3 16 -1 17 8 4 10 -12 11 -11 7 8 -3 12 -1 20 4 16 5 -3 9 -17 9 -30z
m-1950 2 c0 -8 12 -24 27 -35 26 -21 26 -21 2 -18 -15 3 -28 15 -36 35 -8 20
-9 32 -3 32 5 0 10 -6 10 -14z m3247 -10 c14 -5 34 -34 61 -90 22 -45 58 -101
79 -123 22 -23 52 -66 68 -97 18 -36 35 -56 46 -56 9 0 19 -3 21 -7 2 -5 19
-16 39 -26 40 -21 146 -123 137 -132 -12 -13 -81 9 -100 31 -12 13 -37 25 -62
29 -22 4 -57 17 -76 30 -19 12 -52 28 -72 35 -53 16 -161 126 -152 154 11 36
20 38 62 17 44 -22 82 -27 82 -11 0 5 -16 24 -35 41 -19 17 -39 47 -45 65 -7
20 -23 40 -39 49 -17 8 -31 25 -34 42 -4 15 -9 39 -13 53 -3 14 -2 20 3 14 4
-6 18 -14 30 -18z m-5662 4 c3 -5 -1 -10 -9 -10 -9 0 -16 5 -16 10 0 6 4 10 9
10 6 0 13 -4 16 -10z m4882 4 c-3 -3 -12 -4 -19 -1 -8 3 -5 6 6 6 11 1 17 -2
13 -5z m-1647 -14 c0 -5 -9 -10 -21 -10 -11 0 -17 5 -14 10 3 6 13 10 21 10 8
0 14 -4 14 -10z m337 -12 c-3 -8 -6 -5 -6 6 -1 11 2 17 5 13 3 -3 4 -12 1 -19z
m-1038 -65 c42 -32 61 -55 55 -65 -8 -13 -19 -9 -44 12 -12 11 -20 26 -17 34
4 10 -1 16 -15 18 -12 2 -23 9 -26 16 -6 19 8 15 47 -15z m581 -2 c-1 -21 -39
-90 -40 -71 0 9 7 26 16 38 18 26 10 49 -12 31 -17 -14 -19 -3 -2 15 16 17 38
9 38 -13z m1770 8 c0 -4 -7 -6 -15 -3 -8 4 -15 10 -15 15 0 4 7 6 15 3 8 -4
15 -10 15 -15z m2930 -3 c0 -2 -8 -10 -17 -17 -16 -13 -17 -12 -4 4 13 16 21
21 21 13z m-6356 -82 c21 -8 21 -40 0 -48 -8 -3 -12 -11 -9 -16 4 -6 2 -9 -3
-8 -12 4 -103 -103 -96 -114 3 -5 1 -7 -4 -6 -12 4 -74 -73 -66 -81 4 -3 9 -1
11 5 2 7 13 10 23 7 13 -3 20 0 20 8 0 8 16 25 36 39 19 14 41 30 48 37 18 16
29 4 13 -15 -10 -13 -9 -14 10 -4 27 15 33 15 33 0 0 -6 -3 -8 -7 -5 -3 4 -15
-1 -26 -10 -10 -10 -22 -17 -26 -16 -11 5 -71 -18 -71 -27 0 -4 14 -10 31 -14
44 -9 127 22 131 49 2 15 9 19 28 16 53 -9 65 -6 62 12 -2 13 4 17 25 16 25 0
26 -1 8 -9 -28 -12 -2 -12 29 0 22 8 27 6 37 -12 6 -12 12 -44 13 -72 1 -39
-4 -55 -18 -67 -23 -19 -15 -49 11 -44 10 2 21 4 26 4 4 1 7 10 7 21 0 11 5
20 11 20 6 0 9 -12 7 -27 -3 -25 1 -28 35 -34 23 -4 43 -2 51 5 15 14 54 36
62 36 4 0 -3 -9 -16 -20 -19 -16 -20 -21 -7 -26 24 -9 28 -40 5 -41 -13 -1
-18 3 -15 12 6 15 -30 28 -38 14 -3 -4 -19 -6 -35 -2 -22 4 -30 2 -31 -8 -1
-8 -2 -25 -2 -39 -1 -15 -8 -25 -17 -25 -28 0 -33 -29 -15 -82 8 -24 34 -30
52 -12 8 8 13 5 18 -10 3 -12 10 -21 15 -21 4 0 11 -8 14 -17 4 -11 -3 -8 -18
9 -24 26 -46 28 -24 1 9 -11 7 -12 -7 -6 -15 5 -17 3 -12 -11 4 -10 4 -23 0
-29 -11 -18 -12 -37 -2 -37 5 0 12 7 15 15 11 28 84 8 84 -24 0 -6 4 -11 9
-11 5 0 12 -11 15 -25 10 -38 23 -30 31 18 14 82 25 74 25 -18 1 -124 2 -137
5 -133 32 35 88 121 122 188 46 91 52 113 28 104 -16 -6 -75 49 -75 70 0 6 13
-4 29 -21 16 -18 38 -33 50 -33 46 0 36 -38 -47 -184 -21 -37 -47 -79 -58 -93
-31 -41 -27 -53 17 -53 26 0 42 -5 46 -15 4 -12 11 -8 29 17 16 21 24 26 24
16 0 -9 -4 -20 -10 -23 -5 -3 -10 -16 -10 -28 0 -12 -7 -31 -15 -41 -8 -11
-13 -29 -9 -40 4 -15 3 -17 -4 -8 -7 11 -11 10 -16 -4 -9 -24 3 -56 19 -50 15
5 27 -16 17 -30 -4 -5 -25 -9 -47 -9 -50 1 -95 -15 -95 -33 0 -27 -35 -6 -45
26 -9 30 -34 41 -27 11 2 -8 0 -11 -3 -7 -4 4 -20 1 -36 -8 -30 -15 -40 -31
-15 -21 9 4 13 1 11 -6 -7 -19 49 -92 70 -92 12 0 22 -10 26 -25 7 -24 7 -24
9 5 2 29 2 30 9 5 5 -14 3 -31 -3 -39 -8 -11 -8 -13 2 -7 7 4 12 2 12 -6 0
-11 2 -10 9 0 7 11 10 10 15 -3 3 -9 6 -28 6 -41 0 -13 11 -42 25 -64 24 -39
33 -80 17 -80 -4 0 -24 15 -44 33 -34 31 -37 32 -42 14 -4 -17 -7 -18 -20 -7
-24 19 -19 1 10 -37 22 -29 23 -33 7 -33 -10 0 -25 -5 -33 -10 -12 -8 -9 -9
10 -6 14 3 70 8 125 11 55 3 119 11 142 17 56 14 115 3 111 -20 -6 -37 109
-178 129 -159 5 6 -22 36 -54 58 -11 8 -30 34 -43 58 l-22 44 23 19 c13 10 39
22 58 27 18 6 42 18 53 28 17 15 21 15 28 3 7 -11 10 -4 10 23 0 50 -18 66
-83 77 -30 5 -76 22 -103 39 -45 27 -55 29 -111 24 -64 -6 -113 1 -113 16 0 5
19 11 43 14 86 9 172 29 241 54 418 151 476 163 522 109 25 -29 60 -39 56 -16
-2 11 1 10 12 -3 8 -10 52 -33 98 -51 83 -33 150 -65 178 -86 12 -10 11 -11
-9 -7 -21 5 -23 3 -17 -23 3 -16 1 -32 -4 -35 -6 -4 -7 -11 -4 -17 5 -7 1 -9
-9 -5 -10 3 -17 2 -17 -3 0 -6 -17 -10 -37 -10 -29 0 -34 -3 -23 -10 21 -15
-29 -3 -111 26 -90 32 -95 30 -24 -11 42 -24 54 -34 38 -35 -12 0 -25 5 -29
11 -6 10 -27 9 -94 -4 -8 -1 -26 -8 -39 -16 -12 -7 -32 -11 -42 -8 -12 3 -25
-3 -34 -16 -9 -12 -18 -21 -20 -19 -13 6 -25 0 -25 -13 0 -8 9 -19 20 -25 22
-12 27 -50 7 -50 -7 0 -25 -13 -40 -28 -24 -25 -32 -28 -87 -25 -33 2 -60 -1
-60 -6 0 -10 35 -21 68 -21 12 0 22 -6 22 -14 0 -22 -16 -28 -30 -11 -17 21
-102 16 -112 -5 -5 -11 -7 -9 -7 8 -1 17 5 22 27 23 16 1 20 3 10 6 -12 3 -18
15 -19 36 l-1 32 -8 -30 c-7 -29 -8 -29 -9 -4 -2 42 -13 89 -21 89 -4 0 -8
-31 -9 -68 -1 -73 -22 -198 -37 -224 -21 -37 -87 -99 -120 -113 -48 -20 -174
-104 -174 -116 0 -5 -8 -9 -19 -9 -10 0 -24 -6 -30 -14 -24 -29 -131 -68 -177
-64 -24 2 -44 0 -44 -4 0 -5 -7 -8 -16 -8 -9 0 -12 -5 -8 -12 4 -7 4 -10 -1
-6 -4 4 -16 3 -26 -2 -12 -7 -31 -6 -61 5 -23 8 -46 11 -50 7 -13 -13 8 -34
43 -43 30 -8 29 -8 -11 -3 -25 2 -50 11 -56 20 -16 21 -44 6 -44 -23 0 -21 -2
-23 -15 -13 -8 6 -19 9 -25 5 -5 -3 -15 6 -20 21 -15 37 -21 26 -10 -19 8 -36
7 -37 -13 -31 -12 3 -29 13 -38 20 -27 24 -34 15 -9 -11 13 -14 19 -25 13 -25
-6 0 -13 5 -15 11 -3 8 -13 7 -33 -4 -29 -15 -30 -14 -42 11 l-13 27 5 -28 c4
-19 2 -26 -5 -22 -5 3 -10 12 -10 18 -1 7 -7 26 -15 42 l-15 30 6 -42 c7 -49
-3 -54 -37 -17 -28 30 -110 74 -148 80 -14 2 -73 17 -131 34 -102 29 -140 36
-127 24 3 -3 23 -12 44 -19 l38 -14 -65 -2 c-36 -1 -68 -1 -72 0 -5 0 -8 -3
-8 -8 0 -5 -9 -7 -20 -4 -15 4 -19 2 -14 -10 3 -8 1 -18 -5 -22 -7 -4 -8 -12
-1 -24 5 -10 7 -21 4 -23 -2 -3 37 -24 88 -46 226 -98 272 -120 276 -131 8
-23 -31 -23 -84 -1 -30 12 -65 20 -77 17 -78 -18 -198 -54 -305 -93 -114 -42
-165 -52 -112 -24 43 23 11 21 -52 -3 -34 -14 -85 -30 -111 -37 -27 -7 -51
-19 -54 -26 -3 -8 -13 -9 -31 -5 -18 5 -30 3 -37 -5 -5 -8 -25 -15 -43 -16
-17 -1 -32 -5 -32 -9 0 -11 -60 -29 -95 -29 -18 0 -48 -7 -68 -15 -19 -8 -37
-12 -40 -9 -3 3 -16 0 -29 -7 -21 -11 -22 -11 -10 4 11 13 10 17 -5 26 -15 9
-11 10 20 11 49 0 177 27 246 50 112 40 277 162 264 196 -4 11 -1 14 10 12 9
-2 17 1 19 7 3 11 -56 24 -114 24 -24 1 -40 -5 -46 -15 -12 -21 -27 -1 -18 23
6 13 18 15 79 10 39 -4 86 -9 102 -12 28 -6 32 -3 57 47 15 29 30 64 32 78 5
23 23 37 129 103 30 18 85 25 105 13 6 -3 13 -2 17 4 3 5 0 10 -8 10 -8 0 -20
7 -27 15 -38 46 -273 143 -297 123 -10 -8 -13 -6 -13 6 0 10 -9 16 -22 16 -25
0 -108 35 -108 45 0 25 33 77 55 85 63 24 170 6 290 -50 83 -38 110 -46 100
-29 -4 8 2 4 14 -8 12 -13 26 -23 32 -23 6 0 17 -7 25 -15 9 -8 22 -15 30 -15
14 0 -99 110 -113 110 -9 0 -89 75 -118 111 -11 13 -45 68 -76 121 -31 54 -68
107 -83 119 -26 20 -35 61 -18 85 8 13 70 24 74 14 2 -4 15 -10 31 -14 24 -6
27 -4 27 18 0 13 3 32 6 41 6 14 1 16 -34 14 -47 -4 -56 1 -36 19 8 7 14 8 14
3 0 -6 13 -9 29 -8 26 2 31 8 42 47 7 25 25 74 40 109 16 35 26 68 22 74 -3 5
-1 7 4 4 7 -5 11 6 10 28 -1 19 -6 35 -12 35 -6 0 -20 6 -30 14 -19 14 -19 15
5 36 17 15 21 23 12 27 -26 10 -38 31 -37 66 2 41 -8 39 -30 -4 -9 -16 -23
-29 -33 -30 -10 0 -12 -3 -5 -6 9 -3 4 -18 -17 -48 -17 -24 -30 -47 -30 -51 0
-4 -10 -27 -21 -51 -14 -29 -26 -42 -35 -39 -8 3 -14 -1 -14 -9 0 -8 -2 -15
-4 -15 -2 0 -13 -3 -23 -7 -15 -6 -16 -5 -5 9 7 9 15 29 18 45 l4 28 -32 -37
c-28 -30 -37 -35 -55 -27 -13 4 -23 14 -23 22 0 14 50 86 88 127 13 14 33 43
44 65 43 83 119 187 168 232 15 13 35 22 50 20 19 -1 29 6 47 38 25 44 29 65
12 65 -5 0 -7 -5 -3 -12 4 -7 3 -8 -5 -4 -6 4 -8 12 -5 18 4 6 -1 8 -15 3 -11
-3 -37 -1 -56 6 -34 13 -37 12 -61 -16 l-26 -30 22 32 21 33 -26 10 c-51 19
-180 71 -210 84 -69 31 -88 36 -120 36 -19 0 -35 3 -35 8 0 11 62 50 100 63
19 7 40 15 45 19 6 4 18 10 28 13 16 6 17 2 14 -34 -4 -35 -1 -42 16 -47 11
-3 65 -27 120 -54 55 -27 106 -47 113 -44 7 3 11 0 9 -7 -2 -7 20 -29 50 -50
30 -21 55 -34 55 -28 0 5 7 12 16 15 26 10 8 -41 -23 -68 -23 -20 -24 -23 -9
-29 9 -4 15 -3 11 3 -6 9 32 50 47 50 4 0 8 6 8 14 0 10 7 12 22 8 l21 -5 -22
-19 c-23 -18 -23 -18 -2 -18 12 0 21 -6 21 -15 0 -8 -4 -15 -10 -15 -5 0 -10
5 -10 10 0 6 -4 10 -10 10 -5 0 -7 -7 -4 -15 8 -20 -13 -19 -24 2 -9 15 -11
14 -21 -5 -13 -25 -4 -55 15 -48 7 3 16 1 19 -4 5 -8 -92 -50 -115 -50 -6 0
-10 -4 -10 -10 0 -13 13 -13 26 0 5 5 32 7 62 3 49 -5 52 -7 52 -34 0 -16 -4
-29 -10 -29 -5 0 -10 -4 -10 -10 0 -9 65 -4 83 7 16 10 7 83 -13 103 -20 20
-27 50 -11 50 5 0 15 -7 22 -16 12 -15 14 -14 20 7 3 13 11 23 18 21 9 -2 9 3
1 17 -12 24 -13 34 -1 27 5 -3 11 1 15 9 3 8 12 15 21 15 17 0 20 16 5 25 -5
3 -10 0 -11 -7 0 -7 -5 -3 -11 9 -8 17 -7 25 5 37 19 19 44 21 50 4 2 -7 4 -1
4 15 0 15 -4 27 -9 27 -11 0 5 19 55 67 20 20 37 42 37 48 0 6 17 28 38 48 20
19 53 55 72 79 29 35 30 40 10 26 -14 -10 -38 -25 -55 -34 -16 -9 -32 -20 -35
-24 -5 -6 -82 -59 -110 -75 -8 -5 3 9 26 31 61 58 124 114 129 114 11 0 43 34
39 42 -3 4 2 5 10 2 9 -4 18 0 22 9 3 9 18 19 34 22 16 3 34 13 41 21 13 16
12 16 33 8z m804 -19 c-4 -17 -1 -25 8 -25 7 0 18 -9 24 -20 14 -27 1 -25 -32
5 -27 23 -35 45 -21 58 14 15 25 6 21 -18z m3268 -40 c30 -30 77 -66 104 -80
27 -14 63 -42 80 -64 23 -28 45 -43 77 -52 25 -7 66 -28 91 -47 25 -19 58 -39
75 -45 29 -10 30 -11 11 -26 -14 -12 -18 -27 -16 -61 6 -112 -25 -168 -69
-121 -11 11 -26 18 -34 14 -9 -3 -15 -2 -14 3 3 18 -1 37 -7 31 -4 -3 -15 4
-25 16 -16 18 -15 14 3 -18 12 -22 28 -44 35 -48 18 -11 17 -47 -1 -47 -8 0
-24 12 -37 28 l-22 27 6 -67 6 -68 -101 0 c-55 0 -118 -5 -139 -11 -32 -10
-42 -9 -61 5 -13 9 -32 22 -43 30 -11 8 -40 17 -64 21 l-44 7 22 -28 c42 -55
81 -118 81 -132 0 -14 -35 -13 -97 4 -21 6 -23 3 -23 -38 0 -24 6 -50 13 -58
6 -7 -4 -4 -23 8 -26 16 -36 30 -41 57 -3 19 -14 44 -24 55 -19 21 -41 28 -29
9 4 -7 8 -27 10 -46 1 -19 10 -43 20 -54 16 -18 16 -19 -4 -19 -14 0 -29 14
-46 43 -36 62 -47 112 -31 134 13 17 14 17 28 -2 14 -19 15 -18 10 8 -3 16 0
34 8 44 8 9 19 28 26 42 8 18 12 21 12 9 1 -10 8 -18 16 -18 14 0 14 3 0 29
-19 38 -35 48 -35 22 0 -35 -22 -36 -52 -2 -39 43 -37 68 8 87 40 17 53 14 29
-6 -8 -7 -15 -17 -15 -22 0 -5 16 7 34 27 26 27 40 35 55 30 10 -3 22 -1 26 5
3 6 11 8 16 5 5 -4 9 -1 9 4 0 6 -7 11 -15 11 -8 0 -15 4 -15 9 0 4 -13 25
-30 46 -16 21 -30 34 -30 30 0 -5 7 -17 16 -27 16 -16 15 -18 -1 -24 -57 -22
-114 153 -64 197 37 32 58 33 88 5 15 -14 32 -26 38 -26 5 0 28 -13 49 -28 25
-18 50 -27 69 -26 17 1 31 2 32 3 0 0 -12 15 -28 32 -16 17 -29 38 -29 45 0 8
-9 24 -20 36 -35 38 -21 106 27 132 15 8 32 15 36 16 5 0 33 -25 63 -55z
m-3690 -3 c3 -44 37 -147 71 -215 22 -45 26 -48 41 -34 21 19 126 61 117 47
-3 -5 -12 -10 -19 -10 -6 0 -35 -15 -63 -32 l-52 -33 34 -64 c38 -71 40 -96 3
-34 -43 71 -78 148 -116 255 l-38 106 -37 -37 c-39 -39 -45 -59 -25 -90 6 -11
8 -26 3 -37 -7 -18 -8 -18 -12 -1 -3 9 -9 17 -14 17 -5 0 -9 7 -9 16 0 8 -3
13 -7 11 -5 -3 -8 12 -8 34 -1 32 1 36 13 26 12 -9 21 -4 49 28 20 22 40 53
45 68 13 35 21 28 24 -21z m2234 28 c0 -5 -2 -10 -4 -10 -3 0 -8 5 -11 10 -3
6 -1 10 4 10 6 0 11 -4 11 -10z m-2426 -40 c14 -5 26 -13 26 -17 0 -8 -80 -57
-90 -56 -3 1 -13 -3 -22 -8 -23 -12 -23 2 -2 46 9 19 25 36 37 38 12 2 23 5
24 6 1 0 13 -3 27 -9z m1155 -47 c-7 -21 -14 -32 -17 -25 -4 14 18 75 25 68 3
-3 -1 -22 -8 -43z m3924 11 c-10 -19 -19 -31 -21 -25 -3 9 26 61 34 61 2 0 -4
-16 -13 -36z m-43 -2 c0 -4 -10 -9 -22 -9 -18 -2 -20 0 -8 7 18 12 30 13 30 2z
m-1586 -27 c11 -8 16 -18 12 -22 -3 -4 -16 3 -28 15 -25 25 -13 29 16 7z
m-2344 -5 c0 -5 -2 -10 -4 -10 -3 0 -8 5 -11 10 -3 6 -1 10 4 10 6 0 11 -4 11
-10z m2568 -15 c2 -2 -1 -6 -6 -9 -5 -3 -18 4 -28 16 -19 21 -19 21 6 8 14 -7
26 -14 28 -15z m-2498 -26 c17 -30 6 -34 -14 -4 -9 14 -12 25 -7 25 6 0 15 -9
21 -21z m3737 -11 c-3 -8 -6 -5 -6 6 -1 11 2 17 5 13 3 -3 4 -12 1 -19z
m-5529 -7 c3 -10 0 -11 -9 -5 -21 13 -50 5 -89 -24 -33 -24 -34 -24 -15 -2 37
43 103 61 113 31z m5507 9 c-3 -5 -12 -10 -18 -10 -7 0 -6 4 3 10 19 12 23 12
15 0z m-3165 -10 c0 -5 -5 -10 -11 -10 -5 0 -7 5 -4 10 3 6 8 10 11 10 2 0 4
-4 4 -10z m720 -52 c0 -16 -3 -19 -11 -11 -6 6 -8 16 -5 22 11 17 16 13 16
-11z m2600 19 c0 -2 -10 -12 -22 -23 l-23 -19 19 23 c18 21 26 27 26 19z m354
-19 c-3 -4 -11 -5 -19 -1 -21 7 -19 12 4 10 11 0 18 -5 15 -9z m-4905 -61 c47
-76 67 -309 34 -387 -19 -44 -27 -27 -14 30 5 23 9 87 9 142 0 114 -21 194
-66 241 -23 25 -24 28 -5 18 11 -6 30 -26 42 -44z m4498 47 c-3 -3 -12 -4 -19
-1 -8 3 -5 6 6 6 11 1 17 -2 13 -5z m67 -2 c3 -5 -1 -9 -9 -9 -8 0 -12 4 -9 9
3 4 7 8 9 8 2 0 6 -4 9 -8z m-5824 -6 c0 -2 -8 -10 -17 -17 -16 -13 -17 -12
-4 4 13 16 21 21 21 13z m3403 -3 c-7 -2 -19 -2 -25 0 -7 3 -2 5 12 5 14 0 19
-2 13 -5z m-3226 -35 c-3 -7 -5 -2 -5 12 0 14 2 19 5 13 2 -7 2 -19 0 -25z
m3110 26 c-3 -3 -12 -4 -19 -1 -8 3 -5 6 6 6 11 1 17 -2 13 -5z m2490 0 c-3
-3 -12 -4 -19 -1 -8 3 -5 6 6 6 11 1 17 -2 13 -5z m1241 -14 c-7 -10 -14 -17
-17 -15 -4 4 18 35 25 35 2 0 -1 -9 -8 -20z m-933 0 c-3 -5 -11 -10 -16 -10
-6 0 -7 5 -4 10 3 6 11 10 16 10 6 0 7 -4 4 -10z m-105 -10 c-8 -5 -19 -10
-25 -10 -5 0 -3 5 5 10 8 5 20 10 25 10 6 0 3 -5 -5 -10z m1000 -10 c-6 -11
-13 -20 -16 -20 -2 0 0 9 6 20 6 11 13 20 16 20 2 0 0 -9 -6 -20z m-1423 -6
c-3 -3 -12 -4 -19 -1 -8 3 -5 6 6 6 11 1 17 -2 13 -5z m447 -19 c-10 -8 -23
-14 -29 -14 -5 0 -1 6 9 14 11 8 24 15 30 15 5 0 1 -7 -10 -15z m-5169 -5 c-3
-5 -10 -10 -16 -10 -5 0 -9 5 -9 10 0 6 7 10 16 10 8 0 12 -4 9 -10z m5105
-10 c11 -8 7 -9 -15 -4 -37 8 -45 14 -19 14 10 0 26 -5 34 -10z m-5740 -26 c0
-8 -4 -12 -10 -9 -5 3 -10 10 -10 16 0 5 5 9 10 9 6 0 10 -7 10 -16z m2729 -5
c-22 -14 -33 -10 -19 6 7 8 17 12 22 9 6 -4 5 -10 -3 -15z m-2829 7 c0 -3 -4
-8 -10 -11 -5 -3 -10 -1 -10 4 0 6 5 11 10 11 6 0 10 -2 10 -4z m5375 -26 c-3
-5 -16 -15 -28 -21 -22 -12 -22 -12 -3 10 19 21 43 30 31 11z m-5354 -12 c1
-7 1 -16 0 -20 0 -5 4 -8 10 -8 5 0 7 -4 4 -10 -10 -16 -23 -11 -20 8 1 9 -2
23 -8 30 -6 8 -6 12 2 12 6 0 12 -6 12 -12z m5969 8 c0 -3 -4 -8 -10 -11 -5
-3 -10 -1 -10 4 0 6 5 11 10 11 6 0 10 -2 10 -4z m-6918 -26 c-13 -10 -30 -16
-37 -13 -8 3 -15 1 -15 -4 0 -5 -10 -9 -21 -10 -32 -3 -8 17 25 21 15 1 32 8
38 14 7 7 17 12 23 12 5 -1 0 -9 -13 -20z m1738 6 c0 -11 -19 -15 -25 -6 -3 5
1 10 9 10 9 0 16 -2 16 -4z m50 -10 c0 -8 -14 -19 -31 -25 -37 -13 -36 7 2 26
30 16 29 16 29 -1z m2014 -10 c-3 -8 -14 -12 -25 -9 -18 5 -18 6 -2 18 21 15
34 10 27 -9z m66 4 c0 -5 -7 -7 -15 -4 -8 4 -15 8 -15 10 0 2 7 4 15 4 8 0 15
-4 15 -10z m190 -4 c0 -3 -4 -8 -10 -11 -5 -3 -10 -1 -10 4 0 6 5 11 10 11 6
0 10 -2 10 -4z m2770 0 c0 -3 -4 -8 -10 -11 -5 -3 -10 -1 -10 4 0 6 5 11 10
11 6 0 10 -2 10 -4z m90 -51 c7 -9 8 -15 2 -15 -5 0 -12 7 -16 15 -3 8 -4 15
-2 15 2 0 9 -7 16 -15z m-150 -15 c-6 -11 -13 -20 -16 -20 -2 0 0 9 6 20 6 11
13 20 16 20 2 0 0 -9 -6 -20z m-5052 -23 c4 -19 -15 -22 -38 -7 -13 9 -13 11
0 20 19 13 34 8 38 -13z m2092 19 c0 -2 -7 -9 -15 -16 -13 -11 -14 -10 -9 4 5
14 24 23 24 12z m2905 -16 c-10 -11 -23 -20 -29 -19 -6 0 -6 3 2 6 6 2 12 11
12 19 0 8 7 14 17 14 14 0 14 -2 -2 -20z m-545 5 c0 -2 -9 -9 -20 -15 -12 -6
-20 -7 -20 -1 0 5 8 12 18 14 9 3 18 5 20 6 1 0 2 -1 2 -4z m-2094 -52 c-2 -2
-17 -5 -34 -7 -23 -2 -32 1 -32 11 0 8 4 12 9 9 5 -3 14 1 21 9 11 13 14 13
25 -2 8 -10 12 -19 11 -20z m189 17 c-3 -5 -14 -6 -25 -3 -11 3 -18 9 -15 13
3 5 14 6 25 3 11 -3 18 -9 15 -13z m-65 0 c0 -5 -7 -10 -15 -10 -8 0 -15 5
-15 10 0 6 7 10 15 10 8 0 15 -4 15 -10z m1906 -17 c-10 -10 -19 5 -10 18 6
11 8 11 12 0 2 -7 1 -15 -2 -18z m-2276 7 c0 -5 -5 -10 -11 -10 -5 0 -7 5 -4
10 3 6 8 10 11 10 2 0 4 -4 4 -10z m310 0 c0 -5 -5 -10 -11 -10 -5 0 -7 5 -4
10 3 6 8 10 11 10 2 0 4 -4 4 -10z m2697 -6 c-3 -3 -12 -4 -19 -1 -8 3 -5 6 6
6 11 1 17 -2 13 -5z m-832 -14 c-3 -5 -11 -10 -16 -10 -6 0 -7 5 -4 10 3 6 11
10 16 10 6 0 7 -4 4 -10z m-2425 -4 c0 -3 -4 -8 -10 -11 -5 -3 -10 -1 -10 4 0
6 5 11 10 11 6 0 10 -2 10 -4z m1520 -6 c0 -5 -5 -10 -11 -10 -5 0 -7 5 -4 10
3 6 8 10 11 10 2 0 4 -4 4 -10z m-1417 -30 c-5 -19 -23 -29 -23 -12 0 7 20 32
26 32 1 0 0 -9 -3 -20z m1114 -11 c15 -6 41 -11 58 -11 17 1 24 -2 17 -7 -8
-5 2 -12 28 -21 22 -7 40 -17 40 -22 0 -10 2 -10 -39 2 -26 7 -37 6 -48 -5 -8
-8 -20 -15 -26 -15 -7 0 -6 4 3 10 10 7 11 10 2 10 -7 0 -15 -6 -18 -14 -3 -8
-25 -19 -50 -25 -24 -6 -44 -14 -44 -16 0 -3 14 -14 31 -24 28 -17 32 -26 34
-66 l2 -46 -36 1 c-92 4 -121 -5 -133 -42 -3 -9 -9 -8 -22 5 -9 9 -14 22 -10
28 4 8 3 9 -5 5 -6 -4 -14 -1 -17 7 -3 8 -23 17 -44 21 -21 3 -40 9 -42 13 -1
5 -23 15 -48 23 -33 11 -46 21 -48 38 -3 17 2 22 17 22 12 0 21 3 21 8 0 4 14
8 32 9 29 2 53 21 42 32 -3 3 -9 -1 -14 -9 -5 -8 -12 -12 -15 -8 -3 3 0 12 8
20 16 15 55 17 78 3 25 -16 41 -15 34 3 -4 12 1 10 15 -5 11 -13 25 -23 30
-23 6 0 10 -10 11 -22 0 -13 3 -17 6 -10 3 8 29 39 59 70 29 31 51 59 48 64
-7 11 10 10 43 -3z m1183 1 c0 -5 -2 -10 -4 -10 -3 0 -8 5 -11 10 -3 6 -1 10
4 10 6 0 11 -4 11 -10z m38 -18 c-2 -8 -19 -21 -38 -29 -19 -7 -25 -11 -12 -9
27 5 28 0 2 -14 -17 -9 -22 -7 -30 16 -8 19 -7 31 0 38 7 7 10 5 10 -7 0 -18
7 -15 43 19 15 15 29 7 25 -14z m-4207 1 c13 -16 12 -17 -3 -4 -10 7 -18 15
-18 17 0 8 8 3 21 -13z m2474 -34 c0 -19 -6 -24 -29 -26 -27 -2 -28 -1 -11 18
10 10 15 19 11 19 -4 0 -4 5 -1 11 11 17 30 4 30 -22z m3350 -10 c-9 -17 -19
-28 -22 -25 -6 6 23 56 32 56 3 0 -2 -14 -10 -31z m-2975 12 c0 -6 -4 -13 -10
-16 -5 -3 -10 1 -10 9 0 9 5 16 10 16 6 0 10 -4 10 -9z m2820 -42 c-41 -40
-57 -36 -25 5 16 22 32 33 41 29 11 -4 7 -12 -16 -34z m-5382 -30 c-6 -16 -12
-29 -13 -27 -6 6 8 58 16 58 4 0 3 -14 -3 -31z m2042 0 c0 -14 -17 -10 -23 5
-4 10 -1 13 9 9 7 -3 14 -9 14 -14z m45 -10 c11 -16 1 -19 -13 -3 -7 8 -8 14
-3 14 5 0 13 -5 16 -11z m35 -9 c0 -5 -4 -10 -10 -10 -5 0 -10 5 -10 10 0 6 5
10 10 10 6 0 10 -4 10 -10z m1937 -13 c-12 -13 -24 -22 -26 -20 -6 4 30 43 40
43 5 0 -2 -10 -14 -23z m-2023 -30 c9 -62 37 -100 85 -119 23 -9 43 -12 47 -7
7 12 84 12 84 -1 0 -5 -4 -10 -10 -10 -5 0 -10 -9 -10 -20 0 -11 5 -20 10 -20
6 0 10 -7 10 -15 0 -12 -8 -14 -42 -9 -24 4 -46 11 -49 16 -3 5 -26 9 -50 8
-24 0 -60 2 -79 5 l-35 6 35 -30 c20 -19 45 -31 61 -31 50 0 98 -26 99 -53 0
-10 -92 -97 -103 -97 -4 0 -5 -5 -1 -12 4 -6 3 -8 -3 -5 -6 4 -17 0 -24 -9
-14 -18 -70 -49 -81 -46 -5 1 -8 -2 -8 -7 0 -6 -9 -8 -20 -6 -17 3 -19 1 -9
-17 9 -17 8 -19 -10 -13 -11 3 -29 1 -41 -5 -13 -7 -20 -7 -20 0 0 5 6 10 13
10 7 0 30 27 51 60 21 33 42 60 47 60 5 0 9 9 9 20 0 11 4 20 9 20 20 0 3 35
-20 42 -16 5 -9 7 22 4 26 -2 53 2 62 9 21 15 21 22 2 22 -8 0 -15 -4 -15 -8
0 -4 -15 0 -32 9 -18 9 -42 17 -53 19 -11 1 -32 5 -47 7 -15 3 -30 1 -33 -4
-3 -6 -15 -10 -25 -10 -10 0 -20 -5 -22 -11 -3 -8 -7 -7 -15 2 -9 11 -5 14 19
16 42 3 45 9 18 33 l-22 20 31 37 c43 52 44 53 63 93 9 19 20 34 23 32 3 -1
17 11 31 28 14 16 29 30 34 30 4 0 11 -19 14 -43z m-89 13 c-3 -5 -1 -10 6
-10 7 0 10 -3 6 -6 -9 -9 -28 6 -22 17 4 5 8 9 11 9 3 0 2 -4 -1 -10z m3552
-25 c-7 -13 -14 -20 -15 -14 -2 5 2 16 8 24 18 21 20 18 7 -10z m144 5 c10 0
19 6 20 13 0 10 2 10 6 0 2 -7 11 -13 19 -13 9 0 12 5 8 12 -4 7 -3 8 5 4 9
-6 8 -14 -4 -32 -9 -14 -13 -33 -10 -44 4 -14 2 -20 -9 -20 -10 0 -16 -9 -16
-22 0 -19 -2 -20 -10 -8 -7 11 -8 6 -4 -17 6 -30 4 -33 -20 -33 -21 0 -26 -5
-26 -24 0 -13 -6 -29 -14 -35 -18 -15 -46 -3 -46 20 0 10 -4 19 -10 19 -19 0
-10 53 13 73 15 13 18 21 10 24 -7 3 -13 11 -13 19 0 9 4 13 9 10 5 -4 11 -2
13 3 6 20 53 69 56 60 2 -5 12 -9 23 -9z m-3721 0 c0 -5 -5 -10 -11 -10 -5 0
-7 5 -4 10 3 6 8 10 11 10 2 0 4 -4 4 -10z m1805 -19 c-3 -6 -11 -11 -17 -11
-6 0 -6 6 2 15 14 17 26 13 15 -4z m-1848 -7 c-3 -3 -12 -4 -19 -1 -8 3 -5 6
6 6 11 1 17 -2 13 -5z m3593 -29 c-7 -8 -18 -15 -24 -15 -6 0 -2 7 8 15 25 19
32 19 16 0z m-4115 -5 c3 -5 1 -10 -4 -10 -6 0 -11 5 -11 10 0 6 2 10 4 10 3
0 8 -4 11 -10z m372 -6 c-3 -3 -12 -4 -19 -1 -8 3 -5 6 6 6 11 1 17 -2 13 -5z
m3281 -19 c15 -6 15 -8 -3 -18 -25 -14 -462 -19 -487 -6 -12 6 -18 6 -18 0 0
-6 -7 -8 -15 -5 -34 13 -11 24 53 25 37 0 103 6 147 12 78 12 286 6 323 -8z
m-3413 -6 c13 -12 38 -11 30 1 -4 6 -3 10 2 9 4 -1 16 1 26 6 10 4 21 5 24 2
3 -4 -6 -11 -21 -16 -14 -6 -26 -13 -26 -16 0 -4 13 -26 30 -50 23 -34 41 -47
81 -60 28 -9 53 -23 56 -30 2 -8 11 -11 19 -8 8 3 14 -1 14 -8 0 -11 2 -12 9
-1 6 11 14 11 42 -1 58 -24 102 -37 110 -31 5 3 6 -2 3 -10 -7 -18 -24 -22
-24 -6 0 16 -47 12 -53 -4 -4 -10 -1 -13 9 -9 14 5 14 3 3 -16 -8 -11 -21 -21
-29 -21 -12 0 -12 2 -1 9 19 13 1 19 -38 14 -23 -4 -29 -8 -20 -14 11 -7 11
-9 -1 -9 -9 0 -22 9 -30 20 -8 11 -26 20 -40 20 -18 0 -21 -3 -11 -9 9 -6 -1
-10 -32 -12 -25 -2 -45 0 -44 5 2 9 -111 9 -125 0 -5 -3 -8 0 -8 5 0 14 -36 9
-52 -7 -7 -7 -28 -9 -55 -5 -29 4 -43 2 -43 -6 0 -6 -5 -11 -11 -11 -5 0 -7 6
-4 13 4 6 -2 2 -13 -10 -23 -26 -37 -30 -29 -9 4 11 -1 11 -35 -1 -22 -7 -86
-15 -142 -17 -86 -3 -110 -1 -161 19 -33 12 -88 33 -122 45 -35 12 -63 26 -63
29 0 14 73 41 133 50 34 5 98 21 142 35 44 14 86 26 93 26 7 0 23 5 35 12 12
7 29 12 37 13 39 3 79 18 73 28 -4 6 0 8 11 4 10 -4 35 2 59 14 70 35 164 43
192 18z m785 1 c0 -5 -5 -10 -11 -10 -5 0 -7 5 -4 10 3 6 8 10 11 10 2 0 4 -4
4 -10z m1716 -27 c-10 -10 -19 5 -10 18 6 11 8 11 12 0 2 -7 1 -15 -2 -18z
m-2409 -5 c-3 -8 -6 -5 -6 6 -1 11 2 17 5 13 3 -3 4 -12 1 -19z m827 -44 c0
-15 6 -22 14 -19 6 2 12 0 12 -6 0 -6 -8 -9 -17 -7 -10 2 -17 10 -15 17 1 7
-3 11 -10 8 -7 -2 -12 -10 -10 -16 1 -6 -2 -11 -7 -11 -5 0 -8 18 -6 41 3 34
2 39 -11 28 -17 -14 -19 -3 -2 15 16 16 50 -16 52 -50z m1544 59 c-10 -2 -28
-2 -40 0 -13 2 -5 4 17 4 22 1 32 -1 23 -4z m985 -28 c-7 -21 -13 -19 -13 6 0
11 4 18 10 14 5 -3 7 -12 3 -20z m-62 -6 c-28 -23 -20 -39 11 -20 22 14 22 11
-6 -35 -11 -17 -33 -37 -50 -44 -18 -8 -25 -15 -17 -18 7 -2 17 1 20 7 4 6 15
9 24 5 20 -7 23 -25 5 -21 -7 1 -12 -4 -10 -10 1 -7 -4 -12 -10 -10 -7 1 -12
-4 -10 -10 4 -21 -15 -14 -21 7 -3 11 -10 20 -16 20 -13 0 -15 -31 -3 -45 4
-6 6 -9 3 -8 -2 1 -13 -4 -25 -12 -11 -8 -29 -15 -39 -15 -10 0 -16 -4 -13 -9
3 -4 -8 -8 -24 -7 -17 1 -30 4 -30 9 0 4 -7 7 -15 7 -8 0 -15 5 -15 10 0 5 -6
9 -12 7 -8 -1 -14 12 -16 35 -3 31 2 41 29 65 18 15 40 35 48 43 9 8 27 13 40
12 13 -2 21 0 18 5 -4 6 0 10 8 10 8 0 15 -6 15 -12 0 -6 7 -12 15 -12 8 0 12
4 9 9 -3 4 2 8 10 8 15 0 18 5 15 27 -1 10 31 22 61 22 l25 0 -24 -20z m-2701
-39 c0 -5 7 -7 15 -4 18 7 19 0 5 -26 -6 -11 -17 -17 -25 -14 -17 7 -21 54 -5
54 6 0 10 -4 10 -10z m135 -30 c3 -5 1 -10 -4 -10 -6 0 -11 5 -11 10 0 6 2 10
4 10 3 0 8 -4 11 -10z m197 -5 c0 -5 -5 -11 -11 -13 -6 -2 -11 4 -11 13 0 9 5
15 11 13 6 -2 11 -8 11 -13z m2385 -5 c-1 -11 -7 -20 -14 -20 -11 0 -11 5 -3
20 6 11 13 20 15 20 2 0 3 -9 2 -20z m-2730 -26 c0 -7 -6 -10 -14 -7 -7 3 -13
8 -13 12 0 4 6 8 13 8 8 0 14 -6 14 -13z m-3901 -21 c-10 -10 -19 5 -10 18 6
11 8 11 12 0 2 -7 1 -15 -2 -18z m5964 15 c0 -5 -16 -15 -34 -23 -19 -8 -40
-23 -45 -32 -8 -14 -10 -15 -11 -3 0 13 -1 13 -10 0 -7 -11 -12 -12 -20 -4
-14 14 23 44 52 44 10 0 18 5 18 11 0 5 5 7 10 4 6 -3 10 -2 10 3 0 5 7 9 15
9 8 0 15 -4 15 -9z m-5940 -35 c-11 -17 -11 -17 -6 0 3 10 6 24 7 30 0 9 2 9
5 0 3 -7 0 -20 -6 -30z m128 -9 c2 -21 1 -36 -2 -33 -3 3 -7 18 -8 32 -1 15
-6 27 -11 27 -5 0 -30 -17 -56 -38 -82 -67 -77 -65 -96 -46 -11 11 -13 20 -6
27 5 5 7 16 4 23 -3 8 0 14 6 14 6 0 11 -7 11 -16 0 -8 4 -12 10 -9 6 4 7 -1
3 -12 -5 -13 4 -10 32 13 98 74 108 76 113 18z m4202 36 c0 -5 -5 -10 -11 -10
-5 0 -7 5 -4 10 3 6 8 10 11 10 2 0 4 -4 4 -10z m-773 -6 c-3 -3 -12 -4 -19
-1 -8 3 -5 6 6 6 11 1 17 -2 13 -5z m643 -4 c0 -5 -8 -10 -17 -10 -14 0 -15
-2 -5 -9 10 -6 10 -10 -1 -20 -12 -9 -16 -8 -20 8 -5 21 9 41 30 41 7 0 13 -4
13 -10z m70 0 c0 -5 -4 -10 -10 -10 -5 0 -10 5 -10 10 0 6 5 10 10 10 6 0 10
-4 10 -10z m-29 -43 c-10 -9 -11 -8 -5 6 3 10 9 15 12 12 3 -3 0 -11 -7 -18z
m-4283 -84 c15 -4 48 -8 74 -8 27 0 48 -4 48 -9 0 -4 -29 -6 -65 -4 -71 4
-115 32 -115 72 0 17 4 14 16 -11 9 -18 27 -35 42 -40z m3606 43 c-3 -9 -10
-16 -15 -16 -14 0 -11 28 4 33 16 6 19 3 11 -17z m-3447 -8 c-3 -8 -6 -5 -6 6
-1 11 2 17 5 13 3 -3 4 -12 1 -19z m3081 -1 c6 -7 7 -18 3 -26 -12 -19 -68 -5
-74 20 -4 16 0 19 28 19 18 0 37 -6 43 -13z m783 -27 c5 0 9 -7 9 -15 0 -17
-27 -17 -46 0 -16 13 -6 28 13 21 8 -3 19 -6 24 -6z m-921 -25 c0 -19 -12 -25
-27 -14 -19 16 -16 28 7 26 11 -1 20 -6 20 -12z m86 1 c15 -8 32 -12 37 -9 5
3 4 -4 -2 -15 -7 -14 -8 -23 -1 -27 5 -3 10 -11 10 -17 0 -6 -3 -8 -7 -5 -3 4
-13 1 -21 -5 -12 -10 -13 -7 -10 22 3 32 1 35 -27 38 -22 2 -26 0 -15 -7 20
-13 7 -24 -19 -16 -29 9 -29 49 -1 42 11 -3 20 -1 20 4 0 12 3 12 36 -5z
m-113 -30 c17 -13 16 -14 -2 -19 -22 -5 -31 0 -31 20 0 16 10 16 33 -1z m224
-37 c-11 -19 -12 -19 -15 6 -2 14 -8 25 -13 25 -5 0 -9 5 -9 10 0 6 11 3 25
-6 21 -13 22 -19 12 -35z m3780 4 c-3 -10 -5 -2 -5 17 0 19 2 27 5 18 2 -10 2
-26 0 -35z m-5560 -45 c-2 -18 -4 -6 -4 27 0 33 2 48 4 33 2 -15 2 -42 0 -60z
m2918 62 c-3 -5 -15 -10 -26 -10 -10 0 -19 5 -19 10 0 6 12 10 26 10 14 0 23
-4 19 -10z m-2938 -62 c-2 -13 -4 -3 -4 22 0 25 2 35 4 23 2 -13 2 -33 0 -45z
m280 25 c-2 -2 -16 1 -31 7 -15 5 -39 11 -54 11 -23 1 -22 3 8 8 23 4 43 2 58
-7 12 -8 21 -16 19 -19z m1288 7 c11 -17 -5 -32 -21 -19 -7 6 -11 15 -8 20 7
12 21 11 29 -1z m265 1 c0 -5 -7 -11 -14 -14 -10 -4 -13 -1 -9 9 6 15 23 19
23 5z m2247 -13 c-3 -8 -6 -5 -6 6 -1 11 2 17 5 13 3 -3 4 -12 1 -19z m-387 2
c0 -5 -8 -10 -19 -10 -10 0 -35 -7 -55 -15 -47 -20 -46 -10 2 14 42 21 72 26
72 11z m-2380 -21 c0 -4 -4 -11 -10 -14 -5 -3 -10 -11 -10 -16 0 -6 5 -7 12
-3 6 4 8 3 4 -4 -3 -6 -15 -9 -25 -7 -12 2 -18 -2 -17 -13 0 -9 -5 -17 -11
-17 -7 0 -13 3 -13 8 0 4 0 16 0 27 0 13 9 22 25 26 14 3 23 9 20 13 -2 4 2 8
10 8 8 0 15 -4 15 -8z m-1273 -21 c-3 -8 -6 -5 -6 6 -1 11 2 17 5 13 3 -3 4
-12 1 -19z m97 13 c3 -5 -1 -11 -9 -15 -9 -3 -15 0 -15 9 0 16 16 20 24 6z
m1266 5 c0 -2 -7 -6 -15 -10 -8 -3 -15 -1 -15 4 0 6 7 10 15 10 8 0 15 -2 15
-4z m-1314 -23 c-15 -4 -17 -11 -13 -39 3 -18 2 -36 -2 -38 -4 -3 -8 15 -10
40 -2 40 0 44 21 43 19 -1 20 -2 4 -6z m1369 -3 c3 -6 -1 -7 -9 -4 -18 7 -21
14 -7 14 6 0 13 -4 16 -10z m1295 -9 c0 -5 -6 -11 -12 -14 -7 -2 -10 -8 -5
-12 4 -5 13 0 21 10 10 14 15 15 21 5 5 -8 4 -15 -2 -17 -6 -2 -19 -11 -29
-19 -17 -13 -16 -13 12 0 17 8 35 12 39 8 5 -4 5 -2 1 5 -4 8 1 11 13 10 11 0
17 -5 14 -10 -2 -4 0 -14 7 -22 8 -10 8 -15 -1 -20 -6 -4 -15 -2 -19 5 -4 7
-13 9 -19 6 -6 -4 -8 -13 -4 -19 4 -8 1 -7 -9 1 -14 11 -16 10 -11 -7 3 -12 1
-21 -6 -21 -6 0 -11 -4 -11 -10 0 -6 27 -10 61 -10 51 0 60 2 50 14 -10 12 -6
46 6 46 16 0 41 -23 37 -34 -3 -9 6 -13 33 -14 44 -2 93 7 92 16 -4 22 4 32
24 33 21 1 21 1 -3 8 -19 6 -27 3 -33 -12 -7 -18 -9 -19 -25 -3 -10 9 -23 16
-28 16 -5 0 0 -7 10 -15 22 -17 15 -31 -9 -21 -9 3 -13 10 -10 16 3 5 1 10 -6
10 -18 0 23 29 41 30 8 0 26 9 40 20 26 20 50 12 50 -17 0 -22 25 -9 28 14 3
19 32 42 32 26 0 -18 -43 -72 -53 -66 -8 5 -8 2 0 -9 7 -8 9 -18 5 -23 -4 -4
3 -4 16 -1 32 10 28 -12 -5 -26 -16 -6 -47 -12 -71 -14 -24 -1 -50 -8 -58 -15
-11 -9 -14 -9 -14 2 0 11 -2 11 -10 -1 -5 -8 -14 -16 -20 -16 -5 -1 -13 -3
-17 -4 -5 -1 -21 -1 -37 0 -20 1 -26 -2 -21 -10 4 -7 1 -16 -6 -21 -19 -12
-59 -11 -59 1 0 15 -31 12 -51 -6 -12 -11 -25 -13 -41 -8 -13 4 -26 9 -30 10
-5 1 -11 2 -15 3 -5 1 3 7 17 13 23 10 23 11 5 16 -22 5 -38 24 -27 32 4 3 13
17 19 33 7 15 19 27 28 27 8 0 15 7 15 16 0 8 -4 13 -9 9 -16 -10 -25 17 -9
29 8 6 13 17 11 24 -3 7 5 12 21 12 14 0 26 -4 26 -9z m2800 1 c0 -4 -10 -13
-22 -21 -23 -14 -23 -14 -4 8 20 22 26 25 26 13z m-4140 -12 c0 -5 -4 -10 -10
-10 -5 0 -10 5 -10 10 0 6 5 10 10 10 6 0 10 -4 10 -10z m1505 -31 c11 -17 -1
-21 -15 -4 -8 9 -8 15 -2 15 6 0 14 -5 17 -11z m265 8 c0 -2 -10 -12 -21 -23
-22 -19 -22 -19 -10 4 10 18 31 31 31 19z m-2760 -17 c-8 -5 -19 -10 -25 -10
-5 0 -3 5 5 10 8 5 20 10 25 10 6 0 3 -5 -5 -10z m1800 3 c0 -10 -62 -47 -73
-45 -4 1 -10 -5 -13 -13 -3 -8 -10 -12 -15 -9 -5 3 -9 1 -9 -4 0 -9 -37 -25
-52 -23 -5 1 -8 -3 -8 -7 0 -5 -19 -17 -42 -27 -24 -10 -63 -28 -88 -41 -43
-21 -46 -22 -66 -6 -28 22 -38 52 -19 52 8 0 15 7 15 16 0 13 7 15 30 11 39
-8 88 9 86 31 0 9 7 18 16 20 13 2 16 -1 12 -12 -5 -12 -1 -14 23 -6 73 22
123 43 123 50 0 8 19 13 68 19 6 0 12 -2 12 -6z m430 -23 c8 -16 8 -20 -4 -20
-9 0 -14 8 -13 20 1 11 2 20 4 20 1 0 7 -9 13 -20z m630 10 c0 -5 -2 -10 -4
-10 -3 0 -8 5 -11 10 -3 6 -1 10 4 10 6 0 11 -4 11 -10z m2595 0 c-3 -5 -16
-10 -28 -9 -20 1 -20 2 3 9 14 4 26 8 28 9 2 1 0 -3 -3 -9z m-5920 -9 c3 -5 2
-12 -3 -15 -5 -3 -9 1 -9 9 0 17 3 19 12 6z m3396 -18 c-12 -20 -14 -14 -5 12
4 9 9 14 11 11 3 -2 0 -13 -6 -23z m-3255 10 c-4 -4 8 -13 26 -19 l33 -12 -30
-1 c-38 -1 -75 9 -75 19 0 5 10 11 23 13 12 2 24 5 26 6 2 0 1 -2 -3 -6z m109
-13 c3 -6 -1 -7 -9 -4 -18 7 -21 14 -7 14 6 0 13 -4 16 -10z m86 -7 c12 -16
12 -17 -1 -7 -8 6 -22 14 -30 17 -13 5 -12 6 1 6 9 1 23 -7 30 -16z m5246 11
c-3 -3 -12 -4 -19 -1 -8 3 -5 6 6 6 11 1 17 -2 13 -5z m-4192 -23 c-8 -13 -52
-14 -60 -2 -3 5 9 11 27 13 39 4 42 3 33 -11z m1243 -24 c2 -11 -3 -17 -16
-17 -12 0 -22 -9 -27 -22 -4 -14 -8 -18 -12 -10 -2 6 -9 10 -14 6 -19 -12 -8
29 14 47 26 22 50 21 55 -4z m2775 8 c-3 -9 -8 -14 -10 -11 -3 3 -2 9 2 15 9
16 15 13 8 -4z m-2188 -5 c-4 -6 -1 -17 5 -25 10 -12 9 -16 -4 -21 -9 -4 -19
-4 -22 -2 -6 6 13 58 21 58 4 0 3 -5 0 -10z m40 0 c3 -5 2 -10 -4 -10 -5 0
-13 5 -16 10 -3 6 -2 10 4 10 5 0 13 -4 16 -10z m2442 4 c-3 -3 -12 -4 -19 -1
-8 3 -5 6 6 6 11 1 17 -2 13 -5z m-2375 -43 c4 -3 3 -13 -2 -21 -8 -12 -12
-11 -30 7 -11 12 -20 25 -20 28 0 7 41 -4 52 -14z m-2312 -1 c0 -5 -4 -10 -10
-10 -5 0 -10 5 -10 10 0 6 5 10 10 10 6 0 10 -4 10 -10z m1665 -17 c2 -28 -65
-53 -88 -32 -12 12 -11 16 7 30 41 32 79 33 81 2z m-4165 1 c0 -2 -12 -4 -27
-4 -21 0 -24 3 -14 9 13 8 41 5 41 -5z m6969 -5 c-15 -9 -32 -2 -24 11 3 5 13
6 21 3 12 -4 13 -8 3 -14z m-3867 -23 c9 0 14 -4 12 -8 -8 -13 -29 -9 -50 8
-19 15 -19 16 1 8 11 -4 28 -7 37 -8z m827 3 c23 -8 29 -14 20 -20 -7 -4 -20
-4 -30 1 -9 5 -19 6 -23 3 -3 -3 -6 1 -6 10 0 20 -1 20 39 6z m-1235 -44 c-31
-23 -41 -17 -14 9 14 12 27 19 29 14 1 -5 -5 -16 -15 -23z m173 29 c-3 -3 -12
-4 -19 -1 -8 3 -5 6 6 6 11 1 17 -2 13 -5z m929 -14 c36 0 54 -11 54 -31 0
-24 29 -37 40 -18 5 7 12 10 16 6 4 -4 13 1 21 11 8 9 12 11 8 5 -4 -9 1 -13
14 -13 12 0 21 -4 21 -10 0 -5 -18 -10 -39 -10 -22 0 -41 -5 -43 -11 -3 -8
-24 -7 -73 3 -73 14 -71 12 -67 73 2 15 5 16 14 7 7 -7 22 -12 34 -12z m69 10
c3 -6 -1 -7 -9 -4 -18 7 -21 14 -7 14 6 0 13 -4 16 -10z m295 -5 c0 -8 -9 -15
-20 -15 -22 0 -27 15 -7 23 21 9 27 7 27 -8z m70 5 c0 -5 -5 -10 -11 -10 -5 0
-7 5 -4 10 3 6 8 10 11 10 2 0 4 -4 4 -10z m565 -20 c1 -14 -2 -17 -13 -11 -8
5 -24 7 -36 5 -13 -3 -10 0 7 7 15 6 27 16 27 22 0 18 14 -2 15 -23z m-1765
14 c0 -12 -27 -31 -53 -38 -24 -6 -27 -5 -15 8 7 7 16 12 19 10 4 -2 12 3 19
11 12 15 30 20 30 9z m430 -9 c7 -8 9 -15 6 -15 -4 0 -14 7 -22 15 -9 8 -11
15 -6 15 5 0 15 -7 22 -15z m1030 -14 c0 -42 -15 -46 -16 -5 0 19 3 34 8 34 4
0 8 -13 8 -29z m2620 9 c-8 -5 -19 -10 -25 -10 -5 0 -3 5 5 10 8 5 20 10 25
10 6 0 3 -5 -5 -10z m-2960 -21 c0 -5 -6 -9 -14 -9 -23 0 -46 11 -41 20 6 10
55 0 55 -11z m233 -16 c7 -9 5 -13 -7 -13 -11 0 -16 8 -15 28 0 15 3 21 6 12
3 -8 10 -21 16 -27z m-1351 5 c-7 -7 -12 -8 -12 -2 0 14 12 26 19 19 2 -3 -1
-11 -7 -17z m848 12 c0 -5 -4 -10 -10 -10 -5 0 -10 5 -10 10 0 6 5 10 10 10 6
0 10 -4 10 -10z m-630 -15 c10 -12 10 -15 -4 -15 -9 0 -16 7 -16 15 0 8 2 15
4 15 2 0 9 -7 16 -15z m1583 0 c-3 -9 -8 -14 -10 -11 -3 3 -2 9 2 15 9 16 15
13 8 -4z m-2233 -3 c0 -5 -7 -9 -15 -9 -8 0 -12 4 -9 9 3 4 9 8 15 8 5 0 9 -4
9 -8z m255 -10 c-3 -3 -11 0 -18 7 -9 10 -8 11 6 5 10 -3 15 -9 12 -12z m1735
8 c0 -5 -2 -10 -4 -10 -3 0 -8 5 -11 10 -3 6 -1 10 4 10 6 0 11 -4 11 -10z
m-483 -6 c-3 -3 -12 -4 -19 -1 -8 3 -5 6 6 6 11 1 17 -2 13 -5z m606 -25 c4
-14 -1 -23 -19 -31 -13 -6 -26 -20 -30 -31 -5 -16 -8 -17 -15 -6 -12 19 -11
29 1 29 20 0 36 24 32 47 -3 18 -1 22 11 17 8 -3 17 -14 20 -25z m-557 5 c-5
-14 -4 -15 9 -4 9 7 18 10 22 6 3 -3 1 -6 -4 -6 -19 0 -7 -35 13 -39 26 -4 44
-20 44 -38 0 -12 -7 -13 -27 -8 -45 12 -58 11 -55 -4 1 -7 -2 -19 -8 -26 -8
-10 -7 -21 4 -42 9 -19 11 -34 5 -44 -8 -12 -10 -12 -19 1 -5 8 -10 11 -10 7
0 -4 7 -18 16 -31 21 -33 7 -90 -24 -94 -25 -4 -27 1 -12 29 10 17 2 26 -14
17 -2 -2 -14 10 -26 25 -18 22 -28 27 -47 22 -21 -5 -23 -3 -18 17 5 20 -1 26
-36 41 -43 19 -54 17 -54 -10 0 -9 -6 -18 -14 -21 -10 -3 -13 3 -9 27 5 34 1
37 -26 18 -14 -10 -15 -17 -7 -40 16 -42 12 -57 -4 -19 -11 26 -20 33 -37 30
-13 -2 -22 -9 -21 -15 2 -7 -4 -10 -12 -7 -21 8 -42 -11 -48 -46 -5 -23 -11
-28 -29 -27 -28 3 -48 15 -68 42 -8 11 -11 17 -7 14 15 -12 57 37 57 66 0 16
8 37 17 47 15 17 15 20 3 28 -12 7 -12 12 -2 22 9 9 12 9 12 0 0 -7 5 -12 11
-12 5 0 9 8 8 18 -4 42 1 52 27 52 19 0 25 -4 20 -15 -3 -8 -1 -15 4 -15 6 0
10 5 10 10 0 6 11 10 25 10 26 0 35 -24 13 -33 -8 -3 -7 -6 4 -6 9 -1 20 4 23
9 10 17 75 12 75 -5 0 -8 -8 -15 -17 -15 -14 0 -15 -2 -5 -9 10 -6 10 -10 -3
-21 -16 -14 -21 -35 -5 -25 6 3 10 2 10 -3 0 -5 11 -9 24 -9 16 0 28 8 36 26
12 25 13 25 21 6 5 -14 8 -16 9 -5 1 8 3 20 4 26 5 43 78 57 84 17 2 -13 10
-23 17 -23 22 0 28 20 11 39 -14 16 -14 19 2 39 20 26 37 29 28 6z m-776 -4
c0 -5 -5 -10 -11 -10 -5 0 -7 5 -4 10 3 6 8 10 11 10 2 0 4 -4 4 -10z m-692
-44 c-2 -31 -6 -42 -15 -39 -16 6 -16 23 -3 57 14 38 20 32 18 -18z m-44 25
c3 -4 0 -16 -7 -25 -11 -14 -12 -13 -12 9 0 25 9 33 19 16z m1866 -30 c0 -16
-28 -20 -34 -5 -4 9 1 14 14 14 11 0 20 -4 20 -9z m-1640 -21 c-6 -11 -15 -20
-20 -20 -6 0 -5 9 2 20 7 11 16 20 21 20 4 0 3 -9 -3 -20z m4200 -6 c0 -2 -7
-4 -15 -4 -8 0 -15 4 -15 10 0 5 7 7 15 4 8 -4 15 -8 15 -10z m-2772 -19 c-3
-3 -9 2 -12 12 -6 14 -5 15 5 6 7 -7 10 -15 7 -18z m242 15 c0 -5 -2 -10 -4
-10 -3 0 -8 5 -11 10 -3 6 -1 10 4 10 6 0 11 -4 11 -10z m135 -19 c-3 -6 -11
-8 -17 -5 -6 4 -5 9 3 15 16 10 23 4 14 -10z m115 15 c0 -3 -4 -8 -10 -11 -5
-3 -10 -1 -10 4 0 6 5 11 10 11 6 0 10 -2 10 -4z m-2257 -34 c-6 -24 -23 -30
-23 -9 0 13 21 39 26 34 2 -2 1 -13 -3 -25z m124 6 c-3 -8 -6 -5 -6 6 -1 11 2
17 5 13 3 -3 4 -12 1 -19z m1828 -14 c1 -23 -19 -39 -36 -28 -13 8 -11 21 8
44 20 23 28 18 28 -16z m-245 15 c0 -12 -36 -30 -44 -22 -14 14 -4 31 19 31
14 0 25 -4 25 -9z m2890 3 c0 -4 -10 -9 -22 -9 -18 -2 -20 0 -8 7 18 12 30 13
30 2z m-2383 -24 c-3 -8 -6 -5 -6 6 -1 11 2 17 5 13 3 -3 4 -12 1 -19z m2420
7 c0 -8 -4 -12 -9 -9 -5 3 -6 10 -3 15 9 13 12 11 12 -6z m-4227 -15 c-12 -22
-15 -23 -45 -10 -19 8 -19 9 2 9 12 1 25 6 28 11 12 20 26 10 15 -10z m-3100
-15 c-7 -9 -15 -13 -18 -10 -3 2 1 11 8 20 7 9 15 13 18 10 3 -2 -1 -11 -8
-20z m7191 8 c13 -16 12 -17 -3 -4 -10 7 -18 15 -18 17 0 8 8 3 21 -13z
m-2782 -18 c2 -14 -2 -17 -19 -12 -17 4 -24 0 -32 -24 -11 -32 -28 -39 -28
-12 0 19 51 74 65 69 6 -1 12 -11 14 -21z m101 -17 c0 -4 -7 -8 -15 -8 -8 0
-15 -8 -14 -17 0 -11 3 -13 6 -5 5 13 33 17 33 4 0 -10 -136 -79 -172 -88 -22
-5 -28 -3 -28 10 0 15 4 18 33 20 6 1 18 9 25 19 10 13 17 15 27 7 9 -8 14 -5
18 12 4 12 1 26 -6 31 -7 5 -2 7 15 4 30 -4 58 16 38 28 -6 3 -8 11 -4 16 6
11 44 -17 44 -33z m-1357 25 c-7 -2 -21 -2 -30 0 -10 3 -4 5 12 5 17 0 24 -2
18 -5z m367 -8 c0 -8 -4 -15 -10 -15 -5 0 -7 7 -4 15 4 8 8 15 10 15 2 0 4 -7
4 -15z m-3577 -32 c-37 -19 -40 -16 -13 12 17 18 26 22 31 13 5 -7 -2 -17 -18
-25z m4701 0 c-4 -16 -7 -40 -6 -55 1 -24 -1 -26 -17 -16 -15 9 -22 7 -40 -11
-11 -11 -24 -22 -28 -22 -38 -7 -59 -4 -71 7 -11 12 -11 14 3 14 11 0 15 6 11
18 -5 13 1 22 20 30 14 7 30 10 35 7 5 -4 9 1 9 10 0 13 6 16 24 11 18 -4 25
-1 29 14 3 11 13 20 22 20 14 0 16 -5 9 -27z m-519 -3 c3 -5 2 -10 -4 -10 -5
0 -13 5 -16 10 -3 6 -2 10 4 10 5 0 13 -4 16 -10z m-4165 -10 c0 -5 -4 -10
-10 -10 -5 0 -10 5 -10 10 0 6 5 10 10 10 6 0 10 -4 10 -10z m2939 -4 c7 -8 8
-17 3 -20 -6 -3 -12 3 -15 14 -6 24 -4 25 12 6z m1483 -8 c-7 -7 -12 -8 -12
-2 0 14 12 26 19 19 2 -3 -1 -11 -7 -17z m-4392 -8 c0 -5 -4 -10 -10 -10 -5 0
-10 5 -10 10 0 6 5 10 10 10 6 0 10 -4 10 -10z m4770 -6 c0 -3 -5 -14 -10 -25
-16 -28 -30 -23 -17 6 11 22 27 34 27 19z m-4851 -28 c18 -19 21 -31 16 -55
-8 -38 -19 -45 -36 -25 -10 12 -10 15 1 12 7 -2 14 2 17 9 3 7 -3 10 -16 6
-19 -5 -20 -1 -18 36 1 22 5 41 8 41 3 0 16 -11 28 -24z m4151 -18 c11 -18 20
-36 20 -40 0 -14 -28 3 -33 20 -3 9 -8 25 -12 35 -12 29 4 19 25 -15z m-2075
-24 c22 -29 18 -34 -17 -22 -44 14 -56 27 -39 37 20 13 39 8 56 -15z m2215 -9
c18 -10 20 -14 8 -15 -23 0 -48 11 -48 21 0 12 11 11 40 -6z m-4450 -16 c0 -6
9 -8 58 -12 17 -1 32 -6 32 -11 0 -5 6 -3 13 3 20 16 29 2 11 -16 -13 -14 -13
-17 3 -29 27 -21 8 -17 -31 7 -34 20 -56 19 -56 -2 0 -6 4 -8 9 -5 15 9 35
-22 23 -36 -5 -7 -8 -23 -6 -36 4 -20 2 -21 -16 -10 -22 14 -35 38 -20 38 16
0 12 17 -6 24 -8 3 -12 2 -9 -4 3 -6 1 -10 -4 -10 -6 0 -11 -6 -11 -13 0 -16
-50 -90 -57 -84 -2 3 9 27 26 53 28 46 29 50 13 68 -9 11 -11 16 -4 12 6 -4
12 -2 12 3 0 6 -4 12 -10 12 -5 1 -14 2 -20 3 -11 1 -13 13 -6 38 3 12 13 17
30 16 14 -1 26 -5 26 -9z m216 -17 c-17 -16 -18 -16 -5 5 7 12 15 20 18 17 3
-2 -3 -12 -13 -22z m4614 18 c0 -5 -5 -10 -11 -10 -5 0 -7 -5 -4 -10 3 -6 -1
-13 -9 -16 -9 -3 -16 -12 -16 -20 0 -8 -7 -14 -16 -14 -13 0 -14 3 -4 14 9 12
7 17 -9 28 -30 18 -26 31 8 23 17 -3 32 -2 36 4 8 14 25 14 25 1z m-539 -20
c45 -10 87 -25 93 -31 8 -9 8 -10 -1 -5 -7 4 -13 2 -13 -3 0 -6 2 -11 4 -11 2
0 12 -3 22 -7 11 -4 15 -3 11 4 -4 6 1 10 11 9 12 -1 16 5 14 19 -2 15 0 16 6
7 8 -11 18 -10 56 8 30 13 55 18 69 14 12 -4 46 -8 76 -9 38 -2 56 -7 63 -19
5 -9 15 -16 23 -16 8 0 17 -5 21 -12 5 -8 2 -9 -11 -4 -13 5 -25 -1 -39 -19
-18 -22 -29 -25 -88 -27 -37 -1 -71 1 -74 5 -3 3 -24 -8 -47 -24 -22 -16 -42
-27 -45 -24 -9 8 28 42 58 55 23 10 29 18 27 41 -2 29 -17 42 -17 15 0 -7 -12
-16 -27 -19 -16 -3 -47 -18 -70 -34 -34 -23 -51 -28 -87 -25 -30 3 -43 8 -40
16 6 15 -13 32 -41 38 -11 2 -19 10 -17 17 2 9 -4 12 -18 8 -18 -5 -25 3 -21
26 2 12 -17 8 -22 -5 -3 -8 -6 -6 -6 5 -1 21 5 21 59 2 23 -8 47 -15 53 -15
19 0 -4 15 -41 26 -58 19 -31 16 59 -6z m-133 -27 c14 -32 8 -40 -33 -45 -26
-3 -30 1 -33 23 -3 29 21 61 41 53 7 -2 18 -16 25 -31z m-3128 -3 c8 -5 11
-10 5 -10 -5 0 -17 5 -25 10 -8 5 -10 10 -5 10 6 0 17 -5 25 -10z m635 -20 c3
-6 -1 -7 -9 -4 -18 7 -21 14 -7 14 6 0 13 -4 16 -10z m475 -30 c-14 -4 -36 -8
-50 -8 l-25 0 25 8 c14 4 36 8 50 8 l25 0 -25 -8z m-87 -17 c-7 -2 -21 -2 -30
0 -10 3 -4 5 12 5 17 0 24 -2 18 -5z m-350 -18 c-3 -9 -8 -14 -10 -11 -3 3 -2
9 2 15 9 16 15 13 8 -4z m2826 -11 c-6 -7 -15 -11 -21 -8 -5 3 -4 12 3 20 6 7
15 11 21 8 5 -3 4 -12 -3 -20z m-4425 2 c-3 -9 -12 -12 -22 -9 -15 6 -9 11 25
22 1 1 0 -5 -3 -13z m4026 -6 c0 -5 -2 -10 -4 -10 -3 0 -8 5 -11 10 -3 6 -1
10 4 10 6 0 11 -4 11 -10z m180 -10 c0 -5 -5 -12 -10 -15 -6 -4 -8 -11 -5 -16
3 -5 -2 -6 -11 -2 -11 4 -15 3 -11 -4 5 -8 -2 -8 -23 0 -37 14 -40 32 -4 23
20 -5 25 -4 21 6 -3 9 4 15 19 16 13 1 24 -2 24 -8z m120 -10 c0 -5 -5 -10
-11 -10 -5 0 -7 5 -4 10 3 6 8 10 11 10 2 0 4 -4 4 -10z m-3005 -40 c3 -5 -4
-6 -15 -3 -11 3 -22 9 -25 13 -3 5 4 6 15 3 11 -3 22 -9 25 -13z m2880 -21
c-28 -11 -63 -11 -70 1 -3 5 14 9 42 8 35 -1 42 -3 28 -9z m-3999 -15 c-3 -9
-6 -20 -6 -25 0 -5 -4 -9 -10 -9 -5 0 -10 7 -10 15 0 9 -10 16 -22 16 -19 1
-17 3 7 9 45 12 48 11 41 -6z m107 -1 c-7 -2 -19 -2 -25 0 -7 3 -2 5 12 5 14
0 19 -2 13 -5z m3317 -3 c0 -5 -5 -10 -11 -10 -5 0 -7 5 -4 10 3 6 8 10 11 10
2 0 4 -4 4 -10z m507 -5 c14 -14 13 -15 -11 -9 -16 4 -32 1 -41 -6 -12 -10
-15 -10 -15 3 0 9 10 18 23 20 12 2 23 5 25 6 2 0 10 -6 19 -14z m1623 -18 c0
-2 -8 -3 -18 -4 -10 -1 -19 5 -19 12 0 10 5 11 19 4 10 -5 18 -11 18 -12z
m-1527 6 c-7 -2 -19 -2 -25 0 -7 3 -2 5 12 5 14 0 19 -2 13 -5z m-4369 -18
c-7 -18 9 -19 38 -4 15 8 19 8 14 0 -4 -7 1 -11 13 -11 12 0 21 -6 22 -12 1
-7 5 -2 9 12 5 17 8 19 9 8 1 -10 7 -18 14 -18 6 0 4 -6 -7 -12 -13 -7 -29 -7
-56 1 -48 14 -71 15 -50 1 9 -6 10 -10 3 -10 -6 0 -15 5 -18 11 -4 6 -13 8
-21 5 -22 -8 -16 10 9 27 28 20 28 20 21 2z m410 6 c3 -5 -3 -11 -14 -14 -13
-3 -20 0 -20 9 0 15 26 19 34 5z m2551 0 c3 -5 2 -12 -3 -15 -5 -3 -9 1 -9 9
0 17 3 19 12 6z m-2495 -10 c0 -6 -4 -13 -10 -16 -5 -3 -10 1 -10 9 0 9 5 16
10 16 6 0 10 -4 10 -9z m736 -30 c-4 -5 0 -12 6 -14 8 -3 6 -6 -4 -6 -18 -1
-24 10 -11 22 9 10 15 8 9 -2z m-799 -17 c-3 -3 -12 -4 -19 -1 -8 3 -5 6 6 6
11 1 17 -2 13 -5z m-107 -14 c0 -5 -12 -10 -27 -9 l-28 1 25 8 c14 4 26 8 28
9 1 1 2 -3 2 -9z m-72 -15 c-3 -3 -18 -8 -34 -11 -16 -3 -42 -9 -59 -14 -16
-5 -49 -12 -72 -15 -30 -5 -40 -10 -36 -21 3 -8 0 -14 -6 -14 -6 0 -11 5 -11
12 0 9 -3 9 -12 0 -15 -15 -51 -16 -46 -1 4 13 68 36 152 54 63 14 133 19 124
10z m5175 -19 c4 -10 1 -13 -8 -9 -8 3 -12 9 -9 14 7 12 11 11 17 -5z m-1330
-13 c4 -4 25 -6 47 -6 23 0 45 -6 52 -14 10 -12 14 -11 29 8 11 14 22 20 33
16 10 -4 14 -11 11 -17 -3 -5 -1 -10 4 -10 6 0 11 -4 11 -10 0 -5 -7 -10 -16
-10 -10 0 -14 -6 -11 -14 4 -10 0 -12 -14 -9 -10 3 -16 9 -13 14 3 5 -1 9 -10
9 -8 0 -17 -6 -19 -12 -4 -8 -6 -7 -6 3 -1 17 -58 37 -98 34 -12 -1 -20 2 -17
6 2 4 -2 10 -8 12 -9 4 -8 6 3 6 9 1 19 -2 22 -6z m121 -8 c-4 -8 -8 -15 -10
-15 -2 0 -4 7 -4 15 0 8 4 15 10 15 5 0 7 -7 4 -15z m-1829 -5 c3 -6 -1 -7 -9
-4 -18 7 -21 14 -7 14 6 0 13 -4 16 -10z m3015 -24 c0 -2 -9 -6 -20 -9 -11 -3
-18 -1 -14 4 5 9 34 13 34 5z m-3395 -172 c20 -8 35 -18 31 -21 -3 -3 -19 0
-36 7 -16 7 -42 13 -56 13 -19 0 -22 2 -13 8 20 12 31 11 74 -7z m569 -55 c-8
-13 -84 -51 -84 -42 1 12 74 61 83 56 4 -2 5 -9 1 -14z"/>
<path d="M6283 4675 c0 -7 6 -11 14 -8 7 3 13 6 13 8 0 2 -6 5 -13 8 -8 3 -14
-1 -14 -8z"/>
<path d="M6234 4638 l-19 -21 28 18 c28 18 33 25 19 25 -5 0 -17 -10 -28 -22z"/>
<path d="M5217 4444 c-16 -16 -7 -139 14 -184 27 -59 50 -85 61 -68 13 21 9
111 -7 159 -17 50 -57 104 -68 93z"/>
<path d="M5712 4211 c-7 -21 -11 -56 -11 -77 1 -22 3 -30 6 -19 3 11 9 22 14
25 4 3 10 18 13 33 2 15 8 37 11 50 7 22 7 22 -8 2 -16 -20 -16 -20 -10 3 9
38 -3 24 -15 -17z"/>
<path d="M5649 4120 c-2 -19 -8 -33 -12 -30 -5 3 -13 -3 -18 -12 -6 -10 -16
-18 -24 -18 -19 0 -34 -53 -37 -130 -2 -58 1 -70 27 -110 17 -24 46 -53 65
-64 l35 -21 -37 46 c-21 25 -38 51 -38 58 0 6 -4 11 -8 11 -9 0 -16 48 -14 99
1 35 43 91 69 91 26 0 32 34 13 75 l-17 40 -4 -35z m-72 -222 c-3 -8 -6 -5 -6
6 -1 11 2 17 5 13 3 -3 4 -12 1 -19z"/>
<path d="M5721 4094 c0 -11 3 -14 6 -6 3 7 2 16 -1 19 -3 4 -6 -2 -5 -13z"/>
<path d="M5410 4011 c0 -6 4 -13 10 -16 6 -3 7 1 4 9 -7 18 -14 21 -14 7z"/>
<path d="M5880 3650 c-8 -5 -12 -11 -10 -14 3 -2 14 2 24 10 22 15 10 19 -14
4z"/>
<path d="M5080 3620 c-13 -8 -12 -10 3 -10 9 0 17 5 17 10 0 12 -1 12 -20 0z"/>
<path d="M5581 3474 c0 -11 3 -14 6 -6 3 7 2 16 -1 19 -3 4 -6 -2 -5 -13z"/>
<path d="M3440 3606 c0 -3 28 -26 63 -52 34 -26 84 -68 111 -93 52 -49 51 -42
-3 32 -19 26 -55 60 -80 76 -45 28 -91 47 -91 37z"/>
<path d="M4098 3193 c7 -3 16 -2 19 1 4 3 -2 6 -13 5 -11 0 -14 -3 -6 -6z"/>
<path d="M880 3476 c0 -8 4 -17 10 -21 5 -3 6 -13 3 -23 -4 -13 -3 -14 6 -6 8
8 9 18 2 37 -11 30 -21 35 -21 13z"/>
<path d="M911 3404 c0 -11 3 -14 6 -6 3 7 2 16 -1 19 -3 4 -6 -2 -5 -13z"/>
<path d="M920 3371 c0 -6 5 -13 10 -16 6 -3 10 1 10 9 0 9 -4 16 -10 16 -5 0
-10 -4 -10 -9z"/>
<path d="M940 3331 c0 -6 4 -13 10 -16 6 -3 7 1 4 9 -7 18 -14 21 -14 7z"/>
<path d="M1650 2740 c-14 -11 -20 -20 -15 -19 13 0 50 28 44 33 -2 3 -15 -4
-29 -14z"/>
<path d="M1540 2720 c-8 -5 -25 -10 -37 -10 -13 0 -23 -4 -23 -10 0 -13 33
-13 47 1 8 8 17 8 32 0 12 -7 21 -10 22 -9 10 39 -7 50 -41 28z"/>
<path d="M1613 2713 c4 -3 -1 -12 -11 -20 -15 -13 -15 -13 6 -3 19 9 23 30 5
30 -4 0 -3 -3 0 -7z"/>
<path d="M1641 2687 c-8 -10 -7 -14 4 -14 8 0 12 4 9 8 -2 4 2 10 8 12 8 4 9
6 2 6 -6 1 -17 -5 -23 -12z"/>
<path d="M1266 2673 c-9 -9 -7 -33 3 -33 12 0 22 28 12 34 -5 3 -11 3 -15 -1z"/>
<path d="M1685 2659 c-4 -6 -5 -12 -2 -15 2 -3 7 2 10 11 7 17 1 20 -8 4z"/>
<path d="M1763 2578 c4 -12 2 -15 -9 -11 -23 8 -44 -4 -37 -22 4 -12 8 -13 13
-5 5 8 10 2 14 -14 8 -31 17 -33 39 -8 15 16 15 20 -4 47 -12 17 -19 22 -16
13z"/>
<path d="M1650 2480 c0 -5 5 -10 10 -10 6 0 10 5 10 10 0 6 -4 10 -10 10 -5 0
-10 -4 -10 -10z"/>
<path d="M884 2393 c-8 -30 -5 -32 28 -26 23 4 25 8 16 27 -13 30 -37 29 -44
-1z"/>
<path d="M1100 2393 c14 -9 29 -23 33 -30 4 -7 13 -13 20 -13 16 1 -49 60 -65
60 -7 0 -1 -8 12 -17z"/>
<path d="M1730 2343 c0 -4 5 -15 10 -23 8 -13 10 -13 10 2 0 9 -4 20 -10 23
-5 3 -10 3 -10 -2z"/>
<path d="M1080 2330 c0 -5 0 -13 0 -17 0 -5 6 -8 13 -8 6 0 16 -4 20 -10 5 -6
7 -4 4 5 -2 8 -10 14 -17 12 -8 -2 -10 3 -7 13 4 8 2 15 -3 15 -6 0 -10 -4
-10 -10z"/>
<path d="M684 2225 c-15 -20 -25 -38 -22 -40 3 -3 17 13 32 35 33 49 27 52
-10 5z"/>
<path d="M1822 2243 c2 -10 10 -18 18 -18 8 0 15 -5 15 -10 0 -6 10 -23 23
-39 12 -16 22 -24 22 -19 0 5 -3 13 -7 17 -8 7 -9 12 -11 55 -2 16 -6 21 -18
17 -8 -3 -12 -2 -9 4 3 6 -3 10 -15 10 -15 0 -20 -5 -18 -17z"/>
<path d="M621 2125 c-22 -38 -14 -53 19 -33 22 14 25 24 10 33 -5 3 -7 12 -3
20 10 27 -5 15 -26 -20z m24 -5 c3 -5 1 -10 -4 -10 -6 0 -11 5 -11 10 0 6 2
10 4 10 3 0 8 -4 11 -10z"/>
<path d="M1890 2129 c0 -5 5 -7 10 -4 6 3 10 8 10 11 0 2 -4 4 -10 4 -5 0 -10
-5 -10 -11z"/>
<path d="M687 2123 c-4 -3 -7 -11 -7 -17 0 -6 5 -5 12 2 6 6 9 14 7 17 -3 3
-9 2 -12 -2z"/>
<path d="M1906 2101 c-4 -7 -5 -15 -2 -18 9 -9 19 4 14 18 -4 11 -6 11 -12 0z"/>
<path d="M1917 2053 c-4 -3 -7 -22 -7 -41 0 -45 14 -32 16 14 1 37 1 37 -9 27z"/>
<path d="M2015 2050 c14 -6 15 -9 5 -10 -10 -1 -9 -4 5 -10 28 -12 29 -12 43
10 11 19 10 20 -30 19 -33 0 -38 -2 -23 -9z"/>
<path d="M616 2034 c-11 -28 -6 -38 9 -18 8 10 15 22 15 27 0 13 -18 7 -24 -9z"/>
<path d="M2079 2028 c-5 -18 -6 -38 -1 -34 7 8 12 36 6 36 -2 0 -4 -1 -5 -2z"/>
<path d="M883 1970 c-3 -11 -9 -20 -14 -20 -5 0 -9 -7 -9 -15 0 -8 5 -15 10
-15 6 0 10 1 10 3 0 1 4 17 9 35 5 17 7 32 4 32 -3 0 -7 -9 -10 -20z"/>
<path d="M1842 1956 c1 -25 6 -32 17 -28 10 4 12 1 6 -9 -8 -12 -6 -12 9 0 9
8 15 20 12 28 -3 8 -2 11 3 8 5 -3 12 -1 16 4 6 11 -25 31 -50 31 -12 0 -15
-9 -13 -34z"/>
<path d="M1910 1925 c-13 -14 -20 -25 -15 -25 7 0 45 39 45 47 0 7 -8 2 -30
-22z"/>
<path d="M820 1855 c-12 -30 -23 -67 -24 -83 -2 -15 -8 -37 -15 -50 -7 -13
-11 -32 -9 -44 3 -21 4 -20 34 5 52 44 64 33 64 -57 l0 -52 47 -12 c54 -15 75
-4 55 28 -6 11 -12 27 -12 35 0 18 -12 19 -28 3 -9 -9 -12 -9 -12 0 0 7 5 12
11 12 6 0 9 6 6 13 -2 6 -10 11 -16 10 -6 -2 -10 2 -8 9 1 6 -9 17 -23 25 -23
11 -23 13 -5 14 11 1 26 2 32 2 7 -1 11 3 8 7 -3 5 1 11 7 13 7 3 -17 6 -54 6
-83 1 -92 21 -10 22 31 1 61 1 65 0 5 -1 5 3 2 9 -4 6 -14 9 -22 6 -8 -3 -12
-2 -8 3 3 5 -6 18 -20 29 -19 15 -25 29 -25 61 0 23 -4 41 -9 41 -5 0 -19 -25
-31 -55z"/>
<path d="M2065 1900 c3 -5 8 -10 11 -10 2 0 4 5 4 10 0 6 -5 10 -11 10 -5 0
-7 -4 -4 -10z"/>
<path d="M1916 1722 c-3 -4 4 -9 15 -9 23 -2 25 3 4 10 -8 4 -16 3 -19 -1z"/>
<path d="M806 1657 l-29 -23 28 -22 c40 -31 46 -28 43 23 -2 25 -5 45 -8 45
-3 0 -18 -11 -34 -23z"/>
<path d="M1021 1566 c-25 -27 -26 -26 48 -41 23 -5 31 -4 27 4 -4 6 -18 11
-31 11 -29 0 -41 16 -25 35 20 24 5 17 -19 -9z"/>
<path d="M2646 1583 c-7 -7 14 -27 37 -36 9 -3 17 -5 17 -3 0 8 -49 44 -54 39z"/>
<path d="M830 1571 c0 -6 5 -13 10 -16 6 -3 10 1 10 9 0 9 -4 16 -10 16 -5 0
-10 -4 -10 -9z"/>
<path d="M875 1534 c3 -35 10 -38 39 -18 30 19 30 21 -12 33 -28 8 -30 7 -27
-15z"/>
<path d="M2550 1525 c0 -30 6 -32 19 -6 8 14 7 20 -4 25 -11 4 -15 -2 -15 -19z"/>
<path d="M963 1515 c-6 -7 -9 -16 -5 -21 4 -4 0 -5 -8 -2 -9 3 -23 0 -32 -6
-15 -11 -14 -17 13 -59 16 -26 47 -58 69 -72 37 -23 42 -24 56 -10 14 13 34
13 34 -1 0 -3 -4 -2 -10 1 -5 3 -10 2 -10 -2 0 -11 60 -47 67 -40 2 3 0 14 -6
25 -6 12 -11 33 -11 48 0 23 -3 26 -25 21 -33 -6 -49 23 -41 73 5 35 4 38 -22
43 -15 3 -28 4 -30 3 -6 -6 11 -65 18 -61 4 2 5 -7 2 -22 -3 -17 -1 -24 6 -19
6 4 10 -1 10 -11 0 -10 3 -26 7 -35 4 -11 3 -18 -3 -18 -6 0 -14 9 -17 20 -4
11 -11 18 -16 15 -5 -3 -7 0 -4 7 2 7 -3 41 -13 74 -13 49 -20 59 -29 49z
m-26 -42 c-4 -3 -1 -13 6 -22 11 -14 10 -14 -5 -2 -21 15 -23 31 -6 31 6 0 8
-3 5 -7z m54 -60 c13 -16 12 -17 -3 -4 -10 7 -18 15 -18 17 0 8 8 3 21 -13z"/>
<path d="M1070 1441 c0 -30 1 -31 16 -16 16 15 16 18 0 33 -15 15 -16 14 -16
-17z"/>
<path d="M1250 1321 c0 -6 4 -13 10 -16 6 -3 7 1 4 9 -7 18 -14 21 -14 7z"/>
<path d="M1120 1276 c0 -2 7 -6 15 -10 8 -3 15 -1 15 4 0 6 -7 10 -15 10 -8 0
-15 -2 -15 -4z"/>
<path d="M1190 1269 c-19 -3 -26 -7 -15 -8 l20 -2 -20 -9 c-13 -6 -15 -9 -5
-9 11 -1 12 -3 3 -9 -7 -5 4 -15 33 -29 24 -12 44 -19 44 -15 0 4 -14 14 -32
21 -18 8 -27 16 -21 18 7 3 21 0 31 -6 17 -9 20 -7 25 22 5 33 -2 52 -11 28
-2 -7 -7 -9 -11 -4 -3 4 -22 6 -41 2z"/>
<path d="M1110 1090 c8 -5 22 -9 30 -9 10 0 8 3 -5 9 -27 12 -43 12 -25 0z"/>
<path d="M5471 2865 c-1 -24 25 -65 41 -65 6 0 5 7 -3 16 -8 10 -19 29 -26 43
-10 22 -11 23 -12 6z"/>
<path d="M5270 2704 c0 -6 7 -19 16 -30 14 -18 14 -18 3 6 -14 31 -19 36 -19
24z"/>
<path d="M5460 2425 c13 -14 26 -25 28 -25 3 0 -5 11 -18 25 -13 14 -26 25
-28 25 -3 0 5 -11 18 -25z"/>
<path d="M5360 2288 c0 -9 7 -22 17 -29 15 -13 15 -12 3 11 -17 34 -20 36 -20
18z"/>
<path d="M4721 2154 c0 -11 3 -14 6 -6 3 7 2 16 -1 19 -3 4 -6 -2 -5 -13z"/>
<path d="M4781 2144 c0 -11 3 -14 6 -6 3 7 2 16 -1 19 -3 4 -6 -2 -5 -13z"/>
<path d="M4850 2124 c0 -9 -5 -12 -12 -8 -10 5 -10 4 -1 -6 6 -7 16 -9 22 -6
14 9 14 36 1 36 -5 0 -10 -7 -10 -16z"/>
<path d="M3423 1773 c9 -2 23 -2 30 0 6 3 -1 5 -18 5 -16 0 -22 -2 -12 -5z"/>
<path d="M4340 1155 c-14 -16 -10 -18 14 -9 9 3 16 10 16 15 0 14 -16 11 -30
-6z"/>
<path d="M4635 1150 c3 -5 8 -10 11 -10 2 0 4 5 4 10 0 6 -5 10 -11 10 -5 0
-7 -4 -4 -10z"/>
<path d="M4358 1132 c-21 -9 -38 -20 -38 -24 0 -11 18 -10 25 2 3 6 15 10 25
10 17 0 37 17 29 25 -2 1 -21 -4 -41 -13z"/>
<path d="M4880 979 c0 -5 5 -7 10 -4 6 3 10 8 10 11 0 2 -4 4 -10 4 -5 0 -10
-5 -10 -11z"/>
<path d="M95 900 c-3 -5 3 -10 14 -10 12 0 21 5 21 10 0 6 -6 10 -14 10 -8 0
-18 -4 -21 -10z"/>
<path d="M4685 839 c-10 -15 3 -25 16 -12 7 7 7 13 1 17 -6 3 -14 1 -17 -5z"/>
<path d="M642 5030 c13 -20 28 -27 28 -12 0 10 -22 32 -32 32 -5 0 -3 -9 4
-20z"/>
<path d="M544 5008 c0 -14 3 -26 6 -25 17 4 48 -18 70 -49 l24 -36 8 27 c9 34
3 45 -23 45 -17 0 -24 11 -20 34 1 5 -4 4 -12 -3 -12 -9 -16 -8 -21 4 -3 9
-10 14 -15 11 -5 -4 -11 0 -14 6 -2 7 -4 1 -3 -14z"/>
<path d="M610 5026 c0 -2 8 -10 18 -17 15 -13 16 -12 3 4 -13 16 -21 21 -21
13z"/>
<path d="M316 5001 c-4 -6 -2 -11 5 -11 7 0 5 -8 -6 -20 -10 -11 -14 -20 -9
-20 16 0 37 41 26 52 -6 6 -12 6 -16 -1z"/>
<path d="M693 4995 c4 -9 7 -18 7 -21 0 -2 14 -10 30 -19 17 -9 30 -11 30 -6
0 12 -26 38 -52 52 -18 10 -20 9 -15 -6z"/>
<path d="M285 4980 c3 -5 8 -10 11 -10 2 0 4 5 4 10 0 6 -5 10 -11 10 -5 0 -7
-4 -4 -10z"/>
<path d="M236 4920 c-5 -19 -14 -38 -20 -42 -8 -6 -8 -8 1 -8 17 0 35 37 31
63 -3 17 -6 15 -12 -13z"/>
<path d="M280 4930 c0 -8 -21 -34 -47 -58 -27 -25 -40 -43 -31 -39 9 3 19 1
22 -6 3 -9 5 -9 5 0 1 7 8 10 16 7 10 -4 15 0 15 15 0 12 7 36 16 52 8 17 13
33 10 37 -3 3 -6 -1 -6 -8z"/>
<path d="M975 4880 c-3 -5 -2 -10 4 -10 5 0 13 5 16 10 3 6 2 10 -4 10 -5 0
-13 -4 -16 -10z"/>
<path d="M1200 4876 c0 -2 9 -6 20 -9 11 -3 18 -1 14 4 -5 9 -34 13 -34 5z"/>
<path d="M1263 4873 c4 -3 1 -13 -6 -22 -11 -14 -10 -14 5 -2 16 12 16 31 1
31 -4 0 -3 -3 0 -7z"/>
<path d="M1275 4810 c-3 -11 -11 -20 -16 -20 -5 0 -9 -8 -9 -17 1 -17 1 -17
14 -1 7 10 15 15 18 12 3 -2 6 7 6 21 0 30 -4 32 -13 5z"/>
<path d="M1181 4789 c9 -17 13 -19 20 -8 5 8 3 16 -4 21 -22 14 -28 8 -16 -13z"/>
<path d="M254 4781 c4 -18 2 -21 -7 -12 -6 6 -15 11 -19 11 -13 0 -9 -18 8
-35 14 -13 19 -14 25 -3 6 9 9 8 9 -7 0 -24 49 -88 50 -65 0 33 -13 61 -26 56
-8 -3 -14 0 -14 7 -1 7 -7 26 -16 42 -12 25 -13 26 -10 6z"/>
<path d="M1140 4787 c0 -8 -9 -25 -21 -38 -13 -15 -16 -25 -9 -27 7 -3 15 0
20 4 10 11 24 74 16 74 -3 0 -6 -6 -6 -13z"/>
<path d="M2144 4792 c-17 -11 -28 -52 -14 -52 7 0 9 -7 5 -17 -5 -14 -3 -15 6
-6 6 6 17 9 24 7 7 -3 19 4 27 15 15 22 28 18 28 -7 0 -8 -6 -12 -15 -9 -8 4
-17 2 -20 -4 -4 -5 2 -12 11 -16 10 -4 19 -2 22 5 2 7 10 12 18 12 8 0 14 4
14 9 0 11 -61 57 -72 54 -4 -2 -8 2 -8 7 0 12 -10 13 -26 2z"/>
<path d="M2244 4764 c3 -9 6 -18 6 -20 0 -2 4 -4 9 -4 5 0 7 9 4 20 -3 11 -10
20 -15 20 -6 0 -7 -7 -4 -16z"/>
<path d="M2130 4435 c0 -8 4 -15 10 -15 5 0 7 7 4 15 -4 8 -8 15 -10 15 -2 0
-4 -7 -4 -15z"/>
<path d="M936 4182 c-2 -4 11 -6 30 -4 19 2 34 6 34 8 0 8 -59 4 -64 -4z"/>
<path d="M995 4159 c-9 -14 -2 -20 14 -10 8 6 9 11 3 15 -6 3 -14 1 -17 -5z"/>
<path d="M8978 3437 c-7 -8 -19 -12 -28 -10 -28 7 -61 -32 -66 -79 -7 -52 3
-108 18 -108 6 0 19 -6 27 -14 10 -9 27 -12 44 -9 l28 5 -2 114 c0 63 -3 114
-5 114 -2 0 -9 -6 -16 -13z"/>
<path d="M5833 2103 c-30 -17 -43 -20 -43 -11 0 8 -3 9 -8 3 -4 -5 -24 -18
-45 -28 -22 -10 -63 -33 -92 -52 -43 -27 -52 -38 -48 -55 4 -13 11 -19 20 -16
8 3 19 6 25 6 5 0 37 26 71 57 34 32 49 43 33 25 l-30 -32 46 0 c30 0 50 6 59
17 8 9 13 17 11 17 -6 2 17 50 34 74 20 26 20 26 -33 -5z"/>
<path d="M5575 1950 c-3 -5 -1 -10 4 -10 6 0 11 5 11 10 0 6 -2 10 -4 10 -3 0
-8 -4 -11 -10z"/>
<path d="M5490 1591 c0 -5 7 -12 16 -15 14 -5 15 -4 4 9 -14 17 -20 19 -20 6z"/>
<path d="M4454 1446 c-8 -22 -2 -27 16 -16 12 7 12 12 3 21 -10 10 -14 9 -19
-5z"/>
<path d="M3583 990 c-46 -22 -83 -44 -83 -50 0 -15 4 -13 88 31 130 70 127 82
-5 19z"/>
<path d="M3079 964 c0 -27 -3 -43 -6 -36 -2 6 -12 12 -20 12 -13 0 -13 -3 -3
-15 7 -8 20 -15 30 -15 15 0 17 7 12 48 -6 63 -12 66 -13 6z"/>
<path d="M2403 728 c-13 -6 -23 -15 -23 -20 0 -5 11 -1 25 8 37 24 35 30 -2
12z"/>
<path d="M1884 478 c-3 -5 -15 -6 -25 -3 -11 4 -26 2 -33 -5 -8 -6 -18 -10
-22 -9 -5 1 -17 -1 -28 -6 -11 -5 -21 -3 -26 5 -6 9 -9 9 -15 0 -18 -30 88
-50 148 -29 21 8 39 19 39 24 0 6 4 15 8 21 6 6 0 10 -16 10 -14 0 -28 -4 -30
-8z"/>
</g>
</svg>
