<?xml version="1.0" standalone="no"?>
<!DOCTYPE svg PUBLIC "-//W3C//DTD SVG 20010904//EN"
 "http://www.w3.org/TR/2001/REC-SVG-20010904/DTD/svg10.dtd">
<svg version="1.0" xmlns="http://www.w3.org/2000/svg"
 width="900.000000pt" height="506.000000pt" viewBox="0 0 900.000000 506.000000"
 preserveAspectRatio="xMidYMid meet">

<g transform="translate(0.000000,506.000000) scale(0.100000,-0.100000)"
fill="#000000" stroke="none">
<path d="M0 4661 l0 -399 22 -5 c26 -7 38 -1 38 18 0 18 77 90 134 126 22 15
49 36 58 48 10 12 25 21 33 21 13 0 51 35 101 92 54 62 184 144 274 173 80 26
122 45 145 65 11 10 52 28 92 39 40 12 98 34 130 50 64 31 260 118 338 150
l50 20 -707 0 -708 1 0 -399z"/>
<path d="M1435 5041 c-298 -109 -481 -194 -492 -226 -3 -9 83 -52 97 -49 3 1
16 5 30 9 l25 7 -23 -25 -23 -25 27 -21 c31 -25 59 -26 106 -7 42 18 90 65 84
82 -3 8 3 19 13 26 10 7 23 23 29 35 14 26 2 37 -29 28 l-21 -7 21 21 c24 24
27 37 9 44 -25 9 35 56 83 65 25 5 65 21 90 35 51 31 44 34 -26 8z"/>
<path d="M2760 5021 c0 -44 29 -88 62 -93 14 -2 24 -12 28 -28 l6 -25 8 23 c8
24 46 31 46 8 0 -10 7 -12 22 -8 17 4 20 2 15 -12 -4 -10 -7 -20 -7 -22 0 -2
-5 -4 -11 -4 -5 0 -7 5 -4 10 3 6 1 10 -4 10 -6 0 -11 -9 -11 -20 0 -16 7 -20
30 -20 21 0 42 12 75 43 41 40 45 48 45 91 0 26 5 56 10 67 10 18 6 19 -150
19 l-160 0 0 -39z m158 10 c9 -5 25 -12 35 -15 10 -3 15 -11 12 -17 -4 -6 -12
-8 -19 -6 -7 3 -13 -7 -14 -25 -3 -41 -10 -50 -30 -39 -13 7 -16 20 -14 60 4
55 4 55 30 42z m117 -2 c12 -19 -3 -22 -27 -5 l-22 16 21 0 c12 0 25 -5 28
-11z"/>
<path d="M3252 5030 c37 -34 37 -34 89 -19 44 14 88 0 117 -35 41 -50 103 -66
183 -47 31 7 47 3 115 -29 43 -21 95 -40 114 -42 32 -3 35 -1 35 24 0 65 68
90 106 39 18 -25 25 -28 50 -21 15 5 46 6 68 3 29 -4 51 0 81 16 l41 21 23
-26 c19 -23 27 -26 58 -20 21 4 54 23 80 46 23 22 53 40 65 40 20 0 23 -5 23
-38 0 -45 -37 -86 -86 -96 -17 -4 -43 -20 -58 -35 -21 -22 -41 -31 -82 -36
-29 -3 -57 -11 -60 -17 -4 -6 1 -8 12 -5 11 3 41 9 68 13 35 5 56 14 72 33 13
14 24 21 24 14 0 -12 -56 -63 -70 -63 -14 0 -128 -117 -145 -150 -14 -26 -15
-40 -6 -81 10 -46 76 -192 104 -230 7 -9 62 -41 122 -73 87 -44 116 -65 138
-97 l28 -40 71 2 c65 2 72 1 84 -22 24 -43 18 -49 -43 -49 -45 0 -68 7 -117
34 -34 18 -90 38 -126 45 -157 28 -157 28 -200 90 -45 64 -65 87 -100 116 -14
11 -4 -3 22 -32 26 -28 63 -75 81 -105 37 -57 55 -66 172 -83 22 -4 61 -14 86
-22 l46 -16 -31 -29 -31 -29 42 26 c40 25 42 26 72 10 17 -8 31 -18 31 -20 0
-3 -15 -14 -32 -25 -18 -11 -28 -20 -22 -20 6 0 28 11 48 25 27 18 50 25 84
25 l47 0 43 -93 c46 -101 55 -168 28 -223 -8 -16 -17 -56 -20 -89 -5 -59 -5
-58 11 18 8 42 19 77 24 77 5 0 9 21 9 48 1 36 3 43 11 30 16 -28 39 -99 30
-94 -22 14 -57 -146 -45 -210 4 -22 2 -34 -5 -34 -6 0 -11 -15 -11 -34 0 -18
-13 -59 -29 -91 -28 -54 -28 -60 -13 -72 9 -7 13 -13 9 -13 -5 0 -1 -10 7 -22
41 -59 5 -118 -72 -118 -38 0 -50 -4 -62 -22 -22 -35 -50 -117 -58 -173 -6
-38 -12 -50 -25 -49 -10 1 -17 -5 -17 -14 0 -9 -6 -34 -14 -57 -8 -22 -22 -84
-32 -138 -10 -60 -22 -101 -30 -104 -8 -3 -14 -12 -14 -21 0 -8 -3 -13 -6 -9
-19 18 62 457 106 578 33 92 37 108 14 66 -42 -77 -94 -298 -128 -546 -8 -57
-17 -105 -20 -108 -3 -3 -22 9 -43 26 l-38 32 -3 -56 c-2 -38 -7 -55 -17 -55
-7 0 -15 -5 -17 -10 -5 -17 -84 47 -97 79 -17 39 -61 79 -99 90 -29 9 -32 8
-32 -13 0 -13 11 -49 26 -81 14 -32 24 -67 23 -79 -2 -12 2 -31 9 -43 28 -51
-53 -48 -131 5 -39 27 -44 29 -40 12 3 -11 9 -18 13 -15 5 3 25 -6 45 -20 77
-52 154 -40 127 20 -7 14 -12 36 -12 49 0 13 -11 49 -25 80 -31 70 -31 79 -2
71 31 -10 77 -55 84 -83 4 -19 110 -112 127 -112 3 0 6 9 6 20 0 11 5 20 10
20 6 0 10 23 10 50 l0 51 39 -32 c32 -25 39 -37 36 -58 -2 -14 -7 -48 -10 -74
-5 -34 -10 -47 -20 -44 -7 3 -17 1 -22 -4 -6 -6 -14 -4 -23 6 -7 8 -27 15 -46
15 -42 0 -132 -19 -139 -30 -2 -4 14 -20 38 -35 23 -16 63 -46 90 -68 l47 -40
0 -72 c0 -40 6 -88 14 -106 8 -19 16 -47 18 -63 3 -26 -3 -31 -67 -66 -97 -52
-102 -63 -63 -125 26 -41 32 -62 34 -115 1 -36 0 -78 -3 -93 -5 -28 -8 -29
-57 -25 l-51 3 -3 -32 -3 -33 -60 0 c-65 0 -75 -11 -29 -35 37 -19 38 -25 2
-25 -43 0 -143 91 -197 179 -25 41 -44 76 -41 78 2 2 56 -7 120 -20 73 -16
116 -21 116 -14 0 12 -124 134 -163 160 -49 33 -33 38 86 31 l112 -6 -32 33
-31 34 -5 195 c-3 171 -6 203 -26 258 -31 84 -38 72 -10 -15 20 -59 23 -92 25
-256 2 -182 3 -190 25 -213 l23 -25 -59 6 c-33 3 -79 8 -102 10 -73 8 -68 -27
11 -80 43 -29 116 -103 116 -118 0 -2 -51 6 -112 19 -62 12 -115 21 -117 19
-2 -2 13 -35 34 -72 42 -77 43 -77 -80 37 -39 36 -108 94 -154 129 -74 57 -82
66 -77 90 6 25 6 25 -7 4 l-12 -23 -33 20 c-36 22 -46 25 -37 10 3 -6 0 -10
-9 -10 -8 0 -16 -4 -18 -10 -1 -5 -19 -16 -40 -24 -36 -15 -36 -15 -60 14 -18
23 -31 30 -58 29 -53 -1 -85 -13 -88 -33 -5 -24 -33 -56 -49 -56 -7 0 -13 -3
-13 -7 -1 -5 -3 -32 -6 -61 -3 -29 -2 -58 3 -65 5 -7 15 -31 23 -55 10 -32 11
-45 2 -54 -18 -18 -14 -32 4 -17 14 11 16 10 12 -11 -2 -16 2 -24 9 -23 7 2
10 -3 7 -10 -6 -16 63 -67 89 -67 9 0 17 -3 17 -7 0 -5 19 -8 42 -8 35 0 45 4
55 24 8 17 9 31 2 43 -12 23 -4 38 22 38 14 0 19 -7 19 -28 0 -54 13 -59 160
-65 97 -4 153 -11 200 -26 60 -20 109 -46 99 -54 -2 -2 -25 -18 -51 -36 -27
-18 -48 -34 -48 -37 0 -3 13 4 29 15 51 37 169 88 241 106 67 17 72 16 90 0
11 -10 17 -22 14 -26 -3 -5 -46 -36 -97 -69 -51 -34 -118 -86 -150 -117 -67
-65 -122 -166 -115 -212 3 -23 -1 -32 -16 -40 -18 -8 -18 -10 -3 -10 21 -1 21
-3 2 -65 -35 -116 -9 -210 141 -509 53 -106 152 -264 178 -286 9 -8 533 -10
1896 -9 l1882 3 64 154 c61 145 194 528 194 554 -1 7 -9 -3 -18 -20 l-17 -33
-30 24 c-26 21 -29 27 -20 52 8 23 18 30 48 35 35 5 37 4 38 -20 1 -48 48 142
120 484 72 350 71 347 130 387 l24 17 -23 16 -23 17 21 23 c11 12 18 28 15 37
-3 8 3 23 15 33 29 26 25 42 -9 37 l-29 -4 22 45 c13 24 25 53 28 64 5 17 17
21 84 27 44 4 136 18 207 31 147 29 151 29 141 13 -8 -12 -13 -122 -13 -254 0
-54 -3 -64 -31 -94 -27 -29 -35 -32 -70 -27 -34 4 -43 1 -68 -24 -25 -26 -37
-30 -88 -32 l-59 -2 -3 -46 c-4 -56 27 -103 64 -96 32 6 44 -4 49 -44 2 -20
13 -40 25 -48 26 -17 25 -35 -4 -85 -21 -37 -23 -50 -18 -125 l5 -83 43 6 c50
6 54 -1 28 -49 -9 -16 -25 -47 -36 -68 -12 -25 -31 -44 -53 -53 -60 -25 -67
-21 -59 34 3 26 13 54 20 63 31 35 3 40 -39 6 -15 -12 -29 -32 -30 -45 -1 -12
-4 -22 -7 -22 -3 0 -4 -20 -2 -45 3 -37 8 -45 24 -45 10 0 28 -5 39 -10 16 -9
17 -15 9 -31 -17 -30 -56 -42 -99 -28 -20 7 -39 16 -42 20 -3 5 -38 -7 -78
-27 -60 -29 -70 -38 -60 -50 6 -8 28 -14 48 -14 27 0 44 -7 61 -25 22 -23 22
-25 6 -50 -12 -18 -23 -24 -36 -20 -10 3 -39 -3 -64 -15 -25 -11 -54 -20 -65
-20 -23 0 -51 -25 -51 -46 0 -8 8 -26 17 -40 15 -24 20 -25 72 -20 89 11 111
17 111 31 0 7 18 30 40 51 22 21 43 47 46 59 4 11 22 39 41 62 26 32 44 44 71
48 21 3 59 13 85 21 45 15 49 15 67 -1 15 -14 20 -31 20 -71 0 -51 1 -53 35
-64 24 -8 40 -8 54 -1 29 16 52 14 96 -9 l40 -20 3 405 c1 223 1 587 0 810
l-3 405 -53 -48 -53 -48 -59 7 c-83 10 -157 29 -170 43 -8 10 12 18 92 35 56
12 135 27 175 33 61 9 73 14 73 29 0 26 -34 25 -250 -7 -207 -30 -352 -61
-525 -113 l-126 -38 31 32 c21 22 61 44 119 65 47 18 128 54 179 81 85 45 101
50 214 64 67 8 141 16 163 16 26 1 31 3 16 6 -13 3 -76 0 -139 -6 -63 -7 -116
-10 -118 -9 -2 2 30 28 70 57 40 30 81 66 91 82 22 31 37 35 178 45 l97 7 0
168 c0 162 -1 169 -20 169 -25 0 -25 12 -2 53 16 30 17 105 20 1110 l3 1077
-305 0 -304 0 -11 -32 c-14 -39 -131 -216 -161 -243 l-22 -20 -19 24 c-18 22
-22 23 -44 11 -20 -11 -27 -11 -40 0 -19 16 -19 44 0 60 14 12 11 19 -27 57
-24 25 -62 56 -85 70 -44 26 -52 40 -31 61 9 9 -224 12 -1051 12 l-1063 0 28
-47 c35 -61 99 -158 135 -204 l29 -36 -70 -7 c-62 -6 -74 -5 -100 14 -45 32
-126 127 -177 208 l-46 72 -53 0 c-38 0 -52 -4 -49 -12 38 -124 53 -166 83
-236 19 -45 33 -85 30 -87 -3 -3 -36 -2 -74 2 l-69 8 -7 50 c-5 28 -20 101
-35 163 l-28 112 -272 0 -272 0 9 -27 c5 -16 32 -104 60 -198 76 -249 86 -269
208 -423 60 -75 121 -154 136 -174 l27 -37 -38 -10 c-73 -21 -85 -16 -127 49
-21 33 -40 60 -43 60 -4 0 25 -51 54 -95 7 -11 13 -23 13 -27 0 -9 -84 -11
-93 -2 -3 4 -23 8 -42 9 -44 2 -70 27 -119 109 -20 33 -36 57 -36 53 0 -13 41
-90 62 -116 10 -13 17 -26 14 -28 -9 -9 -143 53 -165 76 -13 15 -21 20 -17 14
12 -22 -6 -15 -117 47 -59 33 -112 60 -117 60 -5 0 11 -43 36 -95 24 -52 44
-102 44 -110 0 -38 -91 -46 -141 -12 -19 12 -66 41 -105 64 l-71 42 4 138 c6
159 18 198 72 225 l35 17 29 -52 c32 -56 97 -141 103 -134 2 2 -5 30 -16 62
-15 45 -20 84 -20 170 0 96 -3 116 -20 137 -15 19 -16 28 -7 37 7 7 17 48 22
91 l11 80 -659 0 -658 0 33 -30z m644 -35 c9 -35 0 -52 -31 -57 -35 -7 -62 30
-45 61 16 32 68 29 76 -4z m2918 -225 c47 -22 48 -24 25 -33 -13 -5 -85 -24
-159 -43 -293 -74 -736 -243 -859 -327 -125 -85 -286 -240 -429 -412 l-34 -40
23 40 c48 86 155 240 218 313 66 75 214 223 278 276 80 67 390 185 576 220 72
14 141 27 152 30 50 12 161 -1 209 -24z m1246 -80 c0 -21 -24 -28 -35 -10 -8
14 3 30 21 30 8 0 14 -9 14 -20z m-935 -76 c17 -4 115 -120 115 -136 0 -2 -30
2 -67 10 -69 14 -316 12 -626 -6 -64 -4 -117 -4 -117 1 0 4 2 7 4 7 2 0 74 20
160 45 210 60 463 98 531 79z m825 -9 c0 -8 -4 -15 -9 -15 -13 0 -22 16 -14
24 11 11 23 6 23 -9z m-1599 -53 c-15 -29 -14 -32 13 -32 40 0 63 -47 52 -105
-7 -36 -24 -44 -77 -37 -26 4 -59 53 -59 88 0 8 -4 13 -8 10 -4 -2 -9 5 -9 16
-1 12 -8 25 -15 29 -7 4 -10 10 -7 14 8 7 113 43 117 40 2 -2 -1 -12 -7 -23z
m-422 -146 c-2 -2 -40 -32 -84 -67 -116 -92 -374 -355 -518 -528 -51 -61 -38
-26 19 55 155 216 399 454 539 524 38 19 53 25 44 16z m1741 -16 c52 -6 134
-20 182 -31 82 -19 90 -24 129 -67 39 -45 97 -135 112 -176 6 -15 4 -17 -10
-11 -10 4 -60 18 -112 31 -150 38 -302 54 -504 52 l-182 -1 225 -8 c220 -7
334 -20 465 -56 78 -22 145 -50 145 -62 0 -5 3 -16 6 -24 5 -14 0 -14 -40 -2
-125 38 -447 72 -707 76 l-157 3 -54 -33 c-117 -71 -475 -377 -615 -525 -42
-44 -99 -111 -126 -149 -27 -37 -51 -66 -53 -64 -6 6 82 230 117 300 31 60 46
76 174 177 247 196 458 329 559 350 l41 9 -44 -4 c-87 -7 -248 -104 -501 -300
-79 -60 -151 -116 -162 -124 -28 -21 38 86 119 193 61 79 79 96 175 155 59 36
159 93 224 126 78 40 122 69 133 87 15 26 38 39 123 70 48 17 218 21 338 8z
m-2744 -188 c28 -12 57 -22 65 -23 8 -1 -6 -7 -31 -13 -25 -7 -49 -9 -54 -5
-17 15 -83 10 -90 -6 -3 -8 -1 -15 4 -15 6 0 10 -6 10 -14 0 -7 6 -19 14 -26
8 -6 12 -19 9 -27 -4 -10 -2 -14 4 -10 18 11 36 -18 20 -32 -11 -8 -18 -6 -31
8 -10 11 -15 25 -10 32 4 7 3 10 -3 6 -6 -4 -28 15 -49 43 -21 27 -40 48 -42
45 -17 -17 285 -356 403 -451 l49 -40 -22 -37 c-25 -44 -18 -45 49 -11 28 14
57 23 64 20 8 -3 16 0 19 7 4 7 4 -4 1 -23 l-5 -35 27 48 c26 47 28 48 122 77
53 16 113 32 133 36 34 6 38 4 44 -20 9 -38 -2 -56 -33 -56 -44 0 -88 -34
-114 -87 -33 -67 -32 -189 2 -288 24 -67 27 -70 84 -101 33 -17 63 -30 68 -27
4 2 7 44 7 92 0 80 -2 89 -25 111 -42 39 -34 77 25 130 l51 45 4 134 c5 147 6
151 65 151 63 0 81 -32 96 -168 7 -64 13 -123 14 -131 0 -8 44 32 98 87 76 80
116 112 186 152 l89 50 123 0 c68 0 124 -3 124 -7 0 -5 -16 -45 -37 -91 l-37
-84 -34 7 c-19 3 -54 16 -78 27 l-43 22 -70 -47 c-68 -45 -201 -162 -201 -177
0 -4 37 -10 83 -12 55 -3 99 -12 135 -28 28 -12 52 -24 52 -27 0 -2 -12 -24
-26 -49 -31 -52 -25 -60 6 -9 24 39 35 43 49 17 7 -13 1 -46 -20 -117 -21 -69
-28 -111 -24 -135 4 -22 2 -30 -3 -22 -10 15 -22 -30 -21 -77 0 -21 5 -15 22
26 23 55 45 68 54 33 3 -11 8 -20 12 -20 3 0 32 16 64 35 32 19 62 35 68 35 5
0 20 -25 34 -55 22 -51 23 -58 10 -89 -8 -19 -12 -42 -9 -51 4 -9 3 -15 -2
-14 -23 4 -26 -3 -9 -21 10 -11 21 -17 26 -15 8 6 59 -62 59 -79 0 -5 -6 -17
-12 -26 -7 -9 0 -3 15 12 l28 29 14 -33 c57 -136 87 -202 100 -221 21 -30 19
-40 -12 -79 l-26 -33 32 31 33 32 36 -40 c19 -22 48 -46 64 -54 26 -13 32 -12
77 10 39 20 50 23 54 11 7 -15 -4 -25 -52 -50 l-34 -17 24 -19 c13 -10 53 -30
88 -45 l64 -28 18 22 c22 28 33 28 18 0 -11 -21 -11 -21 50 -15 l62 7 -22 -31
c-16 -23 -19 -33 -10 -42 9 -9 11 -8 6 4 -9 25 47 79 83 79 24 0 34 -7 50 -34
11 -19 31 -40 44 -47 21 -11 20 -9 -5 16 -31 32 -33 68 -3 73 11 3 25 -4 32
-13 16 -21 64 -13 64 11 0 23 29 28 50 9 26 -23 25 -27 -7 -66 -21 -25 -23
-30 -8 -21 11 5 31 29 45 51 14 23 30 48 35 57 21 31 405 74 405 45 0 -5 -48
-61 -106 -123 l-107 -113 117 117 116 117 20 -21 c36 -39 27 -88 -30 -156 -27
-33 -76 -84 -109 -113 -63 -55 -69 -75 -20 -64 16 4 29 5 29 2 0 -14 -513
-496 -587 -551 -159 -120 -236 -146 -718 -250 -244 -52 -383 -71 -466 -63
-121 11 -245 96 -305 211 -16 30 -30 53 -32 51 -2 -2 4 -17 13 -34 8 -17 13
-31 11 -31 -3 0 -135 66 -293 146 -322 162 -326 166 -358 289 -23 92 -20 135
19 209 35 66 107 166 145 200 28 25 27 18 -8 -59 -59 -131 -87 -296 -58 -351
9 -17 23 -36 31 -43 9 -7 13 -17 10 -22 -3 -5 2 -6 10 -3 15 6 137 -54 166
-82 12 -12 12 -14 0 -14 -8 0 43 -29 113 -65 70 -36 134 -65 143 -65 8 0 23
-15 34 -32 20 -33 28 -32 10 1 -18 35 -122 390 -182 621 l-60 235 7 115 c4 63
5 113 2 110 -2 -3 -42 -54 -87 -115 -103 -137 -221 -278 -227 -272 -2 3 12 38
33 78 20 41 63 129 95 197 l58 122 -48 -52 c-26 -29 -63 -70 -81 -91 -18 -21
-35 -35 -39 -32 -3 4 -13 25 -21 48 -14 36 -14 55 -3 137 15 117 15 120 4 120
-5 0 -12 -12 -14 -27 -2 -16 -5 31 -6 104 -1 135 4 176 20 151 7 -10 9 -9 9 5
0 9 4 17 9 17 5 0 11 14 15 30 3 17 30 59 59 94 30 35 57 69 60 77 5 12 7 12
17 -1 16 -20 11 -1 -31 115 -22 63 -34 117 -39 185 -6 82 -7 87 -9 33 0 -35
-3 -63 -7 -63 -13 0 -84 55 -178 139 -109 96 -171 143 -180 134 -6 -6 -154
290 -225 449 -25 55 -40 102 -36 109 5 7 4 10 -2 6 -7 -4 -63 90 -63 106 0 2
64 -29 143 -68 78 -39 165 -81 193 -93z m2324 -96 c0 -2 -27 -20 -60 -39 -74
-44 -79 -39 -7 8 49 32 67 40 67 31z m-2360 -94 c0 -5 17 -28 37 -53 l37 -44
-47 45 c-46 44 -56 60 -37 60 6 0 10 -4 10 -8z m858 -14 c28 -28 0 -88 -43
-88 -27 0 -45 18 -45 46 0 44 58 72 88 42z m-328 -268 c-8 -5 -22 -9 -30 -9
-10 0 -8 3 5 9 27 12 43 12 25 0z m-485 -50 c3 -5 1 -10 -4 -10 -6 0 -11 5
-11 10 0 6 2 10 4 10 3 0 8 -4 11 -10z m75 -73 c0 -6 -9 1 -21 14 -12 13 -26
23 -31 21 -5 -1 -6 2 -3 9 8 11 55 -27 55 -44z m219 50 c-2 -1 -12 -9 -22 -16
-15 -12 -17 -12 -11 3 3 9 13 16 22 16 8 0 13 -1 11 -3z m3139 -34 c32 -43
-12 -117 -65 -111 -62 7 -82 106 -24 127 33 12 72 5 89 -16z m-3444 -264 c-3
-5 -10 -7 -15 -3 -5 3 -7 10 -3 15 3 5 10 7 15 3 5 -3 7 -10 3 -15z m3134 -1
c8 -8 12 -68 12 -203 0 -265 2 -260 -152 -410 -165 -160 -266 -254 -246 -230
113 143 210 271 237 314 l34 53 5 159 c5 174 1 189 -49 189 -16 0 -29 3 -29 6
0 20 70 97 104 114 47 23 67 25 84 8z m-3163 -68 c-3 -5 -10 -10 -16 -10 -5 0
-9 5 -9 10 0 6 7 10 16 10 8 0 12 -4 9 -10z m3425 -11 c0 -5 4 -8 9 -4 12 7
31 -26 31 -55 0 -30 -45 -69 -73 -63 -36 9 -47 24 -47 64 0 28 6 42 22 53 26
18 58 21 58 5z m-3432 -66 c-2 -10 -10 -18 -18 -18 -8 0 -16 8 -18 18 -2 12 3
17 18 17 15 0 20 -5 18 -17z m1992 -9 c16 -16 37 -201 50 -444 l12 -215 -43
-38 -43 -38 -18 23 c-39 51 -113 244 -179 466 -38 130 -67 237 -65 239 21 21
266 27 286 7z m-1840 -44 c0 -5 -5 -10 -11 -10 -5 0 -7 5 -4 10 3 6 8 10 11
10 2 0 4 -4 4 -10z m120 -390 c0 -297 -4 -331 -65 -533 -88 -295 -96 -372 -52
-480 16 -38 27 -70 25 -71 -2 -1 -23 -8 -48 -15 -75 -21 -92 -19 -111 14 -35
60 -34 78 10 129 43 49 52 76 26 76 -8 0 -14 8 -13 18 1 9 0 25 0 36 -2 15 -5
16 -17 6 -12 -10 -15 -10 -15 3 0 20 45 175 76 260 30 85 30 86 -2 53 -31 -30
-54 -34 -49 -8 2 9 12 116 22 237 17 210 18 217 25 145 4 -41 18 -106 30 -145
l22 -70 7 45 c3 25 10 130 13 235 6 139 12 197 23 220 20 39 76 114 86 115 4
0 7 -122 7 -270z m-216 228 c8 -14 6 -22 -10 -38 -23 -24 -50 -18 -59 11 -14
43 45 65 69 27z m3364 -50 c7 -7 12 -24 12 -38 0 -31 -17 -50 -45 -50 -28 0
-45 19 -45 50 0 31 17 50 45 50 12 0 26 -5 33 -12z m-3330 -111 c2 -10 -3 -17
-12 -17 -18 0 -29 16 -21 31 9 14 29 6 33 -14z m3329 -187 c6 -24 15 -25 54
-4 17 8 33 13 36 10 9 -9 -167 -359 -195 -390 -35 -36 -216 -156 -237 -156 -3
0 9 19 28 43 50 61 113 167 169 283 51 107 68 164 49 164 -18 0 -13 19 14 45
30 31 75 33 82 5z m-3367 -34 c0 -3 -4 -8 -10 -11 -5 -3 -10 -1 -10 4 0 6 5
11 10 11 6 0 10 -2 10 -4z m3174 -102 c18 -17 21 -34 7 -34 -22 0 -92 38 -79
43 26 11 57 7 72 -9z m-605 -41 c-35 -40 -31 -38 -168 -72 -172 -42 -167 -43
-135 22 15 28 28 54 31 57 3 3 112 11 262 18 l34 2 -24 -27z m-529 -92 c6 -17
9 -34 6 -39 -3 -5 6 -7 19 -4 14 2 32 1 42 -2 15 -6 15 -8 2 -22 -14 -13 -23
-11 -81 15 -36 16 -69 34 -72 40 -6 10 38 40 60 41 6 0 17 -13 24 -29z m-2100
-41 c0 -5 -4 -10 -9 -10 -6 0 -13 5 -16 10 -3 6 1 10 9 10 9 0 16 -4 16 -10z
m3155 -336 c-55 -53 -119 -107 -142 -120 -61 -36 -208 -94 -240 -94 -28 0 -28
0 17 45 29 28 57 46 78 50 88 15 203 78 292 161 43 39 63 52 85 53 6 0 -35
-43 -90 -95z m458 8 c57 -1 96 -6 92 -11 -14 -24 -148 -41 -311 -41 -92 0
-164 3 -161 7 4 3 34 16 67 27 61 21 91 23 313 18z m-5028 -278 c0 -10 -8 -20
-17 -22 -18 -3 -26 27 -11 42 12 11 28 0 28 -20z m203 -49 c34 -26 60 -50 58
-52 -6 -7 -86 29 -86 38 0 5 -13 22 -30 37 -29 29 -42 54 -17 35 6 -5 40 -31
75 -58z m880 14 c-2 -6 -8 -10 -13 -10 -5 0 -11 4 -13 10 -2 6 4 11 13 11 9 0
15 -5 13 -11z m-1200 -211 c-4 -27 -33 -36 -42 -13 -8 22 1 35 25 35 15 0 20
-6 17 -22z m1082 -6 c0 -13 -23 -32 -37 -32 -19 0 -27 28 -13 45 9 11 17 12
31 4 10 -5 19 -13 19 -17z m250 -43 c0 -5 -7 -9 -15 -9 -15 0 -20 12 -9 23 8
8 24 -1 24 -14z m-76 -20 c-7 -13 -31 -11 -40 2 -9 16 18 30 33 17 7 -6 10
-14 7 -19z m-138 -125 c-5 -13 -10 -14 -18 -6 -6 6 -8 18 -4 28 5 13 10 14 18
6 6 -6 8 -18 4 -28z m-12 -65 c-3 -5 -10 -7 -15 -3 -5 3 -7 10 -3 15 3 5 10 7
15 3 5 -3 7 -10 3 -15z m4401 -344 c0 -23 -34 -33 -45 -14 -13 20 1 40 24 37
13 -2 21 -10 21 -23z m-2507 -295 c5 -27 -22 -53 -46 -46 -22 7 -31 44 -15 60
12 12 58 2 61 -14z m1717 -32 c-28 -92 -57 -178 -60 -178 -2 0 -3 16 -3 35 0
19 4 35 10 35 5 0 7 9 3 19 -4 13 1 27 14 40 12 12 21 27 21 34 0 12 9 27 16
27 2 0 2 -6 -1 -12z m-1835 -82 c6 -8 10 -25 8 -38 -2 -18 -10 -24 -35 -26
-28 -3 -33 1 -39 23 -11 45 37 75 66 41z m1761 -129 c-10 -9 -11 -8 -5 6 3 10
9 15 12 12 3 -3 0 -11 -7 -18z m-1842 -11 c13 -16 -1 -56 -19 -56 -33 0 -55
42 -33 63 11 12 40 8 52 -7z m-51 -143 c5 -17 -26 -29 -40 -15 -6 6 -7 15 -3
22 9 14 37 9 43 -7z m-47 -116 c-1 -12 -15 -9 -19 4 -3 6 1 10 8 8 6 -3 11 -8
11 -12z"/>
<path d="M6066 3639 c-31 -28 -70 -69 -87 -92 -29 -39 -28 -39 16 8 26 28 68
69 94 92 25 24 43 43 39 43 -3 0 -31 -23 -62 -51z"/>
<path d="M6110 3621 c-74 -56 -143 -116 -120 -105 14 7 149 112 180 141 30 28
2 11 -60 -36z"/>
<path d="M6254 3028 l-19 -21 28 18 c28 18 33 25 19 25 -5 0 -17 -10 -28 -22z"/>
<path d="M6440 3020 c20 -5 39 -5 45 1 5 5 -8 9 -35 8 l-45 -1 35 -8z"/>
<path d="M6417 2894 c-11 -12 13 -44 33 -44 25 0 25 12 2 33 -20 19 -26 20
-35 11z"/>
<path d="M6082 2646 c43 -77 95 -171 115 -208 l38 -67 75 -6 c41 -3 113 -10
159 -16 46 -5 86 -8 88 -5 3 3 3 16 -1 29 -4 17 -15 26 -34 30 -16 3 -44 22
-63 42 -102 107 -143 142 -234 204 -55 37 -127 84 -161 103 l-61 35 79 -141z"/>
<path d="M6620 2486 c0 -2 8 -10 18 -17 15 -13 16 -12 3 4 -13 16 -21 21 -21
13z"/>
<path d="M5924 2464 c-18 -14 -18 -15 4 -4 12 6 22 13 22 15 0 8 -5 6 -26 -11z"/>
<path d="M5905 2424 c-33 -25 -64 -50 -70 -56 -12 -14 69 43 110 77 50 41 24
27 -40 -21z"/>
<path d="M5848 2424 c-38 -20 -36 -28 2 -9 17 9 30 18 30 20 0 7 -1 6 -32 -11z"/>
<path d="M6758 2264 c5 -3 7 -27 4 -54 -3 -35 -1 -50 7 -50 17 0 10 103 -7
106 -7 1 -9 0 -4 -2z"/>
<path d="M6250 2245 c0 -7 81 -47 86 -43 2 3 -17 14 -41 26 -25 12 -45 20 -45
17z"/>
<path d="M5839 2223 c-13 -16 -12 -17 4 -4 16 13 21 21 13 21 -2 0 -10 -8 -17
-17z"/>
<path d="M6187 2202 c-45 -46 -50 -68 -6 -26 28 26 55 64 46 64 -1 0 -20 -17
-40 -38z"/>
<path d="M6929 2200 c-14 -11 -39 -18 -54 -17 -25 2 -34 -6 -63 -48 -18 -27
-55 -94 -81 -147 l-47 -97 -39 74 c-22 40 -41 72 -43 71 -1 -2 7 -27 17 -57
11 -30 25 -73 31 -95 9 -36 17 -45 55 -63 l45 -21 57 21 c31 12 66 31 77 43
14 14 34 72 60 173 46 179 43 206 -15 163z"/>
<path d="M6722 2145 c0 -16 2 -22 5 -12 2 9 2 23 0 30 -3 6 -5 -1 -5 -18z"/>
<path d="M7704 2128 l-19 -23 23 19 c12 11 22 21 22 23 0 8 -8 2 -26 -19z"/>
<path d="M7068 2120 c-15 -9 -14 -16 15 -66 18 -31 43 -69 57 -86 l25 -30 202
-1 c111 -1 199 1 194 6 -22 22 -432 187 -463 187 -7 0 -21 -5 -30 -10z"/>
<path d="M6200 2073 c-56 -20 -144 -106 -188 -184 -41 -73 -73 -195 -70 -273
2 -60 2 -60 5 -11 5 72 9 81 30 64 9 -8 24 -32 34 -53 18 -41 134 -148 200
-186 53 -29 50 -18 -3 13 -24 14 -69 49 -100 79 l-58 53 11 50 c11 52 38 85
70 85 31 0 87 -58 120 -125 34 -70 49 -78 116 -66 23 5 45 6 48 3 3 -3 5 -22
5 -43 0 -30 -7 -43 -35 -68 -41 -36 -41 -36 -89 -16 -20 8 -36 13 -36 10 0 -2
15 -11 33 -18 39 -17 108 -31 88 -18 -10 7 -8 12 10 24 15 11 27 13 34 7 7 -6
16 -5 23 2 8 8 12 9 12 1 0 -11 -31 -40 -80 -76 -17 -11 -18 -14 -5 -8 68 32
415 349 415 380 0 27 -37 69 -81 91 -21 11 -42 20 -46 20 -4 -1 13 -12 40 -26
26 -13 47 -31 47 -39 0 -16 -51 -55 -72 -55 -16 0 -207 115 -344 207 -93 63
-104 77 -104 139 0 24 5 33 23 38 35 9 35 9 110 -61 l72 -67 -70 72 c-76 79
-86 82 -165 55z m-163 -475 c-3 -7 -5 -2 -5 12 0 14 2 19 5 13 2 -7 2 -19 0
-25z"/>
<path d="M6440 1946 c0 -2 8 -10 18 -17 15 -13 16 -12 3 4 -13 16 -21 21 -21
13z"/>
<path d="M6627 1819 c7 -7 15 -10 18 -7 3 3 -2 9 -12 12 -14 6 -15 5 -6 -5z"/>
<path d="M5318 1653 c7 -3 16 -2 19 1 4 3 -2 6 -13 5 -11 0 -14 -3 -6 -6z"/>
<path d="M7169 1633 c-13 -16 -12 -17 4 -4 16 13 21 21 13 21 -2 0 -10 -8 -17
-17z"/>
<path d="M5980 1526 c0 -2 8 -10 18 -17 15 -13 16 -12 3 4 -13 16 -21 21 -21
13z"/>
<path d="M7029 1513 c-13 -16 -12 -17 4 -4 9 7 17 15 17 17 0 8 -8 3 -21 -13z"/>
<path d="M7199 1503 c-13 -16 -12 -17 4 -4 16 13 21 21 13 21 -2 0 -10 -8 -17
-17z"/>
<path d="M6080 1456 c0 -6 150 -96 220 -131 85 -43 55 -20 -42 34 -51 27 -112
62 -135 76 -24 14 -43 24 -43 21z"/>
<path d="M5960 1360 c27 -38 75 -74 119 -89 38 -12 135 -15 129 -3 -2 4 -10
24 -18 44 -7 21 -21 40 -29 42 -30 9 -183 36 -203 36 -19 0 -19 -1 2 -30z"/>
<path d="M4559 5018 c-8 -29 -9 -67 -3 -118 4 -41 9 -112 9 -157 1 -88 6 -97
75 -160 36 -33 38 -8 5 66 l-27 59 12 162 c7 89 9 164 6 167 -3 4 -7 -9 -7
-28 -2 -34 -2 -34 -8 6 -5 31 -11 41 -28 43 -18 3 -24 -4 -34 -40z m56 -205
c-5 -71 -10 -101 -16 -88 -4 11 -8 35 -8 54 -1 39 20 153 27 146 3 -2 1 -53
-3 -112z"/>
<path d="M4774 5043 c2 -10 7 -58 11 -106 4 -49 9 -86 12 -84 9 9 -9 207 -19
207 -5 0 -7 -8 -4 -17z"/>
<path d="M4853 5040 c4 -14 32 -133 62 -264 52 -223 59 -245 102 -313 25 -40
47 -73 50 -73 2 0 2 3 0 8 -3 4 -23 37 -45 74 -32 53 -47 93 -67 185 -42 186
-95 396 -102 402 -3 3 -3 -5 0 -19z"/>
<path d="M1650 5034 c-63 -21 -188 -78 -215 -98 -38 -28 9 -29 77 -1 34 14 88
35 118 47 82 31 100 78 20 52z"/>
<path d="M1430 4979 c0 -5 5 -7 10 -4 6 3 10 8 10 11 0 2 -4 4 -10 4 -5 0 -10
-5 -10 -11z"/>
<path d="M1805 4861 c-43 -15 -113 -50 -119 -59 -3 -6 3 -35 15 -65 18 -48 23
-53 46 -49 21 4 24 1 23 -19 -1 -13 -2 -29 -1 -36 1 -13 53 -33 86 -33 20 0
21 4 17 55 -5 58 1 65 40 44 12 -6 18 -7 14 -1 -3 5 1 12 9 16 15 5 11 15 -47
104 -10 15 -21 33 -24 40 -7 13 -27 14 -59 3z"/>
<path d="M4801 4804 c0 -21 4 -59 9 -84 6 -34 7 -25 3 35 -6 84 -14 115 -12
49z"/>
<path d="M3484 4793 c26 -20 45 -42 42 -49 -3 -7 10 -26 28 -41 18 -15 41 -40
51 -55 19 -31 35 -36 35 -13 0 17 25 20 35 5 3 -5 1 -18 -4 -29 -8 -14 -8 -21
2 -24 20 -7 37 4 37 23 0 34 20 32 73 -6 51 -37 54 -38 134 -36 56 1 96 -3
123 -14 38 -16 58 -43 45 -65 -4 -5 0 -16 9 -22 10 -8 16 -33 19 -77 l3 -65 2
73 c2 55 -1 74 -12 78 -8 3 -12 12 -10 19 3 7 -1 26 -10 42 -14 28 -13 31 9
59 13 16 24 38 25 49 0 10 17 37 38 59 20 23 25 30 10 17 -26 -22 -31 -23 -68
-12 -23 7 -84 11 -138 10 -69 -2 -107 2 -133 13 -28 12 -56 14 -135 9 l-99 -7
-72 48 c-86 57 -105 63 -39 11z"/>
<path d="M3085 4790 c-3 -6 1 -7 9 -4 18 7 21 14 7 14 -6 0 -13 -4 -16 -10z"/>
<path d="M735 4700 c-76 -49 -115 -80 -115 -91 0 -5 11 -11 24 -15 22 -5 24
-8 13 -27 -7 -12 -16 -25 -22 -29 -6 -5 -6 -8 2 -8 6 0 14 4 17 8 3 5 19 7 36
4 16 -2 30 0 30 6 0 5 11 13 24 16 13 3 42 23 64 43 38 36 40 39 27 63 -8 14
-14 35 -15 48 0 30 -15 27 -85 -18z"/>
<path d="M1476 4678 c-9 -12 -16 -27 -16 -33 0 -16 -40 -96 -62 -125 -16 -21
-18 -34 -13 -83 10 -86 -27 -114 -88 -64 -29 23 -61 117 -51 149 2 9 1 19 -4
22 -22 13 -113 -55 -224 -169 -94 -96 -108 -112 -108 -123 0 -6 -8 -13 -17
-16 -10 -3 -29 -23 -43 -43 -14 -21 -28 -40 -31 -43 -3 -3 -14 -21 -24 -40
-10 -19 -21 -37 -25 -40 -28 -19 -105 -213 -131 -330 -35 -160 -19 -394 34
-499 91 -177 106 -192 186 -184 45 4 62 11 89 38 30 29 32 35 21 53 -12 19
-11 23 4 34 16 12 18 36 21 203 3 152 8 205 24 266 41 152 105 274 190 362 25
26 49 47 53 47 3 0 30 23 59 50 29 28 73 62 97 78 30 19 51 42 68 77 27 54 68
105 85 105 5 0 10 6 10 14 0 8 5 16 10 18 6 2 17 25 25 51 l14 48 -30 17 c-17
9 -37 22 -45 27 -17 12 -33 73 -34 123 0 38 -21 43 -44 10z m-516 -523 c0 -8
-7 -15 -15 -15 -16 0 -20 12 -8 23 11 12 23 8 23 -8z m-103 -81 c6 -16 -15
-37 -29 -28 -4 3 -8 14 -8 25 0 23 28 26 37 3z m258 -39 c0 -30 -39 -27 -43 3
-3 20 0 23 20 20 15 -2 23 -10 23 -23z m-217 -192 c5 -10 7 -24 5 -30 -6 -18
-53 -16 -53 1 0 43 31 62 48 29z m57 7 c-3 -5 -10 -10 -16 -10 -5 0 -9 5 -9
10 0 6 7 10 16 10 8 0 12 -4 9 -10z m-24 -135 c-1 -15 -24 -12 -29 3 -3 9 2
13 12 10 10 -1 17 -7 17 -13z"/>
<path d="M1194 4665 c-10 -8 -14 -15 -8 -15 6 0 17 7 24 15 16 19 9 19 -16 0z"/>
<path d="M2868 4673 c7 -3 16 -2 19 1 4 3 -2 6 -13 5 -11 0 -14 -3 -6 -6z"/>
<path d="M4822 4645 c0 -29 35 -180 37 -160 0 6 -8 51 -18 100 -11 50 -20 77
-19 60z"/>
<path d="M2842 4640 c0 -14 2 -19 5 -12 2 6 2 18 0 25 -3 6 -5 1 -5 -13z"/>
<path d="M834 4583 c-62 -50 -75 -66 -65 -81 5 -9 13 -6 30 9 16 15 25 18 30
10 5 -8 13 -5 27 10 17 21 18 22 1 16 -11 -4 -16 -3 -12 4 4 5 16 7 27 3 17
-5 20 -3 15 10 -5 13 -3 15 12 7 13 -7 18 -6 18 4 0 8 -4 12 -9 9 -4 -3 -12 4
-16 16 -8 21 -10 20 -58 -17z"/>
<path d="M2875 4580 c10 -11 20 -20 23 -20 3 0 -3 9 -13 20 -10 11 -20 20 -23
20 -3 0 3 -9 13 -20z"/>
<path d="M495 4530 c-44 -33 -93 -70 -110 -82 -87 -64 -215 -223 -200 -248 14
-22 38 -4 167 125 75 74 140 135 146 135 29 0 18 -26 -37 -87 -94 -102 -74
-107 25 -5 31 31 62 44 48 20 -4 -7 2 -5 14 6 12 10 19 23 16 27 -3 5 1 6 9 3
11 -4 13 1 10 20 -4 18 0 28 11 32 9 3 16 12 16 19 0 16 -35 9 -51 -11 -27
-33 -26 -10 1 30 29 42 39 77 23 75 -5 0 -44 -27 -88 -59z"/>
<path d="M1016 4535 c-84 -44 -148 -121 -144 -173 3 -37 -11 -54 -56 -72 -20
-7 -38 -22 -41 -31 -4 -10 -15 -21 -25 -24 -28 -9 -82 -75 -115 -142 -16 -32
-33 -59 -36 -61 -4 -2 -5 -18 -3 -37 3 -26 -1 -38 -20 -53 -59 -46 -118 -276
-118 -457 0 -166 76 -389 130 -381 23 4 21 35 -12 173 -26 113 -35 213 -16
183 5 -8 10 -29 10 -47 0 -17 4 -34 8 -37 5 -3 8 66 8 152 -1 99 4 179 13 217
7 33 14 65 16 70 10 50 34 113 77 203 29 59 52 110 52 113 1 8 89 113 99 117
4 2 5 8 2 12 -6 9 26 43 189 199 42 41 75 75 74 76 -15 11 -70 11 -92 0z"/>
<path d="M4700 4450 c6 -11 13 -20 16 -20 2 0 0 9 -6 20 -6 11 -13 20 -16 20
-2 0 0 -9 6 -20z"/>
<path d="M4861 4460 c0 -8 4 -24 9 -35 5 -13 9 -14 9 -5 0 8 -4 24 -9 35 -5
13 -9 14 -9 5z"/>
<path d="M4880 4395 c0 -5 5 -17 10 -25 5 -8 10 -10 10 -5 0 6 -5 17 -10 25
-5 8 -10 11 -10 5z"/>
<path d="M5079 4365 c5 -11 17 -29 26 -40 l16 -20 -10 20 c-5 11 -17 29 -26
40 l-16 20 10 -20z"/>
<path d="M4770 4330 c6 -11 13 -20 16 -20 2 0 0 9 -6 20 -6 11 -13 20 -16 20
-2 0 0 -9 6 -20z"/>
<path d="M5050 4200 c0 -5 5 -10 11 -10 5 0 7 5 4 10 -3 6 -8 10 -11 10 -2 0
-4 -4 -4 -10z"/>
<path d="M3524 4038 l-29 -33 33 29 c17 17 32 31 32 33 0 8 -8 1 -36 -29z"/>
<path d="M1511 3953 c-17 -21 -31 -45 -31 -55 0 -9 -6 -23 -12 -30 -34 -35
-49 -148 -20 -148 29 0 50 20 45 41 -8 28 16 96 36 102 21 6 65 92 58 112 -11
26 -44 16 -76 -22z"/>
<path d="M4426 3950 c-22 -17 -35 -30 -30 -30 9 1 83 59 74 59 -3 0 -23 -13
-44 -29z"/>
<path d="M3865 3910 c-27 -16 -45 -30 -40 -30 6 0 33 14 60 30 28 16 46 30 40
30 -5 0 -32 -14 -60 -30z"/>
<path d="M3790 3870 c-9 -6 -10 -10 -3 -10 6 0 15 5 18 10 8 12 4 12 -15 0z"/>
<path d="M1676 3820 c-20 -22 -36 -48 -36 -58 0 -29 63 -87 138 -128 63 -35
162 -123 162 -145 0 -5 3 -10 8 -10 34 -6 66 -9 119 -9 61 -1 80 -13 74 -47
-1 -6 9 -20 22 -30 14 -10 28 -30 32 -43 4 -14 12 -31 17 -37 16 -21 65 -15
94 10 21 19 26 29 20 50 -3 14 -15 29 -26 32 -11 4 -18 11 -15 16 3 5 -1 6 -9
3 -8 -3 -24 0 -36 6 -19 10 -21 17 -15 48 9 51 8 73 -7 100 -11 21 -10 26 12
43 25 19 46 20 99 3 17 -5 22 -4 17 4 -4 7 -3 12 2 12 14 0 2 53 -15 67 -23
18 -8 46 22 41 31 -6 39 15 15 37 -14 13 -28 16 -52 10 -56 -12 -117 -8 -159
10 -39 18 -40 18 -54 -2 -14 -20 -35 -24 -137 -26 -24 0 -56 1 -73 2 -16 1
-47 0 -68 -3 -30 -3 -39 -1 -44 12 -11 37 -26 61 -35 56 -5 -3 -15 -1 -22 5
-10 9 -22 2 -50 -29z m154 -105 c0 -8 -7 -15 -15 -15 -8 0 -15 7 -15 15 0 8 7
15 15 15 8 0 15 -7 15 -15z m92 -80 c0 -5 -5 -11 -11 -13 -6 -2 -11 4 -11 13
0 9 5 15 11 13 6 -2 11 -8 11 -13z m262 -63 c9 -14 -12 -35 -28 -29 -23 9 -20
37 3 37 11 0 22 -4 25 -8z m-98 -53 c3 -6 1 -16 -5 -22 -9 -9 -14 -8 -21 3 -9
15 -4 30 10 30 5 0 12 -5 16 -11z"/>
<path d="M3735 3850 c-11 -4 -31 -21 -45 -36 l-25 -29 28 25 c15 13 40 30 55
36 30 14 18 17 -13 4z"/>
<path d="M332 3728 c-35 -74 -71 -187 -73 -232 l-2 -31 -10 38 c-6 20 -14 37
-17 37 -9 0 -31 -151 -30 -200 1 -35 56 -196 70 -205 4 -3 11 12 15 32 l7 36
23 -29 c14 -16 24 -35 25 -41 0 -17 8 -16 27 3 13 13 16 59 17 324 1 212 -2
312 -10 320 -8 8 -19 -7 -42 -52z"/>
<path d="M1630 3513 c0 -15 9 -46 21 -70 18 -37 31 -48 88 -74 36 -17 82 -33
101 -36 58 -8 62 -17 58 -114 l-3 -88 31 -5 c38 -8 83 14 129 61 l35 36 -33
23 c-17 13 -47 33 -65 46 -33 23 -92 125 -92 160 0 28 -48 46 -107 41 -43 -5
-60 -1 -99 21 -58 32 -64 32 -64 -1z"/>
<path d="M16 3460 c-4 -25 -6 -70 -5 -100 0 -30 -2 -79 -6 -107 -7 -48 -5 -55
16 -72 16 -13 26 -15 31 -9 12 21 -1 277 -16 306 l-14 27 -6 -45z"/>
<path d="M2450 3469 c-6 -11 -9 -28 -7 -37 3 -12 5 -11 6 5 0 12 11 29 23 37
18 13 19 16 6 16 -10 0 -22 -9 -28 -21z"/>
<path d="M4773 3438 c1 -33 -5 -45 -55 -95 -56 -58 -125 -159 -115 -169 3 -3
15 14 27 38 12 23 53 75 90 113 68 69 68 70 60 110 l-9 40 2 -37z"/>
<path d="M101 3396 c-22 -24 -22 -41 3 -100 9 -21 16 -48 16 -60 0 -22 55 -73
63 -58 2 4 1 45 -3 92 -11 128 -38 170 -79 126z"/>
<path d="M2413 3377 c-13 -18 -32 -44 -44 -59 -18 -22 -20 -34 -14 -73 4 -30
16 -57 31 -72 24 -24 24 -26 9 -43 -10 -11 -15 -25 -12 -32 4 -9 6 -8 6 3 1 9
8 22 16 29 18 15 38 1 67 -45 10 -16 18 -25 18 -20 0 6 -9 25 -20 43 -18 29
-18 32 -2 23 39 -21 54 -48 47 -83 -7 -29 -9 -30 -16 -13 -7 19 -8 19 -8 -2
-1 -13 4 -23 9 -23 6 0 8 -11 4 -25 -3 -14 -2 -25 2 -25 5 0 10 -19 11 -43 2
-42 2 -42 -8 -9 -14 47 -20 39 -18 -23 1 -36 6 -52 13 -48 6 4 4 -1 -4 -12 -8
-10 -28 -24 -45 -32 l-30 -13 29 2 c26 3 30 -1 41 -40 17 -57 27 -67 87 -89
l50 -18 -5 -45 c-5 -42 -3 -47 24 -65 42 -29 37 -66 -16 -119 -14 -14 -24 -35
-24 -48 1 -20 2 -21 6 -3 3 11 17 34 33 50 15 17 32 44 38 62 10 30 8 34 -19
57 -41 34 -39 75 6 136 31 42 33 49 18 54 -14 6 -8 13 29 36 30 19 58 48 80
84 27 47 37 55 55 51 24 -5 49 25 40 48 -3 7 -9 1 -14 -12 l-10 -25 -18 27
c-9 15 -26 27 -37 27 -47 0 -111 55 -146 126 -23 44 -44 61 -110 87 -50 20
-67 15 -51 -14 16 -31 6 -32 -42 -4 -24 13 -52 25 -61 25 -25 0 -38 31 -38 88
0 41 5 55 36 90 20 23 34 46 32 52 -2 5 -13 -5 -25 -23z m124 -344 c-3 -10 -5
-4 -5 12 0 17 2 24 5 18 2 -7 2 -21 0 -30z m4 -288 c17 -39 37 -57 64 -60 6 0
19 -6 30 -12 36 -21 10 -23 -46 -5 -43 15 -58 25 -71 53 -20 39 -24 84 -7 73
6 -3 20 -26 30 -49z m92 32 c3 -8 1 -20 -4 -28 -11 -19 -34 3 -26 25 8 20 23
21 30 3z"/>
<path d="M2263 3251 c-13 -11 -23 -22 -23 -25 0 -12 31 -6 56 11 19 12 22 18
12 24 -18 12 -20 11 -45 -10z"/>
<path d="M2900 2962 c0 -5 6 -9 13 -9 6 0 21 -4 32 -7 13 -5 12 -2 -5 8 -29
17 -40 20 -40 8z"/>
<path d="M2988 2933 c6 -2 18 -2 25 0 6 3 1 5 -13 5 -14 0 -19 -2 -12 -5z"/>
<path d="M3300 2933 c0 -6 -10 -14 -22 -16 -18 -3 -17 -5 7 -6 45 -2 75 -12
75 -24 0 -6 14 -25 30 -42 32 -33 53 -105 31 -105 -7 0 -10 4 -7 9 12 19 -78
110 -121 123 -30 8 -39 -8 -22 -39 12 -23 11 -27 -9 -43 -27 -22 -28 -37 -3
-64 10 -12 23 -34 28 -51 5 -16 16 -31 24 -32 66 -8 93 -17 119 -39 l30 -26 0
45 c0 25 -5 58 -11 74 l-10 28 30 -29 c17 -17 32 -39 32 -50 1 -17 2 -18 6 -3
3 10 -9 34 -27 57 -17 22 -34 55 -37 74 -3 21 -19 47 -39 67 -19 18 -34 39
-34 46 0 8 -12 18 -27 24 -15 6 -31 16 -35 22 -6 9 -8 9 -8 0z"/>
<path d="M3068 2923 c7 -3 16 -2 19 1 4 3 -2 6 -13 5 -11 0 -14 -3 -6 -6z"/>
<path d="M3208 2923 c6 -2 18 -2 25 0 6 3 1 5 -13 5 -14 0 -19 -2 -12 -5z"/>
<path d="M933 2870 c-13 -5 -23 -13 -23 -18 0 -20 63 -105 81 -109 14 -4 19
-12 16 -24 -3 -11 -2 -19 1 -19 4 0 29 -20 57 -45 40 -36 51 -42 58 -30 4 9 5
24 2 36 -6 18 -4 19 22 12 45 -12 86 -9 91 6 3 10 0 12 -12 8 -10 -4 -16 -1
-16 8 0 9 10 15 24 15 47 0 42 47 -11 91 -16 13 -36 36 -46 52 -17 27 -19 27
-120 26 -56 0 -112 -4 -124 -9z m262 -120 c3 -5 1 -10 -4 -10 -6 0 -11 5 -11
10 0 6 2 10 4 10 3 0 8 -4 11 -10z"/>
<path d="M2879 2819 c-62 -61 -108 -126 -138 -195 l-21 -47 57 56 c84 82 122
107 160 107 35 0 42 -15 23 -51 -10 -18 -8 -19 49 -15 82 6 94 18 70 74 -11
24 -19 51 -19 60 -1 34 -28 55 -78 60 -47 4 -49 3 -103 -49z"/>
<path d="M753 2814 c-12 -26 7 -68 21 -46 4 7 16 12 26 12 24 0 17 23 -14 43
-20 13 -23 13 -33 -9z"/>
<path d="M0 2521 c0 -166 3 -221 13 -224 10 -4 10 -6 0 -6 -10 -1 -13 -38 -13
-150 l0 -149 58 29 c50 24 102 73 102 95 0 3 -13 4 -30 2 -32 -5 -39 9 -18 30
9 9 8 12 -5 12 -9 0 -17 5 -17 11 0 6 8 8 18 5 9 -3 29 -8 44 -11 15 -4 29
-13 32 -21 8 -21 46 -17 98 11 26 14 54 25 63 25 18 0 21 40 3 40 -22 1 46 50
69 50 12 0 23 6 26 13 4 9 7 9 18 -1 11 -10 18 -6 42 19 16 18 45 38 65 45 27
10 31 13 15 14 -19 0 -23 6 -23 30 0 23 7 32 35 46 59 27 56 34 -32 104 -7 6
-27 10 -45 10 -33 0 -33 0 -33 -47 0 -42 -3 -48 -22 -51 -13 -2 -26 4 -32 15
-27 47 -27 47 -61 23 -46 -33 -112 -38 -139 -11 -26 26 -37 69 -23 92 9 14 9
20 0 25 -7 4 -14 2 -16 -5 -5 -16 -31 18 -32 43 0 12 -5 16 -16 12 -8 -3 -12
-2 -9 4 3 6 -5 10 -19 10 -16 0 -36 13 -59 40 -19 22 -39 40 -45 40 -9 0 -12
-60 -12 -219z m180 -51 c13 -9 13 -11 0 -20 -8 -5 -21 -7 -29 -5 -9 4 -31 -14
-57 -42 -23 -26 -45 -45 -49 -41 -8 8 94 118 109 118 6 0 18 -5 26 -10z"/>
<path d="M180 2700 c0 -5 7 -10 16 -10 8 0 12 5 9 10 -3 6 -10 10 -16 10 -5 0
-9 -4 -9 -10z"/>
<path d="M190 2670 c0 -5 5 -10 10 -10 6 0 10 5 10 10 0 6 -4 10 -10 10 -5 0
-10 -4 -10 -10z"/>
<path d="M750 2596 c0 -19 5 -26 20 -26 10 0 23 -7 28 -16 5 -9 17 -14 27 -13
14 3 8 12 -28 42 l-47 38 0 -25z"/>
<path d="M3496 2598 c-11 -43 -6 -56 32 -83 l37 -27 -33 32 c-30 27 -33 36
-28 66 8 38 2 47 -8 12z"/>
<path d="M3255 2591 c7 -22 5 -23 -25 -16 -27 6 -32 4 -37 -14 -7 -26 -14 -26
-36 -1 -9 11 -25 20 -34 20 -31 -1 -96 -18 -102 -28 -3 -5 -13 -12 -21 -15
-10 -4 -8 -6 6 -6 12 -1 24 6 28 14 5 14 36 22 36 9 0 -3 -11 -20 -26 -36 -37
-45 -74 -122 -80 -172 -11 -77 37 -141 156 -209 65 -37 142 -61 150 -47 4 6
34 14 66 17 81 7 95 6 122 -2 22 -7 22 -6 22 79 0 62 -3 86 -12 86 -9 0 -9 3
1 9 14 9 13 25 -4 101 -3 14 7 1 21 -29 25 -50 28 -53 40 -36 8 10 14 23 14
29 0 5 -6 2 -14 -9 -12 -16 -16 -12 -41 54 -22 54 -36 76 -61 92 -21 13 -42
39 -58 75 -26 57 -46 64 -46 16 l0 -26 -36 35 c-32 30 -36 31 -29 10z m44 -58
c2 -1 -1 -8 -7 -16 -15 -18 -4 -56 25 -87 13 -14 29 -37 36 -53 6 -15 19 -30
28 -32 9 -3 26 -16 38 -29 l23 -24 -24 -15 c-12 -8 -38 -15 -56 -15 -28 -1
-34 3 -38 27 -3 15 -15 31 -27 36 -11 6 -23 17 -27 25 -4 8 -12 25 -18 37 -7
13 -12 28 -12 34 0 6 -30 40 -66 75 -39 37 -60 64 -51 64 8 0 24 -11 35 -25
26 -33 38 -32 45 4 l6 30 43 -17 c24 -8 45 -17 47 -19z m155 -99 c10 -26 7
-34 -14 -34 -13 0 -20 7 -20 18 0 33 23 44 34 16z m-94 -225 c0 -5 -7 -9 -15
-9 -15 0 -20 12 -9 23 8 8 24 -1 24 -14z"/>
<path d="M2948 2505 c-6 -13 -28 -36 -49 -51 -41 -28 -47 -38 -26 -50 6 -4 9
-4 5 1 -4 4 3 16 17 26 33 27 89 99 76 99 -6 0 -16 -11 -23 -25z"/>
<path d="M2839 2481 c-13 -10 -29 -16 -35 -14 -7 2 -14 -10 -16 -27 l-5 -31
41 43 c40 42 40 42 47 17 7 -24 7 -24 8 4 1 32 -8 34 -40 8z"/>
<path d="M3554 2425 c-7 -33 -10 -62 -9 -64 7 -6 26 81 23 102 -2 12 -8 -5
-14 -38z"/>
<path d="M624 2401 c0 -11 4 -17 8 -15 4 3 8 12 8 20 0 8 -4 14 -8 14 -4 0 -8
-9 -8 -19z"/>
<path d="M2729 2383 l-34 -38 38 34 c20 19 37 36 37 38 0 8 -8 0 -41 -34z"/>
<path d="M2654 2301 c-23 -22 -44 -47 -48 -57 -4 -10 -5 -16 -3 -14 2 3 25 29
52 58 56 61 56 67 -1 13z"/>
<path d="M8883 2313 c20 -2 54 -2 75 0 20 2 3 4 -38 4 -41 0 -58 -2 -37 -4z"/>
<path d="M2611 2294 c0 -11 3 -14 6 -6 3 7 2 16 -1 19 -3 4 -6 -2 -5 -13z"/>
<path d="M2110 2143 c0 -7 5 -13 10 -13 6 0 10 -9 10 -20 0 -10 7 -23 16 -28
25 -14 0 -24 -31 -12 -31 12 -38 12 -32 3 3 -5 1 -17 -4 -28 -7 -15 -8 -9 -6
23 2 28 -2 42 -10 42 -16 0 -26 -17 -13 -25 14 -9 12 -52 -2 -59 -9 -4 -8 -5
2 -5 35 3 50 -2 78 -26 31 -26 72 -34 72 -14 0 7 -10 9 -24 5 -19 -5 -26 -1
-31 14 -10 31 4 60 28 60 12 0 30 12 40 25 16 22 16 27 3 40 -8 8 -19 15 -25
15 -6 0 -11 4 -11 10 0 5 -16 9 -35 7 -20 -1 -35 -7 -35 -14z"/>
<path d="M2252 2109 c-13 -5 -21 -13 -18 -18 4 -5 -1 -17 -10 -26 -9 -9 -14
-18 -11 -21 9 -10 45 15 52 36 3 11 13 20 21 20 8 0 14 5 14 10 0 12 -17 12
-48 -1z"/>
<path d="M3800 2110 c-12 -8 -11 -10 8 -10 13 0 21 -4 18 -9 -8 -13 26 -23 37
-12 7 7 15 7 23 0 9 -7 19 -7 34 1 21 11 21 12 3 24 -23 15 -103 19 -123 6z
m115 -9 c7 -12 -12 -24 -25 -16 -11 7 -4 25 10 25 5 0 11 -4 15 -9z"/>
<path d="M2750 2083 c0 -18 -11 -68 -26 -113 -17 -54 -24 -97 -22 -132 3 -47
7 -55 37 -75 45 -30 94 -39 120 -21 20 14 19 16 -34 96 l-55 81 0 83 c0 46 -5
90 -10 98 -7 11 -10 7 -10 -17z"/>
<path d="M3430 2079 c0 -5 5 -7 10 -4 6 3 10 8 10 11 0 2 -4 4 -10 4 -5 0 -10
-5 -10 -11z"/>
<path d="M1985 1974 c-8 -19 -17 -51 -21 -71 -4 -19 -15 -44 -25 -54 -37 -37
-25 -57 59 -96 103 -48 159 -62 195 -50 20 6 37 6 53 -2 14 -6 39 -11 55 -11
28 0 30 2 27 33 -2 26 -7 31 -24 29 -37 -5 -74 15 -74 41 0 41 27 67 71 67 64
0 47 29 -28 47 -39 10 -42 9 -45 -11 -2 -15 -11 -22 -31 -24 -37 -4 -59 22
-46 56 12 32 13 32 -21 32 -23 0 -30 -5 -30 -19 0 -11 -5 -23 -10 -26 -8 -5
-7 -11 0 -20 17 -20 8 -59 -14 -63 -29 -6 -36 9 -41 84 -2 38 -4 72 -4 75 -1
4 -8 9 -16 13 -10 4 -20 -6 -30 -30z"/>
<path d="M2305 1930 c3 -5 8 -10 11 -10 2 0 4 5 4 10 0 6 -5 10 -11 10 -5 0
-7 -4 -4 -10z"/>
<path d="M2442 1830 c0 -14 2 -19 5 -12 2 6 2 18 0 25 -3 6 -5 1 -5 -13z"/>
<path d="M2529 1723 c-26 -50 -49 -97 -52 -105 -11 -31 -32 15 -38 85 -4 40
-4 27 -1 -28 3 -55 5 -149 3 -208 -2 -101 0 -112 24 -153 14 -24 28 -44 31
-44 3 0 -7 20 -21 43 -27 47 -35 130 -13 143 8 5 9 -4 4 -34 -5 -32 -3 -42 7
-42 7 0 23 -18 36 -40 12 -22 26 -40 31 -40 5 0 13 -24 18 -52 l10 -53 1 48
c1 49 16 62 41 32 7 -8 21 -15 31 -15 17 0 19 9 19 90 0 79 -3 93 -25 126 -14
21 -32 61 -41 91 -8 29 -20 53 -25 53 -12 0 -11 28 1 32 7 2 10 34 8 83 l-3
80 -46 -92z"/>
<path d="M2050 1660 c0 -5 7 -10 16 -10 8 0 12 5 9 10 -3 6 -10 10 -16 10 -5
0 -9 -4 -9 -10z"/>
<path d="M1900 1558 c0 -19 2 -20 10 -8 6 9 10 10 10 3 0 -20 53 -67 76 -68
17 0 20 3 13 15 -24 42 -71 80 -98 80 -6 0 -11 -10 -11 -22z"/>
<path d="M1873 1431 c-8 -21 -20 -29 -65 -41 -21 -6 -38 -17 -38 -25 0 -7 22
-37 50 -66 27 -29 52 -61 56 -71 7 -22 27 -23 58 -3 21 14 24 13 49 -13 25
-26 57 -89 57 -113 0 -6 -7 -8 -16 -5 -10 4 -14 2 -10 -6 3 -7 9 -21 12 -30 3
-9 16 -18 28 -20 29 -4 29 -42 -1 -46 -18 -3 -21 -8 -16 -36 8 -48 -16 -51
-61 -10 -35 32 -42 34 -99 32 -34 -1 -74 2 -89 6 -25 7 -28 6 -28 -17 0 -31
20 -79 37 -90 22 -14 15 -39 -10 -35 -33 4 -82 -20 -97 -47 -14 -26 -8 -42 23
-56 54 -25 107 -66 107 -85 0 -20 38 -46 57 -39 10 3 36 31 57 61 22 30 55 62
73 71 31 14 51 37 79 88 6 11 34 29 62 40 39 15 56 28 69 55 10 19 22 38 27
42 5 3 -7 26 -26 50 -48 59 -49 67 -16 111 32 39 52 46 77 23 26 -22 114 -66
133 -66 28 0 23 52 -6 79 -14 13 -25 31 -25 40 -1 38 -14 78 -34 103 -21 25
-25 26 -67 16 -41 -9 -51 -7 -112 22 -38 18 -68 38 -68 46 0 29 -49 47 -137
50 -71 2 -85 -1 -90 -15z m256 -90 c16 -10 6 -31 -15 -31 -8 0 -14 9 -14 20 0
22 7 25 29 11z m231 -121 c0 -5 -5 -12 -11 -16 -14 -8 -33 11 -25 25 7 11 36
4 36 -9z m-130 -20 c9 -16 8 -22 -5 -27 -20 -7 -50 20 -41 36 11 17 34 13 46
-9z"/>
<path d="M2510 1240 c6 -11 13 -20 16 -20 2 0 0 9 -6 20 -6 11 -13 20 -16 20
-2 0 0 -9 6 -20z"/>
<path d="M3734 1188 l-29 -33 33 29 c17 17 32 31 32 33 0 8 -8 1 -36 -29z"/>
<path d="M2551 1175 c30 -53 29 -52 29 -22 0 15 -4 26 -9 25 -5 -2 -17 6 -26
17 -9 11 -7 2 6 -20z"/>
<path d="M3628 1091 c-32 -32 -58 -57 -58 -54 0 3 -14 -7 -31 -22 -18 -14 -38
-24 -46 -21 -67 26 -253 30 -253 5 0 -5 6 -9 13 -9 9 0 9 -2 0 -8 -9 -6 -1
-19 28 -48 23 -21 77 -79 121 -127 79 -88 79 -88 73 -50 -4 21 -9 45 -11 53
-5 19 141 241 196 298 23 23 38 42 33 42 -4 0 -34 -27 -65 -59z"/>
<path d="M2582 1070 c0 -14 2 -19 5 -12 2 6 2 18 0 25 -3 6 -5 1 -5 -13z"/>
<path d="M2603 913 c-10 -4 -9 -8 2 -20 8 -8 15 -22 15 -32 0 -14 -33 -25
-177 -59 -98 -23 -196 -42 -218 -42 -39 -1 -42 -3 -91 -78 -42 -65 -96 -114
-109 -100 -2 2 37 52 86 113 54 66 89 119 89 132 0 27 2 28 57 7 43 -17 45
-16 185 22 78 21 137 39 131 41 -5 2 -67 -12 -138 -32 -71 -19 -132 -35 -137
-35 -5 0 -28 9 -50 20 -54 26 -58 25 -58 -9 0 -22 -24 -58 -98 -148 -54 -65
-118 -145 -142 -178 -66 -90 -122 -157 -150 -179 -14 -11 -78 -72 -142 -135
-65 -63 -118 -111 -118 -105 0 5 7 27 15 49 16 46 20 131 5 140 -5 3 -10 0
-10 -8 0 -8 -23 -46 -50 -86 l-51 -71 -42 6 c-33 4 -50 15 -80 47 -80 89 -90
137 -27 137 18 0 42 11 63 30 42 36 47 37 86 4 25 -21 39 -25 78 -22 43 3 48
5 46 25 -2 14 4 24 17 28 31 10 25 47 -22 136 -38 71 -41 82 -31 109 6 16 9
47 6 68 -4 30 1 50 21 86 30 53 33 88 10 110 -12 12 -20 14 -36 5 -11 -6 -50
-10 -86 -8 -37 1 -74 -1 -82 -4 -8 -3 -30 -8 -47 -11 -79 -14 -99 -20 -128
-37 -16 -11 -47 -19 -67 -19 -20 0 -43 -7 -52 -15 -8 -8 -20 -13 -28 -10 -7 2
-25 -13 -40 -34 -22 -33 -32 -39 -62 -39 -20 0 -42 -4 -49 -9 -6 -5 -27 -10
-44 -12 -28 -2 -33 1 -33 18 0 25 -6 26 -26 7 -16 -17 -19 -52 -4 -61 12 -7
13 -25 3 -25 -5 1 -18 9 -30 19 -20 17 -21 22 -10 50 10 26 9 37 -8 67 -16 30
-23 35 -49 32 -18 -2 -30 -8 -28 -15 1 -7 -5 -13 -13 -13 -8 0 -19 -9 -25 -20
-6 -11 -17 -20 -24 -20 -8 0 -19 -6 -25 -14 -14 -17 4 -72 27 -81 15 -6 14 -8
-6 -16 -28 -11 -42 -4 -42 19 0 11 -8 18 -20 19 -12 1 -20 -4 -20 -14 0 -23
38 -52 61 -46 37 10 63 -59 36 -94 -10 -14 -41 -18 -33 -5 8 13 -18 38 -46 46
-27 6 -33 21 -29 68 2 12 -3 16 -13 12 -9 -3 -16 -14 -16 -23 0 -10 -6 -26
-14 -36 -14 -19 -15 -19 -35 -1 -21 19 -21 19 -21 -7 0 -28 -15 -44 -25 -27
-4 6 -16 8 -28 4 -25 -8 -77 -57 -77 -73 0 -6 -13 -14 -29 -18 -30 -9 -171
-133 -171 -152 0 -6 -7 -11 -15 -11 -8 0 -26 -5 -40 -12 -25 -11 -25 -12 -25
-140 l0 -128 525 0 525 0 0 23 c1 12 7 33 15 47 8 14 15 53 15 90 1 81 22 117
60 101 39 -15 70 -49 70 -79 1 -15 9 -51 19 -80 l18 -54 -23 -10 c-13 -6 -24
-18 -24 -25 0 -12 3 -11 16 1 8 9 22 16 29 16 23 0 26 16 9 49 -16 33 -38 150
-32 178 4 21 108 -108 141 -174 20 -41 20 -43 2 -63 -18 -20 -18 -20 69 -20
59 0 85 3 81 11 -4 5 22 42 57 82 34 40 74 85 88 100 14 16 61 60 105 97 44
38 98 92 120 120 31 39 60 61 128 96 48 25 93 42 99 38 6 -4 8 -3 5 3 -12 20
279 137 440 178 34 8 68 18 76 20 8 4 16 -8 24 -35 10 -40 10 -42 -16 -51 -30
-12 -75 -32 -148 -67 -29 -13 -60 -22 -68 -18 -9 3 -14 2 -11 -3 8 -12 -20
-22 -41 -15 -13 4 -14 3 -6 -3 9 -6 2 -13 -25 -23 -20 -7 -57 -22 -82 -33 -25
-11 -49 -19 -53 -18 -5 1 -6 -3 -2 -8 8 -14 -25 -62 -38 -54 -6 3 -7 1 -3 -6
10 -15 -13 -43 -28 -34 -6 3 -8 3 -4 -2 13 -14 -57 -129 -74 -119 -4 3 -8 -2
-8 -10 0 -21 -60 -117 -69 -111 -4 2 -8 -1 -8 -8 0 -7 -16 -38 -36 -70 l-37
-57 526 0 526 0 -22 33 c-31 47 -94 180 -126 267 -33 91 -54 160 -49 160 1 0
15 -20 29 -44 15 -25 31 -48 36 -51 5 -3 -13 33 -41 79 -59 100 -79 153 -128
337 -24 92 -40 134 -48 132z m-1216 -90 c-3 -18 2 -39 13 -58 10 -16 21 -57
25 -90 8 -70 30 -124 74 -185 60 -83 31 -100 -62 -36 -35 25 -69 46 -75 46
-11 0 -26 36 -43 106 -11 45 -10 58 10 114 11 35 21 79 21 97 0 27 4 33 21 33
18 0 20 -4 16 -27z m-676 -124 c-12 -13 -21 -19 -21 -14 0 11 32 46 38 41 2
-3 -5 -15 -17 -27z m-31 -19 c0 -11 -4 -20 -10 -20 -5 0 -10 9 -10 20 0 11 5
20 10 20 6 0 10 -9 10 -20z m270 -30 c0 -5 -7 -10 -16 -10 -8 0 -12 5 -9 10 3
6 10 10 16 10 5 0 9 -4 9 -10z m-250 -10 c0 -5 -4 -10 -10 -10 -5 0 -10 5 -10
10 0 6 5 10 10 10 6 0 10 -4 10 -10z m0 -45 c34 -29 37 -49 7 -43 -20 4 -23 1
-19 -14 3 -12 -1 -18 -12 -18 -9 0 -16 7 -16 15 0 9 -7 27 -16 40 -34 53 3 66
56 20z m-176 -106 c-10 -16 -24 -9 -24 12 0 18 2 19 15 9 8 -7 12 -16 9 -21z
m196 -42 c0 -30 -14 -57 -30 -57 -11 0 -8 64 3 78 17 21 27 13 27 -21z m-241
9 c16 -20 -5 -33 -56 -35 -49 -1 -55 11 -15 32 35 19 57 20 71 3z m40 -17 c-9
-5 -15 -4 -18 2 -2 6 3 15 10 20 9 5 15 4 18 -2 2 -6 -3 -15 -10 -20z m-155
-34 c-4 -8 -10 -12 -15 -9 -11 6 -2 24 11 24 5 0 7 -7 4 -15z m441 5 c3 -5 1
-10 -4 -10 -6 0 -11 5 -11 10 0 6 2 10 4 10 3 0 8 -4 11 -10z m-195 -234 c0
-16 -21 -56 -30 -56 -11 0 -9 28 3 48 8 11 27 17 27 8z m-170 -67 c0 -6 -4 -7
-10 -4 -5 3 -10 11 -10 16 0 6 5 7 10 4 6 -3 10 -11 10 -16z"/>
<path d="M2490 609 c0 -5 5 -7 10 -4 6 3 10 8 10 11 0 2 -4 4 -10 4 -5 0 -10
-5 -10 -11z"/>
<path d="M8882 422 c2 -31 -71 -144 -108 -169 -14 -8 -43 -18 -67 -20 -38 -5
-48 -1 -86 31 -46 39 -99 48 -144 25 -30 -15 -117 -101 -117 -114 0 -15 -43
-55 -58 -55 -7 0 -15 -7 -18 -15 -3 -8 -22 -24 -41 -36 -24 -15 -33 -27 -31
-43 3 -21 3 -21 396 -24 l392 -2 0 223 0 222 -60 2 c-59 1 -60 1 -58 -25z"/>
<path d="M3570 396 c0 -5 9 -24 21 -42 11 -19 17 -39 13 -45 -4 -7 -3 -9 4 -5
7 4 10 -4 10 -21 0 -32 26 -102 77 -203 37 -73 49 -84 84 -78 17 3 8 23 -80
178 -55 96 -107 186 -114 200 -8 14 -14 21 -15 16z"/>
<path d="M8429 364 c-12 -14 -11 -16 5 -13 11 2 21 10 24 17 5 17 -13 15 -29
-4z"/>
<path d="M3010 106 c0 -2 8 -10 18 -17 15 -13 16 -12 3 4 -13 16 -21 21 -21
13z"/>
</g>
</svg>
