<?xml version="1.0" standalone="no"?>
<!DOCTYPE svg PUBLIC "-//W3C//DTD SVG 20010904//EN"
 "http://www.w3.org/TR/2001/REC-SVG-20010904/DTD/svg10.dtd">
<svg version="1.0" xmlns="http://www.w3.org/2000/svg"
 width="1920.000000pt" height="1004.000000pt" viewBox="0 0 1920.000000 1004.000000"
 preserveAspectRatio="xMidYMid meet">

<g transform="translate(0.000000,1004.000000) scale(0.100000,-0.100000)"
fill="#000000" stroke="none">
<path d="M1575 10027 c-32 -19 -88 -37 -117 -37 -32 0 -78 -19 -78 -33 0 -5
-7 -7 -15 -3 -21 8 -45 -3 -45 -20 0 -8 -6 -14 -13 -14 -8 0 -27 -7 -44 -15
-43 -21 -93 -30 -93 -16 0 6 -5 11 -11 11 -8 0 -8 -5 1 -15 10 -12 8 -16 -15
-25 -14 -5 -30 -10 -35 -10 -5 0 -13 -7 -18 -16 -4 -8 -28 -22 -51 -30 -39
-13 -45 -13 -60 0 -9 8 -32 15 -51 14 -19 0 -66 1 -103 2 -77 3 -96 -7 -75
-39 14 -23 51 -27 106 -12 52 15 90 -9 40 -25 -37 -11 -123 -51 -283 -129
-157 -76 -223 -103 -290 -115 -22 -5 -78 -22 -125 -40 -118 -44 -120 -44 -120
-29 0 7 -12 25 -26 40 -35 36 -27 54 39 83 63 28 81 54 36 51 -16 -1 -51 -2
-79 -3 l-50 -2 0 -546 c0 -300 4 -544 9 -542 4 2 41 39 81 83 261 285 299 325
311 325 4 0 18 17 30 38 13 20 46 62 74 93 27 31 61 70 73 85 42 52 124 134
134 134 4 0 13 -12 19 -27 6 -16 32 -71 58 -123 26 -52 72 -159 101 -238 l53
-143 -34 -29 c-46 -40 -43 -37 -139 -110 -117 -88 -190 -143 -220 -163 -14 -9
-62 -45 -107 -80 -45 -34 -163 -123 -262 -197 l-180 -135 -1 -2822 c0 -2586 1
-2823 16 -2823 20 0 143 57 166 78 20 17 77 47 218 117 52 26 107 55 121 66
15 10 34 19 42 19 9 0 17 3 19 8 2 4 25 18 53 30 27 13 72 39 100 56 27 18 79
50 115 71 66 38 125 75 170 105 14 9 37 20 53 24 15 3 27 11 27 16 0 6 5 10
10 10 11 0 10 -31 -2 -40 -3 -3 -2 -25 2 -50 12 -57 11 -178 -1 -255 -5 -33
-15 -233 -23 -445 -8 -212 -20 -440 -27 -507 -9 -93 -9 -180 0 -360 6 -131 10
-368 10 -528 -1 -256 -3 -294 -19 -325 -9 -19 -21 -53 -24 -75 -4 -22 -21 -68
-37 -101 -16 -34 -29 -65 -29 -68 0 -4 -22 -53 -50 -110 -27 -57 -50 -106 -50
-110 0 -3 6 -6 14 -6 8 0 28 33 46 78 18 42 60 129 92 192 156 299 178 345
252 535 48 121 61 150 174 371 34 67 62 126 62 131 0 5 13 36 29 69 28 59 61
138 102 249 12 33 25 69 29 80 4 11 20 54 35 95 33 88 77 197 150 370 56 131
63 151 150 395 74 210 82 232 100 300 9 33 27 87 40 120 31 82 96 287 95 303
0 7 9 38 19 70 11 31 29 116 40 187 24 147 37 216 58 295 8 30 18 71 23 90 6
22 25 49 52 73 99 87 214 185 262 222 28 22 64 53 80 68 17 15 50 45 75 65 24
20 61 53 80 73 20 19 54 48 76 64 22 16 65 52 95 81 68 65 152 134 162 134 4
0 14 13 23 30 8 16 29 37 46 45 16 9 47 33 67 53 21 20 67 63 102 96 59 53
129 119 351 333 43 40 82 73 88 73 7 0 14 7 17 15 3 8 68 78 144 155 107 110
141 139 156 134 15 -5 16 -4 4 4 -12 9 -12 14 5 32 10 11 24 19 31 16 8 -3 11
1 7 10 -3 8 1 14 9 14 7 0 28 23 46 50 18 28 37 48 42 45 4 -3 10 -2 13 2 2 5
2 2 0 -5 -1 -8 -3 -19 -3 -27 0 -7 -10 -15 -22 -18 -12 -4 -20 -9 -16 -12 14
-14 56 15 63 44 3 16 13 32 21 35 16 6 18 -1 14 -62 -2 -41 0 -43 19 -37 20 6
27 -4 21 -30 -2 -5 -2 -21 -1 -34 0 -13 -4 -42 -10 -65 -6 -22 -12 -61 -14
-86 -1 -25 -8 -85 -14 -135 -6 -49 -14 -119 -17 -155 -3 -36 -9 -74 -14 -85
-5 -11 -11 -49 -13 -85 -7 -97 -17 -192 -24 -220 -3 -14 -7 -45 -9 -70 -2 -25
-6 -67 -9 -95 -3 -27 -12 -147 -20 -265 -9 -118 -18 -244 -20 -280 -16 -212
-34 -733 -28 -827 3 -49 0 -122 -6 -163 -21 -147 -34 -851 -21 -1160 7 -157
14 -564 15 -904 3 -614 9 -818 25 -886 5 -19 11 -70 15 -112 l7 -78 1088 0
1089 0 -4 62 c-21 290 -26 574 -15 806 9 176 10 334 4 547 -10 364 -12 1091
-2 1100 11 12 31 -15 80 -105 25 -47 59 -109 77 -138 17 -29 31 -57 31 -62 0
-6 5 -10 10 -10 6 0 10 -5 10 -10 0 -14 24 -62 90 -180 29 -52 66 -120 82
-150 17 -30 47 -75 67 -100 20 -25 63 -81 96 -125 33 -44 108 -138 168 -210
59 -71 136 -164 170 -205 57 -70 107 -127 133 -154 31 -33 268 -306 324 -373
36 -43 115 -128 176 -189 120 -122 123 -128 216 -351 l63 -153 3741 0 3741 0
123 197 c67 109 133 214 146 234 13 19 24 38 24 43 0 4 17 33 39 64 21 31 46
70 55 85 10 16 20 27 22 24 2 -2 6 -136 8 -298 3 -162 8 -306 12 -322 l6 -27
1494 0 1494 0 0 2883 c0 2293 -3 2886 -12 2896 -10 11 -10 14 0 18 8 3 12 35
12 113 l0 108 -39 7 c-39 6 -61 33 -61 74 0 34 -25 43 -106 39 -55 -2 -79 -8
-88 -20 -11 -15 -14 -14 -41 1 -72 39 -177 114 -181 129 -3 10 -21 49 -40 87
-37 76 -42 97 -19 89 8 -4 15 -1 15 5 0 6 9 11 19 11 11 0 22 4 26 9 3 5 31
17 63 26 31 10 65 21 75 27 18 9 18 10 -2 24 -11 8 -50 17 -86 21 -64 6 -65 7
-65 35 0 18 6 31 18 35 9 3 29 17 44 31 24 22 31 24 53 14 14 -7 49 -12 77
-12 40 0 57 6 84 28 19 15 49 39 68 55 18 15 46 27 60 27 14 0 26 5 26 10 0 6
8 10 18 10 9 0 30 16 46 36 24 30 27 40 18 59 -8 17 -7 28 3 42 11 13 14 56
15 171 l0 152 -41 0 c-46 0 -109 38 -131 79 -11 20 -10 25 11 42 13 10 31 19
40 19 29 0 121 51 121 67 0 8 -9 26 -20 40 -27 34 -27 73 0 73 18 0 20 7 20
54 0 30 -3 57 -8 59 -4 3 -25 -1 -47 -9 -22 -7 -47 -11 -56 -9 -25 8 -59 -8
-72 -35 -15 -29 -52 -38 -75 -17 -9 8 -52 32 -94 53 l-78 38 -35 -34 c-19 -19
-35 -38 -35 -42 0 -5 20 -29 45 -55 25 -25 49 -62 55 -81 5 -19 20 -47 33 -61
13 -14 28 -37 33 -51 15 -35 -1 -89 -29 -99 -12 -5 -31 -19 -42 -31 -11 -12
-37 -33 -57 -46 -21 -14 -38 -29 -38 -34 0 -24 -75 -122 -155 -203 -81 -82
-90 -88 -119 -82 -17 4 -39 14 -48 23 -18 18 -78 136 -143 282 -20 47 -50 113
-66 148 -16 35 -29 68 -29 73 0 9 -64 151 -78 175 -31 51 -138 179 -212 254
-49 51 -87 96 -84 101 3 5 43 9 88 9 68 0 88 4 109 20 33 26 43 25 63 -5 10
-16 14 -34 9 -53 -5 -26 -1 -34 37 -65 73 -58 234 -137 282 -137 36 0 117 -19
222 -51 47 -14 64 -11 64 11 0 13 -10 24 -25 30 -32 12 -32 23 3 49 15 11 21
21 15 21 -21 0 -15 18 10 27 12 4 47 8 77 9 30 0 74 4 97 9 37 7 46 4 73 -19
31 -25 80 -36 80 -16 0 5 14 17 30 25 48 25 54 56 29 137 -11 38 -19 72 -16
74 3 3 -6 29 -19 57 -31 67 -30 83 5 101 21 12 30 25 35 54 4 30 13 43 33 54
60 30 122 74 123 84 0 13 -22 24 -47 24 -8 0 -37 -11 -64 -25 -27 -13 -63 -27
-81 -30 -29 -6 -35 -3 -52 25 l-18 32 47 48 c43 44 45 48 30 64 -9 9 -21 16
-26 16 -6 0 -8 4 -4 9 3 6 6 37 6 70 1 34 5 61 10 61 5 0 27 -11 49 -25 22
-14 48 -25 57 -25 10 0 26 -7 37 -15 16 -12 21 -12 42 3 l23 17 1 663 0 662
-43 0 c-46 0 -69 -14 -60 -37 6 -16 -44 -73 -64 -73 -8 0 -32 14 -54 32 -37
30 -40 35 -34 68 7 43 -3 50 -105 75 -36 9 -75 22 -87 30 -18 12 -63 15 -213
15 l-190 0 41 -52 c40 -52 89 -88 119 -88 19 0 44 -22 95 -84 32 -39 38 -54
40 -99 2 -52 18 -97 35 -97 13 0 32 -67 25 -90 -8 -24 -26 -32 -140 -65 -125
-36 -184 -38 -300 -11 -55 13 -104 20 -110 16 -5 -4 -26 -11 -45 -15 l-35 -7
37 35 c26 25 35 41 31 55 -6 26 -28 31 -89 21 -27 -5 -71 -12 -99 -15 -27 -4
-55 -10 -61 -15 -13 -10 -121 -1 -146 12 -19 10 -111 6 -178 -7 l-35 -7 40 43
c38 40 158 135 220 175 17 10 53 40 80 66 28 25 60 50 73 53 12 4 22 12 22 17
0 5 7 9 16 9 8 0 13 4 10 9 -6 9 43 90 67 110 28 23 19 31 -33 31 -48 0 -53
-3 -118 -64 -100 -95 -221 -196 -235 -196 -7 0 -37 -24 -67 -53 -30 -29 -93
-84 -140 -122 -141 -113 -171 -155 -134 -186 23 -19 210 -16 354 6 63 9 142
21 175 25 33 4 71 11 85 15 19 6 12 -4 -30 -44 -85 -80 -86 -81 -98 -81 -5 0
-12 -3 -14 -8 -7 -17 -102 -89 -248 -189 -47 -32 -86 -61 -88 -65 -2 -5 -8 -8
-14 -8 -14 0 -129 -80 -150 -105 -30 -34 -18 -56 45 -87 32 -16 77 -33 100
-38 23 -4 53 -12 67 -16 21 -6 52 -9 148 -13 6 -1 12 -8 12 -16 0 -8 8 -15 18
-16 36 -1 -109 -42 -213 -59 -179 -30 -780 -34 -769 -5 3 5 23 19 46 30 23 11
76 47 118 80 42 33 114 89 160 125 107 83 193 158 203 176 12 20 -29 18 -89
-5 -46 -18 -241 -80 -364 -117 -30 -9 -89 -27 -130 -41 -78 -26 -258 -67 -370
-83 -36 -6 -78 -13 -95 -16 -27 -6 -29 -5 -15 11 8 10 31 28 50 41 19 13 67
46 105 74 66 48 115 81 278 187 37 25 67 52 67 60 0 24 -67 13 -338 -54 -35
-8 -77 -12 -94 -9 -19 4 -43 -1 -69 -15 -22 -11 -45 -19 -50 -17 -16 5 155
211 286 344 111 113 177 169 327 278 57 40 73 66 43 66 -9 0 -29 -7 -45 -15
-40 -20 -99 -40 -213 -69 -90 -24 -277 -107 -347 -156 -14 -9 -52 -30 -85 -45
-54 -26 -82 -43 -210 -124 -22 -14 -61 -43 -86 -66 -26 -22 -66 -57 -90 -77
-24 -20 -50 -43 -58 -50 -17 -16 -15 -8 27 154 17 64 32 134 33 155 0 21 24
108 52 194 49 151 54 189 23 189 -15 0 -153 -134 -311 -301 -44 -46 -96 -97
-115 -113 -29 -23 -275 -171 -357 -215 -48 -25 -19 8 64 74 247 197 532 469
627 598 l57 77 -54 0 c-36 0 -59 -5 -67 -15 -10 -12 -285 -200 -315 -215 -5
-3 -37 -23 -70 -44 -99 -65 -156 -99 -315 -189 -69 -39 -381 -193 -415 -204
-101 -36 -196 -55 -214 -44 -18 12 -12 31 64 196 18 39 45 99 61 135 16 36 64
133 106 217 43 84 78 154 78 157 0 4 -37 6 -82 6 l-81 0 -76 -62 c-70 -57
-219 -189 -288 -256 -15 -15 -47 -49 -69 -77 -23 -27 -69 -83 -103 -124 -34
-40 -76 -94 -94 -118 -21 -30 -33 -40 -35 -30 -3 15 3 34 48 160 23 65 76 272
85 332 3 22 9 60 15 85 5 25 9 55 10 68 0 37 -27 25 -50 -22 -48 -100 -250
-363 -449 -586 -32 -36 -84 -95 -115 -132 -32 -38 -62 -68 -68 -68 -14 0 -3
40 28 103 53 108 114 283 169 484 19 70 35 131 35 136 0 7 -36 -28 -67 -66
-106 -130 -176 -205 -248 -267 -118 -103 -275 -203 -275 -177 0 2 8 21 19 43
32 69 45 167 56 447 l5 127 -47 0 c-40 0 -50 -4 -59 -23 -24 -49 -70 -132 -81
-144 -6 -7 -21 -29 -34 -50 -42 -69 -96 -140 -202 -263 -40 -47 -83 -98 -96
-115 -12 -16 -44 -53 -69 -80 -117 -125 -192 -214 -192 -227 0 -8 25 -50 56
-94 72 -102 86 -130 123 -244 18 -52 38 -108 46 -125 8 -16 26 -64 40 -105 15
-41 31 -84 36 -95 22 -48 39 -110 39 -139 -1 -30 -1 -30 -15 -11 -8 11 -52 63
-97 116 -98 112 -215 214 -319 274 -47 27 -92 64 -125 101 -66 77 -66 77 -53
111 6 15 21 69 34 118 63 240 63 239 134 322 36 42 88 104 115 137 27 34 70
84 95 112 56 62 181 219 266 334 57 77 61 85 42 88 -14 3 -27 -4 -37 -19 -44
-67 -212 -268 -391 -468 -117 -130 -174 -202 -195 -246 -20 -43 -226 -248
-234 -234 -8 12 13 137 33 199 8 25 30 92 47 150 18 57 36 111 40 120 16 32
39 99 69 200 17 58 43 139 57 180 38 111 40 120 17 120 -36 0 -157 -262 -205
-445 -34 -128 -49 -165 -116 -269 -46 -71 -51 -76 -66 -61 -9 9 -16 27 -16 40
0 13 -4 35 -10 49 -12 34 -66 300 -80 401 -6 44 -11 126 -11 183 l1 103 -42
-3 -42 -3 -33 -110 c-77 -255 -86 -300 -80 -425 3 -63 11 -148 18 -188 15 -90
14 -91 -96 -128 -44 -14 -88 -30 -97 -35 -10 -5 -23 -9 -29 -9 -20 0 -174 -71
-234 -109 -65 -40 -108 -61 -170 -84 -116 -42 -259 -104 -333 -144 -46 -25
-85 -43 -88 -41 -5 6 288 294 374 368 35 30 70 66 77 80 7 13 48 49 91 80 42
30 79 61 82 68 7 23 -26 12 -88 -30 l-63 -42 -171 -2 c-213 -3 -294 -8 -471
-28 -162 -18 -215 -31 -498 -127 -114 -39 -213 -69 -220 -66 -15 5 17 34 163
151 109 88 171 131 322 224 74 46 185 102 202 102 6 0 28 9 47 19 103 55 344
114 489 119 58 2 108 6 112 10 20 20 -16 32 -119 40 -159 12 -318 -10 -452
-63 -66 -26 -101 -31 -101 -17 0 5 -11 69 -24 143 -14 74 -28 160 -31 192 l-6
57 -43 0 c-42 0 -42 0 -59 -52 -25 -79 -74 -304 -81 -378 -8 -71 -20 -101 -34
-85 -5 6 -19 62 -31 125 -13 63 -31 141 -41 173 -11 32 -25 94 -31 138 l-12
79 -80 0 -79 0 7 -172 c4 -95 8 -194 10 -221 1 -26 -1 -50 -5 -52 -25 -15
-281 80 -316 118 -18 18 -55 109 -67 164 -2 6 -14 45 -27 87 l-25 76 -104 0
-104 0 5 -100 c5 -103 -1 -125 -29 -97 -15 14 -20 53 -22 155 -1 35 -4 42 -21
42 -18 0 -20 -7 -20 -75 0 -85 -7 -94 -62 -76 -36 13 -98 64 -98 82 0 6 -8 24
-17 40 l-17 29 -111 0 c-135 -1 -135 0 85 -108 85 -42 169 -86 185 -98 39 -30
310 -164 329 -164 9 0 44 -11 78 -24 35 -14 106 -36 158 -49 52 -14 156 -41
232 -61 75 -20 142 -36 150 -36 7 0 32 -9 55 -20 45 -20 50 -43 13 -55 -10 -3
-29 -16 -41 -29 -13 -12 -60 -49 -104 -81 -96 -71 -196 -156 -288 -246 -110
-110 -84 -128 79 -55 134 59 169 68 186 49 10 -12 9 -17 -5 -24 -9 -6 -17 -14
-17 -20 0 -5 -11 -21 -25 -35 -14 -14 -25 -27 -25 -29 0 -5 32 6 45 16 6 4 27
1 49 -6 39 -14 71 -10 60 6 -3 5 0 9 6 9 7 0 10 -6 7 -14 -3 -7 -1 -18 4 -23
12 -12 59 -5 59 9 0 5 -4 7 -9 3 -5 -3 -12 -1 -16 4 -3 6 13 9 42 8 28 -1 66
5 88 15 125 52 619 147 643 124 4 -4 -38 -51 -93 -105 -133 -130 -168 -170
-245 -275 -36 -48 -80 -105 -97 -126 -63 -72 -34 -95 38 -30 24 21 76 55 114
75 39 20 113 63 165 96 99 63 245 139 266 139 7 0 15 -4 18 -9 6 -8 -36 -96
-55 -116 -5 -5 -9 -17 -9 -27 0 -10 -4 -18 -10 -18 -10 0 -80 -139 -80 -159 0
-24 19 -9 25 19 4 17 13 30 21 30 8 0 13 8 11 19 -1 11 3 19 8 18 6 -1 10 -13
10 -27 1 -15 7 -26 18 -28 9 -2 17 -12 17 -23 0 -24 11 -24 41 0 13 10 29 20
34 22 42 16 115 65 115 76 0 7 11 13 25 13 14 0 33 4 43 9 9 5 44 20 77 33 33
12 69 28 80 34 24 15 259 94 278 94 7 0 32 -16 54 -35 44 -37 62 -42 81 -23
16 16 35 -2 73 -69 17 -30 37 -57 45 -60 7 -3 36 6 64 20 42 21 56 24 80 16
16 -6 34 -17 41 -25 6 -8 20 -14 30 -14 40 0 301 -167 379 -243 50 -48 130
-142 130 -152 0 -3 13 -23 29 -43 16 -20 32 -47 36 -59 3 -13 11 -23 16 -23 5
0 9 -4 9 -9 0 -5 11 -29 25 -52 l25 -44 -1 149 c0 81 2 150 5 153 3 3 35 -40
71 -96 82 -127 101 -132 92 -27 -4 40 -4 76 -1 79 10 10 242 -251 292 -328 57
-88 182 -329 182 -352 0 -7 4 -13 8 -13 7 0 30 109 48 228 10 72 19 64 129
-122 24 -40 55 -76 65 -76 4 0 14 15 21 33 11 24 14 80 12 222 -1 157 -7 224
-32 383 -17 106 -31 195 -31 197 0 16 378 -12 402 -29 21 -16 82 -148 108
-236 22 -72 22 -85 16 -335 -3 -143 -8 -278 -10 -300 -3 -22 -9 -116 -15 -210
-10 -160 -15 -222 -42 -512 -37 -422 -74 -540 -234 -763 -84 -117 -205 -270
-230 -290 -38 -32 -220 -128 -228 -121 -5 5 -1 48 8 97 24 129 33 194 45 334
5 69 14 161 20 205 22 189 31 350 32 612 0 269 -5 333 -31 333 -18 0 -22 -20
-32 -162 -19 -291 -25 -431 -20 -508 3 -56 -18 -507 -28 -600 -16 -138 -41
-274 -60 -325 -13 -35 -28 -53 -57 -70 -90 -53 -818 -412 -904 -445 -30 -12
-63 -26 -72 -31 -10 -5 -24 -9 -31 -9 -7 0 -31 -9 -53 -19 -22 -11 -80 -31
-130 -45 -49 -14 -125 -37 -169 -51 -88 -29 -207 -58 -329 -80 -44 -9 -97 -20
-119 -26 -49 -13 -66 1 -126 105 -67 117 -77 181 -58 351 1 14 -4 20 -18 20
-22 0 -38 -45 -56 -154 -20 -127 -19 -182 5 -236 49 -108 50 -115 34 -131 -23
-23 -47 -6 -62 45 -17 53 -66 189 -90 245 -9 21 -16 59 -16 85 0 44 43 234 76
334 12 36 13 52 5 60 -19 19 -36 -12 -71 -138 -18 -66 -51 -163 -73 -215 -57
-140 -63 -168 -49 -255 7 -42 20 -92 31 -113 26 -50 12 -74 -78 -142 -75 -55
-131 -121 -131 -155 0 -11 -26 -74 -59 -140 -32 -66 -62 -134 -65 -152 -4 -18
-17 -44 -28 -58 -11 -14 -24 -41 -29 -58 -68 -266 -138 -506 -189 -650 -90
-256 -192 -378 -305 -365 -21 2 -37 15 -59 45 -29 42 -29 42 -16 105 22 107
59 248 95 363 39 127 67 228 101 370 13 55 28 114 33 130 5 17 30 116 56 220
25 105 55 220 67 257 18 57 20 78 12 145 -4 43 -8 107 -9 143 -1 41 -8 77 -19
98 -20 38 -15 62 11 62 21 0 123 36 134 47 5 5 11 46 15 93 5 65 13 93 31 120
12 19 23 40 23 47 0 7 5 13 10 13 6 0 10 11 10 25 0 33 -15 32 -42 -5 -30 -41
-45 -38 -53 10 -5 30 -2 47 9 65 17 26 21 45 9 45 -5 0 -53 -44 -109 -98 -104
-101 -185 -157 -242 -168 -32 -6 -37 -3 -103 67 -77 81 -134 154 -192 242 -21
31 -42 57 -46 57 -4 0 -43 52 -87 115 -43 64 -105 153 -137 198 -32 45 -87
125 -122 177 -36 52 -78 113 -94 135 -15 22 -39 60 -53 85 -14 25 -64 109
-112 188 -96 159 -137 237 -224 427 -95 208 -123 268 -135 295 -7 14 -33 57
-60 96 -73 110 -69 109 -427 108 -349 -2 -569 -21 -570 -49 0 -14 230 -12 375
4 66 7 197 15 292 18 162 5 175 4 217 -17 52 -25 101 -91 155 -210 18 -41 41
-93 51 -115 87 -191 88 -205 20 -170 -25 12 -91 48 -148 79 -95 52 -143 68
-124 40 7 -11 21 -19 234 -138 171 -96 149 -70 232 -267 51 -121 127 -280 156
-324 27 -43 62 -157 51 -168 -13 -13 -42 -2 -92 35 -24 18 -96 59 -159 91 -63
33 -137 74 -165 92 -27 18 -68 42 -90 54 -22 12 -63 36 -91 54 -141 89 -295
188 -368 235 -118 78 -156 96 -156 74 0 -8 216 -154 270 -182 24 -13 391 -257
456 -304 170 -121 234 -166 238 -166 14 0 177 -113 185 -128 5 -9 12 -43 15
-74 10 -85 34 -94 -321 118 -100 60 -204 120 -230 133 -26 13 -73 37 -105 53
-124 63 -571 378 -746 525 -35 30 -67 51 -72 48 -20 -12 -9 -32 31 -61 23 -16
52 -39 65 -51 13 -12 41 -34 61 -50 21 -15 40 -31 43 -34 7 -9 222 -164 298
-215 34 -23 84 -61 111 -83 27 -23 54 -41 60 -41 17 0 24 -47 12 -80 -7 -21
-7 -55 -2 -101 15 -115 100 -233 187 -257 102 -29 230 -4 301 59 35 30 48 35
57 20 3 -5 53 -35 111 -67 58 -32 105 -62 105 -66 0 -5 5 -8 12 -8 6 0 27 -12
47 -27 20 -16 45 -33 56 -38 11 -6 54 -53 97 -105 43 -52 84 -103 92 -112 15
-17 12 -48 -5 -48 -5 0 -9 -9 -9 -20 0 -17 -7 -20 -45 -20 -25 0 -64 4 -87 10
-24 5 -110 16 -193 25 -300 33 -347 41 -481 79 -109 32 -164 52 -204 75 -8 5
-28 15 -45 22 -47 21 -164 98 -230 152 -68 56 -154 155 -155 177 0 9 -11 32
-25 52 -48 71 -126 238 -149 320 -13 45 -27 117 -30 158 -7 76 -16 98 -35 85
-13 -7 -8 -111 8 -172 5 -21 19 -76 31 -123 26 -102 101 -284 148 -359 54 -85
200 -224 310 -295 136 -88 218 -121 367 -145 146 -24 244 -43 420 -84 61 -14
134 -29 163 -33 48 -6 55 -10 71 -43 11 -20 19 -40 20 -46 1 -6 -65 -10 -177
-11 -302 -1 -291 0 -298 -29 -5 -19 -13 -25 -35 -25 -18 0 -29 -5 -29 -14 0
-10 7 -12 22 -8 14 3 19 2 14 -6 -4 -7 -1 -12 9 -12 11 0 15 -5 11 -15 -4 -10
2 -19 16 -24 21 -8 21 -8 -5 -15 -29 -7 -28 -36 2 -36 10 0 28 -11 41 -25 13
-14 32 -25 42 -25 10 0 18 -4 18 -10 0 -5 9 -10 20 -10 11 0 20 -4 20 -9 0
-12 124 -85 190 -111 30 -12 80 -32 110 -45 30 -12 78 -28 105 -34 78 -19 127
-32 160 -41 143 -42 420 -62 552 -39 35 6 67 9 70 5 7 -6 -16 -127 -59 -311
-48 -207 -91 -345 -172 -550 -24 -60 -48 -128 -54 -150 -6 -22 -20 -70 -31
-106 -46 -150 -72 -268 -73 -326 -1 -51 4 -73 31 -127 l32 -65 -20 -77 c-25
-99 -35 -108 -50 -47 -7 26 -28 90 -48 140 -51 130 -145 233 -213 233 -26 0
-25 -13 1 -49 13 -18 22 -48 24 -82 2 -29 9 -73 14 -98 28 -132 52 -281 46
-290 -3 -6 -16 -11 -28 -11 -39 0 -311 89 -351 115 -11 7 -38 17 -58 20 -21 4
-42 13 -49 21 -6 8 -20 14 -30 14 -11 0 -19 5 -19 11 0 6 -9 9 -20 6 -11 -3
-20 -2 -20 3 0 4 -21 17 -47 28 -27 12 -77 37 -113 57 -36 19 -75 35 -87 35
-13 0 -23 6 -23 13 0 10 -67 47 -85 47 -3 0 -15 8 -26 18 -18 18 -30 24 -96
54 -16 7 -30 15 -33 18 -3 3 -17 11 -32 19 -15 8 -25 17 -23 21 3 4 -11 11
-30 14 -19 4 -35 11 -35 16 0 6 -7 10 -15 10 -9 0 -18 6 -21 14 -3 7 -23 19
-45 26 -21 7 -39 17 -39 21 0 5 -33 27 -72 50 -106 61 -156 102 -326 263 -74
70 -85 77 -94 62 -7 -12 -6 -32 1 -59 6 -23 17 -76 25 -117 8 -41 35 -157 61
-258 33 -125 44 -187 38 -193 -7 -7 -34 -7 -84 0 -41 6 -164 20 -274 31 -110
12 -225 25 -255 31 -30 5 -86 15 -124 22 l-70 13 -39 94 c-54 133 -154 425
-207 605 -47 161 -62 228 -75 340 -17 149 -20 375 -5 375 6 0 10 -6 10 -13 0
-22 39 -52 51 -40 7 7 -2 36 -30 94 -42 85 -55 135 -24 92 19 -29 53 -31 53
-4 0 11 -4 22 -9 25 -5 3 -19 32 -31 63 -13 32 -29 65 -37 74 -17 20 -18 102
0 97 6 -3 17 -13 22 -24 34 -66 78 -93 90 -54 3 11 6 133 6 272 0 284 14 660
29 788 6 47 18 135 26 195 23 169 43 338 54 465 5 63 18 176 29 250 11 74 27
187 35 250 9 63 20 138 25 165 6 28 15 79 22 115 10 58 63 275 74 308 7 18 25
6 117 -72 103 -88 133 -88 103 -1 -23 70 -21 76 23 69 43 -7 51 1 69 56 21 70
52 197 73 302 24 122 47 203 131 448 33 96 71 211 83 255 37 128 74 224 121
315 25 47 90 175 145 285 120 238 186 354 260 461 30 43 63 91 72 106 17 27
17 28 -5 28 -17 0 -35 -22 -82 -101 -59 -99 -132 -215 -230 -365 -94 -143
-163 -282 -230 -464 -7 -19 -32 -75 -55 -125 -58 -124 -88 -210 -121 -350 -15
-66 -32 -136 -38 -155 -54 -198 -72 -261 -114 -405 -20 -66 -38 -145 -42 -176
-10 -84 -15 -87 -73 -60 -63 29 -76 22 -68 -35 3 -28 2 -44 -5 -44 -6 0 -34
23 -63 50 -57 54 -79 61 -96 31 -12 -24 -63 -235 -85 -356 -9 -49 -20 -110
-26 -135 -5 -25 -16 -97 -23 -160 -30 -247 -66 -494 -91 -625 -8 -38 -16 -115
-20 -170 -5 -88 -16 -224 -30 -365 -3 -25 -12 -155 -20 -290 -8 -135 -19 -275
-23 -313 -5 -37 -7 -132 -5 -212 2 -83 -1 -145 -6 -145 -5 0 -24 26 -42 58
-29 51 -33 68 -38 160 -3 57 -3 108 0 113 6 11 22 -6 32 -33 10 -27 37 -22 37
6 0 24 -14 63 -53 146 -17 36 -21 62 -20 135 2 126 13 245 25 278 l11 28 19
-33 c33 -53 41 -15 17 78 -30 118 -42 226 -28 260 11 29 11 29 21 7 6 -12 17
-24 26 -28 13 -5 14 6 9 77 -4 46 -11 99 -17 118 -5 19 -10 113 -10 207 0 140
3 173 14 173 7 0 19 -15 26 -32 17 -48 25 -61 38 -66 7 -2 12 6 12 17 0 21
-45 185 -55 201 -3 5 -9 39 -14 77 -9 76 8 259 24 257 6 -1 21 -29 33 -63 14
-35 30 -61 38 -61 22 0 17 25 -32 175 -39 118 -45 147 -40 190 4 27 9 75 11
105 14 169 18 191 29 187 6 -2 21 -46 33 -98 34 -140 43 -169 54 -169 22 0 20
37 -6 153 -15 67 -33 145 -39 172 -15 68 -15 437 0 456 10 12 44 116 44 134 0
3 -4 3 -10 0 -6 -4 -10 5 -10 19 0 17 5 26 16 26 10 0 14 5 10 16 -3 9 -2 12
5 9 5 -4 16 -1 24 5 27 22 15 30 -22 15 -21 -8 -51 -16 -68 -17 -28 -3 -30 -1
-28 32 2 52 14 100 24 100 5 0 9 13 9 28 0 15 5 33 12 40 21 21 -33 14 -102
-13 -68 -27 -105 -31 -115 -15 -6 9 16 55 55 117 14 22 14 25 -19 92 -10 21
-26 24 -42 9 -13 -12 -65 -36 -154 -72 -81 -32 -134 -38 -272 -34 l-138 5 -92
45 c-97 48 -106 68 -33 68 56 0 140 27 184 58 23 16 68 43 101 61 33 17 80 45
105 63 55 41 190 168 190 180 0 5 16 32 35 61 40 60 42 68 16 91 -37 33 -511
56 -511 25 0 -5 -7 -9 -16 -9 -8 0 -12 4 -9 10 9 14 112 60 135 60 11 0 61 20
112 45 51 25 100 45 108 46 28 1 105 44 105 59 0 8 -33 28 -80 48 -44 18 -98
43 -120 55 -22 12 -70 36 -106 54 -57 29 -116 77 -219 178 l-26 25 -399 0
-400 -1 -33 -77 c-18 -42 -47 -113 -63 -156 -27 -74 -36 -85 -133 -180 -98
-95 -198 -190 -293 -279 l-43 -39 -52 39 c-29 21 -80 54 -113 72 -83 47 -245
172 -245 190 0 8 19 32 43 54 23 22 81 76 128 121 47 45 134 119 194 166 l108
85 -117 3 c-128 3 -118 7 -176 -68 -19 -25 -38 -46 -42 -48 -5 -2 -8 -8 -8
-13 0 -5 -20 -35 -46 -67 -97 -122 -125 -158 -138 -177 -12 -17 -17 -18 -41
-7 -15 7 -46 28 -69 46 -22 18 -63 46 -89 61 -63 36 -68 34 -206 -91 -31 -28
-72 -61 -91 -74 -19 -14 -52 -40 -72 -59 -21 -19 -46 -39 -57 -45 -31 -18 -92
-67 -155 -124 -32 -29 -93 -78 -135 -107 -42 -30 -96 -72 -121 -95 -48 -43
-70 -61 -140 -115 -25 -19 -52 -41 -60 -49 -9 -8 -45 -34 -80 -58 -36 -24
-144 -102 -240 -174 -96 -71 -191 -141 -210 -154 -19 -13 -87 -62 -150 -109
-143 -107 -189 -137 -470 -304 -162 -97 -260 -157 -317 -193 -28 -19 -55 -34
-60 -34 -19 0 -103 -60 -119 -85 -9 -15 -28 -70 -40 -123 -13 -53 -34 -128
-47 -167 -21 -64 -28 -73 -78 -107 -68 -47 -307 -166 -419 -208 -47 -18 -104
-43 -127 -56 -47 -26 -54 -20 -24 17 10 13 33 51 51 84 18 33 55 96 84 140 44
67 200 317 271 433 11 18 41 59 67 91 27 33 48 61 48 64 0 2 16 22 36 43 30
33 146 167 206 239 54 66 153 187 185 228 21 27 54 65 74 85 20 21 45 53 55
74 30 57 116 150 452 486 332 331 360 368 240 313 -154 -69 -220 -103 -299
-152 -109 -68 -230 -131 -238 -124 -11 12 108 347 128 359 12 8 224 9 391 2
80 -3 276 -11 435 -16 160 -6 317 -15 350 -21 63 -11 192 -3 212 13 9 7 10 15
2 29 -17 33 -150 161 -234 226 -121 95 -128 100 -202 148 l-68 45 -253 0 -253
0 -82 -68 c-83 -69 -219 -172 -270 -205 -45 -29 -288 -153 -342 -175 -92 -36
-299 -108 -347 -120 -26 -7 -114 -19 -195 -27 -81 -8 -165 -19 -186 -24 -22
-5 -72 -5 -115 0 -42 5 -111 12 -152 16 -41 5 -74 12 -74 18 3 18 118 68 164
71 292 21 340 27 484 64 147 38 249 70 331 105 98 42 131 56 150 67 11 7 45
25 75 41 30 16 62 34 70 41 8 6 31 20 50 31 36 20 220 155 220 161 0 2 -82 4
-182 4 -124 -1 -189 -4 -203 -13z m17313 -318 c7 -11 10 -30 6 -44 -5 -20 -12
-25 -39 -25 -31 0 -85 32 -85 51 0 5 8 17 18 27 24 24 83 18 100 -9z m-3246
-47 c-17 -26 -40 -72 -52 -102 -11 -30 -35 -84 -53 -119 -73 -145 -364 -374
-648 -510 -89 -42 -109 -48 -109 -31 0 6 3 10 8 10 10 0 83 64 293 258 97 90
194 175 215 190 22 14 42 30 46 36 21 31 324 332 326 325 2 -5 -10 -31 -26
-57z m-11124 -627 c7 -14 12 -34 12 -44 0 -17 -67 -217 -115 -346 -15 -38 -36
-97 -47 -130 -12 -33 -22 -62 -24 -64 -8 -9 -34 23 -54 67 -64 138 -76 161
-82 161 -11 1 -15 -45 -28 -262 -6 -109 -15 -209 -20 -223 -6 -14 -10 -40 -9
-57 l1 -32 9 30 c5 17 12 41 14 55 2 14 12 59 22 100 10 42 18 114 18 163 0
66 3 87 14 87 7 0 11 -6 8 -14 -3 -8 1 -20 9 -26 8 -7 14 -23 14 -35 0 -24 45
-145 87 -235 32 -68 44 -110 33 -110 -12 0 0 -73 13 -82 7 -4 7 -11 -1 -21 -8
-9 -14 -61 -16 -135 -2 -90 -7 -125 -20 -143 -9 -13 -16 -31 -16 -41 0 -9 -9
-39 -19 -67 -11 -27 -17 -52 -14 -55 11 -10 -28 -84 -51 -94 -17 -9 -18 -11
-3 -11 21 -1 22 -14 2 -31 -9 -7 -14 -18 -11 -25 2 -6 -19 -27 -48 -45 -28
-19 -68 -48 -89 -64 -21 -16 -87 -53 -145 -83 -59 -30 -111 -58 -117 -63 -5
-4 -50 -29 -100 -55 -137 -72 -245 -136 -245 -144 0 -3 -22 -15 -50 -26 -27
-11 -50 -23 -50 -27 0 -5 -11 -13 -25 -18 -14 -5 -25 -16 -25 -24 0 -8 -18
-18 -45 -25 -28 -7 -45 -17 -45 -26 0 -10 -10 -15 -29 -15 -17 0 -33 -4 -36
-10 -3 -5 -16 -10 -28 -10 -12 0 -35 -7 -51 -15 -15 -8 -33 -15 -38 -15 -6 0
-54 -22 -107 -49 -135 -68 -226 -99 -249 -85 -10 7 -16 22 -14 38 1 14 -2 26
-8 26 -7 0 -7 7 1 21 8 16 8 28 0 46 -16 35 -14 63 7 82 10 9 31 34 47 56 16
22 41 54 56 70 43 49 132 220 192 370 63 161 167 467 167 495 0 10 5 22 11 26
6 3 8 17 5 29 -7 26 8 43 20 24 4 -7 8 -24 9 -39 1 -14 13 -48 25 -76 21 -44
24 -46 28 -24 4 23 5 24 13 5 19 -45 -4 104 -27 175 -25 77 -31 156 -15 206 5
16 16 90 26 164 27 226 16 207 163 278 141 67 261 122 268 122 5 0 75 31 171
76 28 13 57 24 63 24 11 0 144 59 195 87 58 31 100 52 140 68 22 9 69 31 105
49 50 26 71 31 92 26 15 -5 27 -5 26 -2 -4 31 16 28 30 -3z m5109 -41 c-3 -3
-12 -4 -19 -1 -8 3 -5 6 6 6 11 1 17 -2 13 -5z m9356 -93 c4 -1 7 -5 7 -10 0
-9 -8 -12 -62 -27 -13 -4 -18 0 -18 14 0 28 6 30 73 23z m-12423 -31 c0 -5 -7
-10 -16 -10 -8 0 -12 5 -9 10 3 6 10 10 16 10 5 0 9 -4 9 -10z m12514 -96 c29
-28 13 -44 -45 -44 -22 0 -29 5 -29 20 0 35 48 51 74 24z m-265 -118 c10 -12
7 -18 -16 -30 -31 -15 -61 -7 -48 14 4 6 17 15 29 20 11 5 22 9 22 9 1 1 7 -5
13 -13z m-12342 -44 c27 -21 76 -103 98 -162 9 -25 20 -54 25 -65 4 -11 13
-36 20 -55 7 -19 16 -44 21 -55 5 -11 24 -64 44 -119 41 -117 43 -145 16 -376
-11 -91 -25 -248 -30 -350 -6 -102 -13 -198 -16 -215 -2 -16 -7 -93 -11 -170
-3 -77 -10 -178 -14 -225 -19 -192 -30 -368 -41 -609 -6 -139 -14 -262 -18
-273 -11 -29 -22 -11 -76 127 -59 148 -94 275 -95 338 0 47 36 184 129 497
l46 155 -2 245 c-1 135 -6 295 -12 355 -6 61 -18 189 -26 285 -8 96 -20 200
-26 230 -14 71 -48 182 -60 196 -14 17 -74 24 -113 13 -60 -17 -143 -167 -192
-347 -40 -149 -67 -250 -75 -287 -5 -22 -11 -50 -14 -62 -4 -18 -1 -23 15 -23
13 0 22 9 26 28 24 105 71 197 118 232 19 14 37 33 39 43 6 19 46 24 48 5 6
-49 3 -328 -3 -328 -14 0 -8 -70 6 -76 12 -5 14 -25 7 -78 -1 -4 -7 -6 -13 -3
-9 3 -13 -6 -14 -27 0 -17 -4 -53 -8 -79 -5 -31 -4 -47 2 -43 13 8 24 -22 17
-45 -10 -29 -26 -22 -19 7 5 20 4 25 -5 20 -7 -4 -11 -26 -10 -49 2 -38 -5
-90 -32 -249 -5 -32 -10 -149 -10 -260 -2 -374 23 -459 190 -654 28 -32 60
-81 70 -109 11 -27 36 -90 56 -139 31 -75 36 -96 31 -135 -5 -39 -12 -202 -20
-500 0 -24 -6 -46 -12 -48 -6 -2 -22 22 -35 54 -13 32 -52 112 -86 178 -61
115 -140 303 -181 430 -11 33 -30 83 -42 110 -69 152 -84 187 -110 265 -121
371 -151 565 -149 945 3 356 17 501 79 799 5 27 17 62 25 79 8 17 15 35 15 41
0 6 38 87 85 179 47 92 85 177 85 189 0 12 33 53 84 104 72 72 89 84 118 84
18 0 43 -8 55 -18z m4262 -4 c-16 -15 -72 -22 -64 -7 4 5 17 9 30 9 13 0 27 5
30 11 4 6 9 8 12 5 3 -3 -1 -11 -8 -18z m8173 -53 c3 -3 3 -17 0 -30 -4 -21
-10 -25 -38 -25 -18 0 -36 5 -40 12 -14 22 59 62 78 43z m-12517 -245 c13 -5
14 -9 5 -9 -8 0 -24 4 -35 9 -13 5 -14 9 -5 9 8 0 24 -4 35 -9z m-3842 -152
c4 -10 8 -9 16 2 7 10 11 11 11 3 0 -7 -9 -22 -20 -33 -10 -10 -15 -22 -10
-25 4 -3 10 -2 13 2 2 5 2 1 -1 -7 -2 -8 -7 -25 -9 -37 -3 -13 -9 -23 -14 -23
-5 0 -9 -5 -9 -10 0 -13 -100 -223 -109 -230 -4 -3 -13 -21 -21 -40 -7 -19
-26 -53 -40 -75 -15 -22 -30 -49 -34 -60 -13 -36 -157 -285 -165 -285 -16 0
-51 53 -108 163 -22 41 -31 33 -36 -30 -3 -32 -12 -98 -20 -148 -54 -343 -99
-496 -222 -750 -72 -149 -85 -167 -208 -294 l-52 -54 48 7 c62 8 177 68 177
93 0 6 8 18 18 25 20 16 52 60 77 108 16 31 19 33 26 15 12 -31 10 -38 -6 -31
-11 4 -15 -1 -15 -18 0 -13 -7 -29 -15 -36 -8 -7 -15 -17 -15 -23 0 -6 -6 -18
-14 -26 -16 -18 -5 -61 16 -61 9 0 9 -3 -1 -9 -9 -6 -22 -6 -33 0 -17 9 -18 7
-12 -18 4 -15 13 -32 20 -36 11 -6 10 -12 -6 -29 -10 -12 -17 -25 -14 -30 3
-5 0 -16 -8 -25 -11 -15 -11 -16 5 -10 30 11 18 -9 -20 -35 -58 -38 -249 -161
-280 -180 -168 -101 -998 -518 -1032 -518 -16 0 -14 15 4 30 17 14 20 37 4 42
-5 2 -11 10 -12 18 -2 8 -6 21 -10 28 -5 7 -3 12 7 12 8 0 20 10 27 21 8 16 8
20 0 14 -7 -4 -19 -4 -27 -1 -13 5 -13 8 -2 18 8 7 23 18 33 24 11 6 20 20 20
30 0 10 7 19 15 19 8 1 14 6 13 12 -1 5 22 22 51 36 56 27 122 104 199 230 50
83 117 224 131 277 8 28 31 89 51 135 7 17 16 39 19 49 4 10 9 16 12 13 7 -7
45 30 60 58 5 11 18 19 27 17 20 -3 23 28 5 46 -7 7 -9 12 -6 12 3 0 38 -33
78 -74 39 -41 80 -76 91 -79 19 -5 19 -5 -1 28 -11 18 -20 42 -20 55 0 19 40
92 115 210 47 72 153 289 193 391 70 180 85 259 87 458 l2 174 109 69 c60 37
138 82 174 99 36 17 76 37 90 45 23 12 352 175 425 210 46 21 129 53 142 53 6
1 14 -5 16 -11z m3667 -177 c0 -6 -4 -13 -10 -16 -5 -3 -10 1 -10 9 0 9 5 16
10 16 6 0 10 -4 10 -9z m11337 3 c-3 -3 -12 -4 -19 -1 -8 3 -5 6 6 6 11 1 17
-2 13 -5z m-11193 -269 c-4 -8 -8 -15 -10 -15 -2 0 -4 7 -4 15 0 8 4 15 10 15
5 0 7 -7 4 -15z m12764 -183 c2 -7 -3 -12 -12 -12 -9 0 -16 7 -16 16 0 17 22
14 28 -4z m-17069 -124 c18 -59 44 -162 51 -208 4 -25 14 -69 22 -98 15 -51
10 -71 -13 -56 -8 5 -10 -1 -7 -20 3 -14 1 -26 -3 -26 -5 0 -9 -6 -9 -14 0 -8
-7 -16 -15 -20 -9 -3 -15 -19 -16 -43 0 -32 -2 -35 -10 -18 -7 14 -8 5 -5 -34
3 -46 1 -52 -9 -37 -15 20 -21 14 -30 -37 -4 -20 -12 -37 -17 -37 -5 0 -7 -8
-3 -19 3 -12 0 -21 -10 -24 -8 -4 -12 -12 -9 -20 2 -7 -4 -22 -16 -32 -11 -10
-20 -24 -20 -32 0 -7 -5 -13 -11 -13 -14 0 -3 49 17 71 8 8 14 24 14 34 0 10
9 44 19 74 48 137 53 176 53 414 0 125 4 227 8 227 5 0 13 -15 19 -32z m91
-418 c0 -5 -4 -10 -10 -10 -5 0 -10 5 -10 10 0 6 5 10 10 10 6 0 10 -4 10 -10z
m4137 -142 c-3 -8 -6 -5 -6 6 -1 11 2 17 5 13 3 -3 4 -12 1 -19z m-4391 -334
c-5 -13 -10 -14 -18 -6 -6 6 -8 18 -4 28 5 13 10 14 18 6 6 -6 8 -18 4 -28z
m6516 -411 c10 -9 18 -26 18 -39 0 -13 15 -35 36 -54 38 -33 58 -35 122 -15
17 6 22 3 22 -10 0 -27 -41 -54 -82 -55 -30 0 -47 8 -80 38 -45 40 -82 110
-72 136 8 20 13 20 36 -1z m-3972 -243 c0 -5 -5 -10 -11 -10 -5 0 -7 5 -4 10
3 6 8 10 11 10 2 0 4 -4 4 -10z m85 -9 c3 -5 1 -12 -5 -16 -5 -3 -10 1 -10 9
0 18 6 21 15 7z m-15 -61 c0 -5 -2 -10 -4 -10 -3 0 -8 5 -11 10 -3 6 -1 10 4
10 6 0 11 -4 11 -10z m4227 -606 c-3 -3 -12 -4 -19 -1 -8 3 -5 6 6 6 11 1 17
-2 13 -5z m3288 -1005 c256 -59 517 -133 523 -147 3 -8 -11 -49 -31 -91 -19
-42 -54 -123 -77 -181 -60 -155 -143 -317 -213 -414 -40 -56 -47 -61 -147
-102 -58 -24 -111 -43 -119 -44 -22 0 -96 88 -161 191 -33 53 -60 99 -60 102
0 4 -22 54 -50 112 -55 116 -105 243 -115 292 -6 29 -3 34 18 42 13 5 68 7
121 4 109 -7 266 12 266 32 0 7 -10 23 -22 37 -90 98 -151 184 -142 199 7 13
29 9 209 -32z m770 -193 c193 -41 244 -93 180 -181 -19 -25 -158 -139 -260
-212 -54 -39 -234 -153 -241 -153 -3 0 -36 -18 -74 -41 -118 -70 -116 -65 71
267 60 106 120 223 134 259 13 37 27 70 30 76 9 14 34 11 160 -15z m-10509
-122 c-3 -9 -13 -48 -22 -88 -9 -39 -19 -87 -24 -106 -4 -19 -13 -48 -19 -63
-6 -16 -22 -74 -36 -130 -14 -56 -30 -113 -34 -127 -5 -14 -17 -68 -26 -120
-26 -150 -76 -383 -86 -402 -5 -10 -9 -25 -9 -35 0 -9 -4 -30 -10 -47 -52
-168 -88 -275 -117 -346 -19 -47 -45 -114 -58 -150 -19 -54 -52 -131 -105
-245 -5 -11 -20 -47 -34 -80 -13 -33 -58 -125 -98 -205 -40 -80 -79 -161 -86
-180 -25 -64 -29 -75 -71 -162 -22 -48 -41 -90 -41 -94 0 -14 -82 -230 -96
-251 -8 -12 -14 -31 -14 -42 0 -10 -29 -76 -65 -146 -36 -71 -66 -137 -66
-149 -4 -71 -20 94 -28 292 -11 275 3 1207 21 1352 6 52 12 154 13 225 1 72 7
168 13 215 35 261 29 242 93 298 20 18 39 32 42 32 4 0 20 13 36 29 17 16 40
32 51 36 12 4 30 14 39 23 9 10 39 35 65 57 27 22 54 45 60 50 6 6 21 18 34
26 12 9 39 32 60 51 20 18 62 52 92 74 30 23 62 49 70 58 13 17 118 101 191
153 56 40 101 77 138 113 20 19 49 42 65 50 16 8 34 23 40 32 14 22 30 24 22
2z m4404 -215 c0 -10 5 -21 10 -24 6 -3 10 -17 10 -31 0 -13 4 -32 10 -42 15
-25 69 -200 76 -242 7 -43 -10 -56 -52 -40 -14 6 -54 10 -88 10 -61 0 -64 1
-69 28 -17 86 15 307 56 386 9 19 10 19 28 -3 11 -13 19 -31 19 -42z m1096
-32 c27 -23 69 -59 94 -79 25 -20 64 -53 88 -75 l43 -38 16 -125 c17 -135 27
-175 43 -165 13 8 13 59 -1 145 -16 104 -12 112 36 68 66 -59 201 -161 252
-191 89 -51 170 -102 204 -128 19 -14 53 -33 76 -42 23 -9 64 -26 90 -38 86
-38 108 -47 188 -79 44 -18 96 -40 115 -51 102 -53 319 -148 375 -162 11 -3
70 -19 130 -36 61 -17 126 -35 145 -40 38 -11 33 -10 275 -51 197 -34 302 -53
400 -74 39 -8 124 -17 190 -21 219 -11 510 -45 579 -66 16 -5 120 -9 231 -9
161 -1 204 -4 208 -14 7 -17 -84 -205 -110 -228 -13 -11 -47 -18 -118 -23 -55
-3 -113 -9 -129 -12 -28 -5 -29 -6 -11 -19 10 -8 40 -14 66 -14 76 0 139 -12
139 -26 0 -7 -16 -33 -35 -58 -19 -26 -35 -50 -35 -54 0 -19 -61 -40 -135 -46
-44 -4 -111 -13 -150 -21 -38 -8 -145 -19 -237 -25 -168 -12 -337 -4 -498 21
-36 6 -105 14 -155 19 -124 12 -284 35 -380 55 -176 36 -517 153 -757 260 -43
19 -80 35 -84 35 -16 0 -441 203 -514 246 -56 33 -119 76 -145 101 -11 10 -44
38 -74 63 -51 42 -93 84 -170 170 -70 77 -137 192 -125 212 4 7 28 9 65 5 44
-4 68 -12 96 -34 21 -16 83 -59 138 -96 55 -36 138 -93 185 -126 47 -33 96
-66 110 -73 14 -7 48 -27 77 -45 29 -18 56 -33 60 -33 5 0 26 -10 48 -21 54
-30 331 -145 430 -180 44 -15 105 -37 135 -47 135 -49 433 -142 455 -142 13 0
35 -4 50 -10 14 -5 49 -14 78 -19 29 -5 111 -20 182 -34 173 -33 304 -54 455
-72 188 -21 400 -36 412 -29 23 14 -27 34 -86 34 -34 1 -122 7 -196 15 -74 8
-179 19 -234 24 -54 6 -126 17 -160 25 -33 8 -79 17 -101 21 -62 10 -163 40
-600 178 -138 43 -490 169 -550 196 -11 5 -56 24 -100 41 -102 40 -471 222
-552 271 -154 94 -490 396 -520 467 -20 48 -61 217 -69 285 -8 72 4 74 72 14z
m7044 -85 c0 -18 -42 -52 -64 -52 -29 0 -118 -77 -152 -132 -13 -21 -29 -38
-36 -38 -6 0 -20 -7 -30 -16 -17 -16 -19 -15 -38 9 -11 14 -32 27 -45 29 -19
2 20 26 150 92 97 50 181 96 187 103 12 15 28 17 28 5z m-8030 -44 c0 -21 -3
-29 -10 -22 -5 5 -7 19 -4 32 9 31 14 27 14 -10z m7521 -237 c-17 -16 -38 -45
-46 -64 -11 -28 -27 -41 -71 -61 -32 -15 -59 -25 -61 -23 -5 6 27 39 92 92 33
28 68 58 79 68 34 29 40 19 7 -12z m-7931 -21 c69 -5 157 -13 195 -19 128 -19
308 -32 505 -36 107 -2 227 -9 265 -14 39 -6 112 -13 163 -16 51 -3 117 -10
148 -16 30 -6 80 -12 112 -15 106 -8 155 -18 166 -37 17 -26 -10 -39 -69 -32
-27 3 -124 10 -215 15 -313 17 -597 42 -695 60 -88 16 -511 23 -730 11 -115
-6 -255 -11 -310 -12 -55 -1 -118 -5 -140 -10 -22 -5 -119 -11 -215 -14 -160
-5 -384 -19 -420 -25 -53 -10 -120 16 -105 40 7 12 -17 50 -31 50 -13 0 -34
-43 -34 -69 0 -18 -45 -45 -60 -36 -5 3 -8 19 -8 35 2 51 -65 83 -68 32 -1
-12 -2 -32 -3 -45 -1 -21 -6 -23 -48 -24 l-48 -1 -33 70 c-18 39 -31 76 -28
83 5 13 93 20 471 35 220 9 1052 2 1235 -10z m8039 -2 c-20 -38 -59 -61 -59
-36 0 17 41 58 57 58 11 0 11 -4 2 -22z m-9764 -129 c11 -41 11 -50 -2 -60
-25 -21 -47 12 -45 71 2 91 21 87 47 -11z m3942 25 c-3 -3 -12 -4 -19 -1 -8 3
-5 6 6 6 11 1 17 -2 13 -5z m-1763 -94 c11 -11 28 -42 37 -68 36 -103 76 -208
87 -228 6 -12 23 -57 37 -100 15 -43 35 -98 46 -121 10 -24 19 -47 19 -52 0
-5 7 -14 15 -21 8 -7 15 -26 15 -42 0 -16 9 -48 20 -70 11 -23 20 -49 20 -58
0 -9 4 -20 8 -25 5 -6 35 -73 67 -150 32 -77 75 -175 96 -219 22 -43 39 -82
39 -87 0 -47 -155 102 -479 461 -17 19 -31 38 -31 42 0 7 -49 77 -80 115 -6 7
-10 15 -10 19 0 4 -7 16 -16 25 -31 34 -155 281 -175 349 -10 34 -10 62 0 143
7 56 15 106 18 111 4 5 56 6 126 3 103 -5 124 -9 141 -27z m746 4 c231 -19
251 -26 292 -93 90 -147 278 -340 493 -507 63 -49 243 -163 283 -181 20 -8 98
-44 172 -78 176 -82 213 -98 350 -150 63 -24 138 -53 165 -65 28 -13 91 -35
140 -51 182 -56 305 -114 392 -184 26 -20 33 -33 31 -53 -5 -45 -66 -54 -308
-48 -351 9 -417 30 -1025 331 -133 66 -165 71 -126 18 12 -15 23 -39 26 -52 5
-28 64 -121 76 -121 5 0 9 -6 9 -14 0 -56 297 -384 420 -464 14 -9 27 -19 30
-23 12 -15 210 -117 255 -132 109 -36 334 -88 420 -97 49 -5 170 -13 268 -16
153 -6 177 -9 177 -23 0 -35 -155 -174 -291 -262 -116 -75 -289 -110 -452 -89
-135 17 -342 62 -462 100 -297 96 -404 136 -603 226 -29 13 -55 24 -58 24 -2
0 -45 20 -95 45 -50 25 -95 45 -100 45 -5 0 -27 11 -48 25 -38 26 -58 51 -140
185 -43 68 -251 481 -323 640 -17 36 -72 151 -123 255 -121 246 -171 354 -180
385 -3 14 -10 34 -15 45 -37 90 -71 166 -116 263 -30 62 -54 117 -54 123 0 9
396 4 520 -7z m1247 -40 c-3 -3 -12 -4 -19 -1 -8 3 -5 6 6 6 11 1 17 -2 13 -5z
m96 -39 c1 -5 -6 -11 -15 -13 -11 -2 -18 3 -18 13 0 17 30 18 33 0z m3688
-159 c81 -25 129 -54 129 -79 0 -12 -5 -29 -10 -37 -8 -12 -12 -11 -32 6 -24
22 -107 54 -142 54 -12 1 -39 16 -61 35 l-40 35 55 0 c30 0 76 -7 101 -14z
m2153 -191 c25 -59 47 -157 53 -236 6 -73 -14 -212 -39 -279 -22 -58 -113
-122 -153 -106 -31 12 -11 189 42 366 13 47 33 121 43 165 23 98 31 125 36
125 2 0 10 -16 18 -35z m-384 -216 c12 -34 26 -85 30 -113 4 -28 14 -88 21
-133 13 -83 5 -164 -21 -226 -37 -86 -90 -162 -128 -184 l-42 -25 -29 31 c-27
29 -29 37 -24 84 7 68 56 272 92 384 15 48 34 111 41 138 12 50 30 105 35 105
1 0 12 -28 25 -61z m-7240 -44 c0 -5 -5 -3 -10 5 -5 8 -10 20 -10 25 0 6 5 3
10 -5 5 -8 10 -19 10 -25z m6878 -2 c6 -16 13 -37 17 -48 4 -11 12 -81 16
-155 5 -74 11 -153 14 -175 6 -52 -12 -182 -37 -269 -18 -60 -26 -72 -64 -99
-43 -30 -105 -57 -135 -57 -8 0 -23 6 -34 13 -17 14 -17 19 8 154 15 77 42
191 61 254 19 63 42 143 51 179 14 55 44 148 70 213 10 24 21 21 33 -10z
m-7183 -213 c3 -5 1 -10 -4 -10 -6 0 -11 5 -11 10 0 6 2 10 4 10 3 0 8 -4 11
-10z m1675 -232 c0 -5 -5 -8 -11 -8 -5 0 -8 4 -4 9 3 5 1 12 -5 16 -5 3 -10
11 -10 18 0 12 29 -23 30 -35z"/>
<path d="M6520 10033 c0 -4 21 -30 46 -58 26 -27 80 -94 121 -147 66 -85 103
-118 103 -90 0 8 -67 106 -101 147 -99 120 -128 150 -147 153 -12 2 -22 0 -22
-5z"/>
<path d="M6834 10006 c-3 -19 -1 -124 5 -233 6 -109 14 -250 17 -313 5 -116 9
-144 46 -300 27 -113 53 -194 100 -314 44 -112 162 -351 178 -361 32 -20 24
17 -25 113 -119 236 -163 378 -185 592 -6 63 -20 153 -30 200 -34 154 -44 236
-54 426 -6 128 18 117 72 -31 47 -127 99 -245 125 -284 29 -44 163 -250 200
-308 31 -49 62 -70 70 -48 3 7 -14 42 -38 77 -24 35 -75 122 -113 193 -39 72
-87 157 -108 190 -47 73 -110 218 -150 343 l-29 92 -37 0 c-34 0 -38 -3 -44
-34z"/>
<path d="M7200 10037 c0 -10 103 -295 132 -367 20 -47 40 -101 45 -120 47
-164 69 -208 95 -182 11 11 7 24 -47 177 -18 50 -45 135 -60 190 -38 139 -117
305 -144 305 -12 0 -21 -1 -21 -3z"/>
<path d="M7493 10026 c3 -8 11 -34 17 -58 14 -50 26 -68 47 -68 12 0 13 9 8
43 -14 97 -14 97 -47 97 -22 0 -29 -4 -25 -14z"/>
<path d="M9260 10035 c0 -8 63 -135 93 -186 14 -24 28 -55 32 -69 13 -40 54
-100 70 -100 24 0 18 25 -24 108 -52 101 -76 158 -92 210 -11 39 -15 42 -46
42 -18 0 -33 -2 -33 -5z"/>
<path d="M10604 10013 c28 -53 44 -69 56 -56 9 8 9 20 -1 47 -11 30 -18 36
-41 36 -28 0 -28 -1 -14 -27z"/>
<path d="M10894 10018 c4 -13 9 -36 13 -51 7 -34 36 -33 41 2 7 44 -6 71 -34
71 -23 0 -25 -3 -20 -22z"/>
<path d="M11161 10007 c-6 -17 -16 -66 -21 -107 -6 -41 -14 -97 -18 -125 -12
-87 -9 -150 8 -150 8 0 18 15 23 35 18 76 31 118 58 205 16 50 31 109 35 133
l7 42 -41 0 c-37 0 -41 -3 -51 -33z"/>
<path d="M16222 9979 c-29 -34 -52 -67 -52 -75 0 -15 55 -21 62 -6 2 4 35 34
73 66 39 33 74 63 80 68 5 4 -18 8 -51 8 l-61 0 -51 -61z"/>
<path d="M16910 10025 c-276 -48 -347 -69 -480 -136 -188 -96 -264 -158 -213
-171 11 -3 43 6 73 20 65 29 117 51 145 62 11 4 31 12 45 17 14 6 63 21 110
33 47 12 126 36 175 52 50 16 135 43 189 58 108 32 120 38 110 63 -7 20 -45
21 -154 2z"/>
<path d="M1288 9973 c7 -3 16 -2 19 1 4 3 -2 6 -13 5 -11 0 -14 -3 -6 -6z"/>
<path d="M1185 9930 c3 -5 8 -10 11 -10 2 0 4 5 4 10 0 6 -5 10 -11 10 -5 0
-7 -4 -4 -10z"/>
<path d="M658 9809 c-22 -14 1 -22 34 -12 l33 9 -27 6 c-15 3 -32 1 -40 -3z"/>
<path d="M16909 9489 c-159 -22 -192 -32 -187 -57 4 -19 22 -20 203 -2 178 18
207 24 219 43 8 14 8 20 -4 27 -20 13 -71 11 -231 -11z"/>
<path d="M8668 9148 c-68 -119 -81 -143 -156 -288 -165 -319 -179 -344 -276
-494 -50 -76 -119 -168 -170 -227 -23 -26 -59 -71 -81 -100 -22 -29 -84 -102
-137 -163 -87 -98 -116 -146 -89 -146 29 0 391 335 391 362 0 7 17 32 39 54
21 23 41 49 44 58 4 9 11 16 17 16 5 0 10 5 10 12 0 6 11 26 25 44 14 18 25
36 25 40 0 4 10 21 23 38 12 17 38 57 57 89 19 31 38 57 42 57 4 0 8 9 8 19 0
23 17 37 23 19 2 -7 3 -1 1 13 -2 17 4 33 16 44 11 10 20 26 20 36 0 9 4 19 8
21 14 6 110 212 142 308 18 52 43 124 56 159 13 35 24 70 24 77 0 32 -28 10
-62 -48z"/>
<path d="M6620 8940 c0 -5 5 -10 10 -10 6 0 10 5 10 10 0 6 -4 10 -10 10 -5 0
-10 -4 -10 -10z"/>
<path d="M9575 8939 c-4 -6 -4 -13 0 -17 4 -4 9 -2 12 4 2 6 17 9 33 6 16 -2
27 -8 24 -13 -3 -5 10 -6 28 -2 44 8 48 13 10 13 -18 0 -32 5 -32 10 0 13 -67
13 -75 -1z"/>
<path d="M9590 8889 c0 -5 5 -7 10 -4 6 3 10 8 10 11 0 2 -4 4 -10 4 -5 0 -10
-5 -10 -11z"/>
<path d="M8421 8454 c0 -11 3 -14 6 -6 3 7 2 16 -1 19 -3 4 -6 -2 -5 -13z"/>
<path d="M8348 8327 c-3 -19 -2 -25 4 -19 6 6 8 18 6 28 -3 14 -5 12 -10 -9z"/>
<path d="M8322 8281 c-8 -5 -12 -16 -10 -25 2 -12 6 -10 15 9 6 14 10 25 10
25 -1 0 -8 -4 -15 -9z"/>
<path d="M19148 8192 c-21 -13 -28 -24 -28 -49 0 -37 29 -73 60 -73 18 0 20 7
20 70 0 76 -5 82 -52 52z"/>
<path d="M8197 8102 c-23 -25 -24 -50 -1 -32 20 17 37 50 26 50 -5 0 -16 -8
-25 -18z"/>
<path d="M19094 8078 c-34 -19 -43 -36 -30 -63 24 -53 89 -34 78 23 -7 38 -24
52 -48 40z"/>
<path d="M10584 8008 c-9 -14 -71 -225 -86 -290 -6 -27 -15 -48 -19 -48 -5 0
-9 -8 -9 -18 0 -10 -4 -22 -8 -27 -5 -6 -15 -30 -22 -55 -8 -25 -17 -49 -21
-55 -3 -5 -9 -26 -12 -45 -3 -19 -15 -64 -27 -100 -12 -36 -26 -83 -32 -105
-5 -22 -14 -48 -19 -57 -5 -10 -9 -29 -9 -43 0 -14 -4 -25 -10 -25 -5 0 -10
-10 -10 -22 0 -13 -10 -52 -21 -88 -20 -60 -22 -88 -22 -350 0 -167 4 -324 12
-380 16 -130 56 -317 81 -380 11 -28 18 -56 15 -61 -9 -13 9 -11 24 4 11 10
12 7 6 -13 -4 -14 -10 -31 -12 -37 -3 -7 2 -13 10 -13 10 0 17 13 20 38 2 20
22 89 45 152 38 109 41 114 51 87 23 -58 41 -20 93 189 26 110 57 229 67 266
17 61 17 69 3 89 -13 19 -14 38 -4 143 12 131 3 286 -23 386 -25 95 -35 265
-35 573 0 277 -4 321 -26 285z"/>
<path d="M8086 7984 c-9 -8 -16 -17 -16 -20 0 -4 38 18 59 33 2 2 -3 3 -12 3
-8 0 -23 -7 -31 -16z"/>
<path d="M19161 7904 c-10 -22 -9 -31 4 -50 24 -37 35 -29 35 26 0 56 -19 68
-39 24z"/>
<path d="M18220 7550 c-18 -11 -1 -36 38 -56 20 -11 39 -22 40 -26 7 -16 49
-7 68 13 18 20 18 21 -6 40 -14 10 -29 19 -35 19 -5 1 -29 5 -52 9 -23 4 -47
5 -53 1z"/>
<path d="M12077 7493 c-3 -5 -10 -28 -17 -53 -17 -64 -73 -180 -115 -238 -19
-27 -35 -54 -35 -59 0 -18 -129 -139 -280 -262 -157 -127 -340 -300 -340 -321
0 -6 -5 -16 -10 -23 -21 -24 -80 -130 -80 -143 0 -7 -4 -15 -9 -18 -5 -3 -12
-18 -16 -33 -3 -16 -14 -36 -22 -45 -9 -10 -13 -18 -9 -18 4 0 0 -12 -8 -27
-8 -16 -19 -41 -25 -58 -5 -16 -21 -57 -35 -90 -14 -33 -26 -70 -26 -82 0 -12
-19 -64 -41 -115 -67 -150 -69 -155 -69 -176 0 -11 7 -25 14 -32 13 -10 22 2
58 72 24 46 45 88 47 93 32 83 165 334 220 415 109 161 269 360 321 398 15 12
63 63 106 114 43 51 83 98 89 103 46 40 207 240 230 285 65 127 107 320 71
320 -8 0 -17 -3 -19 -7z"/>
<path d="M7822 7070 c5 -15 64 -35 153 -51 33 -6 78 -15 100 -19 87 -18 263
-85 401 -154 132 -66 175 -78 145 -42 -24 29 -346 176 -446 204 -22 6 -80 23
-129 37 -105 31 -231 45 -224 25z"/>
<path d="M11758 6592 c-47 -32 -93 -77 -183 -182 -111 -128 -94 -103 -336
-505 -29 -47 -53 -102 -60 -135 -6 -30 -20 -72 -30 -92 -11 -21 -19 -47 -19
-58 0 -12 -4 -19 -9 -16 -5 3 -12 -1 -15 -10 -12 -31 4 -28 34 7 17 19 45 50
63 69 17 20 50 57 72 84 22 27 45 54 51 60 35 37 112 139 154 202 45 67 130
242 130 267 0 31 87 182 135 234 30 32 55 63 55 70 0 21 -15 22 -42 5z"/>
<path d="M4471 5664 c0 -11 3 -14 6 -6 3 7 2 16 -1 19 -3 4 -6 -2 -5 -13z"/>
<path d="M8636 5123 c-11 -11 -6 -23 9 -23 8 0 15 4 15 9 0 13 -16 22 -24 14z"/>
<path d="M4139 4854 c-7 -8 -22 -61 -34 -117 -12 -56 -34 -149 -49 -207 -15
-58 -31 -121 -36 -140 -7 -30 -45 -231 -70 -370 -5 -25 -18 -79 -29 -120 -12
-41 -21 -88 -21 -104 0 -16 -4 -45 -9 -65 -5 -20 -14 -61 -21 -91 -25 -122
-34 -158 -51 -220 -17 -60 -32 -151 -60 -365 -5 -44 -15 -102 -21 -130 -40
-190 -53 -278 -68 -455 -5 -58 -16 -154 -24 -215 -8 -60 -20 -146 -26 -190
-18 -126 -62 -389 -67 -398 -5 -8 -18 -111 -33 -262 -5 -49 -16 -157 -24 -240
-51 -494 -90 -1074 -78 -1143 3 -16 11 -22 32 -22 28 0 28 1 34 82 4 46 11
103 16 128 10 49 32 266 55 545 8 99 20 212 25 250 5 39 16 142 25 230 8 88
18 185 22 215 3 30 7 73 8 95 18 318 30 469 51 615 34 234 40 272 59 360 32
147 65 379 65 456 0 21 6 68 14 104 40 183 58 254 65 269 5 9 14 68 21 131 17
157 46 332 70 410 10 36 26 106 34 155 9 50 22 120 30 156 8 36 17 83 20 105
10 57 26 115 43 147 8 15 21 72 29 125 9 53 24 135 35 180 15 65 17 87 8 98
-15 18 -24 18 -40 -2z"/>
<path d="M7490 4005 c-117 -19 -114 -16 -125 -116 -6 -46 -4 -59 11 -73 22
-23 29 -11 38 66 7 57 8 58 49 69 23 6 62 12 87 14 77 4 150 17 157 27 17 29
-83 35 -217 13z"/>
</g>
</svg>
