<?xml version="1.0" standalone="no"?>
<!DOCTYPE svg PUBLIC "-//W3C//DTD SVG 20010904//EN"
 "http://www.w3.org/TR/2001/REC-SVG-20010904/DTD/svg10.dtd">
<svg version="1.0" xmlns="http://www.w3.org/2000/svg"
 width="900.000000pt" height="506.000000pt" viewBox="0 0 900.000000 506.000000"
 preserveAspectRatio="xMidYMid meet">

<g transform="translate(0.000000,506.000000) scale(0.100000,-0.100000)"
fill="#000000" stroke="none">
<path d="M0 4339 c0 -573 3 -719 12 -713 7 4 21 14 31 23 18 15 27 8 160 -131
192 -198 325 -320 435 -398 50 -36 92 -68 92 -72 0 -5 -16 -30 -35 -57 -19
-26 -35 -56 -35 -65 0 -23 -12 -20 -55 14 -21 17 -42 30 -48 30 -5 0 -29 -20
-53 -44 -37 -37 -44 -50 -44 -83 0 -52 -27 -131 -49 -143 -24 -12 -98 14 -133
47 -15 14 -31 44 -37 67 -15 63 -41 129 -58 149 -22 24 -55 21 -124 -10 l-59
-27 0 -189 c0 -164 2 -188 15 -183 20 7 48 -47 52 -100 3 -35 -2 -45 -32 -74
l-35 -34 0 -705 c0 -387 3 -702 6 -699 3 4 15 42 26 85 10 43 39 116 62 163
51 101 173 299 239 390 68 93 104 172 127 277 21 103 32 128 59 142 16 9 28 0
80 -59 59 -66 141 -214 141 -254 0 -8 -20 -47 -45 -85 -25 -38 -45 -74 -45
-80 0 -26 -34 -91 -47 -91 -36 0 -163 -89 -163 -114 0 -8 -35 -41 -77 -74 -43
-33 -126 -109 -186 -170 l-107 -109 0 -70 c0 -66 -2 -71 -35 -103 l-35 -34 0
-378 0 -378 1533 1 c1395 0 1530 1 1510 16 -13 8 -23 22 -23 29 0 8 -9 19 -20
26 -13 9 -20 24 -20 45 0 34 -33 79 -50 68 -6 -4 -10 2 -10 12 -1 24 -21 49
-45 56 -11 4 16 4 60 1 44 -3 123 -5 175 -5 52 1 146 -5 209 -14 63 -8 126
-14 140 -14 61 3 -223 38 -314 38 -107 1 -121 5 -126 36 -3 11 -20 29 -39 40
-19 11 -53 40 -77 64 l-43 44 -110 -21 c-130 -25 -163 -19 -184 33 -10 23 -25
37 -50 46 -37 13 -44 23 -26 34 13 8 13 48 -1 62 -19 19 0 50 49 75 46 23 47
25 52 78 l5 54 13 -29 c27 -60 154 -224 209 -271 32 -27 66 -57 76 -67 15 -15
28 -18 70 -13 86 11 138 57 286 249 40 52 85 106 99 119 23 21 25 21 19 3 -6
-19 -6 -19 6 -1 7 10 62 68 122 127 84 83 120 112 150 120 22 6 49 16 59 21
11 6 40 16 64 22 44 11 47 14 116 133 39 67 80 133 91 145 66 76 95 120 95
145 0 15 34 95 75 179 81 165 140 304 160 374 21 73 37 182 33 220 -4 32 -5
31 -6 -10 -2 -51 -27 -175 -42 -211 -8 -20 -9 -18 -4 12 5 34 2 41 -54 97 -37
37 -71 62 -91 67 -25 5 -31 12 -32 33 0 15 -3 21 -6 15 -3 -8 -21 -12 -46 -12
l-42 2 40 7 c22 4 32 8 23 9 -23 2 -74 32 -86 52 -17 26 37 85 86 92 26 5 45
16 60 37 13 16 30 30 39 30 9 0 25 8 35 17 26 23 45 10 80 -53 41 -73 34 -44
-9 37 -39 75 -87 125 -131 135 -49 12 -177 66 -201 85 -13 11 -33 19 -45 19
-12 0 -30 6 -40 13 -22 16 -11 50 14 42 12 -4 26 3 40 17 18 19 22 20 30 8 7
-11 12 -12 21 -3 8 8 21 6 53 -8 22 -10 49 -19 58 -19 17 0 55 46 46 55 -3 3
-11 -6 -18 -20 -7 -14 -20 -25 -28 -25 -36 0 -231 135 -208 143 10 4 13 17 9
45 -4 30 0 50 17 81 26 44 51 49 79 15 9 -11 40 -37 69 -58 45 -32 59 -38 88
-33 21 4 34 2 34 -5 0 -6 6 -6 15 2 18 15 20 34 3 24 -13 -8 -87 -6 -100 2 -4
3 -1 16 8 30 9 13 12 24 6 24 -5 0 -12 -9 -15 -20 -7 -25 -15 -25 -51 4 -24
20 -27 26 -16 45 6 12 14 21 18 19 4 -2 49 -25 101 -51 87 -45 92 -49 77 -66
-25 -28 -19 -37 9 -11 l25 23 -33 22 c-17 12 -61 38 -97 57 -107 59 -156 90
-133 83 18 -5 22 -3 17 9 -3 9 -1 16 5 16 6 0 11 9 11 20 0 13 7 20 20 20 13
0 20 7 20 20 0 13 7 20 20 20 13 0 20 7 20 20 0 13 7 20 19 20 11 0 22 6 25
13 5 10 7 10 12 0 10 -21 44 -16 44 7 0 16 7 20 30 20 23 0 30 4 30 20 0 16 7
20 35 20 25 0 35 4 35 16 0 8 4 13 9 10 5 -3 12 11 16 31 8 45 28 85 51 104
11 8 7 -2 -9 -26 -30 -44 -37 -76 -13 -56 11 9 15 9 19 -1 3 -8 6 -6 6 5 1 10
17 46 36 78 29 50 35 70 35 120 0 33 4 59 10 59 6 0 10 -9 10 -19 0 -11 4 -22
9 -25 4 -3 16 -27 25 -53 10 -26 22 -57 26 -68 5 -11 16 -49 25 -84 9 -35 23
-74 32 -87 8 -13 26 -56 39 -96 13 -40 23 -63 24 -51 0 13 -9 45 -19 73 -19
51 -12 65 19 38 12 -11 12 -10 1 5 -22 28 5 20 35 -10 l26 -28 -20 40 c-11 22
-29 48 -41 59 -11 10 -18 23 -15 28 3 4 0 7 -8 6 -7 -2 -12 2 -11 7 1 6 -7 12
-18 12 -17 2 -18 -1 -9 -13 7 -8 9 -14 4 -14 -5 0 5 -9 22 -19 45 -27 48 -38
14 -43 -24 -4 -31 0 -39 21 -6 14 -12 38 -14 53 -1 15 -6 30 -10 34 -4 4 -6
28 -5 53 1 37 2 39 5 14 3 -21 10 -33 19 -33 17 0 44 -23 44 -39 0 -5 12 -8
26 -5 22 4 25 2 20 -13 -4 -9 -4 -15 -1 -11 12 11 64 -13 70 -33 4 -10 15 -19
26 -19 10 0 19 -4 19 -10 0 -5 11 -10 25 -10 16 0 25 -6 25 -15 0 -9 11 -27
25 -41 13 -13 29 -42 35 -63 6 -22 24 -54 40 -71 17 -18 30 -38 30 -45 0 -7
11 -21 25 -31 16 -12 23 -25 19 -36 -7 -23 4 -23 30 -1 12 10 4 -1 -16 -23
-37 -38 -52 -68 -25 -45 8 6 17 8 21 4 4 -4 19 -9 34 -11 15 -2 29 -7 30 -13
2 -5 15 -9 28 -9 17 0 24 -6 24 -19 0 -11 5 -21 10 -23 6 -2 11 -35 12 -75 1
-61 3 -70 17 -66 9 4 14 4 11 2 -3 -2 -16 -13 -30 -24 -25 -20 -25 -20 -10 0
12 17 12 18 0 7 -8 -7 -15 -18 -15 -25 0 -7 -8 -11 -18 -11 -9 1 -14 -2 -11
-7 3 -5 -11 -16 -30 -26 -35 -16 -35 -16 -63 13 -54 56 -77 69 -35 20 69 -80
70 -81 137 -41 32 19 59 35 61 35 2 0 -6 -17 -19 -38 -56 -89 -119 -284 -99
-304 5 -5 28 -12 51 -15 22 -3 39 -9 36 -13 -2 -4 -17 -6 -32 -4 l-28 4 29
-10 c16 -5 34 -6 40 -2 21 12 94 13 102 1 5 -9 -3 -11 -31 -6 -28 5 -35 3 -27
-5 6 -6 25 -11 42 -10 29 1 30 -1 31 -41 1 -28 3 -33 6 -16 6 38 51 46 78 14
11 -12 31 -25 45 -29 14 -3 30 -17 36 -30 12 -25 11 -25 -40 -28 l-51 -3 -3
-60 c-3 -53 1 -68 35 -132 30 -57 43 -73 61 -73 16 0 22 -6 23 -22 0 -13 3
-18 5 -12 5 13 71 -44 67 -58 -2 -4 5 -8 16 -8 23 0 142 -125 160 -168 7 -18
19 -32 25 -32 16 0 113 -128 140 -185 13 -28 41 -68 62 -90 22 -22 49 -60 60
-85 55 -115 61 -136 70 -234 4 -38 12 -66 25 -79 19 -21 19 -21 -8 -36 -33
-19 -66 -20 -240 -14 -73 3 -133 10 -133 15 0 5 5 6 10 3 6 -3 10 -3 10 2 0 4
-14 16 -30 25 -19 11 -30 26 -31 40 -1 18 -2 19 -6 5 -3 -11 5 -29 18 -43 16
-17 20 -27 12 -35 -15 -15 -164 -29 -413 -38 -148 -6 -228 -13 -256 -24 -92
-34 -168 -81 -238 -148 -66 -62 -82 -86 -145 -209 -59 -114 -73 -151 -81 -214
-13 -90 -5 -126 51 -238 l39 -78 2160 0 2160 0 0 828 c0 874 1 846 -45 870
-18 10 -18 11 13 29 17 10 32 26 32 36 0 16 -6 17 -44 12 -24 -4 -52 -3 -61 2
-14 8 -9 15 32 41 28 18 55 32 61 32 7 0 12 7 12 15 0 20 -8 19 -59 -10 -51
-29 -51 -29 -51 -10 0 7 -8 18 -17 23 -14 9 -8 19 45 71 34 33 62 64 62 68 0
4 -28 -20 -62 -53 -65 -63 -116 -104 -128 -104 -4 0 -20 25 -36 56 -45 86 -58
96 -109 88 -33 -4 -51 -2 -74 12 -43 25 -45 38 -10 87 26 37 69 176 68 222 0
22 -19 -25 -29 -71 -15 -68 -30 -104 -45 -104 -6 0 -22 9 -35 20 -13 11 -18
20 -12 20 7 0 12 9 12 20 0 12 9 38 20 60 11 22 20 44 20 51 0 18 -28 -9 -36
-34 -3 -12 -13 -36 -21 -54 -14 -31 -16 -32 -39 -16 -14 9 -24 25 -24 39 0 13
-4 24 -10 24 -5 0 -10 9 -10 20 0 16 -7 20 -35 20 -45 0 -47 25 -2 35 70 15
169 17 179 3 7 -10 13 -8 28 11 12 14 20 18 20 10 0 -12 2 -11 9 0 5 8 7 20 4
27 -2 6 1 15 6 19 6 3 9 11 6 16 -4 5 -1 9 4 9 6 0 11 -7 11 -15 0 -8 -3 -15
-7 -15 -5 0 -9 -17 -11 -37 -4 -60 14 -27 43 77 31 114 58 157 121 198 43 29
55 32 126 32 l78 0 0 1045 c0 993 -1 1045 -18 1045 -9 0 -50 -9 -90 -20 -116
-32 -384 -204 -512 -328 l-65 -63 -30 17 c-16 9 -42 26 -57 38 -26 20 -27 24
-15 55 10 29 16 32 42 28 37 -6 65 8 65 31 0 13 16 21 62 32 59 14 63 17 69
48 4 19 17 41 29 49 68 48 89 74 92 116 l3 42 63 20 c64 21 82 35 82 70 0 11
10 32 23 46 19 23 32 27 103 32 74 6 83 9 118 42 l37 35 -701 0 -701 0 -26
-30 c-14 -17 -30 -27 -36 -23 -7 3 -9 3 -5 -2 12 -13 -42 -48 -78 -49 -19 -1
-34 4 -34 9 -1 6 -8 -2 -16 -17 -13 -25 -30 -33 -57 -29 -4 0 -7 -3 -7 -8 0
-15 -30 -41 -46 -41 -8 0 -14 7 -14 15 0 22 -30 18 -57 -7 -19 -18 -23 -19
-23 -5 0 15 31 39 55 43 6 0 15 2 20 3 6 1 3 6 -5 11 -13 8 -13 10 2 10 10 0
38 19 63 43 42 41 60 67 33 51 -7 -4 -8 -3 -4 4 4 6 13 9 21 5 8 -3 15 0 15 6
0 7 -168 10 -572 10 l-573 0 45 -24 c53 -27 122 -124 141 -195 11 -44 11 -46
-21 -82 -25 -28 -37 -35 -46 -27 -9 7 -15 6 -21 -3 -4 -7 -33 -29 -63 -49 -30
-20 -82 -61 -115 -91 -33 -30 -66 -53 -72 -51 -8 3 -13 -5 -13 -21 0 -44 -17
-37 -39 16 -35 85 -44 49 -22 -83 21 -119 58 -233 91 -280 11 -15 20 -43 20
-63 0 -25 4 -36 15 -36 8 0 15 -4 15 -9 0 -4 16 -23 36 -42 19 -19 42 -46 50
-61 14 -26 13 -28 -13 -42 -16 -8 -75 -50 -133 -95 -124 -95 -145 -98 -63 -7
51 55 40 61 -37 22 l-47 -24 18 72 c10 39 19 73 19 75 0 2 -9 -4 -20 -14 -26
-23 -25 -11 4 48 26 54 19 57 -41 22 -26 -14 -43 -19 -43 -12 0 17 35 126 50
160 7 15 11 30 8 32 -3 3 -30 -3 -59 -15 -30 -11 -55 -20 -56 -20 -1 0 -4 8
-6 18 -4 13 -5 11 -6 -5 0 -13 -5 -23 -11 -23 -13 0 -13 16 1 42 8 16 8 19 -1
13 -9 -6 -11 2 -6 31 3 22 8 62 12 89 4 28 11 60 15 73 11 30 0 28 -49 -8 -64
-46 -56 -58 -97 137 -34 156 -31 150 -58 126 -12 -11 -65 -43 -119 -70 l-96
-49 5 36 6 35 -34 -31 c-19 -17 -58 -45 -86 -63 -52 -32 -69 -49 -37 -37 9 3
12 2 9 -5 -4 -6 -14 -8 -22 -4 -9 3 -26 -1 -39 -10 -22 -14 -23 -14 -34 38
-17 83 -48 176 -49 147 -1 -14 -15 -54 -31 -88 -35 -74 -36 -79 -12 -61 15 13
16 12 4 -3 -8 -10 -18 -16 -22 -15 -5 1 -16 -7 -24 -18 -14 -19 -15 -18 -6 15
15 53 12 69 -8 40 -9 -14 -35 -44 -56 -68 l-39 -43 -21 37 c-12 21 -28 40 -36
42 -13 5 -13 3 0 -14 14 -18 14 -18 -2 -5 -10 7 -16 17 -13 21 3 4 -2 13 -10
20 -12 10 -13 6 -9 -27 l4 -38 -18 40 -19 40 -7 -60 c-4 -33 -16 -85 -26 -115
l-18 -55 -1 53 c-1 57 -15 63 -25 10 -3 -18 -33 -80 -66 -138 -33 -58 -60
-115 -60 -128 0 -30 -16 -20 -23 15 -4 20 4 42 30 81 35 56 40 77 8 42 -20
-22 -65 -26 -96 -9 -19 10 -19 10 1 39 11 16 30 55 41 87 26 72 29 234 6 303
-12 35 -15 39 -16 20 -3 -63 -72 -164 -133 -196 l-28 -15 0 54 c0 63 -46 165
-104 234 -37 42 -284 215 -327 228 -13 4 -32 14 -41 23 -34 29 -18 0 26 -49
53 -59 78 -126 77 -210 0 -34 -2 -63 -4 -65 -2 -3 -17 15 -32 38 -56 86 -101
140 -128 155 -16 8 -31 12 -34 10 -2 -3 5 -8 16 -12 34 -11 70 -68 82 -130 6
-31 8 -59 5 -62 -3 -3 -21 8 -41 26 -20 17 -39 31 -43 31 -4 0 -83 15 -175 34
-186 38 -232 59 -260 119 -10 19 -17 40 -17 46 0 6 -4 11 -10 11 -27 0 5 -129
55 -218 14 -25 24 -46 23 -47 -16 -9 -167 -29 -216 -29 -65 1 -143 25 -175 53
-25 21 46 -136 75 -166 l22 -23 -50 5 c-27 3 -62 8 -79 11 -37 6 -22 -10 25
-25 48 -16 76 -39 64 -51 -17 -17 -157 -62 -176 -57 -10 3 -18 1 -18 -5 0 -6
-13 -8 -30 -6 -16 3 -30 1 -30 -4 0 -4 8 -8 19 -8 43 0 109 -108 156 -260 l8
-24 -29 19 c-50 33 -70 57 -157 190 -102 157 -168 228 -267 284 -155 89 -327
211 -360 255 -25 33 -130 216 -130 226 0 6 -393 10 -1065 10 l-1065 0 0 -721z
m7624 666 c-10 -8 -25 -15 -31 -15 -7 0 -12 -6 -10 -12 1 -8 -10 -14 -27 -16
-27 -3 -29 -2 -16 13 25 30 84 64 94 54 6 -6 2 -15 -10 -24z m-1206 -60 c-3
-3 -9 2 -12 12 -6 14 -5 15 5 6 7 -7 10 -15 7 -18z m650 -101 c-4 -3 -12 -7
-20 -8 -7 -1 -23 -8 -36 -15 -13 -7 -29 -10 -36 -8 -6 3 -12 -3 -12 -13 0 -17
5 -16 65 5 69 26 81 25 81 -6 0 -20 -15 -26 -25 -9 -3 6 -18 10 -33 10 -21 0
-24 -2 -12 -10 14 -9 13 -11 -9 -14 -13 -2 -26 -16 -26 -29 -1 -7 -7 -10 -15
-9 -8 2 -12 0 -8 -4 8 -7 -28 -73 -45 -85 -5 -4 -6 -12 -2 -19 5 -8 4 -11 -1
-7 -6 3 -16 2 -24 -4 -12 -7 -12 -9 4 -9 16 0 17 -5 11 -46 -4 -31 -2 -50 7
-62 9 -11 10 -14 1 -8 -7 4 -13 2 -13 -3 0 -6 6 -11 14 -11 7 0 20 -8 27 -17
11 -15 11 -16 -1 -5 -22 20 -40 14 -40 -13 0 -14 5 -25 11 -25 5 0 7 5 4 10
-4 7 3 10 21 7 20 -3 38 -19 69 -63 24 -34 50 -60 62 -62 29 -4 66 45 61 80
-4 22 -2 25 9 16 7 -6 12 -18 11 -27 -2 -8 4 -16 12 -16 8 0 16 -10 18 -21 3
-18 -5 -23 -45 -33 -73 -19 -130 -47 -147 -73 -17 -26 -28 -98 -15 -98 5 0 9
-7 9 -15 0 -14 18 -20 49 -16 7 2 10 -2 7 -7 -3 -5 -19 -12 -36 -14 -27 -4
-32 0 -49 36 -11 23 -24 52 -29 66 -14 36 -70 110 -84 110 -6 0 -2 -11 11 -24
22 -24 82 -138 76 -144 -2 -2 -14 3 -27 12 -12 9 -32 16 -43 16 -15 -1 -10 -6
18 -21 20 -11 37 -23 37 -27 0 -19 -25 -30 -56 -25 -22 4 -34 2 -34 -6 0 -6
10 -12 23 -12 l22 -2 -22 -4 c-23 -4 -34 -42 -13 -44 13 -2 21 -4 40 -11 30
-12 83 -28 91 -28 5 0 9 10 10 23 0 21 1 21 8 2 5 -11 4 -23 -1 -26 -12 -8 31
-36 62 -41 16 -2 27 -13 35 -38 8 -23 14 -30 17 -20 3 8 -4 31 -15 50 -24 42
-43 63 -34 38 7 -20 -20 -18 -34 3 -13 21 -11 49 4 44 19 -7 35 7 38 35 3 17
11 26 27 28 12 2 22 10 22 18 0 8 -4 12 -10 9 -5 -3 -18 -1 -27 5 -15 9 -14
10 6 4 15 -4 21 -2 17 4 -7 11 16 23 42 21 10 -1 7 -4 -8 -9 -21 -7 -19 -8 18
-9 32 -1 42 3 42 15 0 15 13 16 118 10 173 -10 311 -27 287 -37 -11 -4 -46 -8
-77 -8 -48 -1 -58 -4 -63 -21 -3 -11 -12 -20 -18 -20 -17 0 -39 -38 -31 -52 5
-7 2 -9 -9 -5 -8 3 -21 -1 -27 -9 -16 -18 3 -42 48 -61 37 -15 59 -9 42 12 -8
9 -5 14 10 18 16 4 24 -1 32 -19 6 -13 15 -24 20 -24 12 0 10 7 -8 38 -15 25
-15 26 1 7 9 -11 20 -27 25 -35 5 -8 12 -12 16 -8 4 4 3 13 -2 21 -5 7 -2 4 6
-6 45 -57 62 -67 112 -66 50 2 58 8 33 29 -8 7 -15 16 -15 21 0 5 16 -8 35
-29 20 -21 35 -31 35 -23 0 10 10 5 30 -14 17 -16 30 -24 30 -19 0 16 -47 57
-58 50 -5 -3 -21 8 -36 23 -17 18 -35 27 -45 24 -10 -2 -25 3 -35 12 -12 12
-16 13 -16 3 0 -10 -2 -10 -9 1 -6 9 -10 10 -16 2 -4 -7 0 -23 9 -36 30 -46
-8 -15 -44 35 -23 32 -37 45 -42 37 -6 -9 -8 -9 -8 0 0 6 -8 13 -17 15 -13 3
-6 10 22 23 22 10 50 28 62 39 40 39 48 42 113 43 36 0 89 6 118 13 49 12 55
11 80 -7 34 -25 42 -54 13 -46 -40 10 -24 -39 35 -112 31 -37 52 -65 47 -62
-19 12 -25 -42 -8 -66 20 -29 19 -34 -7 -33 -17 1 -24 -5 -26 -23 -2 -13 2
-27 8 -31 7 -4 9 -13 6 -19 -5 -8 -12 -7 -22 4 -17 17 -74 21 -74 5 0 -5 -16
-10 -36 -10 -35 0 -35 -1 -29 -32 4 -18 11 -34 16 -36 5 -2 9 -13 9 -24 0 -13
-5 -18 -14 -15 -8 3 -16 1 -18 -5 -3 -8 -10 -8 -25 1 -12 6 -43 11 -68 11 -38
0 -46 -3 -41 -15 4 -12 0 -14 -22 -9 -15 4 -30 12 -34 18 -5 7 -8 6 -8 -4 0
-12 -2 -12 -9 -2 -6 10 -10 9 -14 -7 -7 -27 -27 -27 -27 -1 0 13 -7 20 -20 20
-11 0 -20 -4 -20 -10 0 -5 -7 -7 -15 -4 -8 4 -15 1 -15 -5 0 -20 -32 -12 -56
14 -13 14 -32 25 -43 25 -11 0 -22 4 -26 10 -3 5 15 3 40 -4 25 -8 45 -10 45
-6 0 4 -7 10 -15 14 -24 9 -6 35 28 38 26 2 33 8 35 30 5 42 -43 63 -138 60
-41 -1 -76 -6 -78 -12 -7 -19 -101 -11 -131 11 -25 19 -84 29 -96 17 -11 -11
-14 -48 -4 -48 6 0 17 -7 25 -15 21 -21 16 -19 -57 14 -68 31 -149 48 -149 32
0 -6 5 -13 10 -16 6 -3 10 -10 10 -15 0 -13 -113 48 -123 66 -4 8 -13 14 -20
14 -7 0 -19 5 -27 10 -13 8 -13 11 -1 19 19 12 6 41 -18 41 -11 0 -27 -8 -36
-17 -14 -13 -21 -14 -36 -4 -11 6 -24 9 -28 6 -5 -3 -11 2 -15 10 -5 14 6 20
28 16 5 -1 13 4 17 10 5 9 11 10 21 2 7 -6 36 -13 63 -16 28 -3 59 -9 70 -13
15 -5 17 -4 9 5 -6 6 -37 17 -70 24 -58 12 -68 21 -66 60 0 11 -7 17 -21 18
-21 2 -21 2 1 6 22 4 23 5 5 18 -17 14 -17 14 4 15 34 0 39 35 9 71 -14 17
-26 36 -26 42 0 7 9 1 20 -13 19 -24 20 -25 20 -3 0 12 7 29 16 38 15 15 15
19 -2 50 -16 31 -22 34 -56 31 -50 -5 -50 12 3 69 45 49 44 57 -2 24 -38 -27
-40 -3 -3 32 14 13 30 33 36 43 9 17 7 17 -21 -3 -17 -12 -31 -26 -31 -31 0
-4 -7 -11 -15 -14 -9 -3 -1 12 16 34 18 22 30 42 28 44 -9 9 -79 -65 -73 -77
4 -7 -6 0 -22 15 -16 14 -39 28 -52 30 -22 3 -22 4 13 55 19 29 35 64 35 78 0
34 9 32 55 -15 l39 -40 -39 -40 c-21 -22 -36 -43 -32 -46 7 -7 72 58 81 81 3
8 12 15 21 15 18 0 18 4 5 52 -14 50 -18 139 -7 164 9 22 182 87 267 100 25 4
50 10 55 15 10 7 76 17 84 12 2 -2 2 -6 -1 -9z m89 1 c0 -10 -10 -15 -26 -15
l-26 0 25 14 c14 8 25 14 26 15 0 1 1 -6 1 -14z m328 -15 c-3 -5 -12 -10 -18
-10 -7 0 -6 4 3 10 19 12 23 12 15 0z m-235 -31 c0 -11 -4 -18 -10 -14 -5 3
-7 12 -3 20 7 21 13 19 13 -6z m85 11 c-11 -5 -27 -9 -35 -9 -9 0 -8 4 5 9 11
5 27 9 35 9 9 0 8 -4 -5 -9z m-55 -10 c0 -5 -5 -10 -11 -10 -5 0 -7 5 -4 10 3
6 8 10 11 10 2 0 4 -4 4 -10z m-793 -18 c-10 -10 -17 -24 -17 -31 0 -7 -5 -9
-12 -5 -6 4 -8 3 -5 -3 10 -16 -15 -58 -35 -59 -9 -1 -19 5 -22 12 -5 13 6 19
27 15 4 -1 7 5 5 13 -2 8 13 29 32 45 40 34 51 40 27 13z m18 -44 c-82 -258
-141 -377 -179 -362 -12 5 -16 20 -16 64 0 84 -39 110 -56 37 l-7 -32 -9 28
c-5 15 -14 27 -19 27 -14 0 -10 -171 6 -205 l13 -30 1 43 c1 23 5 42 10 42 5
0 15 15 21 33 l13 32 9 -52 c5 -29 14 -53 19 -53 5 0 9 -5 9 -12 0 -9 -3 -9
-12 0 -21 21 -28 13 -28 -35 1 -47 1 -47 15 -23 14 24 14 22 15 -35 0 -74 19
-56 21 20 1 28 3 42 6 32 2 -9 9 -14 15 -11 14 9 7 -19 -28 -118 -20 -56 -33
-80 -48 -84 -12 -4 -26 -14 -32 -22 -10 -14 -15 -12 -38 13 -15 16 -24 35 -21
42 2 8 1 12 -3 9 -4 -2 -14 -1 -22 5 -12 7 -9 9 10 10 21 0 22 2 6 8 -25 10
-65 139 -67 216 -1 33 -4 50 -6 38 -2 -13 -9 -23 -14 -23 -12 0 -12 44 1 109
8 46 18 60 81 121 39 39 75 70 80 70 5 0 11 0 14 0 3 -1 13 6 22 15 23 24 25
14 8 -51 -18 -72 -18 -71 0 -78 13 -5 15 0 10 27 -4 20 1 50 13 81 19 48 20
49 33 28 18 -28 29 -28 29 1 1 18 4 15 16 -13 14 -32 13 -51 -3 -104 -3 -12
-1 -16 6 -12 6 4 11 14 11 22 0 24 51 147 70 169 9 11 20 28 23 38 13 37 15
15 2 -25z m684 30 c6 -7 17 -13 23 -13 6 0 12 -6 14 -13 1 -7 0 -8 -2 -3 -3 6
-12 7 -20 4 -8 -3 -14 -1 -14 3 0 5 -42 8 -92 7 l-93 -1 70 7 c39 5 76 6 84 3
9 -3 12 -1 7 6 -10 16 7 15 23 0z m-645 -94 c3 -8 2 -12 -4 -9 -6 3 -10 10
-10 16 0 14 7 11 14 -7z m-114 -9 c0 -8 -4 -15 -10 -15 -5 0 -10 7 -10 15 0 8
5 15 10 15 6 0 10 -7 10 -15z m-763 -232 c-2 -73 0 -130 5 -127 4 3 8 15 8 27
1 12 7 36 14 52 l13 30 7 -45 c8 -53 26 -89 26 -53 0 15 15 32 44 53 l45 30
-10 -32 c-14 -48 -23 -190 -15 -232 7 -37 26 -50 26 -17 0 16 18 31 36 31 2 0
-9 -24 -24 -52 -16 -29 -36 -74 -46 -100 -10 -27 -22 -48 -27 -48 -4 0 -6 -6
-3 -14 3 -8 1 -17 -4 -20 -6 -3 -8 -16 -5 -29 3 -14 -4 -8 -21 18 -24 39 -25
46 -26 200 l-1 160 -24 -27 c-14 -17 -27 -24 -30 -17 -4 5 -9 70 -12 144 -3
74 -10 135 -14 135 -13 0 -11 -128 2 -230 l11 -87 -47 -64 c-40 -55 -46 -60
-41 -34 10 53 15 89 22 145 3 30 9 59 12 64 3 5 0 6 -6 2 -6 -3 -13 -19 -15
-34 -3 -15 -14 -74 -24 -132 l-18 -105 -5 90 c-5 79 -6 85 -13 50 -13 -66 -30
-126 -33 -122 -14 14 56 277 101 380 4 10 3 17 -4 17 -6 0 -11 -6 -11 -14 0
-7 -9 -25 -20 -39 -12 -15 -40 -61 -64 -102 l-44 -77 5 49 5 48 -21 -30 c-11
-16 -23 -42 -27 -58 -3 -16 -8 -26 -10 -24 -10 10 19 97 30 90 6 -3 5 0 -2 8
-11 12 -16 10 -32 -11 -24 -32 -110 -204 -110 -221 0 -7 -3 -10 -6 -7 -6 7 25
106 37 113 4 3 6 12 2 20 -3 8 0 15 6 15 6 0 10 3 9 8 -3 13 13 52 20 48 4 -2
8 6 8 19 2 32 52 95 70 88 9 -3 12 0 9 9 -7 16 62 105 77 100 5 -1 7 2 4 7 -4
5 -2 12 4 16 5 3 10 13 10 21 0 8 -4 13 -9 10 -5 -3 -11 3 -14 13 -4 15 9 25
64 51 37 17 74 39 81 47 20 25 30 -51 25 -204z m-514 146 c3 -12 3 -18 0 -15
-3 3 -12 -2 -19 -12 -11 -14 -11 -12 -2 16 7 17 13 32 14 32 1 0 4 -9 7 -21z
m887 -50 c0 -9 8 -27 19 -40 15 -19 16 -30 9 -62 -5 -22 -6 -47 -4 -54 4 -9 1
-11 -5 -7 -7 4 -9 23 -6 48 4 29 0 53 -13 81 -21 43 -28 93 -10 65 5 -8 10
-22 10 -31z m-630 22 c0 -5 -7 -12 -16 -15 -14 -5 -15 -4 -4 9 14 17 20 19 20
6z m80 -21 c9 -17 5 -27 -22 -62 -48 -62 -110 -128 -120 -128 -16 0 -8 19 9
22 10 2 18 10 19 18 1 8 2 25 2 38 2 16 7 22 20 20 11 -2 18 5 20 20 2 15 9
22 20 20 11 -2 18 5 20 20 2 12 8 22 13 22 5 0 9 5 9 10 0 7 -6 7 -20 0 -10
-6 -18 -16 -16 -23 1 -6 1 -9 -1 -4 -3 4 -10 4 -16 1 -7 -3 1 6 16 20 34 31
34 31 47 6z m-86 -15 c-4 -8 -11 -15 -16 -15 -6 0 -5 6 2 15 7 8 14 15 16 15
2 0 1 -7 -2 -15z m-257 -27 c-3 -8 -6 -5 -6 6 -1 11 2 17 5 13 3 -3 4 -12 1
-19z m170 -3 c0 -8 -4 -12 -9 -9 -5 3 -6 10 -3 15 9 13 12 11 12 -6z m-140
-62 c-3 -10 -5 -2 -5 17 0 19 2 27 5 18 2 -10 2 -26 0 -35z m-150 15 c-3 -8
-6 -5 -6 6 -1 11 2 17 5 13 3 -3 4 -12 1 -19z m213 8 c0 -2 -8 -10 -17 -17
-16 -13 -17 -12 -4 4 13 16 21 21 21 13z m-260 -41 c-14 -15 -21 -31 -17 -45
3 -11 1 -23 -4 -26 -19 -11 -8 51 13 73 12 13 24 23 26 23 3 0 -5 -11 -18 -25z
m1394 -50 c-21 -41 -32 -58 -29 -40 6 30 54 120 60 113 2 -2 -12 -35 -31 -73z
m-1233 32 c-10 -9 -11 -8 -5 6 3 10 9 15 12 12 3 -3 0 -11 -7 -18z m1379 6 c0
-3 -7 -3 -15 1 -10 3 -15 -1 -16 -12 0 -10 -3 -12 -6 -4 -2 6 -10 10 -16 6 -7
-3 -4 1 6 10 17 13 47 12 47 -1z m-1593 -40 c-3 -10 -5 -2 -5 17 0 19 2 27 5
18 2 -10 2 -26 0 -35z m1570 -40 c-4 -3 -9 2 -13 11 -3 9 -12 16 -20 16 -8 0
-14 5 -14 11 0 5 -4 8 -9 5 -5 -4 -7 3 -4 13 4 17 8 16 35 -15 17 -19 28 -37
25 -41z m-1333 53 c-3 -8 -13 -17 -22 -21 -13 -5 -13 -2 3 15 21 24 26 25 19
6z m1380 -2 c3 -8 2 -12 -4 -9 -6 3 -10 10 -10 16 0 14 7 11 14 -7z m-1294
-54 c-7 -52 -7 -53 -9 -13 -1 36 7 80 14 71 1 -2 -1 -28 -5 -58z m1077 28 c-3
-8 -6 -5 -6 6 -1 11 2 17 5 13 3 -3 4 -12 1 -19z m71 -14 c-7 -15 -14 -21 -16
-15 -2 7 2 18 8 26 18 22 21 18 8 -11z m-1191 -16 c-3 -7 -5 -2 -5 12 0 14 2
19 5 13 2 -7 2 -19 0 -25z m-273 13 c3 -4 -4 -17 -17 -27 -22 -19 -22 -19 -4
2 9 11 14 24 10 27 -3 4 -4 7 0 7 3 0 8 -4 11 -9z m180 -6 c-4 -8 -11 -15 -16
-15 -6 0 -5 6 2 15 7 8 14 15 16 15 2 0 1 -7 -2 -15z m1328 4 c2 -6 20 -11 41
-12 41 -1 51 -16 49 -74 -1 -18 3 -33 9 -33 7 0 9 -9 6 -22 -3 -12 -1 -30 5
-41 9 -17 5 -24 -22 -45 l-31 -24 21 -23 21 -23 -27 -19 -28 -20 23 -8 c22 -7
22 -8 -10 -28 -51 -31 -84 -30 -120 4 -17 16 -34 27 -38 24 -4 -2 -16 12 -25
32 -15 32 -16 35 -1 23 9 -7 15 -9 14 -4 -1 5 -1 21 0 36 1 25 4 26 34 21 45
-7 67 16 67 68 0 22 -5 49 -11 61 -6 11 -12 34 -14 51 -2 18 -1 26 2 19 4 -10
8 -10 19 -1 18 15 18 33 0 26 -10 -4 -13 -1 -9 9 6 17 20 19 25 3z m-344 -59
c0 -9 -3 -7 -8 5 -5 11 -8 29 -8 40 0 16 2 15 8 -5 4 -14 8 -32 8 -40z m-1345
35 c-3 -9 -8 -14 -10 -11 -3 3 -2 9 2 15 9 16 15 13 8 -4z m556 -5 c6 8 12 12
15 10 2 -3 -2 -14 -10 -25 -13 -17 -16 -18 -24 -5 -7 11 -10 6 -10 -20 0 -26
3 -31 10 -20 14 22 12 10 -10 -50 l-19 -55 5 65 c8 95 13 117 25 99 8 -12 10
-12 18 1z m-235 -75 c-9 -14 -18 -25 -21 -25 -5 0 5 18 20 38 17 22 18 13 1
-13z m1525 -18 c1 -5 -3 -5 -9 -2 -5 3 -10 16 -9 28 0 21 1 21 9 2 5 -11 9
-24 9 -28z m-1392 -4 c-3 -10 -5 -4 -5 12 0 17 2 24 5 18 2 -7 2 -21 0 -30z
m30 5 c-3 -7 -5 -2 -5 12 0 14 2 19 5 13 2 -7 2 -19 0 -25z m1177 -33 c10 -28
-11 -65 -39 -65 -16 0 -25 6 -25 15 0 18 4 18 33 4 19 -9 19 -7 -3 10 -24 21
-25 22 -6 36 25 19 32 19 40 0z m-1741 -10 c-3 -9 -8 -14 -10 -11 -3 3 -2 9 2
15 9 16 15 13 8 -4z m557 -57 c0 -49 -5 -47 -14 5 -4 23 -3 37 4 37 5 0 10
-19 10 -42z m-583 -10 c-6 -24 -13 -36 -15 -27 -3 15 14 69 22 69 2 0 -1 -19
-7 -42z m89 -16 c-18 -16 -18 -16 -6 6 6 13 14 21 18 18 3 -4 -2 -14 -12 -24z
m254 24 c0 -2 -8 -10 -17 -17 -16 -13 -17 -12 -4 4 13 16 21 21 21 13z m-418
-163 c-3 -24 -8 -43 -13 -43 -18 0 -38 47 -40 97 -2 44 1 57 22 79 l24 26 6
-59 c3 -32 3 -77 1 -100z m25 70 c-3 -10 -5 -4 -5 12 0 17 2 24 5 18 2 -7 2
-21 0 -30z m1099 -71 c19 -34 31 -62 27 -62 -5 0 -16 12 -25 28 -9 15 -27 36
-39 47 -12 11 -19 15 -16 9 9 -15 -19 -39 -28 -24 -3 5 -11 10 -16 10 -6 0 -3
-7 5 -16 18 -17 18 -21 5 -49 -8 -17 -8 -15 -4 8 7 36 -20 37 -29 1 -4 -15 -9
-24 -13 -21 -7 8 23 97 42 125 23 32 51 16 91 -56z m-399 21 c-3 -10 -5 -2 -5
17 0 19 2 27 5 18 2 -10 2 -26 0 -35z m2128 17 c3 -6 -1 -7 -9 -4 -18 7 -21
14 -7 14 6 0 13 -4 16 -10z m-854 -72 c46 -61 51 -66 43 -43 -7 19 -7 19 13 2
15 -13 22 -15 25 -6 2 7 10 9 17 5 9 -6 1 -18 -28 -42 -43 -37 -134 -154 -165
-211 -28 -53 -36 -25 -29 117 2 69 5 137 4 152 0 30 39 68 70 68 9 0 32 -19
50 -42z m-1821 17 c0 -8 -4 -15 -10 -15 -5 0 -7 7 -4 15 4 8 8 15 10 15 2 0 4
-7 4 -15z m678 -38 c7 -18 12 -40 11 -48 0 -8 -5 1 -10 19 -6 20 -14 30 -21
26 -7 -5 -8 -3 -3 6 4 7 2 16 -6 21 -12 7 -11 9 1 9 9 0 21 -15 28 -33z m-727
-40 c-10 -9 -11 -8 -5 6 3 10 9 15 12 12 3 -3 0 -11 -7 -18z m-151 -32 c0 -8
-4 -15 -9 -15 -5 0 -11 7 -15 15 -3 9 0 15 9 15 8 0 15 -7 15 -15z m369 12
c-2 -1 -13 -9 -24 -17 -19 -14 -19 -14 -6 3 7 9 18 17 24 17 6 0 8 -1 6 -3z
m1741 -10 c0 -2 -10 -12 -22 -23 l-23 -19 19 23 c18 21 26 27 26 19z m-2093
-29 c-3 -8 -6 -5 -6 6 -1 11 2 17 5 13 3 -3 4 -12 1 -19z m-19 -29 c-3 -8 -7
-3 -11 10 -4 17 -3 21 5 13 5 -5 8 -16 6 -23z m2428 5 c17 -14 17 -15 1 -10
-10 3 -25 6 -33 6 -9 0 -12 5 -9 10 9 14 18 13 41 -6z m-2364 -36 c-7 -7 -12
-8 -12 -2 0 6 3 14 7 17 3 4 9 5 12 2 2 -3 -1 -11 -7 -17z m833 12 c3 -5 1
-10 -4 -10 -6 0 -11 5 -11 10 0 6 2 10 4 10 3 0 8 -4 11 -10z m1463 -35 c-3
-3 -9 2 -12 12 -6 14 -5 15 5 6 7 -7 10 -15 7 -18z m1092 15 c0 -5 -5 -10 -11
-10 -5 0 -7 5 -4 10 3 6 8 10 11 10 2 0 4 -4 4 -10z m-3436 -32 c3 -13 6 -39
5 -58 0 -34 -1 -34 -11 -10 -12 29 -17 90 -7 90 4 0 9 -10 13 -22z m33 -50
c-2 -13 -4 -3 -4 22 0 25 2 35 4 23 2 -13 2 -33 0 -45z m170 -5 c-3 -10 -5 -2
-5 17 0 19 2 27 5 18 2 -10 2 -26 0 -35z m-704 22 c10 -4 16 -13 13 -21 -3 -7
0 -15 7 -18 9 -3 9 -7 1 -13 -6 -4 -16 -17 -22 -28 -10 -19 -11 -19 -20 5 -30
79 -26 95 21 75z m3247 -6 c0 -5 -4 -9 -10 -9 -5 0 -10 7 -10 16 0 8 5 12 10
9 6 -3 10 -10 10 -16z m-3303 -21 c-3 -7 -5 -2 -5 12 0 14 2 19 5 13 2 -7 2
-19 0 -25z m1009 -112 c-10 -23 -28 -42 -55 -55 -52 -27 -65 -26 -95 3 -20 21
-22 28 -11 42 12 17 13 16 19 -3 4 -11 15 -28 26 -38 16 -15 22 -15 35 -5 8 7
15 24 14 39 -1 24 -1 24 -10 -6 -5 -18 -14 -33 -19 -33 -14 0 -28 31 -23 51 4
13 0 19 -11 19 -9 0 -16 5 -16 10 0 17 29 23 44 10 11 -8 20 -9 35 0 12 6 21
13 21 16 0 2 -8 0 -18 -5 -13 -7 -22 -7 -30 1 -13 13 21 54 68 78 l35 18 3
-53 c2 -31 -3 -68 -12 -89z m1507 129 c-3 -9 -8 -14 -10 -11 -3 3 -2 9 2 15 9
16 15 13 8 -4z m-2073 -29 c0 -3 -4 -8 -10 -11 -5 -3 -10 -1 -10 4 0 6 5 11
10 11 6 0 10 -2 10 -4z m-270 -40 c0 -20 -17 -29 -24 -14 -4 7 -5 4 -3 -8 4
-17 0 -19 -25 -16 -36 5 -45 19 -18 27 11 4 18 11 15 16 -4 5 8 9 24 9 20 0
31 -5 31 -14z m196 -1 c-11 -8 -27 -15 -35 -15 -9 1 -2 7 14 15 39 18 44 18
21 0z m371 -30 c-4 -8 -12 -15 -19 -14 -10 0 -10 2 0 6 6 2 12 12 12 21 0 8 3
13 6 9 4 -3 4 -13 1 -22z m3023 0 c0 -5 -29 -58 -51 -93 -7 -11 -19 -18 -26
-15 -35 14 13 113 55 113 12 0 22 -2 22 -5z m-3653 -31 c-3 -3 -12 -4 -19 -1
-8 3 -5 6 6 6 11 1 17 -2 13 -5z m3683 2 c0 -3 -4 -8 -10 -11 -5 -3 -10 -1
-10 4 0 6 5 11 10 11 6 0 10 -2 10 -4z m-3015 -36 c-3 -4 1 -11 7 -13 10 -4
10 -6 0 -6 -7 -1 -15 6 -18 14 -4 8 -10 12 -15 9 -5 -3 -9 2 -9 11 0 13 4 14
20 5 11 -6 18 -15 15 -20z m36 3 c-12 -20 -14 -14 -5 12 4 9 9 14 11 11 3 -2
0 -13 -6 -23z m3649 -63 c0 -5 -4 -10 -9 -10 -6 0 -13 5 -16 10 -3 6 1 10 9
10 9 0 16 -4 16 -10z m-5238 -112 c-7 -7 -12 -8 -12 -2 0 6 3 14 7 17 3 4 9 5
12 2 2 -3 -1 -11 -7 -17z m728 -111 c0 -5 -18 6 -40 23 -22 17 -40 34 -40 36
0 8 79 -51 80 -59z m-49 -25 c-6 -2 -8 -9 -5 -14 4 -7 2 -8 -5 -4 -6 4 -9 12
-5 17 3 5 0 18 -7 27 -10 12 -7 11 9 -3 13 -11 19 -21 13 -23z m93 -27 c15 -9
15 -12 2 -30 -14 -19 -15 -19 -28 13 -8 18 -17 30 -20 27 -3 -3 -13 6 -22 19
l-16 25 34 -22 c18 -12 41 -26 50 -32z m-54 -16 c0 -5 -6 -6 -13 -3 -8 3 -14
11 -14 19 0 11 4 12 14 4 7 -6 13 -15 13 -20z m1162 -1 c-7 -7 -12 -8 -12 -2
0 6 3 14 7 17 3 4 9 5 12 2 2 -3 -1 -11 -7 -17z m3188 3 c0 -6 -4 -13 -10 -16
-5 -3 -10 -13 -10 -22 0 -9 -16 -31 -36 -49 -40 -37 -50 -77 -40 -148 5 -31
12 -46 22 -46 8 0 12 -4 9 -10 -3 -5 0 -10 8 -10 23 0 27 -25 6 -39 -11 -6
-17 -16 -13 -22 3 -6 -9 -3 -27 6 -39 20 -52 31 -26 22 11 -4 16 -3 12 4 -4 6
-13 8 -21 5 -17 -6 -146 68 -136 79 4 5 2 5 -4 2 -10 -6 -124 48 -124 59 0 2
9 4 21 4 11 0 17 -4 14 -10 -3 -5 -2 -10 4 -10 5 0 13 9 16 20 3 11 11 20 16
20 21 0 39 30 39 64 0 20 5 36 10 36 6 0 10 7 10 15 0 12 13 15 55 15 30 0 74
6 97 14 24 8 54 16 68 19 14 2 28 5 33 6 4 0 7 -3 7 -8z m-3193 -43 c-36 -35
-47 -42 -48 -32 0 6 70 64 78 64 2 0 -11 -15 -30 -32z m2832 -181 c23 -13 38
-27 34 -32 -5 -4 -3 -5 3 -2 10 6 194 -88 194 -99 0 -2 -29 -4 -64 -4 -63 0
-64 1 -61 25 3 30 -19 45 -64 45 -20 0 -31 -5 -31 -14 0 -31 -25 -36 -86 -18
l-60 17 0 40 1 40 48 3 c26 2 45 7 42 13 -9 14 -1 11 44 -14z m-2584 -57 c3
-5 -1 -10 -10 -10 -14 0 -15 -9 -9 -62 4 -35 7 -70 7 -78 0 -8 -2 -34 -4 -56
l-2 -42 -41 4 c-45 4 -43 3 23 -17 33 -10 39 -14 25 -19 -15 -6 -18 -15 -15
-50 1 -24 9 -50 17 -57 8 -8 14 -19 14 -25 0 -24 34 -48 66 -48 18 0 36 -5 39
-10 4 -6 11 -8 16 -5 9 6 11 0 13 -35 1 -8 6 -15 11 -15 6 -1 20 -6 33 -13 13
-8 76 -16 148 -19 68 -3 124 -10 124 -15 0 -5 -10 -9 -22 -8 -61 5 -172 -1
-160 -9 11 -7 10 -10 -3 -15 -27 -10 -31 -8 -98 43 -110 85 -193 117 -332 132
-49 5 -93 13 -97 17 -20 20 66 250 120 322 17 22 19 30 7 20 -16 -13 -18 -13
-13 0 2 8 14 16 25 18 11 2 33 16 48 33 29 29 59 38 70 19z m1510 -40 c11 -5
14 -9 7 -9 -7 -1 -10 -5 -7 -11 10 -17 -1 -11 -20 10 -19 21 -13 24 20 10z
m91 -35 c10 -8 15 -14 9 -14 -5 0 -19 6 -29 14 -11 8 -15 15 -10 15 6 0 19 -7
30 -15z m194 -135 c0 -20 6 -42 13 -49 10 -11 8 -11 -10 -2 -17 9 -23 21 -23
45 0 23 -7 38 -22 49 -22 15 -22 15 10 4 28 -10 32 -16 32 -47z m54 21 c3 -4
-6 -6 -19 -3 -14 2 -25 6 -25 8 0 8 39 4 44 -5z m109 2 c-7 -2 -19 -2 -25 0
-7 3 -2 5 12 5 14 0 19 -2 13 -5z m557 -23 c0 -5 10 -10 23 -10 13 0 45 -14
73 -32 84 -54 270 -137 292 -131 12 3 28 -1 37 -10 13 -14 12 -17 -18 -26 -66
-22 -205 -42 -322 -46 -66 -2 -109 -2 -95 1 49 11 45 24 -8 24 -29 0 -52 5
-52 10 0 6 -7 10 -16 10 -9 0 -18 9 -21 20 -3 11 -9 20 -14 20 -5 0 -9 16 -9
36 0 28 8 43 40 74 l39 38 -37 8 -37 8 40 6 c63 11 85 11 85 0z m-397 -7 c-7
-2 -21 -2 -30 0 -10 3 -4 5 12 5 17 0 24 -2 18 -5z m215 -10 c-32 -2 -84 -2
-115 0 -32 2 -6 3 57 3 63 0 89 -1 58 -3z m72 -28 c0 -8 -9 -15 -19 -15 -10 0
-21 -7 -25 -15 -3 -9 -19 -15 -41 -15 -32 0 -36 3 -33 23 3 18 11 23 53 28 28
3 53 6 58 7 4 1 7 -5 7 -13z m-399 -12 c13 -16 12 -17 -3 -4 -17 13 -22 21
-14 21 2 0 10 -8 17 -17z m-898 -93 l22 -25 -27 24 c-22 19 -28 33 -26 60 l1
36 4 -35 c3 -19 14 -46 26 -60z m-6271 30 l32 -19 -29 -11 c-31 -12 -101 -5
-111 11 -3 5 3 12 13 15 10 3 25 9 33 14 22 13 26 12 62 -10z m6299 -3 c-10
-9 -11 -8 -5 6 3 10 9 15 12 12 3 -3 0 -11 -7 -18z m2174 4 c-3 -6 -11 -11
-17 -11 -6 0 -6 6 2 15 14 17 26 13 15 -4z m-2081 -26 c-4 -8 -10 -13 -15 -10
-4 3 -6 12 -3 20 4 8 10 13 15 10 4 -3 6 -12 3 -20z m2033 19 c-3 -3 -12 -4
-19 -1 -8 3 -5 6 6 6 11 1 17 -2 13 -5z m-107 -24 c-8 -5 -19 -10 -25 -10 -5
0 -3 5 5 10 8 5 20 10 25 10 6 0 3 -5 -5 -10z m147 -22 c-3 -8 -6 -5 -6 6 -1
11 2 17 5 13 3 -3 4 -12 1 -19z m-2097 -9 c0 -6 -5 -7 -11 -3 -7 4 -9 0 -5
-13 4 -13 0 -25 -11 -34 -16 -13 -17 -12 -5 3 8 9 11 21 8 27 -8 13 4 42 15
35 5 -3 9 -10 9 -15z m164 -1 c3 -21 17 -39 25 -33 5 2 16 -4 26 -15 14 -15
31 -20 69 -20 34 0 59 -7 75 -19 21 -16 21 -19 7 -24 -10 -4 -15 -11 -11 -16
10 -17 -38 -35 -110 -40 -52 -5 -70 -10 -71 -21 -2 -37 -7 -43 -13 -16 -3 16
-12 31 -20 34 -11 4 -12 -4 -8 -34 6 -35 5 -36 -4 -11 l-11 27 -184 0 c-157 0
-184 -2 -184 -15 0 -12 -15 -15 -67 -17 -38 -1 -80 -1 -95 0 -25 2 -27 -2 -31
-41 -3 -40 -4 -40 -5 11 -2 47 0 52 21 53 21 2 21 2 1 6 -21 4 -21 6 -9 46 23
73 46 125 42 95 -4 -25 -1 -27 42 -32 121 -14 146 -21 156 -43 5 -13 17 -24
25 -25 8 -1 -14 -4 -50 -8 -47 -5 -19 -7 102 -8 102 -1 169 2 173 8 3 6 0 10
-7 10 -9 0 -12 13 -10 45 2 25 8 45 13 45 5 0 9 -4 9 -9 0 -11 31 -24 39 -16
3 3 1 9 -4 13 -17 12 -51 56 -37 48 7 -4 19 0 28 8 8 9 26 16 40 16 13 0 24 5
24 12 0 15 11 4 14 -14z m1896 2 c0 -5 -2 -10 -4 -10 -3 0 -8 5 -11 10 -3 6
-1 10 4 10 6 0 11 -4 11 -10z m-1075 -10 c3 -6 -1 -7 -9 -4 -18 7 -21 14 -7
14 6 0 13 -4 16 -10z m838 -19 c-15 -12 -31 -17 -45 -13 -19 5 -17 7 17 18 53
16 53 16 28 -5z m-730 -8 c-7 -2 -19 -2 -25 0 -7 3 -2 5 12 5 14 0 19 -2 13
-5z m77 -3 c-18 -11 -63 -13 -57 -2 3 4 20 8 39 9 24 2 29 0 18 -7z m567 -11
c-30 -17 -77 -29 -77 -18 0 5 10 9 23 9 12 0 29 5 37 10 8 5 20 10 25 10 6 -1
2 -5 -8 -11z m-2283 -9 c21 -8 26 -16 26 -44 0 -46 -22 -52 -70 -20 -22 15
-40 29 -40 32 0 10 35 41 47 41 6 1 23 -3 37 -9z m565 -59 c-1 -28 -4 -23 -13
22 -4 17 -11 25 -18 21 -7 -5 -8 -3 -3 6 11 18 35 -16 34 -49z m1746 49 c-3
-5 -12 -10 -19 -10 -8 0 -19 -7 -26 -15 -14 -17 -65 -21 -55 -5 3 6 14 10 24
10 10 0 32 7 47 15 34 18 37 18 29 5z m-4722 -20 c145 0 194 -2 237 -10 43 -7
42 -8 -30 -11 -154 -6 -179 -6 -173 4 4 6 1 7 -6 3 -19 -12 -191 -17 -191 -6
0 6 -12 11 -27 11 -25 2 -25 2 7 9 19 5 53 6 75 4 22 -2 70 -4 108 -4z m1742
0 c3 -5 -1 -10 -9 -10 -8 0 -18 5 -21 10 -3 6 1 10 9 10 8 0 18 -4 21 -10z
m2815 0 c0 -5 -21 -10 -48 -10 -26 0 -56 -6 -67 -14 -28 -18 -73 -28 -77 -16
-2 6 -23 14 -48 19 -43 8 -41 9 35 11 44 1 103 5 130 10 73 11 75 11 75 0z
m-2456 -16 c3 -8 2 -12 -4 -9 -6 3 -10 10 -10 16 0 14 7 11 14 -7z m-191 -75
c31 -23 57 -47 57 -52 0 -6 -8 -3 -18 6 -10 10 -26 17 -35 17 -9 0 -31 16 -48
35 -18 19 -39 35 -48 35 -9 0 -22 9 -29 20 l-13 21 38 -20 c21 -10 64 -38 96
-62z m1611 13 c-14 -104 -93 -405 -138 -527 -10 -28 -11 -44 -4 -53 8 -9 7
-11 -4 -7 -20 8 -42 -40 -28 -63 8 -15 9 -14 10 6 0 15 6 22 20 22 23 0 25
-11 8 -43 -7 -12 -14 -23 -15 -25 -1 -2 -11 1 -22 8 -12 6 -19 15 -16 20 4 6
-1 7 -11 3 -14 -5 -16 -3 -10 13 5 10 9 24 9 31 0 7 3 10 7 8 4 -2 12 10 17
28 6 18 30 86 53 152 23 66 43 129 46 140 2 11 11 49 20 85 21 83 24 178 5
189 -9 6 -10 11 -2 15 6 4 16 4 21 1 6 -4 13 7 16 24 10 48 26 24 18 -27z
m-1196 -17 c10 -9 -33 -5 -48 5 -11 8 -8 9 14 6 16 -3 31 -8 34 -11z m1015 -2
c-7 -2 -19 -2 -25 0 -7 3 -2 5 12 5 14 0 19 -2 13 -5z m-977 -35 l19 -23 -25
20 c-14 11 -27 21 -29 22 -2 2 0 3 6 3 5 0 18 -10 29 -22z m929 12 c4 -6 12
-7 18 -4 7 4 9 4 5 -1 -4 -4 -2 -15 4 -24 7 -9 -1 -5 -17 9 -17 14 -32 26 -34
28 -2 1 1 2 7 2 6 0 14 -5 17 -10z m-45 -15 c-7 -8 -17 -12 -22 -9 -6 4 -5 10
3 15 22 14 33 10 19 -6z m-47 -24 c8 -16 11 -34 8 -40 -4 -6 -12 7 -18 29 -12
47 -10 50 10 11z m-1372 2 c13 -16 12 -17 -3 -4 -10 7 -18 15 -18 17 0 8 8 3
21 -13z m632 -62 c-2 -3 -20 12 -41 34 l-37 39 41 -35 c22 -19 39 -36 37 -38z
m821 53 c9 -24 7 -27 -9 -10 -17 17 -19 26 -6 26 5 0 12 -7 15 -16z m-4836
-25 c-3 -8 -7 -3 -11 10 -4 17 -3 21 5 13 5 -5 8 -16 6 -23z m3936 23 c3 -5
-1 -9 -9 -9 -8 0 -15 4 -15 9 0 4 4 8 9 8 6 0 12 -4 15 -8z m966 -37 c0 -5 -5
-3 -10 5 -5 8 -10 20 -10 25 0 6 5 3 10 -5 5 -8 10 -19 10 -25z m-100 0 c-10
-12 -10 -18 1 -32 12 -17 12 -17 -5 -2 -15 14 -16 20 -5 37 7 12 15 19 18 17
2 -3 -2 -11 -9 -20z m-78 -30 c2 -19 0 -35 -4 -35 -4 0 -8 16 -8 35 0 19 2 35
4 35 2 0 6 -16 8 -35z m151 20 c-3 -9 -8 -14 -10 -11 -3 3 -2 9 2 15 9 16 15
13 8 -4z m-111 -60 c-6 -34 -12 -32 -12 6 0 16 4 28 9 25 4 -3 6 -17 3 -31z
m-1291 8 c13 -16 12 -17 -3 -4 -10 7 -18 15 -18 17 0 8 8 3 21 -13z m583 -1
c3 -5 -1 -9 -9 -9 -8 0 -12 4 -9 9 3 4 7 8 9 8 2 0 6 -4 9 -8z m-563 -59 c13
-16 12 -17 -3 -4 -17 13 -22 21 -14 21 2 0 10 -8 17 -17z m790 -11 c-7 -2 -18
1 -23 6 -8 8 -4 9 13 5 13 -4 18 -8 10 -11z m-4241 -6 c0 -3 -4 -8 -10 -11 -5
-3 -10 -1 -10 4 0 6 5 11 10 11 6 0 10 -2 10 -4z m3975 -24 c-3 -3 -11 0 -18
7 -9 10 -8 11 6 5 10 -3 15 -9 12 -12z m1930 -2 c10 -11 16 -20 13 -20 -3 0
-13 9 -23 20 -10 11 -16 20 -13 20 3 0 13 -9 23 -20z m-5915 -12 c0 6 5 12 10
12 6 0 10 -11 10 -25 0 -19 9 -28 47 -45 25 -11 48 -18 50 -16 3 2 14 -5 25
-16 26 -26 16 -48 -23 -48 -23 0 -40 9 -65 37 -19 20 -34 41 -34 46 0 4 -4 6
-9 3 -17 -11 -41 18 -34 42 4 18 8 20 14 10 7 -10 9 -10 9 0z m3975 -8 c-3 -5
2 -10 11 -10 10 0 15 -3 11 -6 -10 -10 -39 5 -32 16 3 5 8 10 11 10 3 0 2 -4
-1 -10z m45 -66 c0 -2 -13 2 -30 11 -16 9 -30 18 -30 21 0 2 14 -2 30 -11 17
-9 30 -18 30 -21z m2276 -166 c4 -7 3 -8 -4 -4 -7 4 -12 2 -12 -3 0 -6 9 -11
20 -11 12 0 26 -12 35 -30 9 -16 11 -30 7 -30 -5 0 -22 -19 -37 -42 -16 -24
-49 -67 -74 -95 -50 -57 -76 -65 -136 -40 l-29 13 39 45 c46 50 72 88 100 142
13 25 26 37 41 37 12 0 24 7 28 15 7 18 12 19 22 3z m-1436 -13 c0 -8 -4 -15
-10 -15 -5 0 -7 7 -4 15 4 8 8 15 10 15 2 0 4 -7 4 -15z m-35 -67 c5 4 5 1 1
-6 -6 -10 -11 -10 -22 -1 -8 6 -14 14 -14 16 0 3 6 0 13 -6 8 -6 18 -7 22 -3z
m106 -95 c13 -16 12 -17 -3 -4 -10 7 -18 15 -18 17 0 8 8 3 21 -13z m273 5
c-5 -8 36 -34 49 -30 4 1 7 -6 8 -15 0 -15 2 -15 9 2 8 18 9 19 9 1 1 -12 6
-16 16 -12 8 3 15 0 15 -7 0 -8 4 -6 10 3 6 10 10 11 10 3 0 -7 7 -13 15 -13
8 0 15 -4 15 -10 0 -5 11 -10 25 -10 14 0 25 -4 25 -10 0 -5 11 -10 25 -10 14
0 25 5 25 10 0 6 5 10 10 10 6 0 10 -9 10 -20 0 -18 7 -20 60 -20 33 0 60 -4
60 -10 0 -5 15 -10 34 -10 28 0 36 -5 46 -30 12 -28 16 -30 66 -30 30 0 54 -4
54 -10 0 -5 18 -10 40 -10 33 0 40 -3 40 -20 0 -13 7 -20 19 -20 11 0 21 -5
23 -11 2 -6 17 -11 33 -11 17 0 33 -4 36 -9 9 -15 80 -14 89 0 5 9 10 9 14 3
11 -18 -188 -74 -252 -71 -27 1 -27 1 3 8 37 8 50 51 16 51 -14 0 -21 6 -21
20 0 13 -7 20 -20 20 -11 0 -20 -7 -20 -15 0 -12 -14 -15 -69 -15 -37 0 -96
-3 -130 -6 -54 -6 -60 -9 -49 -23 7 -9 1 -5 -14 7 -22 20 -32 23 -60 16 -45
-11 -45 -10 -144 48 l-86 51 30 28 c27 25 50 66 40 73 -1 1 -34 26 -71 55 -63
50 -69 52 -86 37 -15 -13 -18 -14 -18 -1 0 8 4 12 8 9 4 -2 10 0 14 5 3 5 14
9 25 8 10 -1 17 -4 14 -9z m-192 -25 c18 -16 18 -16 12 0 -4 13 -1 17 15 17
25 0 26 -6 5 -27 -13 -14 -19 -14 -36 -4 -18 11 -20 11 -15 -3 6 -15 4 -15
-18 0 -31 20 -31 24 -3 16 14 -3 19 -2 14 6 -11 18 5 14 26 -5z m115 -2 c11
-17 8 -23 -18 -45 -36 -30 -38 -31 -64 -9 -16 13 -17 15 -2 10 12 -5 17 -1 17
14 0 44 46 64 67 30z m-4933 -27 c3 -8 2 -12 -4 -9 -6 3 -10 10 -10 16 0 14 7
11 14 -7z m4606 -34 c0 -5 -4 -12 -10 -15 -6 -4 -7 1 -4 12 5 16 4 16 -10 -1
-16 -19 -20 -36 -17 -66 1 -11 -2 -10 -10 3 -8 14 -7 26 4 50 9 17 13 35 10
40 -3 5 4 4 16 -2 11 -7 21 -16 21 -21z m-4566 -35 c3 -8 1 -15 -3 -15 -5 0
-11 7 -15 15 -3 8 -1 15 3 15 5 0 11 -7 15 -15z m4671 -45 c15 -24 12 -34 -18
-52 -37 -24 -39 -23 -19 12 9 16 21 30 26 30 5 0 1 9 -9 20 -10 11 -22 17 -28
13 -6 -3 -7 -1 -3 6 9 13 32 0 51 -29z m-117 -65 c-3 -3 -9 2 -12 12 -6 14 -5
15 5 6 7 -7 10 -15 7 -18z m-142 -73 c-18 -16 -18 -16 -6 6 6 13 14 21 18 18
3 -4 -2 -14 -12 -24z m627 -83 c35 -25 48 -29 78 -24 70 12 49 -13 -24 -28
-106 -23 -127 -25 -127 -16 0 5 6 9 13 9 8 0 7 4 -3 11 -11 8 -1 9 38 6 28 -2
52 -1 52 3 0 11 -30 34 -30 24 0 -5 -7 0 -15 10 -8 11 -15 17 -15 13 0 -4 -9
2 -20 13 -11 11 -31 22 -45 26 -14 3 -25 10 -25 15 0 12 70 -24 123 -62z m207
61 c0 -5 -2 -10 -4 -10 -3 0 -8 5 -11 10 -3 6 -1 10 4 10 6 0 11 -4 11 -10z
m625 0 c-3 -5 -13 -10 -20 -10 -9 0 -12 -6 -8 -16 4 -10 -1 -20 -11 -26 -11
-6 -15 -16 -11 -29 5 -16 1 -19 -24 -19 -24 0 -31 -4 -31 -20 0 -17 -7 -20
-38 -20 -30 0 -45 -7 -68 -31 -31 -32 -97 -69 -124 -69 -14 0 -60 -34 -60 -45
0 -25 17 -35 61 -35 27 0 49 4 49 9 0 5 12 11 28 14 46 9 176 44 202 55 14 6
57 20 96 31 55 16 71 25 70 38 0 11 6 17 17 17 12 -1 17 6 17 27 0 27 40 79
60 79 6 0 10 -18 10 -39 0 -33 -7 -46 -45 -84 -25 -25 -45 -43 -45 -39 0 3
-16 -12 -35 -34 -19 -21 -33 -45 -30 -52 3 -7 1 -11 -3 -8 -13 8 -44 -22 -36
-35 4 -7 3 -10 -3 -6 -6 4 -19 -3 -29 -14 -19 -21 -97 -59 -121 -59 -7 0 -30
-8 -51 -19 -20 -10 -76 -29 -124 -42 -48 -13 -85 -26 -82 -30 5 -8 85 1 99 11
24 18 209 44 199 28 -3 -4 -31 -23 -63 -43 -46 -28 -58 -41 -54 -56 3 -10 13
-19 23 -19 21 0 44 -25 36 -39 -8 -12 -82 -48 -118 -56 -15 -4 -32 -13 -39
-21 -13 -16 -148 -19 -214 -5 -22 5 -79 12 -127 16 -73 6 -88 10 -88 23 0 14
-2 15 -10 2 -14 -23 -52 4 -72 52 -10 23 -21 39 -24 36 -3 -4 2 -20 11 -37 8
-17 14 -31 11 -31 -13 0 -77 32 -72 37 3 3 0 15 -5 26 -7 11 -14 15 -18 9 -4
-6 -24 -3 -57 9 -39 15 -53 25 -56 44 l-5 24 38 -20 c33 -16 39 -17 46 -4 7
12 15 12 51 2 24 -7 41 -15 38 -17 -2 -3 38 -3 90 -2 109 4 133 -1 114 -23
-11 -13 -8 -15 16 -15 16 0 40 3 54 7 l25 7 -25 7 c-14 4 25 6 85 4 83 -4 103
-2 80 5 -16 6 -113 15 -215 20 -102 5 -209 14 -239 19 -29 6 -65 9 -80 6 -17
-3 -35 2 -47 11 -18 15 -18 15 0 10 16 -6 17 -4 6 9 -7 8 -19 15 -27 15 -8 0
-11 5 -8 10 4 6 1 9 -7 8 -7 -2 -12 3 -11 9 2 7 0 12 -5 10 -4 -1 -7 0 -8 3 0
3 -6 15 -13 27 -9 18 -8 30 4 59 19 45 9 65 -44 89 -24 10 -49 32 -61 52 -25
43 -25 43 8 34 26 -7 201 1 310 14 49 6 53 5 48 -12 -4 -13 8 -29 40 -56 55
-47 63 -46 169 25 43 29 92 62 109 73 17 10 33 23 34 28 2 4 11 2 20 -5 9 -8
13 -8 9 -1 -5 7 12 13 56 18 120 12 240 36 306 59 36 13 67 24 69 25 2 1 0 -3
-3 -9z m-1487 -20 c-7 -11 -17 -20 -22 -20 -5 0 -1 9 9 20 10 11 20 20 22 20
2 0 -2 -9 -9 -20z m1754 -22 c-7 -7 -12 -8 -12 -2 0 14 12 26 19 19 2 -3 -1
-11 -7 -17z m-932 2 c0 -5 -8 -10 -17 -10 -15 0 -16 2 -3 10 19 12 20 12 20 0z
m40 -10 c-24 -15 -36 -11 -14 4 10 8 21 12 24 10 2 -3 -2 -9 -10 -14z m311 2
c-13 -2 -27 0 -32 5 -6 6 3 7 23 4 28 -4 29 -6 9 -9z m-157 -4 c-3 -4 -11 -5
-19 -1 -21 7 -19 12 4 10 11 0 18 -5 15 -9z m89 -5 c-7 -2 -21 -2 -30 0 -10 3
-4 5 12 5 17 0 24 -2 18 -5z m-1133 -7 c0 -2 -7 -9 -15 -16 -13 -11 -14 -10
-9 4 5 14 24 23 24 12z m840 -10 c-7 -7 -13 -7 -20 0 -6 6 -3 10 10 10 13 0
16 -4 10 -10z m-875 -36 c-3 -5 -11 -10 -16 -10 -6 0 -7 5 -4 10 3 6 11 10 16
10 6 0 7 -4 4 -10z m325 -11 c0 -7 37 -10 110 -8 60 1 113 0 116 -3 3 -4 -32
-9 -78 -13 -76 -6 -139 -2 -160 11 -11 7 -10 24 2 24 6 0 10 -5 10 -11z m-261
-41 c19 -10 42 -16 52 -13 13 4 36 -5 67 -25 30 -20 54 -29 68 -26 13 4 32 -2
47 -14 14 -11 36 -19 49 -19 12 1 32 -2 42 -6 13 -6 17 -5 13 2 -5 7 0 9 13 6
11 -3 23 -10 26 -15 4 -6 -2 -8 -15 -3 -12 3 -21 2 -21 -4 0 -5 14 -12 31 -16
33 -8 33 -1 12 -91 -3 -13 5 -32 21 -51 26 -31 26 -31 9 -65 -10 -18 -18 -34
-19 -36 -1 -1 -21 9 -45 22 -43 24 -278 99 -352 112 -50 9 -60 29 -42 89 20
65 20 67 -20 115 -45 54 -46 71 -2 64 17 -4 47 -15 66 -26z m718 26 c-3 -3
-12 -4 -19 -1 -8 3 -5 6 6 6 11 1 17 -2 13 -5z m-625 -20 c20 -9 39 -23 42
-30 3 -9 -6 -6 -24 7 -18 14 -38 20 -54 17 -14 -3 -30 0 -35 6 -16 19 29 18
71 0z m183 -14 c3 -6 -1 -7 -9 -4 -18 7 -21 14 -7 14 6 0 13 -4 16 -10z m-412
-25 c-3 -9 -8 -14 -10 -11 -3 3 -2 9 2 15 9 16 15 13 8 -4z m-3443 -13 c0 -4
16 -14 35 -21 19 -7 35 -19 35 -27 0 -8 5 -12 10 -9 6 3 8 18 5 33 l-5 27 10
-25 c23 -51 9 -157 -36 -283 -13 -38 -24 -80 -24 -94 0 -33 9 -25 20 19 15 57
72 205 66 169 l-6 -33 37 7 c39 7 109 59 119 88 3 9 11 17 19 17 7 0 20 6 27
13 16 16 48 29 48 19 0 -4 -37 -41 -81 -82 -82 -75 -212 -223 -243 -276 -16
-27 -85 -84 -101 -84 -4 0 -4 7 -1 16 3 9 -3 27 -14 41 -21 27 -26 45 -11 41
5 -2 9 2 8 7 0 6 -10 9 -21 7 -17 -2 -18 -1 -6 7 14 10 7 15 -13 12 -5 -1 -6
2 -3 7 6 10 -54 48 -69 43 -5 -1 -7 0 -4 4 4 3 -15 27 -42 52 -27 25 -47 48
-44 51 3 3 11 0 17 -6 22 -22 29 -12 13 18 -14 27 -14 30 0 30 8 0 15 8 16 18
1 9 2 25 3 36 0 10 11 22 24 27 27 10 27 12 2 -36 -20 -39 -20 -40 -1 -59 13
-12 26 -16 38 -12 17 7 17 8 -4 24 -20 16 -21 19 -7 57 17 48 16 46 3 43 -6
-2 -14 3 -16 10 -3 7 4 12 16 12 15 0 21 6 21 21 0 15 5 19 15 15 10 -4 15 -1
13 8 -5 25 44 55 90 56 23 0 42 -4 42 -8z m3767 2 c-3 -3 -12 -4 -19 -1 -8 3
-5 6 6 6 11 1 17 -2 13 -5z m-367 -44 c-12 -17 -24 -29 -27 -26 -6 5 40 65 46
60 2 -1 -7 -17 -19 -34z m445 20 c3 -5 1 -10 -4 -10 -6 0 -11 5 -11 10 0 6 2
10 4 10 3 0 8 -4 11 -10z m-501 -85 c-31 -24 -39 -17 -13 11 13 14 25 20 27
14 2 -6 -4 -18 -14 -25z m-3769 -5 c10 -11 16 -20 13 -20 -3 0 -13 9 -23 20
-10 11 -16 20 -13 20 3 0 13 -9 23 -20z m3795 -10 c0 -5 -8 -10 -17 -10 -15 0
-16 2 -3 10 19 12 20 12 20 0z m-3715 -70 c10 -11 16 -20 13 -20 -3 0 -13 9
-23 20 -10 11 -16 20 -13 20 3 0 13 -9 23 -20z m5242 -156 c-3 -3 -12 -4 -19
-1 -8 3 -5 6 6 6 11 1 17 -2 13 -5z m-737 -66 c0 -15 -25 -8 -55 17 l-30 25
43 -16 c23 -10 42 -21 42 -26z m880 -77 c0 -11 6 -21 13 -24 6 -2 -14 -7 -47
-11 -62 -8 -76 -1 -76 37 0 14 9 17 55 17 48 0 55 -3 55 -19z m-5325 -21 c3
-6 -1 -7 -9 -4 -18 7 -21 14 -7 14 6 0 13 -4 16 -10z m5900 -218 c-13 -13 -16
-13 -9 -2 5 8 9 18 10 23 4 19 6 21 11 9 3 -8 -3 -21 -12 -30z"/>
<path d="M6835 4719 c-17 -51 -15 -76 3 -42 12 22 26 93 19 93 -3 0 -13 -23
-22 -51z"/>
<path d="M6782 4536 c-21 -36 -19 -50 3 -20 9 13 10 9 7 -21 -3 -26 -1 -36 7
-31 7 5 11 -1 11 -14 0 -12 5 -18 10 -15 13 8 13 52 -1 61 -6 3 -9 17 -6 30 8
42 -9 47 -31 10z"/>
<path d="M6676 4474 c-9 -23 -8 -24 19 -24 29 0 31 6 11 26 -18 18 -22 18 -30
-2z"/>
<path d="M6944 4411 c5 -7 1 -9 -8 -5 -9 3 -16 2 -16 -4 0 -10 33 -22 60 -22
12 0 12 2 2 9 -8 4 -13 12 -12 17 0 5 -6 11 -16 12 -10 3 -14 0 -10 -7z"/>
<path d="M6781 4342 c-6 -15 -11 -41 -10 -57 1 -17 -2 -38 -6 -47 -4 -11 -3
-18 4 -18 6 0 11 3 11 8 0 4 11 20 25 36 26 31 31 41 15 31 -13 -8 -13 1 0 26
8 15 7 23 -4 34 -20 20 -22 19 -35 -13z"/>
<path d="M6758 4123 c10 -4 8 -9 -7 -20 -12 -8 -21 -18 -21 -24 0 -15 30 -10
36 6 3 8 14 17 25 20 30 10 22 25 -13 24 -18 0 -27 -3 -20 -6z"/>
<path d="M7696 4013 c9 -51 20 -60 86 -67 55 -6 58 -5 64 18 9 35 -2 46 -45
46 -23 0 -48 8 -64 20 -38 30 -49 26 -41 -17z"/>
<path d="M6820 4001 c13 -25 13 -54 0 -46 -6 4 -9 -10 -7 -36 2 -24 8 -44 14
-46 9 -3 9 5 2 29 -12 43 -12 43 7 27 13 -11 15 -9 10 14 -3 15 -8 38 -11 52
-3 14 -10 25 -16 25 -6 0 -6 -6 1 -19z"/>
<path d="M6953 3946 c2 -5 9 -12 17 -14 7 -3 10 0 6 7 -5 7 -1 9 9 4 12 -4 13
-8 5 -13 -17 -10 4 -22 24 -14 14 5 13 9 -7 24 -24 18 -60 23 -54 6z"/>
<path d="M6930 3930 c0 -5 -7 -10 -15 -10 -25 0 -17 -18 15 -35 24 -12 35 -13
51 -4 21 11 21 11 -7 35 -32 25 -44 29 -44 14z"/>
<path d="M7563 3840 c-6 -22 -44 -27 -87 -10 -16 6 -27 6 -31 0 -4 -6 -1 -10
5 -10 6 0 16 -11 22 -25 7 -16 19 -25 34 -25 13 0 26 -4 29 -10 10 -16 45 -12
52 6 3 8 1 20 -6 27 -19 19 -12 31 7 14 39 -36 86 -9 59 33 -17 28 -77 28 -84
0z"/>
<path d="M7455 3610 c-3 -5 -2 -10 4 -10 5 0 13 5 16 10 3 6 2 10 -4 10 -5 0
-13 -4 -16 -10z"/>
<path d="M6137 4513 c-4 -3 -7 -27 -7 -53 0 -25 -5 -51 -12 -58 -8 -8 -8 -12
-1 -12 6 0 8 -12 5 -27 -2 -16 -1 -25 3 -21 5 5 25 178 19 178 0 0 -4 -3 -7
-7z"/>
<path d="M6140 4326 c0 -24 19 -66 30 -66 13 0 13 23 -2 55 -12 27 -28 33 -28
11z"/>
<path d="M5736 3931 c-4 -5 -2 -12 3 -15 5 -4 12 -2 15 3 4 5 2 12 -3 15 -5 4
-12 2 -15 -3z"/>
<path d="M5288 2740 c14 -24 18 -26 23 -12 8 20 1 35 -12 27 -5 -4 -9 -1 -9 4
0 6 -4 11 -10 11 -5 0 -1 -13 8 -30z"/>
<path d="M5325 2690 c3 -5 8 -10 11 -10 2 0 4 5 4 10 0 6 -5 10 -11 10 -5 0
-7 -4 -4 -10z"/>
<path d="M5196 2679 c-3 -8 -17 -48 -32 -89 -35 -101 -39 -120 -23 -120 7 0
10 2 7 5 -3 3 10 51 28 107 19 56 32 104 29 106 -2 3 -7 -1 -9 -9z"/>
<path d="M7828 2623 c7 -3 16 -2 19 1 4 3 -2 6 -13 5 -11 0 -14 -3 -6 -6z"/>
<path d="M6730 2325 c0 -9 6 -15 13 -14 29 4 48 -2 41 -12 -5 -8 9 -9 47 -4
75 10 97 25 26 18 -51 -5 -57 -4 -51 11 5 13 -1 16 -35 16 -30 0 -41 -4 -41
-15z"/>
<path d="M6208 2253 c17 -2 47 -2 65 0 17 2 3 4 -33 4 -36 0 -50 -2 -32 -4z"/>
<path d="M7091 2254 c0 -11 3 -14 6 -6 3 7 2 16 -1 19 -3 4 -6 -2 -5 -13z"/>
<path d="M8110 1200 c0 -5 5 -10 11 -10 5 0 7 5 4 10 -3 6 -8 10 -11 10 -2 0
-4 -4 -4 -10z"/>
<path d="M7788 1143 c7 -3 16 -2 19 1 4 3 -2 6 -13 5 -11 0 -14 -3 -6 -6z"/>
<path d="M2990 666 c0 -3 9 -10 20 -16 11 -6 20 -8 20 -6 0 3 -9 10 -20 16
-11 6 -20 8 -20 6z"/>
<path d="M2329 5042 c5 -9 19 -26 31 -37 12 -10 44 -50 72 -87 61 -83 71 -84
195 -29 138 61 126 64 180 -41 8 -16 21 -28 29 -28 7 0 76 23 151 51 132 49
253 112 318 165 l30 24 -508 0 c-482 0 -507 -1 -498 -18z"/>
<path d="M4316 5048 c-3 -7 -7 -39 -9 -70 -5 -55 -4 -58 17 -58 13 0 44 19 72
44 27 24 63 55 79 70 l30 25 -93 1 c-66 0 -94 -4 -96 -12z"/>
<path d="M4935 4988 c-73 -60 -98 -88 -140 -158 -27 -46 -66 -102 -87 -123
-20 -21 -30 -36 -22 -33 19 7 26 -9 9 -24 -7 -6 -12 -17 -9 -23 2 -7 -4 -55
-14 -106 -14 -68 -15 -89 -6 -75 7 10 19 26 26 34 7 8 14 27 14 43 2 37 34
108 48 106 20 -4 49 13 36 21 -17 11 56 55 275 165 110 55 200 105 200 110 0
30 32 73 71 99 25 15 43 31 40 33 -3 3 -17 -2 -31 -11 -18 -12 -24 -13 -23 -4
2 10 -32 14 -147 16 l-150 2 -90 -72z"/>
<path d="M5851 4259 c-7 -12 -10 -23 -8 -26 3 -3 11 5 17 17 15 28 8 35 -9 9z"/>
<path d="M4395 3371 c3 -19 16 -58 29 -87 l24 -52 -63 -37 c-57 -34 -64 -41
-75 -84 -6 -25 -16 -54 -22 -65 -7 -14 -6 -17 4 -14 7 3 16 20 19 39 12 65 27
86 83 118 65 37 72 46 55 67 -7 8 -23 45 -36 82 -14 40 -21 53 -18 33z"/>
<path d="M4737 3278 c-5 -32 -19 -73 -32 -92 l-24 -36 22 -11 c12 -6 35 -23
50 -38 19 -18 26 -20 22 -9 -4 10 -22 27 -41 39 l-34 21 26 43 c19 34 24 55
22 92 l-3 48 -8 -57z"/>
<path d="M4762 3300 c0 -14 2 -19 5 -12 2 6 2 18 0 25 -3 6 -5 1 -5 -13z"/>
<path d="M128 3240 c-61 -69 -89 -116 -81 -136 11 -29 43 -12 100 54 75 84 89
108 72 128 -20 24 -36 16 -91 -46z"/>
<path d="M4800 3119 c0 -5 5 -7 10 -4 6 3 10 8 10 11 0 2 -4 4 -10 4 -5 0 -10
-5 -10 -11z"/>
<path d="M323 3033 c-20 -7 -15 -46 13 -107 27 -59 41 -67 67 -38 22 24 22 27
-10 94 -27 55 -39 64 -70 51z"/>
<path d="M5038 2992 c-18 -17 -30 -33 -26 -37 3 -3 21 7 40 23 18 17 30 33 26
37 -3 3 -21 -7 -40 -23z"/>
<path d="M4760 3006 c0 -2 8 -10 18 -17 15 -13 16 -12 3 4 -13 16 -21 21 -21
13z"/>
<path d="M4968 2993 c-29 -34 -30 -48 -2 -21 15 15 26 30 23 33 -3 3 -13 -3
-21 -12z"/>
<path d="M4790 2966 c0 -2 8 -10 18 -17 15 -13 16 -12 3 4 -13 16 -21 21 -21
13z"/>
<path d="M4169 2910 c-13 -10 -20 -19 -16 -20 4 0 17 9 29 20 28 26 17 26 -13
0z"/>
<path d="M4850 2916 c0 -2 8 -10 18 -17 15 -13 16 -12 3 4 -13 16 -21 21 -21
13z"/>
<path d="M8831 2563 c-33 -107 -31 -187 5 -138 27 37 42 122 28 159 -10 25
-20 19 -33 -21z"/>
<path d="M5310 2209 c0 -100 60 -338 104 -415 10 -16 14 -20 10 -9 -56 157
-77 236 -90 329 -15 109 -24 143 -24 95z"/>
<path d="M8850 2194 c0 -14 -4 -33 -9 -42 -9 -18 2 -62 16 -62 4 0 8 29 9 65
1 36 -3 65 -8 65 -4 0 -8 -12 -8 -26z"/>
<path d="M8991 1934 c0 -11 3 -14 6 -6 3 7 2 16 -1 19 -3 4 -6 -2 -5 -13z"/>
<path d="M5537 1833 c-4 -6 1 -51 10 -99 9 -49 18 -84 20 -79 6 18 -23 190
-30 178z"/>
<path d="M8956 1821 c-3 -5 1 -12 10 -15 25 -10 34 -7 34 9 0 16 -35 21 -44 6z"/>
<path d="M5440 1740 c6 -11 13 -20 16 -20 2 0 0 9 -6 20 -6 11 -13 20 -16 20
-2 0 0 -9 6 -20z"/>
<path d="M338 1417 c-26 -22 -92 -146 -83 -155 9 -10 42 29 61 71 10 23 27 55
37 70 25 36 18 42 -15 14z"/>
<path d="M5672 1262 c1 -21 7 -32 19 -35 17 -5 18 -3 2 27 -21 42 -22 42 -21
8z"/>
<path d="M5743 1145 c14 -27 33 -59 42 -70 9 -11 2 7 -16 40 -40 75 -60 98
-26 30z"/>
<path d="M5681 1064 c0 -11 3 -14 6 -6 3 7 2 16 -1 19 -3 4 -6 -2 -5 -13z"/>
<path d="M3498 213 c7 -3 16 -2 19 1 4 3 -2 6 -13 5 -11 0 -14 -3 -6 -6z"/>
</g>
</svg>
