<?xml version="1.0" standalone="no"?>
<!DOCTYPE svg PUBLIC "-//W3C//DTD SVG 20010904//EN"
 "http://www.w3.org/TR/2001/REC-SVG-20010904/DTD/svg10.dtd">
<svg version="1.0" xmlns="http://www.w3.org/2000/svg"
 width="900.000000pt" height="506.000000pt" viewBox="0 0 900.000000 506.000000"
 preserveAspectRatio="xMidYMid meet">

<g transform="translate(0.000000,506.000000) scale(0.100000,-0.100000)"
fill="#000000" stroke="none">
<path d="M38 5053 c7 -3 16 -2 19 1 4 3 -2 6 -13 5 -11 0 -14 -3 -6 -6z"/>
<path d="M5125 4991 c-6 -11 9 -23 19 -14 9 9 7 23 -3 23 -6 0 -12 -4 -16 -9z"/>
<path d="M7105 4954 c-169 -27 -280 -87 -410 -226 -64 -68 -205 -262 -217
-300 -3 -7 -80 21 -199 71 -251 108 -429 167 -562 187 -100 16 -108 16 -133
-1 -23 -15 -26 -22 -22 -59 6 -46 50 -145 100 -222 50 -77 246 -281 391 -405
l127 -111 -22 -41 c-27 -48 -90 -114 -121 -127 -19 -7 -17 -9 15 -9 20 -1 48
3 62 9 24 9 26 7 26 -18 0 -15 -6 -37 -14 -48 -12 -17 -37 -118 -36 -148 0 -6
18 9 40 34 l39 45 1 -31 c0 -24 4 -31 17 -30 15 1 19 -11 24 -69 8 -83 25
-125 73 -180 l36 -40 1 35 c1 19 2 40 4 45 1 6 3 50 3 98 2 80 4 88 20 83 15
-5 19 4 29 75 5 44 15 85 20 90 17 17 39 0 61 -47 l22 -45 -20 -26 c-37 -47
-21 -51 24 -7 30 30 52 44 70 44 40 0 139 -98 172 -169 14 -31 38 -69 53 -84
l26 -28 6 28 c5 25 7 26 14 9 11 -26 -8 -95 -56 -193 -38 -79 -39 -84 -24
-112 8 -17 20 -33 26 -37 7 -4 3 7 -7 25 l-19 32 58 112 c32 62 57 120 57 129
0 20 38 33 70 23 29 -9 53 -36 120 -135 96 -142 179 -183 347 -174 139 7 183
-16 183 -96 0 -34 -38 -126 -66 -159 -58 -70 -219 -151 -399 -202 -110 -31
-132 -34 -260 -34 -95 0 -150 4 -172 14 -18 7 -58 44 -90 82 l-58 70 -12 -113
c-31 -293 -52 -377 -120 -491 -28 -47 -73 -87 -97 -87 -3 0 -26 18 -51 40 -56
49 -64 48 -155 -24 -105 -83 -108 -85 -490 -265 -201 -95 -374 -180 -384 -189
-46 -41 -139 -272 -240 -596 -46 -147 -128 -325 -256 -556 -56 -101 -58 -103
-194 -280 l-89 -115 177 -3 c145 -2 180 0 200 13 21 14 25 14 36 0 9 -11 32
-15 80 -15 l67 0 42 87 c24 49 55 104 69 123 15 19 26 38 24 42 -1 5 1 7 6 5
13 -4 64 42 57 53 -3 5 -1 10 4 10 6 0 11 -4 11 -8 0 -4 12 -9 28 -10 l27 -2
-25 13 c-13 7 -31 24 -38 37 -13 23 -12 32 19 99 31 67 41 79 134 153 100 81
156 113 180 105 6 -3 17 9 24 28 37 103 169 128 221 43 11 -18 20 -45 20 -60
0 -23 4 -27 29 -26 57 2 141 -47 141 -81 0 -8 17 -32 37 -53 l38 -39 -38 -112
c-21 -62 -61 -174 -88 -250 -27 -75 -49 -142 -49 -147 0 -7 423 -10 1212 -10
l1211 0 -18 20 c-13 15 -20 45 -26 113 -4 50 -16 145 -28 211 -23 130 -27 249
-10 311 26 95 24 123 -16 201 l-38 73 14 68 c35 172 3 668 -51 790 -54 123
-153 189 -303 203 -51 5 -110 15 -132 22 -35 12 -40 18 -48 54 -12 62 -46 94
-100 94 -24 0 -65 -7 -91 -16 l-48 -16 -35 33 c-108 105 -95 230 49 452 44 67
58 75 58 30 0 -12 5 -23 10 -23 6 0 10 5 10 10 0 6 15 35 34 65 31 47 41 55
88 69 57 16 164 86 161 104 -3 11 41 7 61 -5 6 -4 30 -10 53 -15 24 -4 63 -12
88 -16 25 -5 53 -16 63 -25 10 -9 89 -37 176 -62 131 -37 173 -45 242 -45 101
0 173 14 216 44 73 49 43 115 -137 291 -185 183 -288 275 -299 268 -5 -3 -6
-1 -2 5 9 15 -74 74 -96 69 -13 -4 -8 8 17 46 36 54 42 76 25 93 -7 7 4 41 34
105 81 172 110 292 109 459 0 135 -18 222 -68 325 -51 106 -194 257 -350 372
-89 65 -275 152 -375 174 -103 22 -299 24 -435 3z m421 -13 c185 -38 394 -163
574 -341 l88 -87 7 -95 c8 -104 -5 -258 -30 -352 -9 -33 -13 -66 -10 -73 2 -8
1 -12 -4 -9 -5 3 -13 -11 -19 -32 -17 -60 -40 -119 -72 -181 -16 -32 -26 -61
-23 -65 4 -3 2 -6 -3 -6 -6 0 -27 -23 -49 -51 -42 -55 -55 -58 -128 -25 -18 8
-42 17 -55 21 -16 5 -22 12 -17 22 4 13 3 13 -8 4 -10 -8 -22 -8 -46 0 -34 12
-37 18 -18 39 6 8 2 6 -11 -5 -22 -18 -23 -18 -200 69 -310 153 -679 356 -750
412 -2 1 1 13 8 26 10 21 10 22 -4 5 -12 -15 -18 -16 -35 -7 -16 8 -106 68
-159 106 -2 1 1 13 8 26 10 21 10 21 -3 6 -19 -24 -26 -22 -66 10 l-33 28 47
80 c111 182 244 327 371 402 97 58 245 87 444 90 69 1 136 -5 196 -17z m-1668
-297 c109 -32 239 -81 430 -161 142 -61 152 -67 138 -82 -9 -10 -21 -33 -27
-52 -7 -19 -27 -51 -46 -72 -44 -50 -45 -93 -2 -137 50 -49 277 -229 350 -275
36 -24 162 -98 280 -165 118 -67 226 -133 241 -147 16 -15 31 -22 39 -18 7 5
10 4 5 -3 -3 -6 10 -23 30 -39 20 -15 57 -45 82 -65 25 -20 49 -35 54 -32 5 3
7 1 6 -4 -4 -14 183 -162 195 -155 6 3 7 2 4 -4 -8 -13 184 -167 197 -158 3 3
4 2 2 -1 -3 -3 4 -15 14 -26 10 -11 20 -28 23 -37 4 -15 -4 -18 -49 -20 -123
-5 -315 67 -551 205 -18 11 -91 54 -163 96 -72 42 -128 73 -126 69 3 -4 -1 -8
-8 -8 -8 0 -12 6 -9 14 7 17 -13 17 -21 1 -3 -7 -4 -5 -3 4 3 24 -103 91 -121
76 -9 -8 -11 -7 -6 5 6 17 -30 42 -46 32 -6 -4 -9 -1 -8 6 2 6 -3 14 -11 17
-9 3 -11 0 -6 -8 5 -9 4 -11 -4 -6 -6 4 -9 11 -6 16 5 9 -62 53 -82 53 -7 0
-13 4 -13 8 0 9 -52 42 -67 42 -7 0 -13 4 -13 8 0 5 -13 15 -29 24 -16 8 -35
20 -43 28 -7 7 -49 39 -93 72 -177 130 -232 174 -349 275 -138 121 -337 329
-380 398 -38 61 -96 191 -96 218 0 40 19 46 115 39 49 -4 127 -18 173 -31z
m2376 -215 c3 -3 -4 -5 -14 -6 -11 -1 -20 2 -20 7 0 8 25 8 34 -1z m73 -221
c-3 -7 -5 -2 -5 12 0 14 2 19 5 13 2 -7 2 -19 0 -25z m-200 -500 c-3 -7 -5 -2
-5 12 0 14 2 19 5 13 2 -7 2 -19 0 -25z m136 -13 c-3 -9 -8 -14 -10 -11 -3 3
-2 9 2 15 9 16 15 13 8 -4z m-1976 -3 c16 -10 35 -62 23 -62 -5 0 -14 9 -20
20 -6 11 -15 20 -21 20 -15 0 -39 -26 -39 -44 0 -8 -4 -18 -10 -21 -17 -11
-11 28 10 63 20 32 34 38 57 24z m1945 -54 c-8 -8 -9 -4 -5 13 4 13 8 18 11
10 2 -7 -1 -18 -6 -23z m-1297 -248 c3 -6 -1 -7 -9 -4 -18 7 -21 14 -7 14 6 0
13 -4 16 -10z m750 -28 c-3 -3 -11 0 -18 7 -9 10 -8 11 6 5 10 -3 15 -9 12
-12z m-575 -72 c8 -5 11 -10 5 -10 -5 0 -17 5 -25 10 -8 5 -10 10 -5 10 6 0
17 -5 25 -10z m1364 -186 c5 -14 4 -15 -9 -4 -17 14 -19 20 -6 20 5 0 12 -7
15 -16z m-314 -74 c0 -5 -2 -10 -4 -10 -3 0 -8 5 -11 10 -3 6 -1 10 4 10 6 0
11 -4 11 -10z m70 -40 c0 -5 -2 -10 -4 -10 -3 0 -8 5 -11 10 -3 6 -1 10 4 10
6 0 11 -4 11 -10z m-10 -92 c33 -11 33 -11 10 -20 -12 -5 -25 -6 -28 -3 -3 3
1 5 9 5 8 1 3 7 -11 15 -31 18 -24 19 20 3z m-353 -14 c-3 -3 -12 -4 -19 -1
-8 3 -5 6 6 6 11 1 17 -2 13 -5z m518 -54 c3 -5 2 -10 -4 -10 -5 0 -13 5 -16
10 -3 6 -2 10 4 10 5 0 13 -4 16 -10z m-18 -36 c-3 -3 -12 -4 -19 -1 -8 3 -5
6 6 6 11 1 17 -2 13 -5z m-97 -34 c8 -5 11 -10 5 -10 -5 0 -17 5 -25 10 -8 5
-10 10 -5 10 6 0 17 -5 25 -10z m435 0 c-3 -5 -12 -10 -18 -10 -7 0 -6 4 3 10
19 12 23 12 15 0z m-1953 -357 c36 -18 62 -23 129 -23 114 0 202 21 325 76
113 50 140 51 131 6 -30 -156 -31 -160 -19 -200 7 -22 28 -59 47 -82 19 -23
35 -45 35 -48 0 -4 -58 -29 -128 -57 -147 -58 -274 -117 -309 -145 -13 -10
-63 -54 -110 -97 -158 -145 -281 -222 -353 -223 -41 0 -115 -32 -147 -62 -17
-16 -23 -33 -23 -62 0 -72 -8 -84 -79 -123 -36 -20 -83 -50 -105 -65 -30 -22
-42 -25 -57 -17 -11 5 -19 17 -19 27 -1 9 -7 0 -14 -20 -29 -81 -67 -116 -136
-125 -36 -5 -42 -10 -61 -51 -23 -53 -46 -82 -66 -82 -7 0 -13 9 -13 20 0 11
-4 20 -10 20 -5 0 -13 18 -16 40 -4 23 -12 40 -20 40 -7 0 -25 10 -40 23 -23
20 -28 36 -42 135 -19 137 -21 132 102 260 100 103 135 129 198 142 l43 9 -45
-3 -45 -4 75 70 c73 70 189 138 234 138 10 0 47 16 82 35 34 19 65 35 68 35 4
0 -5 -22 -19 -50 -39 -77 -29 -73 13 5 20 39 47 84 58 100 65 92 104 211 124
380 18 162 10 155 93 72 40 -39 94 -82 119 -94z m-447 -1060 c-5 -26 -19 -48
-51 -76 -25 -22 -58 -66 -75 -98 -22 -45 -34 -59 -52 -59 -12 0 -35 -9 -52
-20 -16 -11 -42 -20 -57 -20 -30 0 -82 -46 -94 -82 -4 -15 -11 -18 -27 -12
-12 4 -97 9 -189 11 -101 3 -168 8 -168 14 0 23 73 149 83 142 5 -3 7 -2 4 4
-3 5 0 26 7 47 l13 37 16 -41 c12 -32 22 -41 46 -46 24 -5 31 -12 31 -31 0
-29 36 -103 51 -103 20 0 69 61 80 101 11 36 15 39 47 39 47 0 97 33 128 85
22 39 28 43 44 33 15 -10 27 -5 73 26 45 31 129 80 146 85 2 1 0 -16 -4 -36z
m-41 -195 c-44 -171 -165 -568 -173 -568 -8 0 -31 50 -31 66 0 7 -16 21 -35
33 -22 13 -42 36 -52 58 -8 21 -22 42 -31 49 -9 7 -15 25 -14 48 1 29 -4 40
-28 58 -36 27 -37 35 -5 50 14 6 37 31 51 55 24 41 61 67 88 61 6 -2 25 7 43
20 17 12 44 22 60 22 25 0 31 7 53 58 22 52 80 122 100 122 5 0 -7 -60 -26
-132z m-744 63 c0 -50 -61 -108 -100 -96 -52 16 11 125 72 125 24 0 28 -4 28
-29z m77 -239 c44 -4 84 -35 67 -52 -5 -5 -38 -19 -74 -32 -62 -23 -65 -25
-62 -54 3 -27 -1 -32 -25 -37 -15 -3 -45 -17 -66 -32 -22 -14 -37 -22 -35 -18
2 4 30 61 63 126 46 90 63 116 75 110 8 -3 34 -8 57 -11z m294 -94 c26 -11 28
-17 23 -45 -4 -23 -1 -36 13 -50 10 -10 26 -35 35 -55 9 -20 30 -44 47 -54 27
-16 71 -92 71 -124 0 -21 -59 34 -65 61 -3 15 -14 34 -23 42 -29 25 -100 57
-127 57 -19 0 -25 5 -25 20 0 34 -28 79 -60 95 -16 8 -50 15 -76 15 -41 0 -51
-5 -81 -37 -19 -20 -38 -46 -43 -58 -5 -14 -20 -25 -40 -28 -26 -6 -113 -57
-130 -77 -3 -3 -27 -23 -53 -45 l-49 -39 28 57 c15 31 30 54 34 52 3 -2 7 6 7
18 3 33 111 111 145 105 8 -2 14 10 16 33 3 35 6 37 55 51 69 19 259 23 298 6z
m-591 -67 c20 -39 -32 -121 -77 -121 -46 0 -43 57 6 109 33 36 56 39 71 12z
m-200 -440 c0 -31 -43 -91 -65 -91 -20 0 -37 27 -30 49 9 28 55 71 76 71 14 0
19 -7 19 -29z"/>
<path d="M6833 4588 c-15 -20 -25 -38 -20 -38 3 0 12 11 21 25 17 26 16 35 -1
13z"/>
<path d="M6869 4513 l-24 -28 28 24 c15 14 27 26 27 28 0 8 -8 1 -31 -24z"/>
<path d="M6664 4508 l-19 -23 23 19 c12 11 22 21 22 23 0 8 -8 2 -26 -19z"/>
<path d="M6729 4473 c-13 -16 -12 -17 4 -4 9 7 17 15 17 17 0 8 -8 3 -21 -13z"/>
<path d="M6541 4424 c-12 -19 -16 -32 -11 -29 11 7 43 65 36 65 -2 0 -13 -16
-25 -36z"/>
<path d="M6809 4433 c-13 -16 -12 -17 4 -4 16 13 21 21 13 21 -2 0 -10 -8 -17
-17z"/>
<path d="M6590 4390 c-6 -11 -8 -20 -6 -20 3 0 10 9 16 20 6 11 8 20 6 20 -3
0 -10 -9 -16 -20z"/>
<path d="M6655 4339 c-4 -6 -5 -12 -2 -15 2 -3 7 2 10 11 7 17 1 20 -8 4z"/>
<path d="M6799 4283 c-13 -16 -12 -17 4 -4 16 13 21 21 13 21 -2 0 -10 -8 -17
-17z"/>
<path d="M6845 4238 c-16 -24 -22 -38 -14 -31 15 12 53 73 46 73 -2 0 -17 -19
-32 -42z"/>
<path d="M7996 3905 c-9 -26 -7 -32 5 -12 6 10 9 21 6 23 -2 3 -7 -2 -11 -11z"/>
<path d="M8051 3894 c0 -11 3 -14 6 -6 3 7 2 16 -1 19 -3 4 -6 -2 -5 -13z"/>
<path d="M7930 3790 c-6 -11 -8 -20 -6 -20 3 0 10 9 16 20 6 11 8 20 6 20 -3
0 -10 -9 -16 -20z"/>
<path d="M8007 3755 c-9 -19 -15 -35 -12 -35 7 0 37 61 33 66 -3 2 -12 -12
-21 -31z"/>
<path d="M7846 3663 c-6 -14 -5 -15 5 -6 7 7 10 15 7 18 -3 3 -9 -2 -12 -12z"/>
<path d="M5910 4345 c30 -30 57 -55 59 -55 3 0 -19 25 -49 55 -30 30 -57 55
-59 55 -3 0 19 -25 49 -55z"/>
<path d="M5821 4353 c71 -76 99 -103 104 -103 3 0 -24 32 -61 70 -37 39 -70
70 -73 70 -3 0 11 -17 30 -37z"/>
<path d="M5950 4383 c0 -5 12 -20 28 -34 l27 -24 -25 30 c-14 17 -26 32 -27
34 -2 2 -3 0 -3 -6z"/>
<path d="M6160 4185 c30 -30 57 -55 59 -55 3 0 -19 25 -49 55 -30 30 -57 55
-59 55 -3 0 19 -25 49 -55z"/>
<path d="M5970 4205 c13 -14 26 -25 28 -25 3 0 -5 11 -18 25 -13 14 -26 25
-28 25 -3 0 5 -11 18 -25z"/>
<path d="M6220 4187 c0 -2 15 -16 33 -33 l32 -29 -29 33 c-28 30 -36 37 -36
29z"/>
<path d="M6112 4152 c57 -48 75 -57 28 -14 -25 23 -49 41 -53 42 -4 0 7 -12
25 -28z"/>
<path d="M6026 4154 c100 -87 132 -114 138 -114 8 0 -106 98 -138 119 l-21 13
21 -18z"/>
<path d="M6220 4027 c0 -2 19 -19 43 -37 23 -19 36 -26 28 -17 -15 19 -71 61
-71 54z"/>
<path d="M6289 4017 c8 -10 33 -32 55 -50 23 -17 35 -24 27 -14 -8 10 -33 32
-55 50 -23 17 -35 24 -27 14z"/>
<path d="M6330 3936 c23 -25 60 -52 60 -43 0 2 -19 19 -42 37 -38 29 -40 30
-18 6z"/>
<path d="M6773 1853 c9 -2 25 -2 35 0 9 3 1 5 -18 5 -19 0 -27 -2 -17 -5z"/>
<path d="M6660 1840 l-25 -8 25 0 c14 0 39 4 55 8 l30 8 -30 0 c-16 0 -41 -4
-55 -8z"/>
<path d="M6552 1808 c-29 -12 -51 -23 -49 -25 2 -2 33 8 68 21 35 14 57 25 49
25 -8 0 -39 -10 -68 -21z"/>
<path d="M6410 1744 c-36 -19 -76 -44 -90 -55 -21 -18 -19 -18 15 2 22 13 67
38 100 56 33 18 56 33 50 32 -5 0 -39 -15 -75 -35z"/>
<path d="M6019 1719 c24 -5 55 -16 69 -25 13 -9 21 -11 17 -4 -11 18 -70 40
-102 39 -21 -1 -17 -3 16 -10z"/>
<path d="M5985 1474 c-83 -105 -132 -178 -171 -256 -49 -96 -42 -98 9 -3 50
95 108 181 178 265 28 34 49 63 47 66 -2 2 -31 -30 -63 -72z"/>
<path d="M5766 1115 c-3 -9 -6 -22 -5 -28 0 -7 5 -1 10 12 5 13 8 26 5 28 -2
2 -6 -3 -10 -12z"/>
<path d="M5805 4840 c3 -5 8 -10 11 -10 2 0 4 5 4 10 0 6 -5 10 -11 10 -5 0
-7 -4 -4 -10z"/>
<path d="M6556 3464 c-9 -8 -16 -24 -16 -34 0 -20 25 -50 41 -50 27 0 49 22
49 50 0 44 -44 64 -74 34z"/>
<path d="M6420 3348 c0 -27 44 -82 80 -101 44 -23 127 -17 173 12 38 25 23 28
-22 5 -18 -9 -55 -17 -82 -17 -57 -1 -95 22 -121 72 -20 41 -28 49 -28 29z"/>
<path d="M7130 3001 c0 -5 16 -16 36 -26 25 -12 33 -20 24 -25 -7 -5 -8 -10
-2 -14 5 -3 15 0 20 7 7 8 25 11 46 9 26 -3 36 -10 39 -26 l4 -21 8 23 c6 18
15 22 50 22 47 0 75 8 75 20 0 5 -25 6 -57 3 -41 -5 -54 -3 -49 5 4 7 2 12 -3
12 -6 0 -11 -4 -11 -10 0 -5 -16 -10 -35 -10 -26 0 -35 4 -35 16 0 13 -3 14
-14 5 -10 -8 -22 -7 -49 4 -42 17 -47 18 -47 6z"/>
<path d="M6617 2854 c-16 -8 -27 -18 -24 -21 3 -2 15 1 28 7 12 7 37 10 55 7
59 -10 206 -89 257 -139 26 -26 47 -42 47 -36 0 25 -92 97 -181 141 -111 55
-144 63 -182 41z"/>
<path d="M6434 2764 c3 -9 6 -41 6 -71 l0 -56 29 39 28 39 -26 32 c-28 34 -47
43 -37 17z"/>
<path d="M6670 2770 c0 -5 9 -10 21 -10 26 0 57 -16 92 -48 15 -14 27 -21 27
-16 0 17 -42 52 -82 69 -43 18 -58 19 -58 5z"/>
<path d="M5596 670 c-41 -49 -92 -239 -68 -254 6 -3 8 1 6 11 -8 30 35 175 66
226 34 54 33 60 -4 17z"/>
<path d="M5365 339 c-44 -16 -73 -29 -65 -29 9 0 54 13 100 30 47 16 76 29 65
29 -11 -1 -56 -14 -100 -30z"/>
<path d="M5605 361 c11 -4 40 -11 65 -14 27 -4 37 -3 25 2 -11 4 -40 11 -65
14 -27 4 -37 3 -25 -2z"/>
<path d="M5750 322 c19 -8 67 -17 105 -18 l70 -2 -70 7 c-38 5 -83 13 -98 20
-42 17 -47 12 -7 -7z"/>
<path d="M5940 320 c-9 -6 -10 -10 -3 -10 6 0 15 5 18 10 8 12 4 12 -15 0z"/>
<path d="M5444 248 c-31 -37 -70 -118 -78 -163 -4 -16 2 -7 13 21 25 67 38 91
73 137 36 45 30 49 -8 5z"/>
</g>
</svg>
