<?xml version="1.0" standalone="no"?>
<!DOCTYPE svg PUBLIC "-//W3C//DTD SVG 20010904//EN"
 "http://www.w3.org/TR/2001/REC-SVG-20010904/DTD/svg10.dtd">
<svg version="1.0" xmlns="http://www.w3.org/2000/svg"
 width="900.000000pt" height="450.000000pt" viewBox="0 0 900.000000 450.000000"
 preserveAspectRatio="xMidYMid meet">

<g transform="translate(0.000000,450.000000) scale(0.100000,-0.100000)"
fill="#000000" stroke="none">
<path d="M2 2728 c2 -1042 5 -1532 8 -1188 3 322 7 573 9 558 2 -16 4 -32 5
-37 2 -18 16 -24 16 -7 0 21 44 66 64 66 8 0 16 5 18 10 5 17 47 20 63 4 8 -9
31 -20 50 -25 28 -8 37 -16 42 -40 3 -16 9 -29 14 -29 5 0 9 -7 9 -15 0 -47
66 -121 78 -86 2 6 12 11 23 11 10 0 19 5 19 11 0 6 7 8 15 5 17 -6 35 29 35
70 0 15 6 24 15 24 8 0 15 8 15 18 0 10 10 24 22 32 12 8 31 24 42 36 12 12
32 25 46 29 14 4 28 13 32 19 5 7 58 11 160 10 136 0 158 -3 197 -22 25 -12
48 -22 53 -22 4 0 8 18 8 40 0 33 -3 40 -20 40 -11 0 -20 5 -20 10 0 6 9 10
20 10 28 0 25 20 -2 21 -20 0 -21 1 -5 8 10 4 17 9 16 11 -1 3 1 16 6 28 7 24
8 24 98 17 51 -4 95 -9 100 -12 12 -7 8 -73 -8 -103 -9 -18 -12 -40 -9 -59 6
-26 11 -31 35 -31 16 0 29 5 29 10 0 6 16 10 36 10 31 0 35 3 29 20 -3 11 -2
20 4 20 5 0 11 7 13 16 2 12 16 18 43 21 22 2 49 10 60 17 11 8 46 19 78 26
31 7 57 18 57 25 0 13 42 35 65 35 8 0 15 6 15 14 0 16 21 26 56 26 14 0 27 7
30 15 3 8 22 17 42 20 21 4 49 13 63 20 14 8 29 11 33 8 4 -4 9 3 12 15 4 12
15 24 25 27 10 4 19 12 19 18 1 13 81 57 103 57 17 0 37 42 37 75 0 18 5 25
20 25 17 0 20 7 20 39 0 22 5 43 10 46 6 3 10 33 10 66 0 60 10 90 38 119 12
11 16 12 20 2 2 -6 10 -12 18 -12 10 0 14 -12 14 -41 0 -22 4 -38 9 -35 18 11
18 -20 0 -74 -19 -58 -24 -222 -9 -270 l8 -25 2 25 2 25 8 -25 c4 -14 8 -55 9
-91 1 -49 5 -70 18 -80 9 -8 18 -13 20 -11 8 6 72 -57 87 -86 11 -21 23 -31
38 -30 33 1 76 18 81 33 3 7 22 15 41 19 27 5 36 12 36 26 0 11 -5 20 -11 20
-6 0 -9 19 -7 46 4 58 34 85 105 91 42 4 53 1 87 -26 21 -17 43 -31 47 -31 5
0 9 -27 9 -60 0 -57 1 -60 25 -60 14 0 25 -4 25 -9 0 -5 20 -31 44 -57 24 -27
46 -59 50 -72 4 -13 23 -29 44 -38 36 -15 62 -15 183 2 38 5 55 1 98 -21 50
-26 101 -29 101 -5 0 6 9 10 20 10 11 0 30 11 42 25 12 14 29 25 39 25 10 0
21 9 24 20 3 11 15 25 27 31 26 14 111 2 166 -24 33 -15 54 -18 89 -13 26 3
49 10 53 15 13 22 56 21 91 -1 101 -63 120 -79 126 -109 4 -20 14 -34 29 -40
21 -7 57 -52 67 -84 2 -6 9 -6 18 2 8 6 27 13 43 15 27 3 30 8 41 61 14 70 22
79 72 81 36 1 38 0 35 -27 -4 -35 21 -76 43 -73 27 4 56 36 53 58 -2 14 -15
25 -37 33 -45 15 -50 32 -16 60 34 27 29 52 -15 68 -43 16 -50 64 -25 183 6
26 3 34 -16 48 -34 23 -36 63 -5 78 36 16 41 43 17 77 -25 35 -18 63 24 99 24
21 26 30 24 75 -4 61 7 97 27 97 9 0 12 -5 8 -12 -4 -7 -3 -8 5 -4 9 6 9 11 0
22 -15 18 -9 24 26 27 19 1 33 -6 45 -23 16 -22 20 -61 29 -294 6 -149 14
-273 18 -277 5 -4 9 112 10 258 2 146 5 268 7 270 2 2 21 -5 42 -16 21 -12 45
-21 52 -21 8 0 10 -5 6 -12 -5 -7 -2 -9 8 -6 8 3 34 2 59 -3 24 -6 51 -10 59
-10 49 -2 142 -21 171 -36 46 -23 191 -112 204 -125 7 -7 3 -8 -12 -4 -31 10
-136 26 -140 22 -2 -2 28 -13 67 -25 38 -12 70 -25 70 -28 0 -3 -11 -2 -24 1
-14 3 -69 10 -123 16 -54 5 -117 13 -140 16 -38 6 -43 4 -43 -13 0 -33 49
-166 79 -215 16 -26 26 -49 23 -51 -4 -2 -1 -2 6 0 7 1 23 -4 35 -11 33 -22
135 -37 289 -44 158 -8 149 -18 96 98 -17 36 -51 87 -77 114 -25 27 -36 42
-23 34 28 -19 82 -81 111 -128 35 -58 24 -7 -13 59 -19 34 -31 61 -26 61 5 0
12 -5 15 -10 18 -29 178 -90 168 -64 -2 6 0 15 6 19 6 3 11 1 11 -6 0 -13 29
20 30 34 0 4 -20 7 -44 7 -55 0 -159 37 -256 90 -104 57 -260 153 -256 158 2
2 82 -8 177 -22 236 -35 633 -83 748 -92 71 -5 89 -9 71 -16 -31 -11 -22 -17
19 -11 24 4 29 8 20 15 -10 6 -7 7 9 3 13 -4 110 -11 215 -16 106 -4 197 -9
202 -10 6 -1 30 2 55 5 l45 6 -45 -21 c-145 -68 -398 -129 -538 -129 l-67 0
38 -23 c21 -13 35 -25 33 -28 -9 -9 86 8 144 26 92 28 108 28 56 1 -27 -14
-53 -26 -57 -26 -13 0 -99 -63 -99 -72 0 -11 -1 -11 69 22 35 17 65 29 67 28
2 -2 -20 -26 -47 -53 -28 -28 -60 -67 -70 -87 -11 -21 -25 -38 -32 -38 -28 -1
20 -19 66 -25 27 -4 45 -10 39 -14 -11 -7 107 -15 235 -15 69 -1 86 2 111 21
28 20 42 21 42 2 0 -5 -6 -7 -12 -5 -7 1 -10 1 -5 -1 4 -3 4 -9 1 -15 -4 -6
-1 -8 7 -6 9 3 13 17 11 38 -3 34 14 64 30 54 5 -3 8 0 6 7 -1 8 10 34 24 59
32 54 51 101 43 108 -3 4 -69 10 -146 15 -77 6 -138 12 -135 14 9 9 113 33
146 34 23 0 29 3 18 7 -9 4 -54 4 -100 1 -80 -5 -106 -4 -77 4 74 21 145 45
199 70 64 30 67 30 235 30 119 -1 170 -4 173 -12 5 -15 -28 -166 -88 -406 -27
-104 -47 -191 -46 -192 4 -5 86 217 133 357 74 225 112 308 134 295 5 -4 6 0
3 8 -3 10 2 14 18 13 13 0 23 -5 23 -11 0 -17 45 -75 58 -75 8 0 7 3 -2 9 -7
5 -10 14 -7 20 13 21 26 11 26 -20 0 -27 -3 -31 -21 -26 -13 4 -26 -1 -37 -14
-20 -23 -36 -25 -28 -3 4 10 1 14 -6 12 -7 -3 -48 -74 -92 -158 l-78 -154 6
-82 c8 -95 2 -116 -54 -175 -54 -56 -80 -112 -80 -172 0 -56 15 -55 23 0 11
70 15 82 54 135 77 106 77 106 79 204 1 54 7 100 15 115 7 13 14 30 15 38 2 8
9 18 16 22 7 5 9 9 5 9 -5 0 -2 12 7 28 8 15 22 44 31 65 9 20 20 35 25 32 4
-3 6 3 4 12 -3 10 2 27 11 38 9 13 14 15 12 5 -2 -8 -2 -12 0 -7 10 16 23 5
23 -19 0 -20 7 -29 30 -37 28 -11 31 -15 28 -51 -3 -34 -7 -40 -38 -50 -46
-15 -54 -56 -16 -82 44 -28 33 -77 -21 -88 -42 -10 -52 -39 -24 -77 26 -34 26
-47 4 -99 -15 -34 -22 -40 -48 -40 -56 0 -71 -37 -33 -77 28 -30 13 -49 -25
-32 -34 15 -74 0 -86 -33 -7 -18 -4 -25 10 -30 28 -11 34 -36 14 -58 -10 -11
-13 -20 -7 -20 6 0 18 13 27 30 22 42 31 38 39 -17 24 -172 46 -340 46 -353
-1 -26 -26 31 -70 162 -24 70 -45 127 -46 125 -2 -2 35 -364 54 -515 4 -39 5
-72 1 -72 -14 0 -31 29 -23 41 4 7 3 9 -3 6 -10 -6 -76 59 -181 177 -38 44
-52 55 -52 40 0 -10 14 -125 30 -254 17 -129 29 -241 28 -248 -2 -8 -32 66
-66 164 -35 98 -82 230 -105 292 l-40 112 -31 -45 c-17 -25 -49 -73 -71 -107
-76 -119 -152 -213 -223 -279 -98 -91 -288 -222 -397 -275 -83 -40 -98 -44
-195 -50 -130 -7 -230 11 -292 54 -130 89 -404 431 -511 637 -30 58 -32 59
-35 30 -4 -27 3 -83 28 -220 5 -27 14 -81 20 -120 7 -38 18 -101 25 -140 8
-38 23 -119 33 -178 11 -60 23 -111 26 -114 11 -11 6 200 -9 382 -8 99 -15
184 -15 190 0 17 51 -62 88 -135 9 -19 22 -39 28 -45 6 -5 21 -27 34 -49 13
-21 34 -50 47 -65 14 -14 45 -53 70 -86 56 -75 161 -166 232 -201 53 -26 59
-26 166 -19 60 4 123 7 138 7 20 1 24 3 15 9 -9 6 -4 9 14 9 66 0 226 82 363
185 72 54 215 203 215 224 0 6 9 11 20 11 12 0 17 5 14 13 -3 8 16 40 41 72
25 32 45 63 45 68 0 6 10 24 23 41 12 17 31 50 41 73 10 23 24 44 31 47 8 3
11 13 8 24 -2 11 -1 22 4 25 4 3 9 -18 11 -45 2 -28 11 -72 22 -97 16 -41 101
-243 144 -343 9 -21 14 -38 12 -38 -2 0 -36 53 -75 118 -39 65 -78 127 -86
137 -14 19 -15 16 -11 -35 11 -120 17 -360 9 -360 -4 0 -32 42 -61 92 -51 89
-53 95 -49 152 3 32 10 63 15 68 9 9 17 -16 62 -191 24 -91 17 -30 -11 104
-16 77 -30 157 -31 178 -1 20 -4 35 -6 32 -9 -9 -44 -169 -53 -245 -5 -41 -11
-93 -14 -115 -3 -22 -8 -151 -12 -287 l-6 -246 -30 -6 c-16 -3 -45 -6 -64 -6
-19 0 -43 -5 -55 -11 -20 -11 -244 -16 -255 -6 -2 3 15 34 39 69 24 35 52 80
63 101 11 20 22 37 26 37 4 0 9 9 12 21 3 12 10 18 17 14 6 -4 11 -1 9 6 -3
28 1 40 13 33 6 -4 8 -3 4 4 -9 14 14 63 27 55 6 -3 7 -1 4 5 -7 11 23 72 36
72 4 0 7 9 7 19 0 11 4 22 9 26 5 3 21 30 35 61 14 30 30 53 36 49 6 -3 7 0 4
10 -4 9 0 23 7 33 25 31 41 64 33 70 -4 4 -9 2 -11 -5 -2 -6 -17 -27 -33 -45
-17 -18 -30 -38 -30 -45 0 -6 -4 -13 -8 -15 -4 -2 -23 -24 -42 -50 -18 -27
-38 -48 -43 -48 -6 0 -7 -3 -4 -6 4 -4 -15 -34 -41 -68 -26 -34 -58 -77 -69
-96 -12 -19 -32 -46 -45 -60 -13 -14 -41 -46 -62 -70 -22 -25 -65 -73 -97
-107 l-59 -63 -107 19 c-196 34 -539 133 -527 152 3 5 -1 7 -8 4 -8 -3 -20 12
-31 40 -11 25 -23 45 -28 45 -5 0 -9 8 -9 18 0 16 -16 71 -42 147 -20 57 -57
210 -58 235 0 22 -2 23 -15 9 -14 -13 -13 -30 5 -157 19 -126 43 -234 65 -285
7 -18 6 -18 -31 -2 -22 9 -63 26 -91 37 -29 11 -50 24 -48 28 3 5 -4 6 -15 3
-13 -3 -50 9 -93 29 -40 19 -102 47 -140 63 -37 15 -70 31 -73 36 -3 5 -2 24
1 43 7 37 56 81 87 79 10 -1 16 2 13 7 -3 4 9 13 25 19 35 12 37 4 18 -78 -10
-46 -7 -73 7 -59 3 3 13 63 23 135 14 102 15 134 6 149 -6 10 -31 168 -55 349
-23 182 -45 333 -49 338 -3 4 -25 -75 -49 -175 -49 -211 -63 -251 -56 -163 3
33 12 148 20 255 8 107 17 207 20 222 3 21 -1 29 -18 34 -12 5 -24 7 -27 7 -3
-1 -16 6 -28 15 -20 16 -21 20 -10 50 12 31 11 35 -11 53 -13 11 -31 17 -40
14 -9 -4 -22 3 -33 17 -10 13 -16 16 -13 7 5 -13 -10 -19 -82 -33 -113 -22
-181 -40 -268 -72 -134 -50 -195 -76 -195 -85 0 -5 -6 -9 -13 -9 -8 0 -14 -6
-14 -14 0 -22 -46 -75 -66 -75 -10 -1 -15 -6 -12 -11 3 -6 -7 -27 -24 -47 -17
-21 -31 -42 -31 -48 0 -6 -16 -35 -35 -65 -19 -30 -33 -61 -30 -68 10 -27 -7
-33 -31 -11 -13 12 -27 19 -30 16 -17 -17 -23 -119 -14 -208 6 -53 10 -101 9
-105 -11 -41 115 -406 238 -691 3 -9 -5 -10 -29 -7 -26 5 -37 1 -55 -18 -11
-12 -23 -31 -25 -41 -2 -13 -92 -53 -348 -156 -190 -76 -370 -150 -400 -164
l-55 -26 2306 -1 2306 0 80 93 c44 50 131 162 192 247 62 85 117 162 124 170
17 22 197 290 197 294 0 2 17 33 39 67 74 123 64 141 -44 75 -41 -24 -75 -41
-75 -36 0 5 6 11 13 14 10 5 10 7 0 12 -7 3 -13 23 -13 45 0 22 -4 48 -10 58
-19 36 -126 137 -182 171 l-56 35 5 47 c7 56 -2 70 -66 103 -61 31 -176 148
-168 170 5 12 -12 24 -76 54 -89 43 -245 103 -374 145 -46 15 -85 31 -88 35
-2 5 11 26 30 49 20 23 33 47 29 55 -3 8 4 30 15 48 12 19 21 45 21 59 0 17 8
29 23 35 12 6 26 25 32 43 9 32 11 34 45 27 19 -4 44 -7 55 -7 38 0 130 14
146 23 19 10 55 2 89 -20 24 -16 90 -80 90 -88 0 -8 -91 5 -103 16 -15 12
-187 20 -187 9 0 -5 8 -8 19 -8 12 0 20 -9 24 -29 6 -27 10 -30 64 -36 32 -3
72 -12 88 -18 17 -6 35 -12 40 -12 6 0 22 -8 37 -19 31 -20 83 -36 146 -43 23
-3 42 -9 42 -14 0 -5 23 -9 50 -9 28 0 50 5 50 10 0 6 14 10 30 10 23 0 30 4
30 20 0 19 7 20 145 20 124 0 147 2 152 16 10 26 49 61 77 68 14 3 26 13 26
21 0 7 8 16 19 20 10 3 29 15 42 26 13 11 36 23 51 26 16 3 28 9 28 13 0 4 9
10 20 13 14 3 20 14 20 31 0 14 5 26 10 26 6 0 10 9 10 20 0 11 7 20 15 20 9
0 15 -9 15 -22 0 -19 2 -20 10 -8 6 10 10 11 10 3 0 -7 7 -13 15 -13 8 0 15
-4 15 -10 0 -14 27 -12 34 3 3 6 5 -7 3 -30 -1 -24 1 -43 5 -43 5 0 8 -9 8
-21 0 -11 9 -34 21 -50 18 -25 27 -29 69 -29 29 0 50 -5 54 -12 3 -9 8 -8 16
4 6 10 17 18 24 18 8 0 16 9 19 20 3 12 14 20 26 20 14 0 21 6 21 20 0 11 7
20 15 20 9 0 15 9 15 24 0 13 3 39 8 57 4 19 9 -128 12 -326 3 -198 6 318 8
1148 l2 1507 -4500 0 -4500 0 2 -1772z m4505 1755 c-4 -3 -2 -12 4 -19 6 -8
21 -38 33 -68 l22 -54 38 16 38 17 -60 58 -61 57 1483 0 1483 0 99 -24 c54
-13 143 -34 196 -46 54 -12 95 -26 92 -31 -3 -5 -14 -9 -25 -9 -10 0 -19 -4
-19 -10 0 -5 -5 -10 -12 -10 -6 0 -57 -20 -112 -44 -56 -25 -177 -77 -271
-117 -93 -39 -173 -75 -178 -79 -4 -3 97 -41 225 -84 242 -81 527 -184 541
-196 5 -4 -29 -17 -75 -29 -46 -12 -157 -43 -248 -68 -91 -24 -183 -49 -205
-54 -22 -6 -57 -15 -79 -20 l-38 -10 43 -31 c199 -142 332 -249 439 -355 139
-138 137 -147 -15 -71 -114 57 -559 238 -586 238 -4 0 -3 -13 2 -29 10 -27 23
-33 232 -101 122 -39 247 -80 277 -91 l55 -19 -45 6 c-25 3 -58 9 -75 14 -16
5 -84 16 -150 25 -66 9 -149 22 -185 30 -36 7 -67 12 -69 9 -3 -2 5 -57 18
-122 34 -178 59 -352 50 -352 -4 0 -75 132 -158 293 -82 160 -180 351 -218
424 -37 72 -69 130 -71 128 -2 -2 3 -63 12 -137 33 -292 32 -308 -14 -178 -38
109 -103 271 -106 267 -2 -2 19 -98 46 -213 73 -305 112 -482 108 -493 -1 -5
-61 83 -133 197 -71 113 -166 253 -210 311 -113 150 -259 324 -262 314 -2 -5
6 -35 17 -68 11 -32 18 -60 15 -63 -2 -3 -76 5 -162 16 -201 28 -352 40 -576
48 l-178 6 -24 49 c-14 26 -52 117 -86 201 -95 240 -102 258 -106 254 -2 -1 3
-52 11 -112 8 -60 25 -197 36 -304 34 -300 58 -488 59 -459 1 15 8 30 17 33
11 4 15 2 11 -8 -3 -7 1 -23 10 -35 23 -33 35 -137 22 -199 -14 -71 -6 -102
26 -102 21 0 25 5 26 33 0 17 3 73 6 122 11 183 11 180 -18 183 -20 2 -28 -2
-33 -20 -6 -17 -12 -1 -26 67 -25 118 -25 145 -2 145 29 0 445 -29 712 -50
274 -22 405 -38 432 -51 54 -28 49 -496 -8 -643 -5 -13 -4 -17 4 -12 8 5 10 2
6 -8 -3 -9 -9 -14 -13 -12 -4 3 -12 -4 -19 -15 -7 -11 -8 -19 -2 -19 18 0 11
-19 -7 -20 -10 0 -45 -3 -77 -6 -61 -6 -554 19 -731 37 -131 13 -440 57 -486
70 -77 20 -104 106 -102 329 1 178 10 236 49 317 l25 51 -78 154 c-72 141
-102 210 -194 450 -18 48 -34 86 -35 85 -3 -3 12 -146 47 -462 31 -282 58
-436 90 -520 10 -27 19 -59 18 -70 0 -15 -2 -16 -6 -5 -4 8 -43 80 -88 160
-46 80 -104 189 -131 243 -27 53 -52 97 -56 97 -16 0 -185 -90 -275 -147 -51
-32 -151 -95 -224 -141 -72 -45 -133 -81 -136 -79 -2 2 22 26 54 53 32 26 79
66 104 88 25 23 87 77 139 121 51 44 105 91 119 103 53 49 144 127 154 134 8
5 7 16 -3 37 l-15 30 -312 -310 c-172 -170 -313 -305 -313 -300 0 9 183 330
300 526 26 44 75 128 108 186 l60 107 -127 -5 c-69 -3 -184 -13 -255 -24 -71
-10 -131 -17 -133 -15 -2 2 114 43 257 91 144 48 274 92 290 98 21 8 35 25 50
60 12 27 20 52 18 56 -2 5 -136 -56 -297 -135 -162 -80 -299 -143 -304 -141
-5 1 60 48 144 103 165 108 203 131 318 190 41 21 68 40 62 42 -7 2 -17 0 -23
-6 -14 -14 -58 9 -58 31 0 10 -8 17 -20 17 -11 0 -20 5 -20 10 0 6 -9 10 -19
10 -11 0 -22 4 -25 9 -3 5 -22 12 -41 15 -19 4 -35 11 -35 16 0 4 -13 11 -30
15 -16 4 -30 11 -30 16 0 5 -291 10 -712 12 l-713 2 849 3 c467 1 846 -1 843
-5z m-4490 -825 c-1 -40 -3 -10 -3 67 0 77 1 110 3 73 2 -37 2 -100 0 -140z
m235 22 c12 -10 25 -17 30 -14 4 3 8 -2 8 -10 0 -9 6 -16 14 -16 7 0 20 -15
27 -32 7 -18 19 -37 26 -43 10 -8 18 -93 14 -152 -2 -28 -111 -50 -111 -22 0
6 -7 17 -15 25 -8 9 -18 27 -21 42 -8 39 -46 122 -56 122 -4 0 -8 9 -8 20 0
11 -4 20 -10 20 -15 0 -12 29 4 46 8 8 22 14 30 14 9 0 16 5 16 10 0 17 30 11
52 -10z m1074 -83 c7 -7 15 -28 18 -49 6 -32 3 -39 -22 -57 -17 -12 -54 -23
-88 -27 -33 -3 -69 -13 -82 -21 -25 -15 -151 -32 -188 -25 -13 2 -24 13 -26
27 -4 20 4 27 61 54 37 17 75 31 86 31 27 0 38 10 52 42 9 20 22 29 50 33 21
4 43 8 48 10 17 7 79 -6 91 -18z m7663 -414 c-1 -181 -4 -313 -8 -296 -3 18
-14 42 -23 53 -10 11 -13 20 -8 20 6 0 10 8 10 18 0 14 2 15 10 2 7 -11 10 3
10 45 0 42 -3 56 -10 45 -8 -13 -10 -12 -10 3 0 12 -8 17 -30 17 -16 0 -30 5
-30 10 0 6 -7 10 -16 10 -37 0 -68 62 -53 107 18 55 21 63 30 63 5 0 9 9 9 20
0 11 5 19 12 18 7 -2 15 11 18 27 10 51 31 95 45 95 8 0 19 16 26 35 7 19 14
35 16 35 2 0 2 -147 2 -327z m-3932 205 c-3 -7 -5 -2 -5 12 0 14 2 19 5 13 2
-7 2 -19 0 -25z m1540 -60 c-3 -8 -6 -5 -6 6 -1 11 2 17 5 13 3 -3 4 -12 1
-19z m60 -10 c-3 -8 -6 -5 -6 6 -1 11 2 17 5 13 3 -3 4 -12 1 -19z m-2207 -48
c0 -5 7 -10 15 -10 8 0 15 -4 15 -9 0 -5 10 -11 23 -13 16 -2 22 -9 21 -25 0
-13 3 -23 8 -23 4 0 8 21 8 47 0 25 2 44 5 41 3 -3 3 -71 -1 -151 -7 -138 -8
-146 -25 -136 -27 14 -69 -16 -69 -48 0 -22 -1 -23 -16 -9 -8 9 -24 16 -35 16
-15 0 -19 7 -19 31 l0 31 -77 -2 c-101 -3 -95 -5 -130 29 -41 39 -47 76 -17
106 13 13 24 29 24 35 0 11 3 11 91 14 48 2 59 6 86 34 16 18 38 32 47 32 9 0
16 5 16 10 0 6 7 10 15 10 8 0 15 -4 15 -10z m-3825 -115 c28 -8 121 -22 207
-31 140 -15 157 -19 162 -37 3 -11 -3 -31 -12 -44 -16 -23 -20 -24 -107 -18
-138 9 -167 6 -205 -19 -71 -47 -86 -53 -135 -60 -73 -9 -140 6 -170 38 -14
15 -25 32 -25 37 0 39 98 145 140 151 33 5 84 -1 145 -17z m4472 -47 c-3 -7
-5 -2 -5 12 0 14 2 19 5 13 2 -7 2 -19 0 -25z m1570 -40 c-3 -7 -5 -2 -5 12 0
14 2 19 5 13 2 -7 2 -19 0 -25z m-1212 -68 c3 -5 1 -10 -4 -10 -6 0 -11 5 -11
10 0 6 2 10 4 10 3 0 8 -4 11 -10z m-1008 -122 c-3 -7 -5 -2 -5 12 0 14 2 19
5 13 2 -7 2 -19 0 -25z m2213 -12 c0 -26 -6 -18 -14 19 -5 22 -4 26 4 15 5 -8
10 -24 10 -34z m-13 -88 c-3 -7 -5 -2 -5 12 0 14 2 19 5 13 2 -7 2 -19 0 -25z
m-5308 -127 c13 -12 19 -25 15 -35 -4 -9 -3 -16 2 -15 23 4 35 -3 48 -28 14
-28 8 -64 -13 -77 -6 -4 -15 -24 -21 -46 -9 -33 -16 -40 -43 -45 -41 -8 -129
7 -134 22 -2 6 10 27 26 46 17 19 31 44 31 55 0 12 5 24 11 28 26 15 47 67 38
90 -11 30 8 32 40 5z m6768 -125 c-8 -22 -30 -20 -51 3 -14 15 -15 24 -6 40
l11 21 26 -24 c16 -15 24 -30 20 -40z m-4683 -11 c10 -14 24 -25 31 -25 6 0
20 -9 30 -20 14 -16 15 -22 5 -35 -29 -35 -110 20 -110 75 0 37 18 39 44 5z
m1667 13 c38 -11 39 -12 22 -31 -17 -19 -17 -20 0 -14 15 6 16 2 11 -31 -8
-49 14 -71 51 -54 14 7 25 18 25 27 0 8 7 15 15 15 8 0 15 -8 15 -17 0 -14 2
-15 9 -4 5 7 14 10 20 7 17 -11 13 -41 -11 -72 l-22 -29 27 24 c15 14 27 31
27 39 0 7 6 12 13 10 23 -8 18 -35 -12 -66 -24 -27 -36 -32 -73 -32 l-43 1 30
14 30 13 -37 -5 c-51 -7 -94 12 -124 56 -27 41 -32 26 -7 -22 14 -29 14 -31 0
-19 -22 19 -60 99 -52 112 3 5 0 7 -8 4 -10 -4 -16 4 -19 26 -8 56 31 73 113
48z m180 -5 c13 -17 13 -17 -6 -3 -11 8 -22 16 -24 17 -2 2 0 3 6 3 6 0 17 -8
24 -17z m1280 -159 c7 -4 7 -35 -1 -104 -1 -10 -4 -9 -9 5 -7 17 -9 16 -15
-12 -10 -42 -26 -52 -26 -16 l0 28 -19 -24 c-10 -14 -25 -25 -34 -27 -13 -2
-13 2 -1 24 17 33 9 43 -12 14 -17 -25 -67 -30 -94 -9 -9 6 0 -3 19 -22 20
-19 30 -31 22 -26 -7 4 -16 3 -20 -3 -5 -8 -15 -7 -34 3 -28 14 -36 8 -15 -13
9 -9 8 -12 -7 -12 -24 0 -75 48 -75 72 0 24 70 55 82 36 6 -10 8 -8 8 5 0 27
14 20 27 -13 8 -23 18 -30 37 -30 33 0 49 30 36 64 -8 22 -7 26 7 26 13 0 14
3 5 12 -18 18 -15 26 11 31 24 5 95 -1 108 -9z m-6534 -61 c-2 -16 -4 -5 -4
22 0 28 2 40 4 28 2 -13 2 -35 0 -50z m7471 8 c34 -29 28 -48 -13 -43 -21 3
-35 10 -35 18 0 8 -4 14 -10 14 -20 0 -10 19 13 23 12 2 22 5 23 6 1 0 11 -7
22 -18z m-1260 -101 c7 -18 7 -30 1 -30 -5 0 -9 5 -9 10 0 6 -6 10 -14 10 -22
0 -29 18 -14 34 17 18 24 13 36 -24z"/>
<path d="M7655 4350 c-27 -7 -28 -8 -5 -8 14 0 34 3 45 8 25 11 2 11 -40 0z"/>
<path d="M7559 4336 c-2 -2 -128 -25 -279 -50 -151 -26 -276 -48 -277 -50 -2
-2 10 -9 27 -16 27 -11 61 -5 307 50 153 34 280 64 282 66 2 2 -9 4 -26 4 -16
0 -32 -2 -34 -4z"/>
<path d="M7498 3802 c-131 -8 -238 -18 -238 -22 0 -4 8 -14 18 -23 16 -14 27
-15 117 -2 55 7 174 23 265 35 91 12 172 23 180 25 35 7 -122 1 -342 -13z"/>
<path d="M5675 3257 c-4 -24 -7 -99 -8 -168 l-2 -124 26 -3 c24 -3 27 1 32 40
4 24 6 100 7 171 l0 127 -24 0 c-21 0 -26 -6 -31 -43z m35 3 c0 -5 -5 -10 -11
-10 -5 0 -7 5 -4 10 3 6 8 10 11 10 2 0 4 -4 4 -10z"/>
<path d="M5951 3258 c-5 -13 -12 -46 -15 -74 l-7 -50 -87 2 c-83 2 -80 1 34
-12 l51 -5 -5 -90 -5 -89 26 0 c29 0 33 8 42 96 5 43 3 64 -5 69 -9 5 -10 1
-6 -16 3 -13 3 -19 0 -12 -3 7 -12 9 -20 6 -10 -4 -14 2 -13 23 2 27 2 27 6 4
l5 -24 14 24 c7 14 13 19 14 13 0 -9 14 -12 43 -11 37 1 38 2 9 5 l-33 4 3 77
c3 73 2 77 -19 80 -16 2 -25 -3 -32 -20z m4 -198 c3 -5 1 -10 -4 -10 -6 0 -11
5 -11 10 0 6 2 10 4 10 3 0 8 -4 11 -10z m5 -102 c0 -4 -4 -8 -9 -8 -6 0 -12
4 -15 8 -3 5 1 9 9 9 8 0 15 -4 15 -9z"/>
<path d="M6195 3223 c-3 -21 -9 -58 -13 -83 -4 -25 -5 -85 -2 -135 5 -88 6
-90 31 -93 26 -3 27 -1 34 62 15 142 20 257 12 271 -4 8 -19 15 -32 15 -20 0
-25 -6 -30 -37z m32 -250 c-3 -10 -5 -2 -5 17 0 19 2 27 5 18 2 -10 2 -26 0
-35z m-30 -35 c-3 -8 -6 -5 -6 6 -1 11 2 17 5 13 3 -3 4 -12 1 -19z"/>
<path d="M5598 3143 c6 -2 18 -2 25 0 6 3 1 5 -13 5 -14 0 -19 -2 -12 -5z"/>
<path d="M5089 2403 c11 -22 30 -38 35 -32 2 2 -8 15 -21 29 -23 23 -24 23
-14 3z"/>
<path d="M4510 2870 c-12 -7 -10 -9 7 -7 12 0 19 5 17 9 -6 10 -6 10 -24 -2z"/>
<path d="M4483 2640 c0 -58 2 -72 6 -45 12 76 34 -105 32 -256 -1 -107 2 -143
15 -175 9 -21 18 -66 19 -99 2 -33 4 -71 5 -85 2 -24 3 -23 10 5 4 17 8 61 9
98 1 55 -3 75 -20 99 -19 27 -21 37 -14 121 7 98 -8 218 -44 352 l-19 70 1
-85z"/>
<path d="M5260 2670 c0 -13 11 -13 30 0 12 8 11 10 -7 10 -13 0 -23 -4 -23
-10z"/>
<path d="M5375 2560 c3 -5 11 -10 16 -10 6 0 7 5 4 10 -3 6 -11 10 -16 10 -6
0 -7 -4 -4 -10z"/>
<path d="M4652 2540 c0 -14 2 -19 5 -12 2 6 2 18 0 25 -3 6 -5 1 -5 -13z"/>
<path d="M4492 2520 c0 -14 2 -19 5 -12 2 6 2 18 0 25 -3 6 -5 1 -5 -13z"/>
<path d="M5440 2526 c0 -2 7 -7 16 -10 8 -3 12 -2 9 4 -6 10 -25 14 -25 6z"/>
<path d="M6388 2523 c7 -3 16 -2 19 1 4 3 -2 6 -13 5 -11 0 -14 -3 -6 -6z"/>
<path d="M5502 2513 c-6 -2 -10 -9 -6 -14 8 -14 21 -11 21 6 0 8 -1 15 -1 14
-1 0 -7 -3 -14 -6z"/>
<path d="M6348 2513 c7 -3 16 -2 19 1 4 3 -2 6 -13 5 -11 0 -14 -3 -6 -6z"/>
<path d="M7111 2376 c0 -16 -8 -38 -18 -48 -9 -10 -11 -18 -5 -18 17 0 34 38
29 68 l-4 27 -2 -29z"/>
<path d="M4642 2345 c0 -16 2 -22 5 -12 2 9 2 23 0 30 -3 6 -5 -1 -5 -18z"/>
<path d="M6851 2264 c0 -11 3 -14 6 -6 3 7 2 16 -1 19 -3 4 -6 -2 -5 -13z"/>
<path d="M7061 2244 c0 -11 3 -14 6 -6 3 7 2 16 -1 19 -3 4 -6 -2 -5 -13z"/>
<path d="M4471 2224 c0 -11 3 -14 6 -6 3 7 2 16 -1 19 -3 4 -6 -2 -5 -13z"/>
<path d="M5527 2219 c-3 -11 -1 -32 4 -46 8 -21 14 -24 46 -21 37 3 38 4 38
43 0 40 0 40 -41 43 -35 3 -42 0 -47 -19z"/>
<path d="M5877 2213 c-4 -3 -7 -21 -7 -39 0 -23 6 -37 20 -44 43 -23 73 8 63
64 -4 22 -11 26 -37 26 -18 0 -36 -3 -39 -7z"/>
<path d="M7056 2185 c-9 -26 -7 -32 5 -12 6 10 9 21 6 23 -2 3 -7 -2 -11 -11z"/>
<path d="M7049 2112 c-3 -20 -2 -29 4 -23 5 5 7 19 5 32 -3 20 -5 19 -9 -9z"/>
<path d="M6398 2103 c6 -2 18 -2 25 0 6 3 1 5 -13 5 -14 0 -19 -2 -12 -5z"/>
<path d="M5507 2023 c-9 -8 -9 -46 -1 -67 8 -20 67 -21 84 -1 7 9 9 26 5 45
-6 27 -10 30 -44 30 -21 0 -41 -3 -44 -7z"/>
<path d="M5878 2009 c-22 -12 -24 -62 -4 -79 20 -15 56 -9 70 12 15 24 -4 72
-29 75 -11 2 -28 -2 -37 -8z"/>
<path d="M6980 1979 c0 -5 5 -7 10 -4 6 3 10 8 10 11 0 2 -4 4 -10 4 -5 0 -10
-5 -10 -11z"/>
<path d="M6950 1922 c0 -12 3 -12 15 -2 8 7 15 13 15 15 0 1 -7 2 -15 2 -8 0
-15 -7 -15 -15z"/>
<path d="M6924 1882 c-10 -7 -27 -42 -20 -42 2 0 11 11 20 25 17 26 17 29 0
17z"/>
<path d="M5492 1818 c-7 -7 -12 -27 -12 -45 0 -26 5 -34 24 -39 47 -11 61 -2
64 42 3 36 0 42 -20 48 -33 8 -43 7 -56 -6z"/>
<path d="M5848 1773 c-6 -44 2 -62 28 -69 35 -9 56 12 52 55 -3 33 -6 36 -39
39 -33 3 -37 1 -41 -25z"/>
<path d="M6880 1791 c0 -10 19 -25 25 -20 1 2 -3 10 -11 17 -8 7 -14 8 -14 3z"/>
<path d="M6849 1679 c-16 -16 -20 -29 -16 -53 4 -24 1 -35 -14 -44 -19 -12
-49 -6 -61 12 -5 7 -8 7 -8 -2 0 -23 50 -34 76 -17 13 8 32 15 42 15 10 0 31
13 46 29 32 33 29 65 -7 75 -33 9 -35 8 -58 -15z"/>
<path d="M6760 1651 c0 -11 4 -22 9 -25 4 -3 6 6 3 19 -5 30 -12 33 -12 6z"/>
<path d="M5552 1568 c5 -14 76 -58 93 -58 9 1 -8 17 -62 60 -17 14 -35 12 -31
-2z"/>
<path d="M5763 1528 c-13 -6 -23 -18 -23 -26 0 -12 3 -12 15 -2 8 7 24 10 35
7 11 -3 18 -1 14 4 -3 5 2 9 10 9 9 0 16 5 16 10 0 13 -39 12 -67 -2z"/>
<path d="M6714 1480 c3 -19 28 -65 54 -102 26 -38 72 -104 104 -149 78 -112
91 -121 28 -19 -29 47 -82 132 -118 190 -77 125 -77 125 -68 80z"/>
<path d="M5761 1454 c0 -11 3 -14 6 -6 3 7 2 16 -1 19 -3 4 -6 -2 -5 -13z"/>
<path d="M5510 1223 c103 -10 220 -24 251 -29 19 -4 31 -4 28 -1 -12 14 -168
37 -239 35 -41 0 -59 -3 -40 -5z"/>
<path d="M4823 1135 c0 -22 2 -30 4 -17 2 12 2 30 0 40 -3 9 -5 -1 -4 -23z"/>
<path d="M5373 1128 c2 -7 15 -49 27 -93 13 -44 27 -84 31 -89 4 -5 13 11 19
35 21 84 32 109 44 109 15 0 66 -23 66 -30 0 -8 111 -5 145 3 27 7 31 5 32
-15 1 -13 5 -52 8 -88 l7 -65 21 40 c21 41 57 134 57 147 0 5 -35 8 -78 8 -90
0 -222 16 -302 36 -67 17 -83 18 -77 2z"/>
<path d="M4817 1055 c-4 -22 -6 -65 -6 -95 2 -51 2 -49 10 25 10 88 7 133 -4
70z"/>
<path d="M5698 1043 c7 -3 16 -2 19 1 4 3 -2 6 -13 5 -11 0 -14 -3 -6 -6z"/>
<path d="M4 530 c0 -118 2 -167 3 -108 2 60 2 156 0 215 -1 60 -3 11 -3 -107z"/>
<path d="M4921 664 c0 -11 3 -14 6 -6 3 7 2 16 -1 19 -3 4 -6 -2 -5 -13z"/>
<path d="M4762 600 c0 -14 2 -19 5 -12 2 6 2 18 0 25 -3 6 -5 1 -5 -13z"/>
<path d="M4 155 c0 -88 2 -123 3 -77 2 46 2 118 0 160 -1 42 -3 5 -3 -83z"/>
</g>
</svg>
